<svg width="28" height="28" viewBox="0 0 28 28" fill="none" xmlns="http://www.w3.org/2000/svg">
<rect width="28" height="28" rx="8" fill="#FBF0F2"/>
<path d="M19.7394 14.2761L19.7394 14.2761L19.1086 14.8865L19.2593 15.7561C19.2593 15.7562 19.2593 15.7563 19.2593 15.7565C19.3236 16.1267 19.1805 16.522 18.85 16.7563C18.5394 16.9823 18.1288 17.0146 17.7854 16.8351L19.7394 14.2761ZM19.7394 14.2761L19.7452 14.2704C20.0092 14.0064 20.1268 13.6052 19.9785 13.2211C19.8602 12.8735 19.5543 12.5984 19.1603 12.5465L18.2945 12.418L17.9082 11.6319C17.7382 11.2781 17.3843 11.0668 17 11.0668C16.611 11.0668 16.267 11.2811 16.0904 11.6181L16.0903 11.618L16.0846 11.6296L15.6979 12.4166L14.8231 12.5465C14.432 12.5979 14.1137 12.8658 13.9976 13.2432C13.8849 13.6012 13.979 14.0089 14.2627 14.2781L14.8914 14.8865L14.7407 15.7565L14.7407 15.7565L14.7402 15.7596C14.6747 16.1526 14.8412 16.5287 15.1451 16.7527L15.1476 16.7545C15.3205 16.8803 15.5226 16.9501 15.7417 16.9501C15.8886 16.9501 16.0569 16.9211 16.2193 16.8326L17 16.4253L17.7847 16.8347L19.7394 14.2761ZM6.17791 11.3111C6.17551 11.3052 6.17469 11.3013 6.17442 11.2998L6.17468 11.2951L6.17487 11.2873C6.21159 9.78176 6.49708 8.94847 7.03052 8.46243C7.57435 7.96692 8.49887 7.7168 10.125 7.7168H10.5917V9.73346C10.5917 10.3392 11.0869 10.8168 11.675 10.8168C12.2632 10.8168 12.7584 10.3392 12.7584 9.73346V7.7168H17.875C19.5658 7.7168 20.4963 7.98273 21.0319 8.51827C21.5674 9.05381 21.8334 9.98439 21.8334 11.6751V16.3251C21.8334 18.0159 21.5674 18.9465 21.0319 19.482C20.4963 20.0175 19.5658 20.2835 17.875 20.2835H12.7584V18.2668C12.7584 17.661 12.2632 17.1835 11.675 17.1835C11.0869 17.1835 10.5917 17.661 10.5917 18.2668V20.2835H10.125C8.49887 20.2835 7.57435 20.0333 7.03052 19.5378C6.49708 19.0518 6.21159 18.2185 6.17487 16.7129L6.17468 16.7052L6.17442 16.7005C6.17469 16.6989 6.17551 16.6951 6.17791 16.6892C6.18007 16.6839 6.18294 16.6784 6.18633 16.6732C6.18973 16.668 6.19294 16.6643 6.19524 16.662L6.20178 16.6555L6.20808 16.6487C6.21146 16.6451 6.21537 16.6421 6.22164 16.6396C6.22848 16.6367 6.24048 16.6335 6.25835 16.6335C7.7037 16.6335 8.88335 15.4404 8.88335 14.0001C8.88335 12.5599 7.7037 11.3668 6.25835 11.3668C6.23401 11.3668 6.22334 11.3627 6.22094 11.3617L6.22091 11.3617C6.21917 11.361 6.21531 11.3594 6.20808 11.3516L6.20178 11.3448L6.19524 11.3382C6.19294 11.3359 6.18973 11.3322 6.18633 11.3271C6.18294 11.3219 6.18007 11.3164 6.17791 11.3111Z" fill="#E12B41" stroke="#E12B41"/>
</svg>
