<svg width="28" height="28" viewBox="0 0 28 28" fill="none" xmlns="http://www.w3.org/2000/svg">
<rect width="28" height="28" rx="8" fill="#FBF0F2"/>
<path d="M22.3332 14.0003C22.3332 16.2105 21.4552 18.3301 19.8924 19.8929C18.3296 21.4557 16.21 22.3337 13.9998 22.3337C11.7897 22.3337 9.67008 21.4557 8.10728 19.8929C6.54448 18.3301 5.6665 16.2105 5.6665 14.0003C5.6665 13.8425 5.72922 13.6911 5.84085 13.5794C5.95247 13.4678 6.10388 13.4051 6.26174 13.4051C6.41961 13.4051 6.57101 13.4678 6.68264 13.5794C6.79427 13.6911 6.85698 13.8425 6.85698 14.0003C6.8546 15.5944 7.38472 17.1436 8.3632 18.4021C9.34169 19.6605 10.7125 20.5561 12.258 20.9466C13.8035 21.3371 15.4352 21.2003 16.894 20.5577C18.3528 19.9152 19.5553 18.8038 20.3105 17.3999C21.0656 15.9961 21.3303 14.3802 21.0624 12.8088C20.7945 11.2374 20.0094 9.80047 18.8317 8.72613C17.654 7.6518 16.1513 7.0016 14.5619 6.87874C12.9726 6.75587 11.3877 7.16738 10.0589 8.04795H10.4284C10.5863 8.04795 10.7377 8.11066 10.8493 8.22229C10.9609 8.33392 11.0236 8.48532 11.0236 8.64319C11.0236 8.80105 10.9609 8.95246 10.8493 9.06408C10.7377 9.17571 10.5863 9.23843 10.4284 9.23843H8.64269C8.56451 9.23847 8.48709 9.2231 8.41485 9.19321C8.34262 9.16331 8.27698 9.11947 8.2217 9.06418C8.16642 9.0089 8.12257 8.94327 8.09268 8.87103C8.06278 8.79879 8.04741 8.72137 8.04746 8.64319V6.85747C8.04746 6.69961 8.11017 6.5482 8.2218 6.43658C8.33343 6.32495 8.48483 6.26223 8.64269 6.26223C8.80056 6.26223 8.95196 6.32495 9.06359 6.43658C9.17522 6.5482 9.23793 6.69961 9.23793 6.85747V7.16338C10.4872 6.29265 11.9512 5.78097 13.4709 5.68393C14.9906 5.58689 16.5078 5.90821 17.8577 6.61297C19.2076 7.31774 20.3385 8.37898 21.1275 9.68139C21.9165 10.9838 22.3335 12.4776 22.3332 14.0003ZM19.357 14.0003C19.357 15.0599 19.0428 16.0956 18.4541 16.9766C17.8655 17.8576 17.0288 18.5442 16.0499 18.9497C15.071 19.3552 13.9939 19.4612 12.9547 19.2545C11.9155 19.0478 10.961 18.5376 10.2118 17.7884C9.46256 17.0392 8.95234 16.0846 8.74563 15.0455C8.53892 14.0063 8.64501 12.9291 9.05048 11.9502C9.45595 10.9714 10.1426 10.1347 11.0236 9.54603C11.9045 8.95738 12.9403 8.64319 13.9998 8.64319C15.4202 8.64474 16.7819 9.20965 17.7862 10.214C18.7905 11.2183 19.3554 12.58 19.357 14.0003ZM16.1157 14.6956L14.5951 13.6818V11.0241C14.5951 10.8663 14.5324 10.7149 14.4207 10.6032C14.3091 10.4916 14.1577 10.4289 13.9998 10.4289C13.842 10.4289 13.6906 10.4916 13.5789 10.6032C13.4673 10.7149 13.4046 10.8663 13.4046 11.0241V14.0003C13.4046 14.0983 13.4288 14.1948 13.4751 14.2812C13.5213 14.3676 13.5881 14.4412 13.6697 14.4956L15.4554 15.686C15.5867 15.7718 15.7466 15.8022 15.9003 15.7707C16.054 15.7392 16.189 15.6483 16.276 15.5178C16.363 15.3873 16.395 15.2277 16.365 15.0737C16.335 14.9197 16.2454 14.7838 16.1157 14.6956Z" fill="#E12B41"/>
</svg>
