<svg width="28" height="28" viewBox="0 0 28 28" fill="none" xmlns="http://www.w3.org/2000/svg">
<rect width="28" height="28" rx="8" fill="#FBF0F2"/>
<path d="M22.3334 14.517V16.2337C22.3334 16.7003 21.95 17.0837 21.475 17.0837H19.8667C18.9667 17.0837 18.1417 16.4253 18.0667 15.5253C18.0167 15.0003 18.2167 14.5087 18.5667 14.167C18.875 13.8503 19.3 13.667 19.7667 13.667H21.475C21.95 13.667 22.3334 14.0503 22.3334 14.517Z" fill="#E12B41"/>
<path d="M16.8165 15.6333C16.7415 14.7583 17.0582 13.9 17.6915 13.275C18.2248 12.7333 18.9665 12.4167 19.7665 12.4167H20.2415C20.4748 12.4167 20.6665 12.225 20.6332 11.9917C20.4082 10.375 19.0082 9.125 17.3332 9.125H8.99984C7.15817 9.125 5.6665 10.6167 5.6665 12.4583V18.2917C5.6665 20.1333 7.15817 21.625 8.99984 21.625H17.3332C19.0165 21.625 20.4082 20.375 20.6332 18.7583C20.6665 18.525 20.4748 18.3333 20.2415 18.3333H19.8665C18.2832 18.3333 16.9498 17.15 16.8165 15.6333ZM14.8332 13.9167H9.83317C9.4915 13.9167 9.20817 13.6417 9.20817 13.2917C9.20817 12.9417 9.4915 12.6667 9.83317 12.6667H14.8332C15.1748 12.6667 15.4582 12.95 15.4582 13.2917C15.4582 13.6333 15.1748 13.9167 14.8332 13.9167Z" fill="#E12B41"/>
<path d="M15.8419 7.31667C16.0585 7.54167 15.8669 7.875 15.5502 7.875H9.02521C8.11687 7.875 7.26687 8.14167 6.55854 8.6C6.23354 8.80833 5.79187 8.58333 5.95021 8.225C6.41687 7.13333 7.50854 6.375 8.76687 6.375H13.4502C14.4169 6.375 15.2752 6.71667 15.8419 7.31667Z" fill="#E12B41"/>
</svg>
