<svg width="28" height="28" viewBox="0 0 28 28" fill="none" xmlns="http://www.w3.org/2000/svg">
<rect width="28" height="28" rx="8" fill="#FBF0F2"/>
<path d="M14.762 6.19564C15.4455 5.51201 16.5804 5.46986 17.3223 6.19564L21.8029 10.6774C22.5099 11.3846 22.5099 12.5313 21.8029 13.2385C21.1195 13.9221 19.9846 13.9723 19.2426 13.2385L18.9226 12.9182L16.2509 15.5906C17.0569 17.7726 16.5172 20.4654 14.762 22.2021C14.5726 22.3895 14.2809 22.3651 14.1219 22.2021L10.2813 18.3602L7.4011 21.2417C7.22435 21.4185 6.93778 21.4185 6.76102 21.2417C6.59787 21.0785 6.5692 20.7949 6.76102 20.6014L9.64131 17.7201L5.8009 13.8787C5.63775 13.7155 5.60635 13.4331 5.8009 13.2385C7.51341 11.5255 10.1145 10.9124 12.41 11.7488L15.0818 9.07631L14.762 8.75667C14.0325 8.02318 14.0786 6.87928 14.762 6.19564Z" fill="#E12B41"/>
</svg>
