<svg width="28" height="28" viewBox="0 0 28 28" fill="none" xmlns="http://www.w3.org/2000/svg">
<rect width="28" height="28" rx="8" fill="#FBF0F2"/>
<path d="M8.94107 10.5938C8.79195 11.3576 8.69296 12.1676 8.64922 13.0117H6.21841C6.33617 12.1622 6.61096 11.348 6.98478 10.5938H8.94107Z" fill="#E12B41" stroke="#E12B41"/>
<path d="M8.9411 17.4062H6.98478C6.61096 16.652 6.33617 15.8378 6.21841 14.9883H8.64922C8.69297 15.8324 8.79197 16.6424 8.9411 17.4062Z" fill="#E12B41" stroke="#E12B41"/>
<path d="M13.5124 13.5117V10.0938H10.5709C10.3037 11.1281 10.1418 12.2903 10.1064 13.5117H13.5124Z" fill="#E12B41"/>
<path d="M13.5116 9.11654V5.66602C12.4423 5.96465 11.4952 7.33083 10.8701 9.11654H13.5116Z" fill="#E12B41"/>
<path d="M13.5116 22.3333V18.8828H10.8701C11.4952 20.6685 12.4423 22.0347 13.5116 22.3333Z" fill="#E12B41"/>
<path d="M14.4883 5.66602V9.11654H17.1297C16.5047 7.33083 15.5575 5.96465 14.4883 5.66602Z" fill="#E12B41"/>
<path d="M17.8942 13.5117C17.8588 12.2903 17.697 11.1281 17.4297 10.0938H14.4883V13.5117H17.8942Z" fill="#E12B41"/>
<path d="M13.5124 14.4883H10.1064C10.1419 15.7098 10.3037 16.8719 10.5709 17.9062H13.5124V14.4883Z" fill="#E12B41"/>
<path d="M18.1668 9.11644H20.6977C19.687 7.73385 18.2641 6.56582 16.6064 6.01562C17.2435 6.76771 17.7764 7.89867 18.1668 9.11644Z" fill="#E12B41"/>
<path d="M9.83366 18.8828H7.30273C8.31344 20.2654 9.73633 21.4334 11.394 21.9836C10.7569 21.2315 10.2241 20.1006 9.83366 18.8828Z" fill="#E12B41"/>
<path d="M9.83366 9.11644C10.2241 7.89867 10.7569 6.76771 11.394 6.01562C9.73633 6.56582 8.31344 7.73385 7.30273 9.11644H9.83366Z" fill="#E12B41"/>
<path d="M18.1668 18.8828C17.7764 20.1006 17.2435 21.2315 16.6064 21.9836C18.2641 21.4334 19.687 20.2654 20.6977 18.8828H18.1668Z" fill="#E12B41"/>
<path d="M14.4883 14.4883V17.9062H17.4297C17.697 16.8719 17.8588 15.7098 17.8942 14.4883H14.4883Z" fill="#E12B41"/>
<path d="M18.4395 10.0938C18.6887 11.1375 18.8382 12.2892 18.8703 13.5117H22.3334C22.2613 12.2826 21.8716 11.1229 21.3202 10.0938H18.4395Z" fill="#E12B41"/>
<path d="M14.4883 18.8828V22.3333C15.5575 22.0347 16.5047 20.6685 17.1297 18.8828H14.4883Z" fill="#E12B41"/>
<path d="M22.3334 14.4883H18.8703C18.8382 15.7108 18.6887 16.8625 18.4395 17.9062H21.3203C21.8716 16.8771 22.2613 15.7174 22.3334 14.4883Z" fill="#E12B41"/>
</svg>
