<svg width="28" height="28" viewBox="0 0 28 28" fill="none" xmlns="http://www.w3.org/2000/svg">
<rect width="28" height="28" rx="8" fill="#FBF0F2"/>
<path d="M19.0927 21.5965L19.0932 21.5968C19.6559 21.9102 20.056 21.8746 20.2858 21.7393C20.5159 21.6038 20.7416 21.2704 20.7416 20.6253V8.88486C20.7339 7.39171 19.5138 6.16699 18.0166 6.16699H9.98327C8.48525 6.16699 7.2666 7.39229 7.2666 8.88366V20.6253C7.2666 21.2648 7.49146 21.597 7.72242 21.733C7.95366 21.8692 8.35458 21.9052 8.91632 21.5961C8.91658 21.596 8.91684 21.5958 8.9171 21.5957L12.9814 19.3386L19.0927 21.5965ZM19.0927 21.5965L15.0279 19.3393M19.0927 21.5965L15.0279 19.3393M16.6778 12.5957C17.2652 12.3845 17.5627 11.7382 17.3539 11.1564C17.1428 10.5685 16.4963 10.2708 15.9143 10.4797L15.9138 10.4799C14.6817 10.9238 13.3265 10.9238 12.0944 10.4799L12.0939 10.4797C11.5086 10.2696 10.8707 10.5717 10.6499 11.1458L10.6498 11.1458L10.646 11.1564C10.4372 11.7381 10.7345 12.3843 11.3219 12.5956C12.1839 12.9067 13.0912 13.067 13.9999 13.067C14.9086 13.067 15.8159 12.9067 16.6778 12.5957ZM16.6778 12.5957C16.6776 12.5958 16.6774 12.5959 16.6772 12.5959L16.5083 12.1253M16.6778 12.5957C16.6778 12.5957 16.6779 12.5957 16.678 12.5956L16.5083 12.1253M16.5083 12.1253C16.8333 12.0087 16.9999 11.6503 16.8833 11.3253C16.7666 11.0003 16.4083 10.8337 16.0833 10.9503L16.5083 12.1253ZM15.0279 19.3393C14.7216 19.1658 14.3505 19.0941 14.0072 19.0941C13.6629 19.0941 13.2909 19.1663 12.9822 19.3382L15.0279 19.3393Z" fill="#E12B41" stroke="#E12B41"/>
</svg>
