<svg width="28" height="28" viewBox="0 0 28 28" fill="none" xmlns="http://www.w3.org/2000/svg">
<rect width="28" height="28" rx="8" fill="#FBF0F2"/>
<path d="M15.4452 6.86486L16.9122 9.81928C17.1123 10.2222 17.6457 10.625 18.0903 10.6922L20.7466 11.1398C22.447 11.4308 22.8471 12.6618 21.6246 13.8928L19.5573 15.9855C19.2128 16.3324 19.0128 17.0151 19.1239 17.5075L19.7129 20.0926C20.1797 22.1294 19.1017 22.924 17.3123 21.8608L14.8228 20.3724C14.3671 20.1038 13.6336 20.1038 13.1779 20.3724L10.6772 21.8496C8.88787 22.9128 7.8098 22.1182 8.27659 20.0814L8.86564 17.4963C8.97678 17.0151 8.77672 16.3324 8.43219 15.9743L6.37609 13.904C5.15355 12.673 5.55365 11.4308 7.2541 11.151L9.91036 10.7034C10.3549 10.625 10.8884 10.2333 11.0884 9.83047L12.5555 6.87605C13.3446 5.26454 14.6561 5.26454 15.4452 6.86486Z" fill="#E12B41"/>
</svg>
