<svg width="28" height="28" viewBox="0 0 28 28" fill="none" xmlns="http://www.w3.org/2000/svg">
<rect width="28" height="28" rx="8" fill="#FBF0F2"/>
<path d="M18.1665 7.33301H9.83317C7.33317 7.33301 5.6665 8.58301 5.6665 11.4997V14.4663C5.6665 14.7747 5.98317 14.9663 6.25817 14.8413C7.07484 14.4663 8.0165 14.3247 9.00817 14.4997C11.1998 14.8913 12.8082 16.9247 12.7498 19.1497C12.7415 19.4997 12.6915 19.8413 12.5998 20.1747C12.5332 20.433 12.7415 20.6747 13.0082 20.6747H18.1665C20.6665 20.6747 22.3332 19.4247 22.3332 16.508V11.4997C22.3332 8.58301 20.6665 7.33301 18.1665 7.33301ZM13.9998 16.083C12.8498 16.083 11.9165 15.1497 11.9165 13.9997C11.9165 12.8497 12.8498 11.9163 13.9998 11.9163C15.1498 11.9163 16.0832 12.8497 16.0832 13.9997C16.0832 15.1497 15.1498 16.083 13.9998 16.083ZM20.0415 15.6663C20.0415 16.008 19.7582 16.2913 19.4165 16.2913C19.0748 16.2913 18.7915 16.008 18.7915 15.6663V12.333C18.7915 11.9913 19.0748 11.708 19.4165 11.708C19.7582 11.708 20.0415 11.9913 20.0415 12.333V15.6663Z" fill="#E12B41"/>
<path d="M8.16683 15.667C6.32516 15.667 4.8335 17.1587 4.8335 19.0003C4.8335 19.6253 5.0085 20.217 5.31683 20.717C5.89183 21.6837 6.95016 22.3337 8.16683 22.3337C9.3835 22.3337 10.4418 21.6837 11.0168 20.717C11.3252 20.217 11.5002 19.6253 11.5002 19.0003C11.5002 17.1587 10.0085 15.667 8.16683 15.667ZM9.4085 19.6087H8.79183V20.2587C8.79183 20.6003 8.5085 20.8837 8.16683 20.8837C7.82516 20.8837 7.54183 20.6003 7.54183 20.2587V19.6087H6.92516C6.5835 19.6087 6.30016 19.3253 6.30016 18.9837C6.30016 18.642 6.5835 18.3587 6.92516 18.3587H7.54183V17.767C7.54183 17.4253 7.82516 17.142 8.16683 17.142C8.5085 17.142 8.79183 17.4253 8.79183 17.767V18.3587H9.4085C9.75016 18.3587 10.0335 18.642 10.0335 18.9837C10.0335 19.3253 9.7585 19.6087 9.4085 19.6087Z" fill="#E12B41"/>
</svg>
