<svg width="28" height="28" viewBox="0 0 28 28" fill="none" xmlns="http://www.w3.org/2000/svg">
<rect width="28" height="28" rx="8" fill="#FBF0F2"/>
<path d="M14.4162 18.065C15.5554 18.065 16.4789 17.155 16.4789 16.0325C16.4789 14.91 15.5554 14 14.4162 14C13.277 14 12.3535 14.91 12.3535 16.0325C12.3535 17.155 13.277 18.065 14.4162 18.065Z" fill="#E12B41"/>
<path d="M14.4165 19.0811C12.3497 19.0811 10.6665 20.4469 10.6665 22.1298C10.6665 22.2436 10.7573 22.333 10.8728 22.333H17.9602C18.0757 22.333 18.1665 22.2436 18.1665 22.1298C18.1665 20.4469 16.4833 19.0811 14.4165 19.0811Z" fill="#E12B41"/>
<path d="M8.27336 10.0927L9.45936 5.66699H10.9976L9.07577 11.4566H8.08157L8.27336 10.0927ZM7.19696 5.66699L8.38296 10.0927L8.58258 11.4566H7.57663L5.6665 5.66699H7.19696Z" fill="#E12B41"/>
<path d="M10.5945 10.8283C10.5945 10.6375 10.6623 10.4784 10.798 10.3512C10.9337 10.2213 11.1085 10.1563 11.3225 10.1563C11.5391 10.1563 11.7139 10.2213 11.847 10.3512C11.9827 10.4784 12.0506 10.6375 12.0506 10.8283C12.0506 11.0192 11.9827 11.1796 11.847 11.3095C11.7139 11.4367 11.5391 11.5003 11.3225 11.5003C11.1085 11.5003 10.9337 11.4367 10.798 11.3095C10.6623 11.1796 10.5945 11.0192 10.5945 10.8283Z" fill="#E12B41"/>
<path d="M14.4578 5.66699V11.4566H13.0878V5.66699H14.4578Z" fill="#E12B41"/>
<path d="M15.4481 10.8283C15.4481 10.6375 15.5159 10.4784 15.6516 10.3512C15.7873 10.2213 15.9622 10.1563 16.1761 10.1563C16.3927 10.1563 16.5676 10.2213 16.7006 10.3512C16.8363 10.4784 16.9042 10.6375 16.9042 10.8283C16.9042 11.0192 16.8363 11.1796 16.7006 11.3095C16.5676 11.4367 16.3927 11.5003 16.1761 11.5003C15.9622 11.5003 15.7873 11.4367 15.6516 11.3095C15.5159 11.1796 15.4481 11.0192 15.4481 10.8283Z" fill="#E12B41"/>
<path d="M20.1256 9.49226H18.7086V8.41466H20.1256C20.3187 8.41466 20.4752 8.38153 20.5953 8.31525C20.7153 8.24898 20.8027 8.15752 20.8575 8.04088C20.9149 7.92159 20.9436 7.78772 20.9436 7.63927C20.9436 7.48022 20.9149 7.33309 20.8575 7.19789C20.8027 7.0627 20.7153 6.95401 20.5953 6.87183C20.4752 6.787 20.3187 6.74459 20.1256 6.74459H19.2253V11.4566H17.8514V5.66699H20.1256C20.5822 5.66699 20.9749 5.75182 21.3037 5.92148C21.6351 6.09114 21.8896 6.32442 22.067 6.62132C22.2445 6.91557 22.3332 7.25224 22.3332 7.63132C22.3332 8.0051 22.2445 8.33116 22.067 8.60951C21.8896 8.88785 21.6351 9.10523 21.3037 9.26163C20.9749 9.41538 20.5822 9.49226 20.1256 9.49226Z" fill="#E12B41"/>
</svg>
