<svg width="40" height="40" viewBox="0 0 40 40" fill="none" xmlns="http://www.w3.org/2000/svg">
<mask id="mask0_3103_30713" style="mask-type:alpha" maskUnits="userSpaceOnUse" x="0" y="0" width="40" height="40">
<circle cx="20" cy="20" r="20" fill="#022964"/>
</mask>
<g mask="url(#mask0_3103_30713)">
<circle cx="20.9403" cy="23.5292" r="16.4706" fill="#E63C51"/>
<path opacity="0.1" d="M23.8782 45.6821L14.654 19.3546C19.0906 17.9515 24.1323 18.8192 27.9251 22.0938C33.752 27.1246 34.4234 35.9302 29.4279 41.7614C27.8749 43.5742 25.958 44.8857 23.8782 45.6821Z" fill="url(#paint0_linear_3103_30713)" stroke="url(#paint1_linear_3103_30713)"/>
<path opacity="0.1" d="M16.4572 33.2948L6.88429 6.25582" stroke="white"/>
<path opacity="0.1" fill-rule="evenodd" clip-rule="evenodd" d="M27.2683 56.8684C22.5585 58.5465 17.1019 57.7082 13.0331 54.1953C6.99794 48.9847 6.30128 39.863 11.4771 33.8212C13.2048 31.8045 15.3685 30.3859 17.709 29.5846L27.2683 56.8684Z" fill="url(#paint2_linear_3103_30713)"/>
<path d="M26.4928 21.6197C26.4928 21.6197 27.094 14.1188 23.2357 13.4837C19.3774 12.8485 18.8985 23.7815 22.1998 23.9411C25.5011 24.1008 26.4928 21.6197 26.4928 21.6197Z" fill="#FCD4D0"/>
<path opacity="0.1" d="M22.2002 23.9409C25.5049 24.1107 26.4898 21.6194 26.4898 21.6194C26.4898 21.6194 27.091 14.1185 23.2327 13.4834" fill="#111827"/>
<path d="M23.2361 22.0811V11.5082C23.2361 7.75146 20.1907 4.70605 16.4339 4.70605C12.6772 4.70605 9.63184 7.75146 9.63184 11.5082V22.0811C9.63184 25.8378 12.6772 28.8832 16.4339 28.8832C20.1907 28.8832 23.2361 25.8378 23.2361 22.0811Z" fill="#BFDBFE"/>
<path d="M22.1324 7.33984H10.7393V24.4234H22.1324V7.33984Z" fill="#EFF6FF"/>
<path d="M13.4505 6.57481C13.6793 6.57481 13.8649 6.3893 13.8649 6.16045C13.8649 5.93161 13.6793 5.74609 13.4505 5.74609C13.2216 5.74609 13.0361 5.93161 13.0361 6.16045C13.0361 6.3893 13.2216 6.57481 13.4505 6.57481Z" fill="#D93434"/>
<path opacity="0.3" d="M18.8778 6.01758H14.8514C14.7539 6.01758 14.6748 6.09665 14.6748 6.19419V6.21796C14.6748 6.3155 14.7539 6.39458 14.8514 6.39458H18.8778C18.9754 6.39458 19.0544 6.3155 19.0544 6.21796V6.19419C19.0544 6.09665 18.9754 6.01758 18.8778 6.01758Z" fill="#D93434"/>
<path opacity="0.1" d="M22.2695 16.6318C22.2695 16.6318 20.5407 17.0258 21.1215 18.7172C21.7023 20.4086 21.0621 22.7317 20.753 23.2259C19.3792 25.4098 20.0041 28.8826 20.0041 28.8826H23.2307C23.2307 28.8826 24.1053 17.8257 22.2695 16.6318Z" fill="#111827"/>
<path d="M16.467 19.1841C18.5248 19.1841 20.1929 17.516 20.1929 15.4583C20.1929 13.4005 18.5248 11.7324 16.467 11.7324C14.4093 11.7324 12.7412 13.4005 12.7412 15.4583C12.7412 17.516 14.4093 19.1841 16.467 19.1841Z" fill="#FB3737"/>
<path d="M16.5863 13.2383C16.7052 13.2383 16.7425 13.2807 16.7425 13.4081V13.6628C16.9523 13.6847 17.1521 13.7635 17.3203 13.8907C17.4886 14.0179 17.6188 14.1887 17.6969 14.3846C17.7598 14.5085 17.7343 14.5765 17.5933 14.6393L17.3386 14.7531C17.2197 14.8108 17.1688 14.7836 17.0958 14.6597C17.0423 14.5305 16.9487 14.4218 16.8289 14.3497C16.7091 14.2775 16.5693 14.2457 16.4301 14.2589C15.9885 14.2589 15.7865 14.3897 15.7865 14.6851C15.7983 14.7742 15.8403 14.8566 15.9055 14.9184C15.9707 14.9802 16.0552 15.0178 16.1448 15.0248C16.2681 15.0513 16.3928 15.0706 16.5184 15.0825C16.7541 15.0932 16.987 15.1384 17.2095 15.2167C17.321 15.254 17.4246 15.3116 17.5152 15.3865C17.6073 15.4832 17.679 15.5973 17.7263 15.7221C17.7735 15.8469 17.7953 15.9799 17.7903 16.1133C17.7903 16.6788 17.4116 17.0643 16.7425 17.1628V17.4328C16.7425 17.5517 16.7052 17.5941 16.5863 17.5941H16.301C16.1821 17.5941 16.1397 17.5517 16.1397 17.4328V17.1679C15.9071 17.1512 15.6846 17.0665 15.4998 16.9243C15.315 16.782 15.1761 16.5886 15.1004 16.3681C15.0893 16.3447 15.0837 16.3191 15.084 16.2932C15.0843 16.2674 15.0905 16.2419 15.1021 16.2188C15.1138 16.1957 15.1305 16.1756 15.1511 16.16C15.1717 16.1443 15.1956 16.1336 15.221 16.1286L15.4757 16.0352C15.6048 15.9894 15.6625 16.0199 15.7185 16.149C15.7712 16.2887 15.8685 16.4072 15.9952 16.4861C16.122 16.565 16.2713 16.5999 16.4199 16.5854C16.8988 16.5854 17.1365 16.436 17.1365 16.1286C17.1408 16.0579 17.1212 15.9878 17.0808 15.9296C17.0405 15.8714 16.9818 15.8285 16.9141 15.8076C16.7501 15.7495 16.5784 15.7163 16.4046 15.7092C16.1662 15.6944 15.9314 15.6434 15.7083 15.558C15.599 15.5194 15.4973 15.4619 15.4078 15.3882C15.3148 15.2962 15.2418 15.1859 15.1936 15.0643C15.1454 14.9428 15.1229 14.8125 15.1276 14.6817C15.1276 14.1213 15.4808 13.7477 16.1465 13.6628V13.4081C16.1465 13.2892 16.1889 13.2383 16.3078 13.2383H16.5863Z" fill="white"/>
<path d="M16.112 28.0559C16.8426 28.0559 17.4349 27.4637 17.4349 26.7331C17.4349 26.0024 16.8426 25.4102 16.112 25.4102C15.3813 25.4102 14.7891 26.0024 14.7891 26.7331C14.7891 27.4637 15.3813 28.0559 16.112 28.0559Z" fill="#E3EFFF"/>
<path d="M25.6153 19.9543C25.6153 19.9543 24.5709 16.1707 23.4077 15.8158C22.4533 15.5237 21.5108 17.227 22.5908 19.6758C22.8126 20.1695 22.9255 20.7051 22.922 21.2463C22.9185 21.7875 22.7986 22.3216 22.5704 22.8123C22.185 23.6343 21.9251 24.7228 22.3361 25.8793C23.2005 28.3128 25.5627 28.0428 26.5221 25.9302C27.4816 23.8177 27.3118 22.8157 25.6153 19.9543Z" fill="#FCD4D0"/>
<path d="M21.8027 26.1337L22.8335 40.407L31.2939 38.7835L27.04 24.5459L21.8027 26.1337Z" fill="#DE1515"/>
<path opacity="0.1" d="M26.1365 39.774L24.3025 25.375L21.8027 26.1341L22.8335 40.4074L26.1365 39.774Z" fill="#111827"/>
</g>
<defs>
<linearGradient id="paint0_linear_3103_30713" x1="14.0496" y1="19.0458" x2="23.6998" y2="46.2608" gradientUnits="userSpaceOnUse">
<stop stop-color="white" stop-opacity="0.9"/>
<stop offset="1" stop-color="white" stop-opacity="0.1"/>
</linearGradient>
<linearGradient id="paint1_linear_3103_30713" x1="14.0496" y1="19.0458" x2="23.6998" y2="46.2608" gradientUnits="userSpaceOnUse">
<stop stop-color="white" stop-opacity="0.9"/>
<stop offset="1" stop-color="white" stop-opacity="0.5"/>
</linearGradient>
<linearGradient id="paint2_linear_3103_30713" x1="17.2083" y1="29.7073" x2="26.8585" y2="56.9222" gradientUnits="userSpaceOnUse">
<stop stop-color="white" stop-opacity="0.1"/>
<stop offset="1" stop-color="white" stop-opacity="0.9"/>
</linearGradient>
</defs>
</svg>
