<svg version="1.2" xmlns="http://www.w3.org/2000/svg" viewBox="0 0 609 368" width="609" height="368">
  <defs>
    <linearGradient id="P" gradientUnits="userSpaceOnUse"/>
    <linearGradient id="g1" x1="306.2" y1="-7.8" x2="306.2" y2="271.7" href="#P">
      <stop offset=".4" stop-color="#f62d19"/>
      <stop offset="1" stop-color="#791715"/>
    </linearGradient>
    <linearGradient id="g2" x1="412.1" y1="-4.4" x2="412.1" y2="272.5" href="#P">
      <stop offset=".4" stop-color="#f62d19"/>
      <stop offset="1" stop-color="#791715"/>
    </linearGradient>
    <linearGradient id="g3" x1="593.5" y1="-5.1" x2="593.5" y2="272.9" href="#P">
      <stop offset=".4" stop-color="#f62d19"/>
      <stop offset="1" stop-color="#791715"/>
    </linearGradient>
  </defs>
  <style>
    .a{fill:#efe817}.b{fill:#231f20}
  </style>
  <path class="a" d="m443.5 105.7-1.7 2.6-.2-101.4 1.7-2.6z"/>
  <path class="b" d="m598 108.6-1.8 2.7c-17.5-61.5-59-86.5-90.6-96.7-21.1-6.8-40.7-8.1-52.8-8.1-5.4 0-9.3.2-11.2.4l1.7-2.6c1.9-.2 5.8-.5 11.2-.5 12.2 0 31.8 1.4 52.8 8.1 31.7 10.2 73.1 35.3 90.7 96.7z"/>
  <path class="a" d="M455.7 106.1c-4.7 0-9.4.7-13.9 2.2l1.7-2.6c4.5-1.5 9.2-2.3 14-2.3 7.1 0 13.9 1.8 19.9 4.8q-.8 1.3-1.7 2.6c-6-3-12.8-4.7-20-4.7z"/>
  <path class="b" d="m440.5 110-1.7 2.6-.2-108.4 1.7-2.6z"/>
  <path class="b" d="m442.6 109.2-1.8 2.6-2 .8 1.7-2.6z"/>
  <path class="a" d="M475.7 110.8q.9-1.3 1.7-2.6c14.5 7.3 24.4 22.3 24.4 39.5 0 9-2.7 17.5-7.4 24.5l-1.7 2.6c4.7-7 7.4-15.4 7.4-24.5 0-17.2-10-32.2-24.4-39.5z"/>
  <path class="b" d="m492 170.5-1.8 2.6c4.4-6.5 6.9-14.4 6.9-22.8-.1-22.7-18.6-41.2-41.4-41.2-5.1 0-10.1.9-14.9 2.7l1.8-2.6c4.7-1.8 9.7-2.8 14.9-2.8 22.7 0 41.3 18.5 41.3 41.3 0 8.4-2.5 16.3-6.8 22.8zm86.7 59.5-1.8 2.7c19.7-29.6 24.7-58.5 25.1-78.6.6-25.3-5.7-42.7-5.8-42.8l1.8-2.7c0 .2 6.3 17.6 5.7 42.9-.4 20.1-5.3 49-25 78.5zm2.5 1.7-1.8 2.6q-4.2 6.3-9.2 12.6l1.7-2.6q5.1-6.3 9.3-12.6z"/>
  <path class="a" d="M576.9 232.6q-4.6 7-10.3 14l1.7-2.7q5.8-6.9 10.4-13.9c-.5.8-1.2 1.8-1.8 2.6zm-8.6 11.3-1.7 2.7-1.5 1.7 1.8-2.6z"/>
  <path class="b" d="m569 246.3-1.7 2.6-2.2-.6 1.8-2.6zm-74.5-74.1-1.8 2.6c-7.9 11.9-21.5 19.7-36.8 19.7-4.8 0-9.5-.7-14-2.2l1.8-2.6c4.5 1.5 9.2 2.2 13.9 2.2 15.4 0 28.9-7.8 36.9-19.7zm109.7 189.6-1.7 2.6c.8-7.1 4-42.2-5.8-73.9-11.1-35.8-29.2-41.5-29.4-41.6l1.7-2.6c.2.1 18.4 5.8 29.5 41.6 9.8 31.7 6.5 66.8 5.7 73.9z"/>
  <path class="a" d="M508.4 336.6c-.1-12.7-5.3-24.3-13.7-32.7l1.8-2.6c8.4 8.4 13.6 20 13.6 32.7v1.6l-1 1.6-.4.6h-.1q0 .1-.1.2v.1q-.1 0-.1.1-.1 0-.1.1.1-.8.1-1.7zm-46.5-46.3c-6.8 0-13.6 1.6-19.8 4.5l1.7-2.6c6.2-2.9 13-4.5 19.9-4.5 12.8 0 24.3 5.2 32.8 13.6l-1.8 2.6c-8.4-8.4-20-13.6-32.8-13.6z"/>
  <path class="a" d="m443.8 292.2-1.7 2.6-.2-102.5 1.8-2.6z"/>
  <path class="b" d="m440.9 297.1-1.8 2.7-.2-111.8 1.7-2.7zm2.2-1.2-1.8 2.6-2.2 1.3 1.8-2.7z"/>
  <path class="a" d="M508.3 338.3q.1-.1.1-.2h.1l.2-.4.4-.6q.5-.7 1-1.5-.2 6.6-2.3 12.8-.4.8-.9 1.5l-.3.3c0 .1-.1.3-.2.4l-.1.1q0 .1-.1.2l-.1.1q2-6.2 2.2-12.7z"/>
  <path class="b" d="m499.6 358.5-1.7 2.6c5-7.5 7.5-15.8 7.5-24.5-.1-23.8-19.6-43.3-43.5-43.3-7.2 0-14.3 1.8-20.6 5.2l1.8-2.6c6.2-3.4 13.4-5.2 20.6-5.2 23.9 0 43.4 19.4 43.4 43.3 0 8.7-2.5 17-7.5 24.5z"/>
  <path class="a" d="M500.2 363.2q3.8-5.8 5.9-12.2.9-1.3 1.7-2.6-2 6.4-5.9 12.2c-.5.8-1.2 1.8-1.7 2.6z"/>
  <path class="b" d="m502.4 359.7-1.8 2.6q-.5.8-1.1 1.6l1.8-2.6q.6-.8 1.1-1.6z"/>
  <path class="a" d="m604.2 361.8-1.7 2.6H499.4l1.7-2.6z"/>
  <path fill-rule="evenodd" class="b" d="M601.3 287c11.1 35.9 5.8 76.1 5.7 76.5l-.1 1.3H496.6l.9-2.1s.5-1 1-2.7c5.7-7.8 8.6-16.7 8.6-26 0-23.9-19.5-43.3-43.4-43.3-7.2 0-14.4 1.8-20.6 5.2l-2.2 1.2-.3-111.8 2.1.8c4.8 1.9 9.8 2.8 14.9 2.8 22.8 0 41.3-18.5 41.2-41.2 0-22.8-18.6-41.3-41.3-41.3-5.2 0-10.2 1-14.9 2.8l-2.1.8-.2-108.4 1.3-.2c.1 0 5-.5 12.9-.5 12.3 0 32.3 1.3 53.7 8.2 20.6 6.6 38.5 17 53.1 30.9 18.3 17.3 31.6 40.1 39.5 67.7.5 1.3 6.5 18.4 6 43.7-.5 23.4-7 58.4-34.9 92.9 5.3 2.5 19.9 12 29.4 42.7zm2.9 74.8c.8-7.1 4.1-42.2-5.7-73.9-11.1-35.8-29.3-41.5-29.5-41.6l-2.1-.6 1.4-1.8c28.4-34.2 35-69.2 35.4-92.4.6-25.3-5.7-42.7-5.7-42.9-17.6-61.4-59-86.5-90.7-96.7-21-6.7-40.6-8.1-52.8-8.1-5.4 0-9.3.3-11.2.5l.2 101.4c4.5-1.5 9.2-2.3 14-2.3 24.4 0 44.3 19.9 44.3 44.3.1 24.4-19.8 44.2-44.2 44.2-4.7 0-9.4-.7-13.9-2.2l.1 102.5c6.2-2.9 13-4.5 19.9-4.5 25.5 0 46.4 20.8 46.4 46.3 0 9.9-3 19.3-8.8 27.3z"/>
  <path class="a" d="M454.5 3.8c12.2 0 31.8 1.4 52.8 8.1 31.7 10.2 73.1 35.3 90.6 96.6.1.3 6.4 17.7 5.8 43-.4 23.2-7 58.2-35.4 92.4l-1.4 1.8 2.1.6c.2.1 18.4 5.8 29.5 41.6 9.8 31.7 6.5 66.8 5.7 73.9H501.1c6-8.5 9-17.9 9-27.8 0-25.5-20.9-46.3-46.4-46.3-6.9 0-13.7 1.6-19.9 4.5l-.1-102.5c4.5 1.5 9.2 2.2 13.9 2.2 24.4 0 44.3-19.8 44.2-44.2 0-24.4-19.9-44.3-44.3-44.3-4.8 0-9.5.8-14 2.3l-.2-101.4c1.9-.2 5.8-.5 11.2-.5z"/>
  <path class="b" d="m497.5 362.7-1.7 2.6s.4-1 1-2.6l1.7-2.7c-.5 1.7-1 2.7-1 2.7z"/>
  <path class="b" d="m496.6 364.8-1.7 2.6.9-2.1 1.7-2.6z"/>
  <path class="b" d="m606.9 364.8-1.8 2.6H494.9l1.7-2.6zM424.4 4.6l-1.7 2.6H301l1.7-2.6zm-153-3.4-1.8 2.6-2.8 2.6 1.8-2.6z"/>
  <path class="a" d="M262.2 6.8c-3.8 4-11.2 12.2-18.9 23.7l1.8-2.6c7.6-11.5 15.1-19.8 18.9-23.7-.6.8-1.3 1.8-1.8 2.6z"/>
  <path class="b" d="m245.8 32.2 1.8-2.6c10.6-16 20.9-25.7 21-25.8l-1.8 2.6c-.1.1-10.3 9.8-21 25.8zm18.2-28-1.8 2.6H3.7l1.7-2.6zM2.5 2.6.7 5.3l.1-1.5 1.7-2.6zm297.6 209-1.7 2.6-.4-210 1.7-2.6z"/>
  <path class="a" d="m303.1 214.4-1.7 2.7L301 7.2l1.7-2.6z"/>
  <path class="b" d="m303.1 214.4-1.7 2.7-1.4.1 1.8-2.6zM243.3 30.6l1.8-2.7c-3.1 4.6-6.1 9.6-9 15.1-12.2 23.3-23.6 59.4-8.3 98.9 15.2 39.4 34.4 57 47.8 64.9 12.1 7.1 21.6 7.8 26.2 7.8l-1.8 2.6c-4.5 0-14.1-.7-26.2-7.8-13.4-7.9-32.5-25.5-47.8-64.9-15.2-39.5-3.9-75.6 8.4-98.9 2.8-5.4 5.9-10.5 8.9-15zm181.8 331.5-1.8 2.7-.6-357.6 1.7-2.6z"/>
  <path class="a" d="m425.1 362.1-1.8 2.7H300.2l1.7-2.7z"/>
  <path class="b" d="m428.1 365.1-1.8 2.7H300.2l1.7-2.7z"/>
  <path class="a" d="M3.8 67.6c-1-17.6-1-36.3-.1-60.8l1.7-2.6c-.9 24.4-.8 43.2.2 60.7 2.5 45.2 11.7 102.3 55.5 162.9l-1.8 2.6C15.5 169.8 6.3 112.8 3.8 67.6z"/>
  <path class="a" d="M264 4.2c-5.3 5.5-17.8 19.5-27.9 38.8-12.2 23.3-23.6 59.4-8.3 98.9 15.2 39.4 34.4 57 47.8 64.9 12.1 7.1 21.6 7.8 24.9 7.8l2.6-.2-.4-209.8h121.7l.7 357.5H301.9s-2.7 0-7.6-.4c-27.1-2.1-121.2-15-197.1-91.6-75.3-76-88.5-149.5-91.6-205.2-1-17.5-1.1-36.3-.2-60.7z"/>
  <path class="a" d="M95.5 272.8c-14.1-14.3-26.1-28.4-36.2-42.4l1.8-2.6c10.1 13.9 22 28.1 36.1 42.3 75.9 76.6 170 89.5 197.1 91.6 4.9.4 7.6.4 7.6.4l-1.7 2.7s-2.8-.1-7.6-.5c-27.1-2.1-121.3-15-197.1-91.5z"/>
  <path fill-rule="evenodd" class="b" d="M299.7 1.6h127.7l.7 363.5H301.9c-.1 0-2.9 0-7.8-.4-27.3-2.1-122.4-15.2-199-92.5C19 195.5 5.7 121.2 2.6 65.1c-1.3-23-.8-45.5-.1-62.5V1.2h268.9l-2.8 2.6c-.2.2-16.9 16-29.9 40.7-11.9 22.7-23 57.9-8.1 96.3 25.5 66.1 62 70.6 69.5 70.8zM425 362.1l-.6-357.5H302.7l.4 209.8-1.4.1c-4.5.1-14-.6-26.1-7.7-13.4-7.9-32.6-25.5-47.8-64.9-15.3-39.5-3.9-75.6 8.3-98.9 10.1-19.3 22.5-33.3 27.8-38.8H5.4c-.9 24.4-.8 43.2.1 60.7 3.2 55.6 16.4 129.2 91.7 205.2 75.9 76.6 170 89.5 197.1 91.6 4.8.4 7.6.4 7.6.4z"/>
  <path class="b" d="m301.9 365.1-1.7 2.7c-.2 0-2.9-.1-7.9-.5-27.3-2.1-122.4-15.2-198.9-92.4C17.3 198.1 4 123.9.8 67.7-.5 44.7.1 22.2.7 5.3l1.8-2.7c-.7 17-1.2 39.5.1 62.5C5.7 121.2 19 195.5 95.1 272.2c76.6 77.3 171.7 90.4 199 92.5 4.9.4 7.7.4 7.8.4z"/>
  <path d="M304.2 239v107.4q-.5 0-1.1-.1-1.1 0-2.3-.1C138.6 334.6 16.8 206 18.5 44V19.1H56c49.5 0 108.5 0 158 .1 4.1 0 8.2.3 14.5.6-2.3 4.9-3.5 7.7-4.9 10.3-42.2 78.5-8.9 181.6 76.2 207.8 1.4.4 2.9.8 4.4 1.1z" style="fill:url(#g1)"/>
  <path d="M410.1 346.3H322V21.9h88.1z" style="fill:url(#g2)"/>
  <path d="M589.7 346.7h-65.4q.4-3.8.5-7.8c0-35.1-28.2-63.6-63.1-64.3v-68.3c31.3-2.4 55.9-28.5 55.9-60.5 0-31.9-24.6-58-55.9-60.5V22.2q108.3 1 122.7 107.2 12.8 57.5-36.5 117.1 52.8 23.7 41.8 100.2z" style="fill:url(#g3)"/>
  <path class="a" d="M359.6 255.1h57.9v7.2h-29v49.6h21.6v7.1h-21.6v27.4h-7.1v-46.8H322v-7.1h59.4v-30.2h-29v-43.7H322v-7.1h58v-34.3h-15.9v-34.4H322v-7.1h42.1V68H322v-7.1h21.4v-39h7.1v39h59.6V68h-38.8v102h42.1v7.2h-26.3v41.4h-27.5zM538.7 81.4v40.8h47.2v7.2h-36.4v14.4h-36.2v-7.1h29v-7.3h-10.7v-26.2h-41.9v-7.1h41.9V74.2h47.2v7.2zm54.9 242.1v7.2h-53.4v-63.2h-36.6v27.7h-7.2v-34.9h18.1v-27.1h-67.7v-7.1h67.7v-33.2h-20.7v-7.2h89v7.2h-61.2v67.4h55.6v7.2h-29.9v56zM545.9 54.4H461v-7.2h84.9z"/>
</svg>
