<svg width="36" height="36" viewBox="0 0 36 36" fill="none" xmlns="http://www.w3.org/2000/svg">
<circle cx="18" cy="17.9998" r="15.3333" fill="#E12B41" stroke="#FBF0F2" stroke-width="4"/>
<path d="M21.4648 20.1147V21.3335H15.6875V20.2905L18.459 17.2964C18.748 16.9683 18.9766 16.6831 19.1445 16.4409C19.3125 16.1987 19.4316 15.98 19.502 15.7847C19.5762 15.5854 19.6133 15.396 19.6133 15.2163C19.6133 14.9546 19.5664 14.7261 19.4727 14.5308C19.3789 14.3315 19.2422 14.1772 19.0625 14.0679C18.8867 13.9585 18.6699 13.9038 18.4121 13.9038C18.127 13.9038 17.8828 13.9702 17.6797 14.103C17.4805 14.2319 17.3281 14.4116 17.2227 14.6421C17.1211 14.8726 17.0703 15.1362 17.0703 15.4331H15.5176C15.5176 14.9292 15.6348 14.4702 15.8691 14.0562C16.1035 13.6382 16.4395 13.3042 16.877 13.0542C17.3145 12.8042 17.834 12.6792 18.4355 12.6792C19.0215 12.6792 19.5176 12.7769 19.9238 12.9722C20.3301 13.1636 20.6387 13.437 20.8496 13.7925C21.0605 14.1479 21.166 14.5718 21.166 15.064C21.166 15.3374 21.1211 15.6069 21.0312 15.8726C20.9414 16.1382 20.8145 16.4019 20.6504 16.6636C20.4902 16.9214 20.2988 17.1831 20.0762 17.4487C19.8535 17.7144 19.6055 17.9858 19.332 18.2632L17.668 20.1147H21.4648Z" fill="white"/>
</svg>
