<svg width="36" height="36" viewBox="0 0 36 36" fill="none" xmlns="http://www.w3.org/2000/svg">
<circle cx="18" cy="17.9998" r="15.3333" fill="#E12B41" stroke="#FBF0F2" stroke-width="4"/>
<path d="M17.3809 16.3823H18.2539C18.5625 16.3823 18.8164 16.3296 19.0156 16.2241C19.2188 16.1147 19.3691 15.9663 19.4668 15.7788C19.5684 15.5874 19.6191 15.3667 19.6191 15.1167C19.6191 14.8706 19.5742 14.6577 19.4844 14.478C19.3945 14.2944 19.2578 14.1538 19.0742 14.0562C18.8945 13.9546 18.6641 13.9038 18.3828 13.9038C18.1562 13.9038 17.9473 13.9487 17.7559 14.0386C17.5684 14.1284 17.418 14.2573 17.3047 14.4253C17.1953 14.5894 17.1406 14.7866 17.1406 15.0171H15.5879C15.5879 14.5562 15.709 14.1519 15.9512 13.8042C16.1973 13.4526 16.5293 13.1772 16.9473 12.978C17.3652 12.7788 17.832 12.6792 18.3477 12.6792C18.9102 12.6792 19.4023 12.7729 19.8242 12.9604C20.25 13.144 20.5801 13.4155 20.8145 13.7749C21.0527 14.1343 21.1719 14.5796 21.1719 15.1108C21.1719 15.3647 21.1113 15.6187 20.9902 15.8726C20.873 16.1226 20.6992 16.3491 20.4688 16.5522C20.2422 16.7515 19.9629 16.9136 19.6309 17.0386C19.3027 17.1597 18.9258 17.2202 18.5 17.2202H17.3809V16.3823ZM17.3809 17.5776V16.7515H18.5C18.9805 16.7515 19.3965 16.8081 19.748 16.9214C20.1035 17.0308 20.3965 17.187 20.627 17.3901C20.8574 17.5894 21.0273 17.8218 21.1367 18.0874C21.25 18.353 21.3066 18.6382 21.3066 18.9429C21.3066 19.3413 21.2324 19.6968 21.084 20.0093C20.9355 20.3179 20.7266 20.5796 20.457 20.7944C20.1914 21.0093 19.8789 21.1733 19.5195 21.2866C19.1602 21.396 18.7715 21.4507 18.3535 21.4507C17.9902 21.4507 17.6367 21.4019 17.293 21.3042C16.9531 21.2026 16.6465 21.0522 16.373 20.853C16.0996 20.6499 15.8828 20.396 15.7227 20.0913C15.5625 19.7827 15.4824 19.4253 15.4824 19.019H17.0352C17.0352 19.2534 17.0918 19.4624 17.2051 19.646C17.3223 19.8296 17.4824 19.9741 17.6855 20.0796C17.8926 20.1812 18.125 20.2319 18.3828 20.2319C18.668 20.2319 18.9121 20.1812 19.1152 20.0796C19.3223 19.9741 19.4805 19.8257 19.5898 19.6343C19.6992 19.439 19.7539 19.2065 19.7539 18.937C19.7539 18.6167 19.6934 18.3569 19.5723 18.1577C19.4512 17.9585 19.2773 17.812 19.0508 17.7183C18.8281 17.6245 18.5625 17.5776 18.2539 17.5776H17.3809Z" fill="white"/>
</svg>
