<svg width="28" height="28" viewBox="0 0 28 28" fill="none" xmlns="http://www.w3.org/2000/svg">
<rect width="28" height="28" rx="8" fill="white"/>
<path d="M21.8251 10.5069V10.5083V17.4917C21.8251 18.9089 21.4046 19.9801 20.6882 20.6964C19.9718 21.4128 18.9006 21.8333 17.4834 21.8333H10.5084C9.09119 21.8333 8.02017 21.4128 7.30386 20.6956C6.58747 19.9783 6.16675 18.9051 6.16675 17.4833V10.5083C6.16675 9.09109 6.58726 8.01992 7.30363 7.30354C8.02001 6.58717 9.09118 6.16666 10.5084 6.16666H17.4917C18.9091 6.16666 19.9801 6.58721 20.6953 7.30332C21.4104 8.01933 21.829 9.09004 21.8251 10.5069ZM19.1987 15.9114L19.1987 15.9114L19.2026 15.9024C19.3198 15.6238 19.3213 15.3226 19.2161 15.0521L19.2163 15.052L19.2109 15.0393C19.0898 14.7516 18.8651 14.5474 18.6115 14.4348L18.6029 14.4309L18.5941 14.4274C18.4631 14.375 18.3249 14.3417 18.1667 14.3417H9.83341C9.21561 14.3417 8.70841 14.8488 8.70841 15.4667C8.70841 16.0845 9.2156 16.5917 9.83341 16.5917H15.4513L14.9132 17.1298C14.4763 17.5667 14.4763 18.2833 14.9132 18.7202C15.1369 18.9439 15.4246 19.05 15.7084 19.05C15.9922 19.05 16.2799 18.9439 16.5036 18.7202L18.962 16.2619C19.0732 16.1506 19.1465 16.0287 19.1987 15.9114ZM9.38868 13.5652L9.3973 13.5691L9.40605 13.5726C9.53709 13.625 9.67529 13.6583 9.83341 13.6583H18.1667C18.7846 13.6583 19.2917 13.1511 19.2917 12.5333C19.2917 11.9155 18.7846 11.4083 18.1667 11.4083H12.5489L13.087 10.8702C13.5239 10.4333 13.5239 9.7167 13.087 9.27977C12.65 8.84284 11.9335 8.84284 11.4965 9.27977L9.03819 11.7381C8.92937 11.8469 8.86061 11.9631 8.813 12.0488L8.80221 12.0683L8.79318 12.0886C8.66973 12.3663 8.66905 12.6869 8.79116 12.9652C8.91274 13.2505 9.13642 13.4531 9.38868 13.5652Z" fill="#9B9A9A" stroke="#9B9A9A"/>
</svg>
