<svg width="28" height="28" viewBox="0 0 28 28" fill="none" xmlns="http://www.w3.org/2000/svg">
<rect width="28" height="28" rx="8" fill="white"/>
<path d="M19.625 10.6667V12.4167C19.2583 12.3667 18.8417 12.3417 18.375 12.3333V10.6667C18.375 8.04166 17.6333 6.29166 14 6.29166C10.3667 6.29166 9.625 8.04166 9.625 10.6667V12.3333C9.15833 12.3417 8.74167 12.3667 8.375 12.4167V10.6667C8.375 8.24999 8.95833 5.04166 14 5.04166C19.0417 5.04166 19.625 8.24999 19.625 10.6667Z" fill="#9B9A9A"/>
<path d="M19.6251 12.4167C19.2584 12.3667 18.8417 12.3417 18.3751 12.3333H9.62508C9.15841 12.3417 8.74175 12.3667 8.37508 12.4167C6.25008 12.675 5.66675 13.7167 5.66675 16.5V18.1667C5.66675 21.5 6.50008 22.3333 9.83342 22.3333H18.1667C21.5001 22.3333 22.3334 21.5 22.3334 18.1667V16.5C22.3334 13.7167 21.7501 12.675 19.6251 12.4167ZM11.2584 17.925C11.1001 18.075 10.8834 18.1667 10.6667 18.1667C10.5584 18.1667 10.4501 18.1417 10.3501 18.1C10.2417 18.0583 10.1584 18 10.0751 17.925C9.92508 17.7667 9.83342 17.55 9.83342 17.3333C9.83342 17.225 9.85841 17.1167 9.90008 17.0167C9.94175 16.9167 10.0001 16.825 10.0751 16.7417C10.1584 16.6667 10.2417 16.6083 10.3501 16.5667C10.6584 16.4333 11.0251 16.5083 11.2584 16.7417C11.3334 16.825 11.3917 16.9167 11.4334 17.0167C11.4751 17.1167 11.5001 17.225 11.5001 17.3333C11.5001 17.55 11.4084 17.7667 11.2584 17.925ZM14.7667 17.65C14.7251 17.75 14.6667 17.8417 14.5917 17.925C14.4334 18.075 14.2167 18.1667 14.0001 18.1667C13.7751 18.1667 13.5667 18.075 13.4084 17.925C13.3334 17.8417 13.2751 17.75 13.2334 17.65C13.1917 17.55 13.1667 17.4417 13.1667 17.3333C13.1667 17.1083 13.2584 16.9 13.4084 16.7417C13.7167 16.4333 14.2751 16.4333 14.5917 16.7417C14.7417 16.9 14.8334 17.1083 14.8334 17.3333C14.8334 17.4417 14.8084 17.55 14.7667 17.65ZM17.9251 17.925C17.7667 18.075 17.5501 18.1667 17.3334 18.1667C17.1167 18.1667 16.9001 18.075 16.7417 17.925C16.5917 17.7667 16.5001 17.5583 16.5001 17.3333C16.5001 17.1083 16.5917 16.9 16.7417 16.7417C17.0584 16.4333 17.6167 16.4333 17.9251 16.7417C17.9584 16.7833 17.9917 16.825 18.0251 16.875C18.0584 16.9167 18.0834 16.9667 18.1001 17.0167C18.1251 17.0667 18.1417 17.1167 18.1501 17.1667C18.1584 17.225 18.1667 17.2833 18.1667 17.3333C18.1667 17.55 18.0751 17.7667 17.9251 17.925Z" fill="#9B9A9A"/>
</svg>
