<svg width="20" height="20" viewBox="0 0 20 20" fill="none" xmlns="http://www.w3.org/2000/svg">
<path d="M8.541 2.52529C8.28483 2.80645 7.88838 2.91268 7.52596 2.79727C6.41844 2.44459 5.2475 3.12063 4.99917 4.25611C4.9179 4.62768 4.62768 4.9179 4.25611 4.99917C3.12063 5.2475 2.44459 6.41844 2.79727 7.52596C2.91268 7.88838 2.80645 8.28483 2.52529 8.541C1.6661 9.3238 1.6661 10.6759 2.52529 11.4587C2.80645 11.7148 2.91268 12.1113 2.79727 12.4737C2.44459 13.5812 3.12063 14.7522 4.25611 15.0005C4.62768 15.0818 4.9179 15.372 4.99917 15.7436C5.2475 16.879 6.41844 17.5551 7.52596 17.2024C7.88838 17.087 8.28483 17.1932 8.541 17.4744C9.3238 18.3336 10.6759 18.3336 11.4587 17.4744C11.7148 17.1932 12.1113 17.087 12.4737 17.2024C13.5812 17.5551 14.7522 16.879 15.0005 15.7436C15.0818 15.372 15.372 15.0818 15.7436 15.0005C16.879 14.7522 17.5551 13.5812 17.2024 12.4737C17.087 12.1113 17.1932 11.7148 17.4744 11.4587C18.3336 10.6759 18.3336 9.3238 17.4744 8.541C17.1932 8.28483 17.087 7.88838 17.2024 7.52596C17.5551 6.41844 16.879 5.2475 15.7436 4.99917C15.372 4.9179 15.0818 4.62768 15.0005 4.25611C14.7522 3.12063 13.5812 2.44459 12.4737 2.79727C12.1113 2.91268 11.7148 2.80645 11.4587 2.52529C10.6759 1.6661 9.3238 1.6661 8.541 2.52529Z" fill="#3789FD" stroke="white"/>
<path d="M6.6665 10.121L9.08454 12.5L14.1665 7.5" stroke="white" stroke-width="1.5" stroke-linecap="round"/>
</svg>
