<svg width="24" height="24" viewBox="0 0 24 24" fill="none" xmlns="http://www.w3.org/2000/svg">
<path d="M18.5625 4.5H15.125V3.875C15.125 2.83945 14.2855 2 13.25 2H10.75C9.71445 2 8.875 2.83945 8.875 3.875V4.5H5.4375C4.57457 4.5 3.875 5.19957 3.875 6.0625V7.3125C3.875 7.6577 4.1548 7.9375 4.5 7.9375H19.5C19.8452 7.9375 20.125 7.6577 20.125 7.3125V6.0625C20.125 5.19957 19.4254 4.5 18.5625 4.5ZM10.125 3.875C10.125 3.53047 10.4055 3.25 10.75 3.25H13.25C13.5945 3.25 13.875 3.53047 13.875 3.875V4.5H10.125V3.875Z" fill="#FF311C"/>
<path d="M5.06054 9.1875C4.94902 9.1875 4.86015 9.2807 4.86546 9.39211L5.38109 20.2141C5.42874 21.2156 6.2514 22 7.25374 22H16.7451C17.7475 22 18.5701 21.2156 18.6178 20.2141L19.1334 9.39211C19.1387 9.2807 19.0499 9.1875 18.9384 9.1875H5.06054ZM14.4994 10.75C14.4994 10.4047 14.7791 10.125 15.1244 10.125C15.4698 10.125 15.7494 10.4047 15.7494 10.75V18.875C15.7494 19.2203 15.4698 19.5 15.1244 19.5C14.7791 19.5 14.4994 19.2203 14.4994 18.875V10.75ZM11.3744 10.75C11.3744 10.4047 11.6541 10.125 11.9994 10.125C12.3448 10.125 12.6244 10.4047 12.6244 10.75V18.875C12.6244 19.2203 12.3448 19.5 11.9994 19.5C11.6541 19.5 11.3744 19.2203 11.3744 18.875V10.75ZM8.24945 10.75C8.24945 10.4047 8.52913 10.125 8.87444 10.125C9.21976 10.125 9.49944 10.4047 9.49944 10.75V18.875C9.49944 19.2203 9.21976 19.5 8.87444 19.5C8.52913 19.5 8.24945 19.2203 8.24945 18.875V10.75Z" fill="#FF311C"/>
</svg>
