<svg width="12" height="12" viewBox="0 0 12 12" fill="none" xmlns="http://www.w3.org/2000/svg">
<g clip-path="url(#clip0_2618_15863)">
<path fill-rule="evenodd" clip-rule="evenodd" d="M6 0C2.68629 0 0 2.68629 0 6C0 9.31371 2.68629 12 6 12C9.31371 12 12 9.31371 12 6C12 4.4087 11.3679 2.88258 10.2426 1.75736C9.11742 0.632141 7.5913 0 6 0ZM8.72749 4.8525L5.72749 7.8525C5.53247 8.04637 5.2175 8.04637 5.02249 7.8525L3.27249 6.1025C3.1026 5.90412 3.11402 5.60841 3.2987 5.42372C3.48339 5.23904 3.77911 5.22761 3.97749 5.3975L5.37499 6.7925L8.02249 4.1475C8.22087 3.97761 8.51658 3.98904 8.70127 4.17372C8.88595 4.35841 8.89738 4.65412 8.72749 4.8525Z" fill="#28CE6A"/>
</g>
<defs>
<clipPath id="clip0_2618_15863">
<rect width="12" height="12" fill="white"/>
</clipPath>
</defs>
</svg>
