<svg width="24" height="24" viewBox="0 0 24 24" fill="none" xmlns="http://www.w3.org/2000/svg">
<path d="M20.5 10.19H17.61C15.24 10.19 13.31 8.26 13.31 5.89V3C13.31 2.45 12.86 2 12.31 2H8.07C4.99 2 2.5 4 2.5 7.57V16.43C2.5 20 4.99 22 8.07 22H15.93C19.01 22 21.5 20 21.5 16.43V11.19C21.5 10.64 21.05 10.19 20.5 10.19Z" fill="#F6BB22"/>
<path d="M15.8 2.20999C15.39 1.79999 14.68 2.07999 14.68 2.64999V6.13999C14.68 7.59999 15.92 8.80999 17.43 8.80999C18.38 8.81999 19.7 8.81999 20.83 8.81999C21.4 8.81999 21.7 8.14999 21.3 7.74999C19.86 6.29999 17.28 3.68999 15.8 2.20999Z" fill="#F6BB22"/>
<path d="M5.50537 15.4893V12.0234H6.44531V15.4893C6.44531 15.8197 6.37354 16.1034 6.22998 16.3403C6.08643 16.575 5.89046 16.755 5.64209 16.8804C5.39372 17.0057 5.11344 17.0684 4.80127 17.0684C4.47998 17.0684 4.19515 17.0148 3.94678 16.9077C3.6984 16.7983 3.50358 16.632 3.3623 16.4087C3.22331 16.1854 3.15381 15.9017 3.15381 15.5576H4.09717C4.09717 15.7445 4.12565 15.8949 4.18262 16.0088C4.23958 16.1227 4.32048 16.2048 4.42529 16.2549C4.53239 16.305 4.65771 16.3301 4.80127 16.3301C4.94027 16.3301 5.06217 16.2982 5.16699 16.2344C5.27409 16.1683 5.35726 16.0726 5.4165 15.9473C5.47575 15.8219 5.50537 15.6693 5.50537 15.4893Z" fill="white"/>
<path d="M9.29248 15.1851H8.01074V14.4468H9.29248C9.50212 14.4468 9.67188 14.4126 9.80176 14.3442C9.93392 14.2736 10.0308 14.1779 10.0923 14.0571C10.1538 13.9341 10.1846 13.7939 10.1846 13.6367C10.1846 13.484 10.1538 13.3416 10.0923 13.2095C10.0308 13.0773 9.93392 12.9702 9.80176 12.8882C9.67188 12.8062 9.50212 12.7651 9.29248 12.7651H8.31836V17H7.37842V12.0234H9.29248C9.67985 12.0234 10.0103 12.0929 10.2837 12.2319C10.5594 12.3687 10.769 12.5589 10.9126 12.8027C11.0584 13.0443 11.1313 13.32 11.1313 13.6299C11.1313 13.9512 11.0584 14.228 10.9126 14.4604C10.769 14.6929 10.5594 14.8717 10.2837 14.9971C10.0103 15.1224 9.67985 15.1851 9.29248 15.1851Z" fill="white"/>
<path d="M15.168 16.2617V17H12.5225V16.2617H15.168ZM12.8096 12.0234V17H11.8696V12.0234H12.8096ZM14.8228 14.0776V14.7988H12.5225V14.0776H14.8228ZM15.1577 12.0234V12.7651H12.5225V12.0234H15.1577Z" fill="white"/>
<path d="M19.7036 14.4263V16.3643C19.6307 16.4577 19.5156 16.5591 19.3584 16.6685C19.2035 16.7778 19.0007 16.8724 18.75 16.9521C18.4993 17.0296 18.1917 17.0684 17.8271 17.0684C17.5104 17.0684 17.221 17.016 16.959 16.9111C16.6969 16.804 16.4714 16.6479 16.2822 16.4429C16.0931 16.2378 15.9473 15.9871 15.8447 15.6909C15.7422 15.3947 15.6909 15.0563 15.6909 14.6758V14.3477C15.6909 13.9671 15.7388 13.6287 15.8345 13.3325C15.9325 13.0363 16.0715 12.7856 16.2515 12.5806C16.4338 12.3755 16.6514 12.2194 16.9043 12.1123C17.1595 12.0052 17.4443 11.9517 17.7588 11.9517C18.1803 11.9517 18.5267 12.0212 18.7979 12.1602C19.0713 12.2992 19.2809 12.4906 19.4268 12.7344C19.5726 12.9759 19.6637 13.2539 19.7002 13.5684H18.7842C18.7591 13.3952 18.709 13.2437 18.6338 13.1138C18.5586 12.9816 18.4515 12.8791 18.3125 12.8062C18.1758 12.731 17.998 12.6934 17.7793 12.6934C17.5947 12.6934 17.4318 12.7298 17.2905 12.8027C17.1493 12.8757 17.0308 12.9816 16.9351 13.1206C16.8394 13.2596 16.7664 13.4316 16.7163 13.6367C16.6685 13.8418 16.6445 14.0765 16.6445 14.3408V14.6758C16.6445 14.9424 16.6719 15.1794 16.7266 15.3867C16.7812 15.5918 16.8599 15.765 16.9624 15.9062C17.0672 16.0452 17.196 16.1512 17.3486 16.2241C17.5036 16.2948 17.679 16.3301 17.875 16.3301C18.0527 16.3301 18.1997 16.3153 18.3159 16.2856C18.4344 16.2537 18.529 16.2161 18.5996 16.1729C18.6702 16.1296 18.7249 16.0874 18.7637 16.0464V15.1133H17.7759V14.4263H19.7036Z" fill="white"/>
</svg>
