<svg width="24" height="24" viewBox="0 0 24 24" fill="none" xmlns="http://www.w3.org/2000/svg">
<path d="M20.5 10.19H17.61C15.24 10.19 13.31 8.26 13.31 5.89V3C13.31 2.45 12.86 2 12.31 2H8.07C4.99 2 2.5 4 2.5 7.57V16.43C2.5 20 4.99 22 8.07 22H15.93C19.01 22 21.5 20 21.5 16.43V11.19C21.5 10.64 21.05 10.19 20.5 10.19Z" fill="#F6BB22"/>
<path d="M15.8 2.20999C15.39 1.79999 14.68 2.07999 14.68 2.64999V6.13999C14.68 7.59999 15.92 8.80999 17.43 8.80999C18.38 8.81999 19.7 8.81999 20.83 8.81999C21.4 8.81999 21.7 8.14999 21.3 7.74999C19.86 6.29999 17.28 3.68999 15.8 2.20999Z" fill="#F6BB22"/>
<path d="M7.50537 15.4893V12.0234H8.44531V15.4893C8.44531 15.8197 8.37354 16.1034 8.22998 16.3403C8.08643 16.575 7.89046 16.755 7.64209 16.8804C7.39372 17.0057 7.11344 17.0684 6.80127 17.0684C6.47998 17.0684 6.19515 17.0148 5.94678 16.9077C5.6984 16.7983 5.50358 16.632 5.3623 16.4087C5.22331 16.1854 5.15381 15.9017 5.15381 15.5576H6.09717C6.09717 15.7445 6.12565 15.8949 6.18262 16.0088C6.23958 16.1227 6.32048 16.2048 6.42529 16.2549C6.53239 16.305 6.65771 16.3301 6.80127 16.3301C6.94027 16.3301 7.06217 16.2982 7.16699 16.2344C7.27409 16.1683 7.35726 16.0726 7.4165 15.9473C7.47575 15.8219 7.50537 15.6693 7.50537 15.4893Z" fill="white"/>
<path d="M11.2925 15.1851H10.0107V14.4468H11.2925C11.5021 14.4468 11.6719 14.4126 11.8018 14.3442C11.9339 14.2736 12.0308 14.1779 12.0923 14.0571C12.1538 13.9341 12.1846 13.7939 12.1846 13.6367C12.1846 13.484 12.1538 13.3416 12.0923 13.2095C12.0308 13.0773 11.9339 12.9702 11.8018 12.8882C11.6719 12.8062 11.5021 12.7651 11.2925 12.7651H10.3184V17H9.37842V12.0234H11.2925C11.6799 12.0234 12.0103 12.0929 12.2837 12.2319C12.5594 12.3687 12.769 12.5589 12.9126 12.8027C13.0584 13.0443 13.1313 13.32 13.1313 13.6299C13.1313 13.9512 13.0584 14.228 12.9126 14.4604C12.769 14.6929 12.5594 14.8717 12.2837 14.9971C12.0103 15.1224 11.6799 15.1851 11.2925 15.1851Z" fill="white"/>
<path d="M17.7524 14.4263V16.3643C17.6795 16.4577 17.5645 16.5591 17.4072 16.6685C17.2523 16.7778 17.0495 16.8724 16.7988 16.9521C16.5482 17.0296 16.2406 17.0684 15.876 17.0684C15.5592 17.0684 15.2699 17.016 15.0078 16.9111C14.7458 16.804 14.5202 16.6479 14.3311 16.4429C14.1419 16.2378 13.9961 15.9871 13.8936 15.6909C13.791 15.3947 13.7397 15.0563 13.7397 14.6758V14.3477C13.7397 13.9671 13.7876 13.6287 13.8833 13.3325C13.9813 13.0363 14.1203 12.7856 14.3003 12.5806C14.4826 12.3755 14.7002 12.2194 14.9531 12.1123C15.2083 12.0052 15.4932 11.9517 15.8076 11.9517C16.2292 11.9517 16.5755 12.0212 16.8467 12.1602C17.1201 12.2992 17.3298 12.4906 17.4756 12.7344C17.6214 12.9759 17.7126 13.2539 17.749 13.5684H16.833C16.8079 13.3952 16.7578 13.2437 16.6826 13.1138C16.6074 12.9816 16.5003 12.8791 16.3613 12.8062C16.2246 12.731 16.0469 12.6934 15.8281 12.6934C15.6436 12.6934 15.4806 12.7298 15.3394 12.8027C15.1981 12.8757 15.0796 12.9816 14.9839 13.1206C14.8882 13.2596 14.8153 13.4316 14.7651 13.6367C14.7173 13.8418 14.6934 14.0765 14.6934 14.3408V14.6758C14.6934 14.9424 14.7207 15.1794 14.7754 15.3867C14.8301 15.5918 14.9087 15.765 15.0112 15.9062C15.116 16.0452 15.2448 16.1512 15.3975 16.2241C15.5524 16.2948 15.7279 16.3301 15.9238 16.3301C16.1016 16.3301 16.2485 16.3153 16.3647 16.2856C16.4832 16.2537 16.5778 16.2161 16.6484 16.1729C16.7191 16.1296 16.7738 16.0874 16.8125 16.0464V15.1133H15.8247V14.4263H17.7524Z" fill="white"/>
</svg>
