<svg width="28" height="28" viewBox="0 0 28 28" fill="none" xmlns="http://www.w3.org/2000/svg">
<rect width="28" height="28" rx="8" transform="matrix(-1 0 0 1 28 0)" fill="white"/>
<path d="M10 5.66667H12.1667C14.8333 5.66667 16.5 7.33334 16.5 10V13.375H11.2917C10.95 13.375 10.6667 13.6583 10.6667 14C10.6667 14.3417 10.95 14.625 11.2917 14.625H16.5V18C16.5 20.6667 14.8333 22.3333 12.1667 22.3333H10.0083C7.34167 22.3333 5.675 20.6667 5.675 18V10C5.66667 7.33334 7.33333 5.66667 10 5.66667Z" fill="#9B9A9A"/>
<path d="M20.2 13.375L18.475 11.65C18.35 11.525 18.2917 11.3667 18.2917 11.2083C18.2917 11.05 18.35 10.8833 18.475 10.7667C18.7167 10.525 19.1167 10.525 19.3584 10.7667L22.15 13.5583C22.3917 13.8 22.3917 14.2 22.15 14.4417L19.3584 17.2333C19.1167 17.475 18.7167 17.475 18.475 17.2333C18.2334 16.9917 18.2334 16.5917 18.475 16.35L20.2 14.625H16.5V13.375H20.2Z" fill="#9B9A9A"/>
</svg>
