<svg width="21" height="21" viewBox="0 0 21 21" fill="none" xmlns="http://www.w3.org/2000/svg">
<path d="M18.6418 0H2.66873C1.5699 0 0.670853 0.926411 0.670853 2.05869V20.5869L4.65662 16.4695H18.6418C19.7406 16.4695 20.6397 15.5431 20.6397 14.4108V2.05869C20.6397 0.926411 19.7406 0 18.6418 0ZM11.6492 12.3521H9.65132V10.2935H11.6492V12.3521ZM11.6492 7.20542C11.6492 7.77156 11.1997 8.23476 10.6503 8.23476C10.1008 8.23476 9.65132 7.77156 9.65132 7.20542V5.14673C9.65132 4.58059 10.1008 4.11738 10.6503 4.11738C11.1997 4.11738 11.6492 4.58059 11.6492 5.14673V7.20542Z" fill="#7B7979"/>
</svg>
