<svg width="24" height="22" viewBox="0 0 24 22" fill="none" xmlns="http://www.w3.org/2000/svg">
<path d="M9.14749 21.9678C10.2481 21.9678 11.1385 21.0584 11.1385 19.9345H7.15646C7.15646 21.0584 8.04692 21.9678 9.14749 21.9678ZM17.4418 17.1553L16.1511 15.8372V9.7067C16.1511 6.28381 13.7899 3.42289 10.6483 2.72809V1.53264C10.6483 0.684578 9.97793 0 9.14749 0C8.31706 0 7.64671 0.684578 7.64671 1.53264V2.72809C4.50508 3.42289 2.14385 6.28381 2.14385 9.7067V15.8372L0.853173 17.1553C0.222845 17.799 0.663074 18.9025 1.55354 18.9025H16.7314C17.6319 18.9025 18.0721 17.799 17.4418 17.1553ZM10.148 14.8155H8.14697V12.772H10.148V14.8155ZM10.148 9.7067C10.148 10.2687 9.69778 10.7285 9.14749 10.7285C8.59721 10.7285 8.14697 10.2687 8.14697 9.7067V7.66319C8.14697 7.10122 8.59721 6.64143 9.14749 6.64143C9.69778 6.64143 10.148 7.10122 10.148 7.66319V9.7067Z" fill="#7B7979"/>
<rect x="11.6873" y="0.634277" width="11.7563" height="13.7628" rx="5.87813" fill="#D1132A"/>
<path d="M15.7735 10.5156V9.74006L17.5856 8.06214C17.7398 7.913 17.869 7.77876 17.9734 7.65945C18.0795 7.54013 18.1599 7.4233 18.2145 7.30895C18.2692 7.19294 18.2966 7.06783 18.2966 6.93359C18.2966 6.78445 18.2626 6.65601 18.1947 6.5483C18.1267 6.43892 18.0339 6.35523 17.9163 6.29723C17.7986 6.23757 17.6652 6.20774 17.516 6.20774C17.3603 6.20774 17.2244 6.23923 17.1084 6.3022C16.9924 6.36518 16.9029 6.45549 16.8399 6.57315C16.7769 6.69081 16.7454 6.83085 16.7454 6.99325H15.7238C15.7238 6.66016 15.7992 6.37098 15.95 6.12571C16.1008 5.88045 16.3121 5.6907 16.5839 5.55646C16.8556 5.42223 17.1689 5.35511 17.5235 5.35511C17.8881 5.35511 18.2054 5.41974 18.4756 5.54901C18.7473 5.67661 18.9586 5.85393 19.1094 6.08097C19.2602 6.308 19.3356 6.56818 19.3356 6.86151C19.3356 7.05374 19.2975 7.24349 19.2213 7.43075C19.1467 7.61802 19.0133 7.82599 18.8211 8.05469C18.6288 8.28172 18.3579 8.55433 18.0082 8.87251L17.265 9.60085V9.63565H19.4028V10.5156H15.7735Z" fill="#D1132A"/>
<path d="M15.7735 10.5156V9.74006L17.5856 8.06214C17.7398 7.913 17.869 7.77876 17.9734 7.65945C18.0795 7.54013 18.1599 7.4233 18.2145 7.30895C18.2692 7.19294 18.2966 7.06783 18.2966 6.93359C18.2966 6.78445 18.2626 6.65601 18.1947 6.5483C18.1267 6.43892 18.0339 6.35523 17.9163 6.29723C17.7986 6.23757 17.6652 6.20774 17.516 6.20774C17.3603 6.20774 17.2244 6.23923 17.1084 6.3022C16.9924 6.36518 16.9029 6.45549 16.8399 6.57315C16.7769 6.69081 16.7454 6.83085 16.7454 6.99325H15.7238C15.7238 6.66016 15.7992 6.37098 15.95 6.12571C16.1008 5.88045 16.3121 5.6907 16.5839 5.55646C16.8556 5.42223 17.1689 5.35511 17.5235 5.35511C17.8881 5.35511 18.2054 5.41974 18.4756 5.54901C18.7473 5.67661 18.9586 5.85393 19.1094 6.08097C19.2602 6.308 19.3356 6.56818 19.3356 6.86151C19.3356 7.05374 19.2975 7.24349 19.2213 7.43075C19.1467 7.61802 19.0133 7.82599 18.8211 8.05469C18.6288 8.28172 18.3579 8.55433 18.0082 8.87251L17.265 9.60085V9.63565H19.4028V10.5156H15.7735Z" fill="white"/>
<rect x="11.6873" y="0.634277" width="11.7563" height="13.7628" rx="5.87813" stroke="#7B7979" stroke-width="0.25"/>
</svg>
