<svg width="24" height="24" viewBox="0 0 24 24" fill="none" xmlns="http://www.w3.org/2000/svg">
<path d="M20.5 10.19H17.61C15.24 10.19 13.31 8.26 13.31 5.89V3C13.31 2.45 12.86 2 12.31 2H8.07C4.99 2 2.5 4 2.5 7.57V16.43C2.5 20 4.99 22 8.07 22H15.93C19.01 22 21.5 20 21.5 16.43V11.19C21.5 10.64 21.05 10.19 20.5 10.19Z" fill="#E12B41"/>
<path d="M15.8 2.20999C15.39 1.79999 14.68 2.07999 14.68 2.64999V6.13999C14.68 7.59999 15.92 8.80999 17.43 8.80999C18.38 8.81999 19.7 8.81999 20.83 8.81999C21.4 8.81999 21.7 8.14999 21.3 7.74999C19.86 6.29999 17.28 3.68999 15.8 2.20999Z" fill="#E12B41"/>
<path d="M8.38916 15.1851H7.10742V14.4468H8.38916C8.5988 14.4468 8.76855 14.4126 8.89844 14.3442C9.0306 14.2736 9.12744 14.1779 9.18896 14.0571C9.25049 13.9341 9.28125 13.7939 9.28125 13.6367C9.28125 13.484 9.25049 13.3416 9.18896 13.2095C9.12744 13.0773 9.0306 12.9702 8.89844 12.8882C8.76855 12.8062 8.5988 12.7651 8.38916 12.7651H7.41504V17H6.4751V12.0234H8.38916C8.77653 12.0234 9.10693 12.0929 9.38037 12.2319C9.65609 12.3687 9.86572 12.5589 10.0093 12.8027C10.1551 13.0443 10.228 13.32 10.228 13.6299C10.228 13.9512 10.1551 14.228 10.0093 14.4604C9.86572 14.6929 9.65609 14.8717 9.38037 14.9971C9.10693 15.1224 8.77653 15.1851 8.38916 15.1851Z" fill="white"/>
<path d="M12.4531 17H11.3799L11.3867 16.2617H12.4531C12.7425 16.2617 12.9852 16.1979 13.1812 16.0703C13.3771 15.9404 13.5252 15.7547 13.6255 15.5132C13.7257 15.2694 13.7759 14.9777 13.7759 14.6382V14.3818C13.7759 14.1198 13.7474 13.8885 13.6904 13.688C13.6335 13.4875 13.5492 13.3188 13.4375 13.1821C13.3281 13.0454 13.1925 12.9417 13.0308 12.8711C12.869 12.8005 12.6833 12.7651 12.4736 12.7651H11.3594V12.0234H12.4736C12.8063 12.0234 13.1094 12.0793 13.3828 12.1909C13.6585 12.3026 13.8966 12.4632 14.0972 12.6729C14.3 12.8802 14.4549 13.1286 14.562 13.418C14.6714 13.7074 14.7261 14.0309 14.7261 14.3887V14.6382C14.7261 14.9937 14.6714 15.3172 14.562 15.6089C14.4549 15.8983 14.3 16.1466 14.0972 16.354C13.8966 16.5614 13.6574 16.7209 13.3794 16.8325C13.1014 16.9442 12.7926 17 12.4531 17ZM11.9062 12.0234V17H10.9663V12.0234H11.9062Z" fill="white"/>
<path d="M16.4658 12.0234V17H15.5259V12.0234H16.4658ZM18.4722 14.1733V14.915H16.2197V14.1733H18.4722ZM18.7354 12.0234V12.7651H16.2197V12.0234H18.7354Z" fill="white"/>
</svg>
