<svg width="24" height="24" viewBox="0 0 24 24" fill="none" xmlns="http://www.w3.org/2000/svg">
<path d="M20.5 10.19H17.61C15.24 10.19 13.31 8.26 13.31 5.89V3C13.31 2.45 12.86 2 12.31 2H8.07C4.99 2 2.5 4 2.5 7.57V16.43C2.5 20 4.99 22 8.07 22H15.93C19.01 22 21.5 20 21.5 16.43V11.19C21.5 10.64 21.05 10.19 20.5 10.19Z" fill="#39DA7B"/>
<path d="M15.8 2.20999C15.39 1.79999 14.68 2.07999 14.68 2.64999V6.13999C14.68 7.59999 15.92 8.80999 17.43 8.80999C18.38 8.81999 19.7 8.81999 20.83 8.81999C21.4 8.81999 21.7 8.14999 21.3 7.74999C19.86 6.29999 17.28 3.68999 15.8 2.20999Z" fill="#39DA7B"/>
<path d="M7.38916 15.1851H6.10742V14.4468H7.38916C7.5988 14.4468 7.76855 14.4126 7.89844 14.3442C8.0306 14.2736 8.12744 14.1779 8.18896 14.0571C8.25049 13.9341 8.28125 13.7939 8.28125 13.6367C8.28125 13.484 8.25049 13.3416 8.18896 13.2095C8.12744 13.0773 8.0306 12.9702 7.89844 12.8882C7.76855 12.8062 7.5988 12.7651 7.38916 12.7651H6.41504V17H5.4751V12.0234H7.38916C7.77653 12.0234 8.10693 12.0929 8.38037 12.2319C8.65609 12.3687 8.86572 12.5589 9.00928 12.8027C9.15511 13.0443 9.22803 13.32 9.22803 13.6299C9.22803 13.9512 9.15511 14.228 9.00928 14.4604C8.86572 14.6929 8.65609 14.8717 8.38037 14.9971C8.10693 15.1224 7.77653 15.1851 7.38916 15.1851Z" fill="white"/>
<path d="M13.9653 12.0234V17H13.022L10.9062 13.5479V17H9.96631V12.0234H10.9062L13.0288 15.479V12.0234H13.9653Z" fill="white"/>
<path d="M18.8052 14.4263V16.3643C18.7323 16.4577 18.6172 16.5591 18.46 16.6685C18.305 16.7778 18.1022 16.8724 17.8516 16.9521C17.6009 17.0296 17.2933 17.0684 16.9287 17.0684C16.612 17.0684 16.3226 17.016 16.0605 16.9111C15.7985 16.804 15.5729 16.6479 15.3838 16.4429C15.1947 16.2378 15.0488 15.9871 14.9463 15.6909C14.8438 15.3947 14.7925 15.0563 14.7925 14.6758V14.3477C14.7925 13.9671 14.8403 13.6287 14.936 13.3325C15.034 13.0363 15.173 12.7856 15.353 12.5806C15.5353 12.3755 15.7529 12.2194 16.0059 12.1123C16.2611 12.0052 16.5459 11.9517 16.8604 11.9517C17.2819 11.9517 17.6283 12.0212 17.8994 12.1602C18.1729 12.2992 18.3825 12.4906 18.5283 12.7344C18.6742 12.9759 18.7653 13.2539 18.8018 13.5684H17.8857C17.8607 13.3952 17.8105 13.2437 17.7354 13.1138C17.6602 12.9816 17.5531 12.8791 17.4141 12.8062C17.2773 12.731 17.0996 12.6934 16.8809 12.6934C16.6963 12.6934 16.5334 12.7298 16.3921 12.8027C16.2508 12.8757 16.1323 12.9816 16.0366 13.1206C15.9409 13.2596 15.868 13.4316 15.8179 13.6367C15.77 13.8418 15.7461 14.0765 15.7461 14.3408V14.6758C15.7461 14.9424 15.7734 15.1794 15.8281 15.3867C15.8828 15.5918 15.9614 15.765 16.064 15.9062C16.1688 16.0452 16.2975 16.1512 16.4502 16.2241C16.6051 16.2948 16.7806 16.3301 16.9766 16.3301C17.1543 16.3301 17.3013 16.3153 17.4175 16.2856C17.536 16.2537 17.6305 16.2161 17.7012 16.1729C17.7718 16.1296 17.8265 16.0874 17.8652 16.0464V15.1133H16.8774V14.4263H18.8052Z" fill="white"/>
</svg>
