<svg width="21" height="20" viewBox="0 0 21 20" fill="none" xmlns="http://www.w3.org/2000/svg">
<path d="M11.426 10.4259H10.926V10.9259V17.4074C10.926 17.6374 10.7301 17.8333 10.5001 17.8333C10.2701 17.8333 10.0742 17.6374 10.0742 17.4074V10.9259V10.4259H9.57416H3.09267C2.86264 10.4259 2.66675 10.23 2.66675 9.99999C2.66675 9.76996 2.86264 9.57406 3.09267 9.57406H9.57416H10.0742V9.07406V2.59258C10.0742 2.36255 10.2701 2.16666 10.5001 2.16666C10.7301 2.16666 10.926 2.36255 10.926 2.59258V9.07406V9.57406H11.426H17.9075C18.1375 9.57406 18.3334 9.76996 18.3334 9.99999C18.3334 10.23 18.1375 10.4259 17.9075 10.4259H11.426Z" fill="white" stroke="white"/>
</svg>
