<svg width="28" height="28" viewBox="0 0 28 28" fill="none" xmlns="http://www.w3.org/2000/svg">
<rect x="1.25" y="1.25" width="25.5" height="25.5" rx="12.75" fill="#FBF0F2"/>
<path fill-rule="evenodd" clip-rule="evenodd" d="M17.6267 10.1576C17.6534 10.2042 17.7 10.2375 17.76 10.2375C19.36 10.2375 20.6667 11.5427 20.6667 13.141V17.0966C20.6667 18.6948 19.36 20 17.76 20H10.24C8.63337 20 7.33337 18.6948 7.33337 17.0966V13.141C7.33337 11.5427 8.63337 10.2375 10.24 10.2375C10.2934 10.2375 10.3467 10.2109 10.3667 10.1576L10.4067 10.0777C10.4297 10.0293 10.4533 9.97963 10.4772 9.92919C10.6478 9.56996 10.8365 9.17253 10.9534 8.93896C11.26 8.33962 11.78 8.00666 12.4267 8H15.5667C16.2134 8.00666 16.74 8.33962 17.0467 8.93896C17.1517 9.14872 17.3117 9.48661 17.4659 9.81228C17.4977 9.87948 17.5293 9.94617 17.56 10.0111L17.6267 10.1576ZM17.14 12.7148C17.14 13.0477 17.4067 13.3141 17.74 13.3141C18.0734 13.3141 18.3467 13.0477 18.3467 12.7148C18.3467 12.3818 18.0734 12.1088 17.74 12.1088C17.4067 12.1088 17.14 12.3818 17.14 12.7148ZM12.8467 13.7469C13.16 13.434 13.5667 13.2675 14 13.2675C14.4334 13.2675 14.84 13.434 15.1467 13.7403C15.4534 14.0466 15.62 14.4528 15.62 14.8857C15.6134 15.778 14.8934 16.5039 14 16.5039C13.5667 16.5039 13.16 16.3374 12.8534 16.0311C12.5467 15.7248 12.38 15.3185 12.38 14.8857V14.879C12.3734 14.4595 12.54 14.0533 12.8467 13.7469ZM15.8467 16.737C15.3734 17.2098 14.72 17.5028 14 17.5028C13.3 17.5028 12.6467 17.2297 12.1467 16.737C11.6534 16.2375 11.38 15.5849 11.38 14.8857C11.3734 14.1931 11.6467 13.5405 12.14 13.0411C12.64 12.5416 13.3 12.2686 14 12.2686C14.7 12.2686 15.36 12.5416 15.8534 13.0344C16.3467 13.5339 16.62 14.1931 16.62 14.8857C16.6134 15.6115 16.32 16.2642 15.8467 16.737Z" fill="#E12B41"/>
<rect x="1.25" y="1.25" width="25.5" height="25.5" rx="12.75" stroke="white" stroke-width="1.5"/>
</svg>
