<svg width="42" height="35" viewBox="0 0 42 35" fill="none" xmlns="http://www.w3.org/2000/svg">
<path d="M27.9844 0.0262897C22.8247 -0.0768914 17.5028 2.8778 16.043 9.54478C10.1014 7.51676 4.73668 11.5166 5.29395 17.9032C2.1852 19.1598 0 22.1969 0 25.7665C0 30.4668 3.78401 34.2509 8.48438 34.2509H18.791C18.7882 31.3943 18.7822 25.6627 18.7822 24.577L16.3652 25.453C14.6117 26.2086 13.3167 24.0006 14.8183 22.6258L19.3915 18.1814C20.4361 17.1369 21.6837 17.2567 22.6084 18.1814L27.1816 22.6258C28.6833 24.0006 27.3882 26.2086 25.6348 25.453L23.2178 24.577V34.2509H33.5156C38.216 34.2509 42 30.4668 42 25.7665C42 22.307 39.9466 19.3496 36.9902 18.0262C42.7186 6.85868 35.5254 0.176866 27.9844 0.0262897Z" fill="#81B5FE"/>
</svg>
