<svg width="32" height="32" viewBox="0 0 32 32" fill="none" xmlns="http://www.w3.org/2000/svg">
<path fill-rule="evenodd" clip-rule="evenodd" d="M8 1.33325V28.4999C8.00078 29.1627 8.26442 29.7982 8.73309 30.2668C9.20176 30.7355 9.8372 30.9991 10.5 30.9999H11.8333V1.33325H8ZM9 28.4999V3.99992H10.5V29.9999C10.1023 29.9995 9.72104 29.8413 9.43983 29.5601C9.15862 29.2789 9.00045 28.8976 9 28.4999Z" fill="#0D2C33"/>
<path d="M21.5 3.5H10.5C9.39543 3.5 8.5 4.39543 8.5 5.5V28.5C8.5 29.6046 9.39543 30.5 10.5 30.5H21.5C22.6046 30.5 23.5 29.6046 23.5 28.5V5.5C23.5 4.39543 22.6046 3.5 21.5 3.5Z" fill="#E0E0DE"/>
<path d="M8.5 6.5H23.5V26.5H8.5V6.5Z" fill="#348FD9"/>
<path d="M10.0145 30.4338C10.173 30.4758 10.3361 30.4981 10.5 30.5H21.5C22.0305 30.5 22.5392 30.2893 22.9142 29.9142C23.2893 29.5391 23.5 29.0304 23.5 28.5V26.5H11.685L10.0145 30.4338Z" fill="#D6D6D4"/>
<path d="M21.5 3.5H21.452L20.178 6.5H23.5V5.5C23.5 4.96957 23.2893 4.46086 22.9142 4.08579C22.5391 3.71071 22.0304 3.5 21.5 3.5Z" fill="#D6D6D4"/>
<path d="M11.6849 26.5H23.5V6.5H20.1781L11.6849 26.5Z" fill="#3086CD"/>
<path d="M14.5 23.5V20.5C14.5 19.9696 14.2893 19.4609 13.9142 19.0858C13.5391 18.7107 13.0304 18.5 12.5 18.5H11.5L12 16.5L8.5 18.5V25.5H12.5C13.0304 25.5 13.5391 25.2893 13.9142 24.9142C14.2893 24.5391 14.5 24.0304 14.5 23.5Z" fill="#3086CD"/>
<path d="M26.7632 17.7301L23.5 13.5V21.5L21.25 19.25C20.9185 18.9185 20.4688 18.7322 20 18.7322C19.5312 18.7322 19.0815 18.9185 18.75 19.25C18.4185 19.5815 18.2322 20.0312 18.2322 20.5C18.2322 20.9688 18.4185 21.4185 18.75 21.75L22 25L21.7759 25.3361C21.2605 26.1093 21.0044 27.0263 21.0447 27.9547C21.085 28.883 21.4195 29.7744 22 30.5H28V21.0222C28 19.8113 27.5605 18.6415 26.7632 17.7301Z" fill="#FEC9A3"/>
<path d="M12.5 11.5H8.5L9 14L5.5 11.5H3.5C2.96957 11.5 2.46086 11.2893 2.08579 10.9142C1.71071 10.5391 1.5 10.0304 1.5 9.5V3.5C1.5 2.96957 1.71071 2.46086 2.08579 2.08579C2.46086 1.71071 2.96957 1.5 3.5 1.5H12.5C13.0304 1.5 13.5391 1.71071 13.9142 2.08579C14.2893 2.46086 14.5 2.96957 14.5 3.5V9.5C14.5 10.0304 14.2893 10.5391 13.9142 10.9142C13.5391 11.2893 13.0304 11.5 12.5 11.5Z" fill="#FFB531"/>
<path d="M9.5 12.5H13.5C14.0304 12.5 14.5391 12.2893 14.9142 11.9142C15.2893 11.5391 15.5 11.0304 15.5 10.5V6.5H8.5V13.9286L10 15L9.5 12.5Z" fill="#3086CD"/>
<path d="M11.5 17.5H10.5L11 15.5L7.5 17.5H3.5C2.96957 17.5 2.46086 17.7107 2.08579 18.0858C1.71071 18.4609 1.5 18.9696 1.5 19.5V22.5C1.5 23.0304 1.71071 23.5391 2.08579 23.9142C2.46086 24.2893 2.96957 24.5 3.5 24.5H11.5C12.0304 24.5 12.5391 24.2893 12.9142 23.9142C13.2893 23.5391 13.5 23.0304 13.5 22.5V19.5C13.5 18.9696 13.2893 18.4609 12.9142 18.0858C12.5391 17.7107 12.0304 17.5 11.5 17.5Z" fill="#60D1E0"/>
<path d="M11.5 17.5H11.4037C9.35811 20.5784 6.47967 22.9618 4.26624 24.5H11.5C12.0304 24.5 12.5391 24.2893 12.9142 23.9142C13.2893 23.5391 13.5 23.0304 13.5 22.5V19.5C13.5 18.9696 13.2893 18.4609 12.9142 18.0858C12.5391 17.7107 12.0304 17.5 11.5 17.5Z" fill="#5AC6D4"/>
<path d="M25.5 24C25.4344 24 25.3693 23.9871 25.3086 23.962C25.248 23.9369 25.1929 23.9 25.1465 23.8535L23.1465 21.8535C23.0554 21.7592 23.005 21.6329 23.0062 21.5018C23.0073 21.3707 23.0599 21.2453 23.1526 21.1525C23.2453 21.0598 23.3707 21.0073 23.5018 21.0061C23.6329 21.005 23.7592 21.0554 23.8535 21.1465L25.8535 23.1465C25.9234 23.2164 25.971 23.3055 25.9903 23.4024C26.0096 23.4994 25.9997 23.5999 25.9619 23.6913C25.924 23.7826 25.86 23.8607 25.7777 23.9157C25.6955 23.9706 25.5989 23.9999 25.5 24Z" fill="#F7A468"/>
<path d="M13.8021 1.99341C10.3397 6.31522 5.49999 9.00003 2.01324 10.8263C2.19923 11.0375 2.42794 11.2068 2.68425 11.3229C2.94055 11.439 3.2186 11.4994 3.49999 11.5H5.49999L9 14L8.5 11.5H12.5C13.0304 11.5 13.5391 11.2893 13.9142 10.9142C14.2893 10.5392 14.5 10.0305 14.5 9.50003V3.50003C14.4993 3.21342 14.4365 2.93037 14.316 2.6703C14.1956 2.41024 14.0203 2.17932 13.8021 1.99341Z" fill="#FFA912"/>
<path d="M5 6H9V9H5V6Z" fill="#F35244"/>
<path d="M5.75 6C6.44036 6 7 5.44036 7 4.75C7 4.05964 6.44036 3.5 5.75 3.5C5.05964 3.5 4.5 4.05964 4.5 4.75C4.5 5.44036 5.05964 6 5.75 6Z" fill="#DE4132"/>
<path d="M8.25 6C8.94036 6 9.5 5.44036 9.5 4.75C9.5 4.05964 8.94036 3.5 8.25 3.5C7.55964 3.5 7 4.05964 7 4.75C7 5.44036 7.55964 6 8.25 6Z" fill="#DE4132"/>
<path d="M9 7L11 6V9L9 8V7Z" fill="#DE4132"/>
<path d="M23.5 13.5V18.7307L26.0324 16.7827L23.5 13.5Z" fill="#FEC093"/>
<path d="M30.5 7.5V13.5C30.5 14.0304 30.2893 14.5391 29.9142 14.9142C29.5391 15.2893 29.0304 15.5 28.5 15.5H26L22.5 18L23 15.5H18.5C18.2373 15.5002 17.9772 15.4485 17.7344 15.3481C17.4917 15.2476 17.2712 15.1003 17.0854 14.9146C16.8997 14.7288 16.7524 14.5083 16.6519 14.2656C16.5515 14.0228 16.4998 13.7627 16.5 13.5V7.5C16.5 6.96957 16.7107 6.46086 17.0858 6.08579C17.4609 5.71071 17.9696 5.5 18.5 5.5H28.5C28.7627 5.49979 29.0229 5.55137 29.2656 5.65181C29.5084 5.75224 29.7289 5.89955 29.9147 6.08531C30.1004 6.27107 30.2478 6.49163 30.3482 6.73438C30.4486 6.97713 30.5002 7.2373 30.5 7.5Z" fill="#4DB7E5"/>
<path d="M30.5 7.50003V13.5C30.5 14.0305 30.2893 14.5392 29.9142 14.9142C29.5392 15.2893 29.0305 15.5 28.5 15.5H26L22.5 18L23 15.5H18.5C18.1536 15.5005 17.813 15.4106 17.5119 15.2394C22.1819 13.0282 26.3794 9.94315 29.495 5.7644C29.8005 5.93961 30.0543 6.19237 30.2308 6.49714C30.4073 6.8019 30.5001 7.14786 30.5 7.50003Z" fill="#48ADD9"/>
<path d="M24.5 10.5C25.3284 10.5 26 9.82843 26 9C26 8.17157 25.3284 7.5 24.5 7.5C23.6716 7.5 23 8.17157 23 9C23 9.82843 23.6716 10.5 24.5 10.5Z" fill="#F35244"/>
<path d="M30.5 13.5C30.5 14.0304 30.2893 14.5391 29.9142 14.9142C29.5391 15.2893 29.0304 15.5 28.5 15.5H26L22.5 18L23 15.5H18.5C18.2373 15.5002 17.9772 15.4485 17.7344 15.3481C17.4917 15.2476 17.2712 15.1003 17.0854 14.9146C16.8997 14.7288 16.7524 14.5083 16.6519 14.2656C16.5515 14.0228 16.4998 13.7627 16.5 13.5L20.5 10.5L22.7738 12.205L24.5 13.5L27.5 11.5L30.5 13.5Z" fill="#7EB457"/>
<path d="M30.5 13.5C30.5 14.0304 30.2893 14.5391 29.9142 14.9142C29.5392 15.2893 29.0305 15.5 28.5 15.5H26L22.5 18L23 15.5H18.5C18.1536 15.5004 17.813 15.4106 17.5119 15.2394C19.3475 14.3765 21.1076 13.3615 22.7738 12.205L24.5 13.5L27.5 11.5L30.5 13.5Z" fill="#77AD50"/>
<path d="M15.5 28H16.5V29H15.5V28Z" fill="#0D2C33"/>
<path d="M3.5 12H5.33988L8.7095 14.407C8.7911 14.4652 8.88833 14.4976 8.98857 14.4999C9.0888 14.5022 9.1874 14.4743 9.27158 14.4198C9.35576 14.3654 9.42162 14.2869 9.46061 14.1945C9.49961 14.1021 9.50993 14.0002 9.49025 13.9019L9.10987 12H12.5C13.1628 11.9992 13.7982 11.7356 14.2669 11.2669C14.7356 10.7982 14.9992 10.1628 15 9.5V3.5C14.9992 2.8372 14.7356 2.20176 14.2669 1.73309C13.7982 1.26442 13.1628 1.00078 12.5 1H3.5C2.8372 1.00078 2.20176 1.26442 1.73309 1.73309C1.26442 2.20176 1.00078 2.8372 1 3.5V9.5C1.00078 10.1628 1.26442 10.7982 1.73309 11.2669C2.20176 11.7356 2.8372 11.9992 3.5 12ZM2 3.5C2.00045 3.10231 2.15863 2.72104 2.43983 2.43983C2.72104 2.15863 3.10231 2.00045 3.5 2H12.5C12.8977 2.00045 13.279 2.15863 13.5602 2.43983C13.8414 2.72104 13.9996 3.10231 14 3.5V9.5C13.9996 9.89769 13.8414 10.279 13.5602 10.5602C13.279 10.8414 12.8977 10.9996 12.5 11H8.5C8.42602 11 8.35296 11.0164 8.2861 11.0481C8.21923 11.0797 8.16022 11.1258 8.11333 11.183C8.06643 11.2403 8.03281 11.3072 8.0149 11.3789C7.99699 11.4507 7.99523 11.5256 8.00975 11.5981L8.26175 12.8581L5.7905 11.093C5.70572 11.0325 5.60416 11 5.5 11H3.5C3.10231 10.9996 2.72104 10.8414 2.43983 10.5602C2.15863 10.279 2.00045 9.89769 2 9.5V3.5Z" fill="#0D2C33"/>
<path d="M4.49998 5.99998V8.99998C4.49998 9.13258 4.55266 9.25976 4.64643 9.35353C4.74019 9.4473 4.86737 9.49998 4.99998 9.49998H8.99998C9.13259 9.49998 9.25977 9.4473 9.35353 9.35353C9.4473 9.25976 9.49998 9.13258 9.49998 8.99998V8.80904L10.7764 9.44723C10.8526 9.48535 10.9373 9.50335 11.0224 9.49952C11.1076 9.49569 11.1904 9.47015 11.2629 9.42534C11.3354 9.38053 11.3952 9.31793 11.4367 9.24348C11.4782 9.16903 11.5 9.08521 11.5 8.99998V5.99998C11.5 5.91474 11.4782 5.83092 11.4367 5.75647C11.3952 5.68203 11.3354 5.61942 11.2629 5.57461C11.1904 5.5298 11.1076 5.50427 11.0224 5.50044C10.9373 5.49661 10.8526 5.51461 10.7764 5.55273L9.49998 6.19091V5.99998C9.49998 5.99166 9.49567 5.98473 9.49523 5.97654C9.65772 5.81308 9.78628 5.61909 9.8735 5.40574C9.96071 5.19239 10.0049 4.96389 10.0034 4.73341C10.0019 4.50292 9.95491 4.27501 9.86501 4.06277C9.7751 3.85054 9.64411 3.65819 9.47956 3.4968C9.31501 3.3354 9.12016 3.20815 8.90623 3.12237C8.6923 3.03659 8.46352 2.99397 8.23305 2.99697C8.00258 2.99998 7.77498 3.04854 7.56336 3.13986C7.35174 3.23119 7.16027 3.36347 6.99998 3.5291C6.83969 3.36347 6.64822 3.23119 6.4366 3.13986C6.22498 3.04854 5.99738 2.99998 5.76691 2.99697C5.53644 2.99397 5.30766 3.03659 5.09373 3.12237C4.8798 3.20815 4.68495 3.3354 4.5204 3.4968C4.35585 3.65819 4.22485 3.85054 4.13495 4.06277C4.04505 4.27501 3.99801 4.50292 3.99656 4.73341C3.9951 4.96389 4.03925 5.19239 4.12646 5.40574C4.21368 5.61909 4.34223 5.81308 4.50473 5.97654C4.50429 5.98473 4.49998 5.99166 4.49998 5.99998ZM8.49998 8.49998H5.49998V6.49998H8.49998V8.49998ZM10.5 6.80904V8.19091L9.49998 7.69091V7.30904L10.5 6.80904ZM8.24998 3.99998C8.39832 3.99998 8.54332 4.04396 8.66666 4.12637C8.78999 4.20878 8.88612 4.32592 8.94289 4.46296C8.99965 4.60001 9.01451 4.75081 8.98557 4.89629C8.95663 5.04178 8.8852 5.17542 8.78031 5.28031C8.67542 5.3852 8.54178 5.45663 8.3963 5.48557C8.25081 5.5145 8.10001 5.49965 7.96297 5.44289C7.82592 5.38612 7.70879 5.28999 7.62638 5.16665C7.54397 5.04332 7.49998 4.89831 7.49998 4.74998C7.50019 4.55113 7.57928 4.36049 7.71989 4.21988C7.86049 4.07928 8.05113 4.00019 8.24998 3.99998ZM5.74998 3.99998C5.89832 3.99998 6.04332 4.04396 6.16666 4.12637C6.28999 4.20878 6.38612 4.32592 6.44289 4.46296C6.49966 4.60001 6.51451 4.75081 6.48557 4.89629C6.45663 5.04178 6.3852 5.17542 6.28031 5.28031C6.17542 5.3852 6.04178 5.45663 5.8963 5.48557C5.75081 5.5145 5.60001 5.49965 5.46297 5.44289C5.32592 5.38612 5.20879 5.28999 5.12638 5.16665C5.04397 5.04332 4.99998 4.89831 4.99998 4.74998C5.00019 4.55113 5.07928 4.36049 5.21989 4.21988C5.36049 4.07928 5.55113 4.00019 5.74998 3.99998Z" fill="#0D2C33"/>
<path d="M28.5 5H23.9494C23.8335 4.43577 23.5265 3.92878 23.0803 3.56447C22.6342 3.20015 22.076 3.0008 21.5 3H14.3333V4H21.5C21.8092 4.00094 22.1105 4.09757 22.3626 4.27662C22.6147 4.45567 22.8052 4.70836 22.9079 5H18.5C17.8372 5.00078 17.2018 5.26442 16.7331 5.73309C16.2644 6.20176 16.0008 6.8372 16 7.5V13.5C16.0008 14.1628 16.2644 14.7982 16.7331 15.2669C17.2018 15.7356 17.8372 15.9992 18.5 16H22.3901L22.0098 17.9019C21.9901 18.0002 22.0004 18.1021 22.0394 18.1945C22.0784 18.2869 22.1442 18.3654 22.2284 18.4198C22.3126 18.4743 22.4112 18.5022 22.5114 18.4999C22.6117 18.4976 22.7089 18.4652 22.7905 18.407L23 18.2574V20.293L21.6035 18.8965C21.3929 18.6859 21.1429 18.5189 20.8678 18.4049C20.5927 18.291 20.2978 18.2323 20 18.2323C19.7022 18.2323 19.4073 18.291 19.1322 18.4049C18.8571 18.5189 18.6071 18.6859 18.3965 18.8965C18.1859 19.1071 18.0189 19.3571 17.9049 19.6322C17.791 19.9073 17.7323 20.2022 17.7323 20.5C17.7323 20.7978 17.791 21.0927 17.9049 21.3678C18.0189 21.6429 18.1859 21.8929 18.3965 22.1035L21.3555 25.0625C21.1645 25.3565 21.007 25.671 20.8859 26H8V28.5C8.00078 29.1628 8.26442 29.7982 8.73309 30.2669C9.20176 30.7356 9.8372 30.9992 10.5 31H28C28.1326 31 28.2598 30.9473 28.3536 30.8536C28.4473 30.7598 28.5 30.6326 28.5 30.5V21.02C28.502 19.6993 28.0265 18.4223 27.1611 17.4246L26.0972 16.0449L26.1601 16H28.5C29.1628 15.9992 29.7982 15.7356 30.2669 15.2669C30.7356 14.7982 30.9992 14.1628 31 13.5V7.5C30.9992 6.8372 30.7356 6.20176 30.2669 5.73309C29.7982 5.26442 29.1628 5.00078 28.5 5ZM18.5 6H28.5C28.8977 6.00045 29.279 6.15863 29.5602 6.43983C29.8414 6.72104 29.9996 7.10231 30 7.5V12.5658L27.7774 11.084C27.6952 11.0293 27.5987 11.0001 27.5 11.0001C27.4013 11.0001 27.3048 11.0293 27.2226 11.084L24.5171 12.8875L20.8 10.1C20.7135 10.0351 20.6083 10 20.5002 10C20.3921 10 20.2869 10.0351 20.2004 10.1L17 12.5V7.5C17.0004 7.10231 17.1586 6.72104 17.4398 6.43983C17.721 6.15863 18.1023 6.00045 18.5 6ZM9 28.5V27H20.6073C20.4457 28.0264 20.6167 29.0776 21.0951 30H10.5C10.1023 29.9996 9.72104 29.8414 9.43983 29.5602C9.15862 29.279 9.00045 28.8977 9 28.5ZM26.3887 18.0588C27.1052 18.8789 27.5001 19.931 27.5 21.02V30H22.2524C21.9124 29.5185 21.6868 28.9657 21.5927 28.3838C21.4986 27.8019 21.5386 27.2062 21.7095 26.6421C21.8166 26.2769 21.9786 25.9302 22.1899 25.6138L22.4149 25.2788C22.4795 25.1826 22.5087 25.067 22.4975 24.9516C22.4863 24.8363 22.4353 24.7284 22.3534 24.6465L19.1034 21.3965C18.9857 21.2788 18.8923 21.139 18.8286 20.9852C18.7649 20.8314 18.7321 20.6665 18.7321 20.5C18.7321 20.1638 18.8657 19.8414 19.1035 19.6036C19.3413 19.3659 19.6637 19.2323 20 19.2324C20.1664 19.2324 20.3313 19.2652 20.4851 19.3289C20.6389 19.3926 20.7787 19.486 20.8964 19.6038C20.8964 19.6038 24.6261 23.3742 25.1464 23.8538C25.6667 24.3333 26.3333 23.6667 25.8534 23.1467C25.3734 22.6268 24 21.293 24 21.293V17.543L25.283 16.6266L26.3887 18.0588ZM28.5 15H26C25.8958 15 25.7943 15.0325 25.7095 15.093L23.2383 16.8581L23.4902 15.5981C23.5048 15.5256 23.503 15.4507 23.4851 15.3789C23.4672 15.3072 23.4336 15.2403 23.3867 15.183C23.3398 15.1258 23.2808 15.0797 23.2139 15.0481C23.147 15.0164 23.074 15 23 15H18.5C18.1432 14.9991 17.7985 14.8709 17.5279 14.6385C17.2572 14.4061 17.0783 14.0847 17.0234 13.7322L20.5 11.125L24.2 13.9C24.2827 13.9621 24.3826 13.997 24.486 13.9999C24.5894 14.0028 24.6912 13.9735 24.7772 13.9161L27.5 12.1008L29.975 13.7508C29.916 14.0996 29.7356 14.4163 29.4657 14.6449C29.1958 14.8735 28.8537 14.9993 28.5 15Z" fill="#0D2C33"/>
<path d="M24.5 11C24.8956 11 25.2822 10.8827 25.6111 10.6629C25.94 10.4432 26.1964 10.1308 26.3478 9.76537C26.4991 9.39992 26.5387 8.99778 26.4616 8.60982C26.3844 8.22186 26.1939 7.86549 25.9142 7.58579C25.6345 7.30608 25.2781 7.1156 24.8902 7.03843C24.5022 6.96126 24.1001 7.00087 23.7346 7.15224C23.3692 7.30362 23.0568 7.55996 22.8371 7.88886C22.6173 8.21776 22.5 8.60444 22.5 9C22.5006 9.53026 22.7115 10.0386 23.0864 10.4136C23.4614 10.7885 23.9697 10.9994 24.5 11ZM24.5 8C24.6978 8 24.8911 8.05865 25.0556 8.16853C25.22 8.27841 25.3482 8.43459 25.4239 8.61732C25.4996 8.80004 25.5194 9.00111 25.4808 9.19509C25.4422 9.38907 25.347 9.56726 25.2071 9.70711C25.0673 9.84696 24.8891 9.9422 24.6951 9.98079C24.5011 10.0194 24.3 9.99957 24.1173 9.92388C23.9346 9.84819 23.7784 9.72002 23.6685 9.55557C23.5586 9.39112 23.5 9.19778 23.5 9C23.5003 8.73488 23.6058 8.48071 23.7932 8.29324C23.9807 8.10577 24.2349 8.00032 24.5 8Z" fill="#0D2C33"/>
<path d="M3.5 25H11.5C12.1628 24.9993 12.7982 24.7356 13.2669 24.267C13.7356 23.7983 13.9992 23.1629 14 22.5V19.5C13.9992 18.8372 13.7356 18.2018 13.2669 17.7331C12.7982 17.2645 12.1628 17.0008 11.5 17H11.1406L11.4849 15.6214C11.5086 15.5263 11.5039 15.4264 11.4713 15.334C11.4388 15.2417 11.3798 15.1609 11.3017 15.1017C11.2237 15.0426 11.1299 15.0077 11.0322 15.0013C10.9345 14.9949 10.837 15.0174 10.7519 15.066L7.36719 17H3.5C2.8372 17.0008 2.20176 17.2645 1.73309 17.7331C1.26442 18.2018 1.00078 18.8372 1 19.5V22.5C1.00078 23.1629 1.26442 23.7983 1.73309 24.267C2.20176 24.7356 2.8372 24.9993 3.5 25ZM2 19.5C2.00045 19.1024 2.15863 18.7211 2.43983 18.4399C2.72104 18.1587 3.10231 18.0005 3.5 18H7.5C7.58702 18 7.67252 17.9773 7.74806 17.9341L10.2309 16.5154L10.0151 17.3787C9.99668 17.4524 9.99528 17.5293 10.011 17.6036C10.0268 17.678 10.0592 17.7477 10.106 17.8076C10.1527 17.8675 10.2125 17.916 10.2808 17.9493C10.349 17.9827 10.424 18 10.5 18H11.5C11.8977 18.0005 12.279 18.1587 12.5602 18.4399C12.8414 18.7211 12.9996 19.1024 13 19.5V22.5C12.9996 22.8977 12.8414 23.279 12.5602 23.5602C12.279 23.8414 11.8977 23.9996 11.5 24H3.5C3.10231 23.9996 2.72104 23.8414 2.43983 23.5602C2.15863 23.279 2.00045 22.8977 2 22.5V19.5Z" fill="#0D2C33"/>
<path d="M3 19.5H8.5V20.5H3V19.5Z" fill="#0D2C33"/>
<path d="M9.5 19.5H12V20.5H9.5V19.5Z" fill="#0D2C33"/>
<path d="M3 21.5H12V22.5H3V21.5Z" fill="#0D2C33"/>
</svg>
