<svg width="32" height="32" viewBox="0 0 32 32" fill="none" xmlns="http://www.w3.org/2000/svg">
<g clip-path="url(#clip0_1798_70602)">
<path d="M9.5 30.5V31C7.705 31 6.08 30.27 4.905 29.095C3.73 27.92 3 26.295 3 24.5V23.5H1.5L4.5 19.5L7.5 23.5H6V24.73C6 27.06 7.25 29.215 9.275 30.37L9.5 30.5Z" fill="#FF826E"/>
<path d="M22 8.5L19 12.5L16 8.5H17.5V7.27C17.5 4.94 16.25 2.785 14.225 1.63L14 1.5V1C15.795 1 17.42 1.73 18.595 2.905C19.77 4.08 20.5 5.705 20.5 7.5V8.5H22Z" fill="#FF826E"/>
<path d="M29 31H27V30V25V24H29H31V31H29Z" fill="#4FC1E9"/>
<path d="M10 1.5L8.5 6H4.5L3 2L6 1.5L7 3L8 1L10 1.5Z" fill="#A0D468"/>
<path d="M11.04 9.625C11.665 10.52 12 11.585 12 12.68C12 15.615 9.615 18 6.68 18H6.32C4.85 18 3.52 17.405 2.56 16.44C1.595 15.48 1 14.15 1 12.68C1 11.585 1.335 10.52 1.96 9.625L4.5 6H8.5L11.04 9.625Z" fill="#B4DD7F"/>
<path d="M17 27C16.45 27 15.95 26.775 15.585 26.415C15.225 26.05 15 25.55 15 25C15 24.45 15.45 24 16 24H19H22H22.59C23.185 24 23.765 24.175 24.255 24.505L25 25H27V30H15.085C13.775 30 12.555 29.365 11.805 28.295L9.775 25.395C9.595 25.135 9.5 24.835 9.5 24.52C9.5 23.68 10.18 23 11.02 23H11.24C11.72 23 12.17 23.225 12.455 23.61L14.4 26.2C14.78 26.705 15.37 27 16 27H17Z" fill="#F0D0B4"/>
<path d="M19 24H16C14.785 23.09 14 21.635 14 20C14 17.24 16.24 15 19 15C21.76 15 24 17.24 24 20C24 21.635 23.215 23.085 22 24H19Z" fill="#FCD770"/>
<path d="M26.5 23.5V24.5H25.1515L24.5335 24.088C24.126 23.8165 23.6705 23.6405 23.1945 23.5575C24.033 22.5745 24.5 21.3295 24.5 20C24.5 16.9675 22.0325 14.5 19 14.5C15.9675 14.5 13.5 16.9675 13.5 20C13.5 21.4595 14.0665 22.815 15.0665 23.835C14.724 24.1105 14.5 24.5275 14.5 25C14.5 25.211 14.5345 25.4145 14.585 25.614L12.856 23.308C12.4765 22.802 11.872 22.5 11.2395 22.5H11.0205C9.9065 22.5 9 23.4065 9 24.5205C9 24.9375 9.1265 25.3385 9.365 25.679L11.396 28.5805C12.2375 29.7825 13.6155 30.5 15.0825 30.5H26.5V31.5H31.5V23.5H26.5ZM19 15.5C21.481 15.5 23.5 17.5185 23.5 20C23.5 21.3765 22.886 22.641 21.8185 23.5H19.5V22.5H21V21C21 20.173 20.327 19.5 19.5 19.5H18.5C18.2245 19.5 18 19.276 18 19V18.5H19.5C19.7755 18.5 20 18.724 20 19H21C21 18.173 20.327 17.5 19.5 17.5V16.5H18.5V17.5H17V19C17 19.827 17.673 20.5 18.5 20.5H19.5C19.7755 20.5 20 20.724 20 21V21.5H18.5C18.2245 21.5 18 21.276 18 21H17C17 21.827 17.673 22.5 18.5 22.5V23.5H16.1815C15.114 22.641 14.5 21.3765 14.5 20C14.5 17.5185 16.519 15.5 19 15.5ZM15.0825 29.5C13.9415 29.5 12.8695 28.942 12.2155 28.0075L10.1845 25.1055C10.0635 24.9335 10 24.731 10 24.5205C10 23.958 10.458 23.5 11.021 23.5H11.24C11.5595 23.5 11.865 23.653 12.0565 23.908L14 26.5005C14.47 27.1265 15.2175 27.5 16 27.5H16.986C16.991 27.5 16.996 27.5015 17.001 27.5015H17.002L20.1705 27.5005H20.172C20.5725 27.5005 20.949 27.657 21.2325 27.94L21.646 28.3535L22.353 27.6465L21.9395 27.233C21.467 26.761 20.8395 26.5005 20.1725 26.5005C20.172 26.5005 20.171 26.5005 20.17 26.5005H19.4995V26.5H16.9855C16.5905 26.496 16.2195 26.3415 15.939 26.062C15.6565 25.7785 15.5 25.401 15.5 25C15.5 24.724 15.7245 24.5 16 24.5H22.592C23.087 24.5 23.5665 24.645 23.9785 24.92L24.8485 25.5H26.5V29.5H15.0825ZM30.5 30.5H29.5V26.5H28.5V30.5H27.5V24.5H28.5V25.5H29.5V24.5H30.5V30.5Z" fill="#0D2C33"/>
<path d="M6 13.5C5.7245 13.5 5.5 13.2755 5.5 13H4.5C4.5 13.827 5.173 14.5 6 14.5V15.5H7V14.5H8.5V13C8.5 12.173 7.827 11.5 7 11.5H6C5.7245 11.5 5.5 11.2755 5.5 11V10.5H7C7.2755 10.5 7.5 10.7245 7.5 11H8.5C8.5 10.173 7.827 9.5 7 9.5V8.5H6V9.5H4.5V11C4.5 11.827 5.173 12.5 6 12.5H7C7.2755 12.5 7.5 12.7245 7.5 13V13.5H6Z" fill="#0D2C33"/>
<path d="M6.3225 18.5H6.678C9.888 18.5 12.5 15.888 12.5 12.6775C12.5 11.477 12.136 10.3225 11.4475 9.33849L9.054 5.91899L10.645 1.14549L7.732 0.416992L6.938 2.00499L6.237 0.952992L2.3185 1.60649L3.9395 5.92899L1.5525 9.33849C0.864 10.323 0.5 11.4775 0.5 12.6775C0.5 15.888 3.112 18.5 6.3225 18.5ZM5.763 2.04649L7.062 3.99449L8.268 1.58249L9.355 1.85399L8.1395 5.49999H4.8465L3.6815 2.39349L5.763 2.04649ZM2.372 9.91199L4.7605 6.49999H8.24L10.6285 9.91199C11.1985 10.727 11.5 11.6835 11.5 12.6775C11.5 15.3365 9.3365 17.5 6.6775 17.5H6.322C3.6635 17.5 1.5 15.3365 1.5 12.6775C1.5 11.6835 1.8015 10.727 2.372 9.91199Z" fill="#0D2C33"/>
<path d="M6.5 24.728V24H8.5L4.5 18.6665L0.5 24H2.5V24.5C2.5 28.36 5.64 31.5 9.5 31.5H10V30.21L9.523 29.9375C7.6585 28.872 6.5 26.876 6.5 24.728ZM3.5 24.5V23H2.5L4.5 20.3335L6.5 23H5.5V24.728C5.5 26.9815 6.593 29.092 8.3955 30.398C5.613 29.8785 3.5 27.431 3.5 24.5Z" fill="#0D2C33"/>
<path d="M17 7.272V8H15L19 13.3335L23 8H21V7.5C21 3.64 17.86 0.5 14 0.5H13.5V1.7905L13.977 2.0625C15.8415 3.128 17 5.1245 17 7.272ZM20 7.5V9H21L19 11.6665L17 9H18V7.272C18 5.019 16.9065 2.9085 15.104 1.602C17.887 2.122 20 4.569 20 7.5Z" fill="#0D2C33"/>
</g>
<defs>
<clipPath id="clip0_1798_70602">
<rect width="32" height="32" fill="white"/>
</clipPath>
</defs>
</svg>
