<svg width="32" height="32" viewBox="0 0 32 32" fill="none" xmlns="http://www.w3.org/2000/svg">
<g clip-path="url(#clip0_1798_70628)">
<path d="M22.913 4.13418H22.9131V3.63418C22.9131 2.62968 23.7079 1.83325 24.6666 1.83325V1.33325V0.833252H7.12546C5.84981 0.833252 4.83331 1.8862 4.83331 3.16306V23.9999V24.4999H5.33331H22.413H22.913V23.9999V7.10719V5.93517V4.13418Z" fill="#FFE07D" stroke="#0D2C33"/>
<path d="M20.1476 4.36598H7.48115C7.21444 4.36598 6.99823 4.14983 6.99823 3.88306C6.99823 3.6163 7.21438 3.40015 7.48115 3.40015H20.1476C20.4143 3.40015 20.6305 3.6163 20.6305 3.88306C20.6305 4.14983 20.4143 4.36598 20.1476 4.36598Z" fill="#0D2C33"/>
<path d="M20.1476 9.18116H7.48115C7.21444 9.18116 6.99823 8.96501 6.99823 8.69825C6.99823 8.43148 7.21438 8.21533 7.48115 8.21533H20.1476C20.4143 8.21533 20.6305 8.43148 20.6305 8.69825C20.6305 8.96501 20.4143 9.18116 20.1476 9.18116Z" fill="#0D2C33"/>
<path d="M20.1476 13.9966H7.48115C7.21444 13.9966 6.99823 13.7804 6.99823 13.5137C6.99823 13.247 7.21438 13.0308 7.48115 13.0308H20.1476C20.4143 13.0308 20.6305 13.2469 20.6305 13.5137C20.6305 13.7804 20.4143 13.9966 20.1476 13.9966Z" fill="#0D2C33"/>
<path d="M20.1476 18.812H7.48115C7.21444 18.812 6.99823 18.5959 6.99823 18.3291C6.99823 18.0623 7.21438 17.8462 7.48115 17.8462H20.1476C20.4143 17.8462 20.6305 18.0623 20.6305 18.3291C20.6305 18.5959 20.4143 18.812 20.1476 18.812Z" fill="#0D2C33"/>
<path d="M14.8639 26.1721L14.9841 26.4999H15.3333H20.9201H22.3305H22.8305V25.9999V13.7031V7.16438V3.65699C22.8305 2.65224 23.6501 1.83325 24.6666 1.83325V1.33325V0.833252H23.2562C21.6923 0.833252 20.4201 2.09501 20.4201 3.65699V12.8722C20.4201 13.1742 20.4383 13.4338 20.456 13.6486C20.4597 13.6935 20.4632 13.7352 20.4665 13.7742C20.4798 13.9316 20.4894 14.0446 20.4901 14.1409C20.4903 14.1634 20.4899 14.182 20.4891 14.1972C18.4766 14.7706 16.8906 15.8618 15.809 17.3763C14.7217 18.8989 14.1666 20.8174 14.1666 22.9999C14.1666 24.1988 14.5033 25.1891 14.8639 26.1721Z" fill="#FFD064" stroke="#0D2C33"/>
<path d="M20.6666 26.5H21.1666V26V22V21.5H20.6666H1.61364C1.20295 21.5 0.833313 21.8243 0.833313 22.2687V22.83C0.833313 24.8767 2.55826 26.5 4.64086 26.5H20.6666Z" fill="#EAB14D" stroke="#0D2C33"/>
<path d="M22.6666 31.1665C27.361 31.1665 31.1666 27.3609 31.1666 22.6665C31.1666 17.9721 27.361 14.1665 22.6666 14.1665C17.9722 14.1665 14.1666 17.9721 14.1666 22.6665C14.1666 27.3609 17.9722 31.1665 22.6666 31.1665Z" fill="#DD636E" stroke="#0D2C33"/>
<path d="M22.3906 29.4478C25.9201 29.4478 28.7813 26.5866 28.7813 23.0571C28.7813 19.5277 25.9201 16.6665 22.3906 16.6665C18.8612 16.6665 16 19.5277 16 23.0571C16 26.5866 18.8612 29.4478 22.3906 29.4478Z" fill="#F4FBFF"/>
<path d="M22.3906 16.6665C22.0945 16.6665 21.8032 16.6871 21.5178 16.7261C24.6343 17.1517 27.0357 19.8238 27.0357 23.0571C27.0357 26.2905 24.6343 28.9626 21.5178 29.3882C21.8032 29.4272 22.0945 29.4478 22.3906 29.4478C25.9201 29.4478 28.7812 26.5866 28.7812 23.0571C28.7812 19.5277 25.9201 16.6665 22.3906 16.6665Z" fill="#DAF1F4"/>
<path d="M22.3906 19.1162C22.1239 19.1162 21.9077 18.9001 21.9077 18.6333V18.4121C21.9077 18.1454 22.1239 17.9292 22.3906 17.9292C22.6573 17.9292 22.8735 18.1453 22.8735 18.4121V18.6333C22.8735 18.9001 22.6574 19.1162 22.3906 19.1162Z" fill="#365E7D"/>
<path d="M25.5187 20.4119C25.3951 20.4119 25.2715 20.3647 25.1772 20.2704C24.9886 20.0818 24.9887 19.776 25.1774 19.5875L25.3338 19.4311C25.5224 19.2427 25.8281 19.2426 26.0167 19.4313C26.2052 19.6199 26.2051 19.9257 26.0165 20.1142L25.8601 20.2706C25.7659 20.3648 25.6423 20.4119 25.5187 20.4119Z" fill="#365E7D"/>
<path d="M27.0357 23.5401H26.8145C26.5478 23.5401 26.3315 23.3239 26.3315 23.0571C26.3315 22.7904 26.5477 22.5742 26.8145 22.5742H27.0357C27.3024 22.5742 27.5186 22.7904 27.5186 23.0571C27.5186 23.3239 27.3024 23.5401 27.0357 23.5401Z" fill="#365E7D"/>
<path d="M17.9667 23.5401H17.7455C17.4788 23.5401 17.2626 23.3239 17.2626 23.0571C17.2626 22.7904 17.4787 22.5742 17.7455 22.5742H17.9667C18.2334 22.5742 18.4496 22.7904 18.4496 23.0571C18.4496 23.3239 18.2335 23.5401 17.9667 23.5401Z" fill="#365E7D"/>
<path d="M25.6752 26.8246C25.5517 26.8246 25.4281 26.7775 25.3338 26.6833L25.1774 26.5269C24.9888 26.3383 24.9887 26.0326 25.1772 25.844C25.3658 25.6552 25.6715 25.6552 25.8601 25.8438L26.0165 26.0002C26.2052 26.1888 26.2052 26.4945 26.0167 26.6831C25.9224 26.7774 25.7988 26.8246 25.6752 26.8246Z" fill="#365E7D"/>
<path d="M22.3906 28.1853C22.1239 28.1853 21.9077 27.9692 21.9077 27.7024V27.4812C21.9077 27.2145 22.1239 26.9983 22.3906 26.9983C22.6573 26.9983 22.8735 27.2144 22.8735 27.4812V27.7024C22.8735 27.9692 22.6574 28.1853 22.3906 28.1853Z" fill="#365E7D"/>
<path d="M19.1061 26.8247C18.9825 26.8247 18.8589 26.7776 18.7646 26.6833C18.576 26.4947 18.576 26.189 18.7646 26.0004L18.9209 25.844C19.1096 25.6555 19.4153 25.6555 19.6038 25.844C19.7924 26.0327 19.7924 26.3384 19.6038 26.527L19.4475 26.6833C19.3532 26.7776 19.2296 26.8247 19.1061 26.8247Z" fill="#365E7D"/>
<path d="M19.2624 20.4119C19.1389 20.4119 19.0153 20.3647 18.9209 20.2705L18.7646 20.1141C18.576 19.9255 18.576 19.6198 18.7646 19.4312C18.9532 19.2427 19.2589 19.2427 19.4475 19.4312L19.6038 19.5875C19.7924 19.7762 19.7924 20.0819 19.6038 20.2705C19.5096 20.3648 19.3859 20.4119 19.2624 20.4119Z" fill="#365E7D"/>
<path d="M23.7068 23.5399H22.3906C22.1239 23.5399 21.9077 23.3238 21.9077 23.057V20.5083C21.9077 20.2416 22.1239 20.0254 22.3906 20.0254C22.6573 20.0254 22.8735 20.2415 22.8735 20.5083V22.5741H23.7068C23.9735 22.5741 24.1898 22.7902 24.1898 23.057C24.1898 23.3238 23.9736 23.5399 23.7068 23.5399Z" fill="#2B4D66"/>
<path d="M22.1666 7.33325V7.83325H22.6666H26.918C27.4348 7.83325 27.8334 7.40749 27.8333 6.90762C27.8333 6.90754 27.8333 6.90746 27.8333 6.90737V3.72429C27.8333 2.13923 26.5763 0.833252 25 0.833252C23.4237 0.833252 22.1666 2.13915 22.1666 3.72429V7.33325Z" fill="#EAB14D" stroke="#0D2C33"/>
<path d="M25.5228 1.92644L26.6525 1.46375L25.5228 1.00105C25.2603 0.893541 24.9759 0.833252 24.678 0.833252C23.2135 0.833252 22.1666 2.21212 22.1666 3.72429V7.33325V7.83325H22.6666H23.9771H24.4771V7.33325V3.72429V3.72427C24.4771 2.844 24.9524 2.16004 25.5228 1.92644Z" fill="#E49542" stroke="#0D2C33"/>
<path d="M25 15.3334C23.6667 15.0001 23.1606 14.9852 23 15C26.1855 15.2946 29.0264 18.8111 29.0264 22.6668C29.0264 26.5224 23.6667 30.3334 23 30.3334C23.1606 30.3483 23.6667 30.3334 25 30.0001C27.6667 29.0001 30.3333 26.7169 30.3333 22.6668C30.3333 18.6167 27.6667 16.3334 25 15.3334Z" fill="#DA4A54"/>
</g>
<defs>
<clipPath id="clip0_1798_70628">
<rect width="32" height="32" fill="white"/>
</clipPath>
</defs>
</svg>
