<svg width="24" height="24" viewBox="0 0 24 24" fill="none" xmlns="http://www.w3.org/2000/svg">
<rect width="24" height="24" rx="6" fill="#FBF0F2"/>
<path d="M15.9584 10.7847L15.9584 10.7847L15.9616 10.782C16.3868 10.4366 16.4548 9.80655 16.1131 9.37867C15.7695 8.93291 15.13 8.87521 14.7063 9.21767L12.621 10.8833L12.62 10.8841C12.4714 11.0034 12.2464 11.079 11.9963 11.079C11.7463 11.079 11.5213 11.0034 11.3726 10.884L11.3717 10.8833L9.28641 9.21773C8.84811 8.86333 8.22307 8.95587 7.88495 9.37202L7.88488 9.37196L7.879 9.3795C7.54617 9.80552 7.611 10.4353 8.03771 10.782L8.0377 10.7821L8.04097 10.7847L10.1258 12.4499C10.6608 12.8852 11.343 13.0873 11.9997 13.0873C12.6593 13.0873 13.3332 12.8836 13.8722 12.4509C13.8724 12.4508 13.8726 12.4506 13.8727 12.4505L15.9584 10.7847ZM8.66634 6.83398H15.333C16.2564 6.83398 16.9494 7.0649 17.4094 7.49205C17.8628 7.91297 18.1663 8.59595 18.1663 9.66732V14.334C18.1663 15.4054 17.8628 16.0883 17.4094 16.5093C16.9494 16.9364 16.2564 17.1673 15.333 17.1673H8.66634C7.74299 17.1673 7.04991 16.9364 6.5899 16.5093C6.1366 16.0883 5.83301 15.4054 5.83301 14.334V9.66732C5.83301 8.59595 6.1366 7.91297 6.5899 7.49205C7.04991 7.0649 7.74299 6.83398 8.66634 6.83398Z" fill="#D1132A" stroke="#D1132A"/>
</svg>
