<svg width="41" height="40" viewBox="0 0 41 40" fill="none" xmlns="http://www.w3.org/2000/svg">
<rect x="0.5" width="40" height="40" rx="20" fill="#1877F2"/>
<g clip-path="url(#clip0_3257_53093)">
<path d="M32.5 20C32.5 13.3726 27.1274 8 20.5 8C13.8726 8 8.5 13.3726 8.5 20C8.5 25.9895 12.8882 30.954 18.625 31.8542V23.4688H15.5781V20H18.625V17.3563C18.625 14.3488 20.4166 12.6875 23.1576 12.6875C24.4701 12.6875 25.8438 12.9219 25.8438 12.9219V15.875H24.3306C22.84 15.875 22.375 16.8001 22.375 17.75V20H25.7031L25.1711 23.4688H22.375V31.8542C28.1118 30.954 32.5 25.9895 32.5 20Z" fill="#1877F2"/>
<path d="M25.1711 23.4688L25.7031 20H22.375V17.75C22.375 16.801 22.84 15.875 24.3306 15.875H25.8438V12.9219C25.8438 12.9219 24.4705 12.6875 23.1576 12.6875C20.4166 12.6875 18.625 14.3488 18.625 17.3563V20H15.5781V23.4688H18.625V31.8542C19.8674 32.0486 21.1326 32.0486 22.375 31.8542V23.4688H25.1711Z" fill="white"/>
</g>
<defs>
<clipPath id="clip0_3257_53093">
<rect width="24" height="24" fill="white" transform="translate(8.5 8)"/>
</clipPath>
</defs>
</svg>
