<svg width="24" height="24" viewBox="0 0 24 24" fill="none" xmlns="http://www.w3.org/2000/svg">
<rect width="24" height="24" rx="6" fill="#FBF0F2"/>
<path fill-rule="evenodd" clip-rule="evenodd" d="M6.33301 10.8792C6.33301 7.81258 8.8956 5.33398 11.9953 5.33398C15.1038 5.33398 17.6663 7.81258 17.6663 10.8792C17.6663 12.4244 17.1043 13.8591 16.1793 15.075C15.1589 16.4163 13.9011 17.585 12.4854 18.5023C12.1613 18.7143 11.8689 18.7303 11.5133 18.5023C10.0895 17.585 8.83173 16.4163 7.82001 15.075C6.89433 13.8591 6.33301 12.4244 6.33301 10.8792ZM10.1292 11.0518C10.1292 12.0791 10.9674 12.8871 11.9953 12.8871C13.0238 12.8871 13.8702 12.0791 13.8702 11.0518C13.8702 10.0325 13.0238 9.18521 11.9953 9.18521C10.9674 9.18521 10.1292 10.0325 10.1292 11.0518Z" fill="#D1132A"/>
</svg>
