<svg width="24" height="24" viewBox="0 0 24 24" fill="none" xmlns="http://www.w3.org/2000/svg">
<rect width="24" height="24" rx="6" fill="#FBF0F2"/>
<path d="M6.03725 7.25968L6.03725 7.25968L6.03829 7.25705C6.16971 6.92302 6.37961 6.61036 6.68278 6.32435L6.68286 6.32443L6.69043 6.31698C7.04163 5.97127 7.38759 5.83398 7.72634 5.83398C7.84299 5.83398 7.9551 5.85921 8.04998 5.90475L8.04995 5.9048L8.05681 5.90796C8.15587 5.95368 8.23688 6.01799 8.30191 6.11192L8.30188 6.11194L8.30522 6.11664L9.85188 8.29664L9.85187 8.29664L9.85391 8.29947C9.95579 8.44098 10.0213 8.56001 10.0636 8.6633L10.0635 8.66333L10.0668 8.67094C10.1073 8.76547 10.1197 8.83782 10.1197 8.88065C10.1197 8.94001 10.1031 9.011 10.0526 9.09401L10.0484 9.10092L10.0444 9.10796C9.98565 9.21188 9.89013 9.33642 9.75279 9.47376L9.75272 9.4737L9.74601 9.48067L9.24205 10.0045C9.07007 10.1787 8.99301 10.3945 8.99301 10.6207C8.99301 10.7214 9.0064 10.8091 9.02794 10.8953L9.03484 10.9229L9.04484 10.9495C9.05791 10.9844 9.07103 11.0153 9.07934 11.0349C9.08017 11.0369 9.08096 11.0387 9.08169 11.0405C9.09035 11.0609 9.09206 11.0656 9.09206 11.0656L9.10608 11.1077L9.12739 11.1467C9.27102 11.4101 9.50247 11.7265 9.80465 12.0836L9.80462 12.0836L9.80826 12.0878C10.1133 12.4404 10.4405 12.8017 10.7961 13.1642L10.7961 13.1642L10.7995 13.1675C10.8371 13.2052 10.8758 13.2421 10.9096 13.2742L10.9115 13.2761C10.9473 13.3102 10.9778 13.3393 11.0061 13.3675L11.0061 13.3676L11.0106 13.372C11.0801 13.4397 11.0802 13.5463 11.0128 13.6138L9.77945 14.8471C9.71724 14.9093 9.6157 14.9163 9.54056 14.8478C9.50185 14.8092 9.46384 14.7729 9.42997 14.7406L9.42825 14.739C9.3913 14.7037 9.35907 14.6729 9.32747 14.6413C8.65854 13.9658 8.05557 13.259 7.51805 12.5208C6.98999 11.7865 6.57041 11.0599 6.26759 10.3476C5.9747 9.63648 5.83301 8.97559 5.83301 8.36065C5.83301 7.96657 5.90244 7.59671 6.03725 7.25968Z" fill="#D1132A" stroke="#D1132A"/>
<path d="M18.6471 16.2194C18.6471 16.406 18.6137 16.5994 18.5471 16.786C18.5271 16.8394 18.5071 16.8927 18.4804 16.946C18.3671 17.186 18.2204 17.4127 18.0271 17.626C17.7004 17.986 17.3404 18.246 16.9337 18.4127C16.9271 18.4127 16.9204 18.4194 16.9137 18.4194C16.5204 18.5794 16.0937 18.666 15.6337 18.666C14.9537 18.666 14.2271 18.506 13.4604 18.1794C12.6937 17.8527 11.9271 17.4127 11.1671 16.8594C10.9071 16.666 10.6471 16.4727 10.4004 16.266L12.5804 14.086C12.7671 14.226 12.9337 14.3327 13.0737 14.406C13.1071 14.4194 13.1471 14.4394 13.1937 14.4594C13.2471 14.4794 13.3004 14.486 13.3604 14.486C13.4737 14.486 13.5604 14.446 13.6337 14.3727L14.1404 13.8727C14.3071 13.706 14.4671 13.5794 14.6204 13.4994C14.7737 13.406 14.9271 13.3594 15.0937 13.3594C15.2204 13.3594 15.3537 13.386 15.5004 13.446C15.6471 13.506 15.8004 13.5927 15.9671 13.706L18.1737 15.2727C18.3471 15.3927 18.4671 15.5327 18.5404 15.6994C18.6071 15.866 18.6471 16.0327 18.6471 16.2194Z" fill="#D1132A"/>
</svg>
