<svg width="41" height="40" viewBox="0 0 41 40" fill="none" xmlns="http://www.w3.org/2000/svg">
<g clip-path="url(#clip0_3257_53091)">
<path fill-rule="evenodd" clip-rule="evenodd" d="M5.31048 0.0265787C5.20293 0.0459546 4.90608 0.11645 4.65078 0.183152C4.39555 0.249855 3.97316 0.40346 3.71215 0.52458C3.45121 0.645617 3.04298 0.881673 2.80504 1.04913C2.5671 1.21659 2.15574 1.59767 1.89097 1.89598C1.58075 2.24557 1.29674 2.68124 1.09212 3.12136C0.917455 3.49692 0.712756 4.04538 0.637275 4.34014C0.508761 4.84202 0.5 5.84025 0.5 20.047V35.2179L0.680139 35.8738C0.779242 36.2345 0.985584 36.781 1.13866 37.0881C1.29181 37.3952 1.62596 37.8868 1.88127 38.1805C2.13658 38.4742 2.58141 38.8769 2.8698 39.0755C3.15812 39.2741 3.5701 39.5131 3.7852 39.6067C4.00031 39.7004 4.38749 39.8271 4.64561 39.8884C5.03139 39.9801 7.85659 40 20.5241 40C35.2388 40 35.9562 39.9932 36.4417 39.8486C36.7213 39.7653 37.2166 39.5513 37.5423 39.373C37.868 39.1947 38.335 38.8605 38.5801 38.6302C38.8252 38.3999 39.1874 37.9727 39.3849 37.6808C39.5825 37.389 39.8434 36.9009 39.9648 36.5963C40.0862 36.2916 40.2589 35.6626 40.3486 35.1984C40.5107 34.3591 40.5115 34.2724 40.4905 19.6565C40.4708 5.94595 40.4602 4.92529 40.3326 4.46382C40.2575 4.19173 40.0472 3.65374 39.8654 3.26829C39.6025 2.71084 39.3906 2.41393 38.8292 1.81691C38.3693 1.3279 37.9372 0.957775 37.5889 0.754699C37.2949 0.583285 36.7845 0.345992 36.4548 0.227263L35.855 0.0114903L20.6805 0.00143137C12.3346 -0.00417527 5.41803 0.00720285 5.31048 0.0265787ZM35.5342 0.220667C35.831 0.26585 36.3179 0.392329 36.6164 0.501741C36.9148 0.611153 37.3583 0.823875 37.6021 0.97443C37.8458 1.12507 38.3268 1.54639 38.6709 1.91082C39.0151 2.27517 39.4135 2.78224 39.5565 3.03751C39.6993 3.29277 39.8992 3.75524 40.0007 4.06517C40.1021 4.3751 40.2228 4.91895 40.2689 5.27365C40.325 5.70618 40.3526 9.64913 40.3526 17.2427V28.5669L39.8638 29.0613C39.5949 29.3333 39.0757 29.8196 38.71 30.142C38.3444 30.4643 37.658 31.0022 37.1848 31.3372C36.7115 31.6721 36.0252 32.1194 35.6595 32.3311C35.2938 32.5428 34.5723 32.9126 34.056 33.1527C33.5398 33.3929 32.7302 33.7268 32.257 33.8948C31.7837 34.0628 31.0094 34.3052 30.5361 34.4337C30.0629 34.5621 29.2358 34.7444 28.698 34.8389C28.1602 34.9335 27.1747 35.0465 26.5079 35.09C25.7541 35.1392 24.8516 35.1405 24.1222 35.0935C23.4769 35.052 22.6673 34.9768 22.3231 34.9264C21.979 34.8761 21.284 34.7435 20.7788 34.6318C20.2736 34.5201 19.2704 34.2416 18.5495 34.0129C17.4542 33.6655 17.1683 33.6038 16.8087 33.6375C16.5721 33.6596 15.6921 33.8886 14.8532 34.1463C14.0143 34.4039 12.9232 34.7069 12.4284 34.8197C11.732 34.9783 11.2199 35.0334 10.1601 35.0634C9.24169 35.0893 8.58567 35.0668 8.16649 34.9949C7.73073 34.9202 7.53518 34.8505 7.51985 34.7643C7.50703 34.6922 7.65322 34.5377 7.87074 34.3934C8.07591 34.2573 8.51324 33.9354 8.84262 33.678C9.172 33.4205 9.64413 32.9938 9.89185 32.7298C10.1396 32.4657 10.5074 31.9839 10.7095 31.6591C10.9114 31.3343 11.1178 30.8966 11.1679 30.6865C11.2339 30.4108 11.2363 30.2148 11.1769 29.9822C11.1316 29.805 11.0002 29.5377 10.8848 29.3882C10.7695 29.2388 10.4227 28.8342 10.1143 28.4891C9.80589 28.144 9.33227 27.5689 9.06171 27.2111C8.79115 26.8533 8.3241 26.171 8.02366 25.6948C7.7233 25.2187 7.23952 24.3097 6.94854 23.6748C6.65757 23.0399 6.29416 22.1124 6.14101 21.6135C5.98785 21.1147 5.79426 20.3727 5.71096 19.9645C5.62758 19.5564 5.51783 18.8885 5.46715 18.4804C5.41638 18.0723 5.37509 17.1076 5.3754 16.3367C5.37563 15.5658 5.41474 14.6011 5.46238 14.193C5.50993 13.7849 5.62202 13.0613 5.71151 12.5852C5.80091 12.109 6.01241 11.2742 6.18145 10.7301C6.3504 10.1859 6.68025 9.32081 6.91428 8.80772C7.14831 8.29464 7.51774 7.56429 7.73527 7.18469C7.95272 6.80517 8.35328 6.17623 8.62532 5.78715C8.89737 5.39807 9.43059 4.70647 9.81034 4.25027C10.1901 3.79416 10.8556 3.09803 11.2892 2.70342C11.7227 2.30889 12.3097 1.81139 12.5935 1.59792C12.8772 1.38454 13.4753 0.968329 13.9226 0.672991L14.7359 0.136156L24.8653 0.13731C31.1794 0.137969 35.1978 0.169383 35.5342 0.220667ZM27.7609 10.8333C27.6112 10.9125 27.4088 11.1035 27.3112 11.2576L27.1336 11.5377V16.1509C27.1336 20.2406 27.1481 20.7962 27.2609 21.0468C27.3309 21.2023 27.4764 21.4026 27.5843 21.4921C27.7239 21.6078 27.9008 21.6548 28.1974 21.6548C28.549 21.6548 28.6561 21.616 28.8812 21.4078C29.0279 21.2719 29.1884 21.058 29.2378 20.9323C29.3026 20.7673 29.3216 19.4065 29.3061 16.0328L29.2846 11.3616L29.0891 11.1383C28.9815 11.0154 28.7803 10.864 28.6418 10.8019C28.5034 10.7397 28.3098 10.6889 28.2116 10.689C28.1135 10.689 27.9106 10.754 27.7609 10.8333ZM11.882 11.5978C11.732 11.635 11.5121 11.7801 11.3931 11.9205C11.2253 12.1184 11.1769 12.258 11.1769 12.544C11.1769 12.8296 11.2252 12.9693 11.392 13.1654C11.5206 13.3167 11.733 13.449 11.92 13.4945C12.0921 13.5364 12.9984 13.5716 13.9341 13.5726C14.8699 13.5737 15.6354 13.596 15.6354 13.6222C15.6354 13.6483 14.6656 14.9678 13.4803 16.5542C12.295 18.1407 11.2568 19.557 11.1732 19.7017C11.0809 19.8611 11.0209 20.1138 11.0208 20.344C11.0205 20.6031 11.0772 20.8123 11.1994 21.0036C11.2978 21.1577 11.4826 21.3394 11.61 21.4074C11.802 21.5099 12.3738 21.535 14.9474 21.5544C17.5195 21.5737 18.0995 21.5572 18.3243 21.4582C18.4735 21.3925 18.6565 21.2406 18.7312 21.1206C18.8057 21.0007 18.8701 20.7434 18.8741 20.5491C18.8782 20.3548 18.8299 20.0941 18.7669 19.97C18.7039 19.8459 18.5455 19.6825 18.4149 19.6071C18.2161 19.4921 17.8396 19.4631 16.0971 19.4286L14.0168 19.3874L15.9639 16.7902C17.0348 15.3617 18.051 13.9704 18.222 13.6983C18.393 13.4262 18.572 13.0678 18.6197 12.9019C18.6674 12.7359 18.6824 12.4993 18.6531 12.3759C18.6238 12.2527 18.502 12.0488 18.3825 11.9228C18.2629 11.7968 18.0272 11.6534 17.8585 11.604C17.662 11.5465 16.5824 11.5171 14.8532 11.5222C13.369 11.5266 12.0319 11.5607 11.882 11.5978ZM21.1603 14.0247C20.9079 14.1341 20.5165 14.353 20.2904 14.5113C20.0643 14.6695 19.7558 14.9594 19.6049 15.1556C19.4541 15.3517 19.2558 15.6688 19.1643 15.8601C19.0729 16.0514 18.9455 16.421 18.8811 16.6813C18.8168 16.9416 18.7648 17.3973 18.7655 17.6938C18.7663 17.9904 18.8178 18.4867 18.8802 18.7966C18.9424 19.1065 19.0836 19.5677 19.1938 19.8215C19.304 20.0752 19.5151 20.4383 19.6627 20.6283C19.8105 20.8184 20.1088 21.0938 20.3257 21.2405C20.5425 21.3872 20.9342 21.5775 21.1961 21.6634C21.458 21.7493 21.8747 21.8197 22.1221 21.8197C22.3696 21.8197 22.7315 21.769 22.9264 21.7073C23.1213 21.6454 23.4466 21.4745 23.6494 21.3274L24.0181 21.0601L24.2265 21.2649C24.3413 21.3776 24.5119 21.5114 24.6059 21.5622C24.6999 21.6131 24.9245 21.6548 25.1051 21.6548C25.2978 21.6548 25.5389 21.5861 25.6886 21.4885C25.8288 21.3972 26.0002 21.1967 26.0694 21.0432C26.1774 20.8031 26.195 20.3534 26.195 17.8263C26.195 15.5096 26.1721 14.8307 26.0866 14.6151C26.027 14.4648 25.8557 14.2619 25.7059 14.1643C25.535 14.0531 25.305 13.9869 25.0893 13.9869C24.8498 13.9869 24.6564 14.0504 24.4532 14.1959C24.2926 14.311 24.1613 14.4408 24.1613 14.4845C24.1613 14.5282 24.1237 14.564 24.0778 14.564C24.032 14.564 23.8756 14.4685 23.7305 14.3518C23.5854 14.2351 23.2881 14.0682 23.07 13.9808C22.8179 13.8798 22.4814 13.8227 22.1463 13.8239C21.7715 13.8253 21.4866 13.8833 21.1603 14.0247ZM32.7654 13.9715C32.4858 14.0486 32.081 14.2204 31.8661 14.3533C31.6512 14.4861 31.3108 14.7728 31.1099 14.9902C30.9089 15.2077 30.6516 15.5859 30.5379 15.8307C30.4243 16.0755 30.2811 16.475 30.2196 16.7185C30.1581 16.962 30.1073 17.519 30.1069 17.9564C30.1062 18.5186 30.1514 18.9067 30.261 19.2808C30.3462 19.5718 30.5534 20.0117 30.7212 20.2582C30.8891 20.5048 31.1718 20.8294 31.3496 20.9795C31.5274 21.1296 31.9059 21.3674 32.1908 21.5079C32.6273 21.7232 32.8286 21.7694 33.4709 21.8021C33.9398 21.8259 34.3946 21.8009 34.653 21.7372C34.8839 21.6802 35.2664 21.5369 35.5031 21.4186C35.7416 21.2994 36.1445 20.9827 36.4073 20.7077C36.668 20.435 36.9616 20.0354 37.0598 19.8197C37.1579 19.604 37.2874 19.233 37.3475 18.9952C37.4075 18.7574 37.4567 18.2289 37.4567 17.8208C37.4567 17.4127 37.4096 16.8932 37.3521 16.6665C37.2945 16.4398 37.1499 16.0519 37.0307 15.8046C36.9115 15.5572 36.6316 15.1676 36.4088 14.9388C36.1859 14.71 35.8109 14.4205 35.5754 14.2956C35.34 14.1707 34.9017 14.0137 34.6017 13.9466C34.3015 13.8797 33.88 13.8263 33.6649 13.8281C33.4498 13.83 33.045 13.8945 32.7654 13.9715ZM23.0941 16.0791C23.2358 16.1415 23.4599 16.3309 23.5922 16.5001C23.7245 16.6693 23.8763 16.9716 23.9294 17.1719C23.9843 17.3781 24.0084 17.7436 23.9851 18.0142C23.9625 18.2773 23.87 18.6452 23.7796 18.832C23.6892 19.0188 23.4856 19.2759 23.3272 19.4032C23.0736 19.6071 22.9724 19.6347 22.4796 19.6347C21.9867 19.6347 21.8855 19.6071 21.6319 19.4032C21.4735 19.2759 21.2719 19.0229 21.184 18.841C21.0959 18.6592 21.0036 18.3294 20.9787 18.1083C20.9538 17.8872 20.9755 17.528 21.0267 17.3101C21.078 17.0922 21.2057 16.7757 21.3107 16.6067C21.4156 16.4378 21.6336 16.2261 21.795 16.1363C21.9643 16.042 22.2467 15.9714 22.4625 15.9693C22.6682 15.9673 22.9525 16.0167 23.0941 16.0791ZM34.3923 16.082C34.5085 16.146 34.6985 16.3036 34.8145 16.4324C34.9305 16.5611 35.0801 16.8044 35.1469 16.973C35.2149 17.1445 35.2684 17.518 35.2684 17.8208C35.2684 18.1236 35.2149 18.4971 35.1469 18.6686C35.0801 18.8372 34.9305 19.0805 34.8145 19.2092C34.6985 19.338 34.5085 19.4956 34.3923 19.5596C34.2761 19.6236 33.9977 19.6759 33.7735 19.6759C33.483 19.6759 33.2726 19.6184 33.0421 19.476C32.8244 19.3414 32.6452 19.1342 32.4946 18.8425C32.3048 18.475 32.2714 18.3177 32.2745 17.8084C32.2775 17.2988 32.3134 17.1421 32.5105 16.7743C32.6757 16.4661 32.84 16.2866 33.0793 16.1532C33.2967 16.032 33.5511 15.9657 33.7984 15.9657C34.0089 15.9657 34.2761 16.018 34.3923 16.082Z" fill="#1877F2"/>
</g>
<defs>
<clipPath id="clip0_3257_53091">
<rect x="0.5" width="40" height="40" rx="20" fill="white"/>
</clipPath>
</defs>
</svg>
