<svg width="35" height="35" viewBox="0 0 35 35" fill="none" xmlns="http://www.w3.org/2000/svg">
<g clip-path="url(#clip0_2710_27374)">
<path d="M27.8464 27.8459C33.5604 22.132 33.5604 12.868 27.8464 7.15405C22.1325 1.44014 12.8685 1.44014 7.15454 7.15405C1.44063 12.868 1.44063 22.132 7.15454 27.8459C12.8685 33.5599 22.1325 33.5599 27.8464 27.8459Z" fill="#E9B522"/>
<path d="M17.5004 35C7.85062 35 0 27.1494 0 17.4996C0 7.84975 7.85062 0 17.5004 0C27.1503 0 35.0009 7.85062 35.0009 17.4996C35.0009 27.1485 27.1503 35 17.5004 35ZM17.5004 2.86905C9.43303 2.86905 2.86905 9.43216 2.86905 17.5004C2.86905 25.5687 9.43303 32.1318 17.5004 32.1318C25.5678 32.1318 32.1318 25.5678 32.1318 17.5004C32.1318 9.43303 25.5678 2.86905 17.5004 2.86905Z" fill="#F7DE61"/>
<path d="M22.1764 23.8956C21.4111 24.6478 20.3842 25.1191 19.0967 25.3087V27.5651H17.0237V25.349C16.1153 25.2815 15.2719 25.1051 14.4934 24.8207C13.714 24.5363 13.033 24.1502 12.4502 23.6622L13.3445 21.7515C14.5232 22.6731 15.7967 23.1812 17.1658 23.276V19.0484C16.2575 18.8184 15.4921 18.5639 14.869 18.2866C14.2459 18.0092 13.7237 17.595 13.3042 17.0464C12.8838 16.4979 12.674 15.7826 12.674 14.9023C12.674 14.1704 12.8565 13.5033 13.2225 12.9004C13.5885 12.2974 14.1002 11.7963 14.7575 11.3961C15.4149 10.9968 16.1706 10.7422 17.0237 10.6334V8.37695H19.0967V10.6123C19.8822 10.7071 20.6212 10.8967 21.3119 11.1819C22.0026 11.4663 22.5854 11.8261 23.0602 12.2588L22.1658 14.1695C21.1767 13.3568 20.106 12.8688 18.9545 12.7055V17.1166C19.862 17.3475 20.6141 17.5941 21.2109 17.8583C21.8069 18.1224 22.308 18.5191 22.7152 19.0475C23.1216 19.5758 23.3252 20.2674 23.3252 21.1205C23.3252 22.2184 22.9426 23.1435 22.1772 23.8948L22.1764 23.8956ZM15.7835 15.9081C16.1083 16.1995 16.569 16.447 17.1658 16.6497V12.7266C16.5831 12.8486 16.1258 13.0864 15.7941 13.4384C15.4614 13.7912 15.2964 14.2309 15.2964 14.7601C15.2964 15.2349 15.4588 15.6176 15.7844 15.9081H15.7835ZM20.2552 22.494C20.5527 22.1623 20.7028 21.7313 20.7028 21.203C20.7028 20.7835 20.5536 20.4447 20.2552 20.1867C19.9568 19.9295 19.5232 19.7127 18.9545 19.5363V23.1751C19.5232 23.0531 19.9568 22.8258 20.2552 22.494Z" fill="#CE9811"/>
<path d="M1.06723 17.4996C1.06723 8.02879 8.62998 0.292259 18.0341 0.00877655C17.8568 0.00351062 17.6795 0 17.5004 0C7.85062 0 0 7.85062 0 17.4996C0 27.1485 7.85062 35 17.5004 35C17.6786 35 17.8568 34.9965 18.0341 34.9912C8.63086 34.7077 1.06723 26.9712 1.06723 17.4996Z" fill="#FFF2BD"/>
<path d="M17.5001 2.86914C17.3439 2.86914 17.1885 2.87265 17.0332 2.87704C24.8856 3.12454 31.1977 9.58847 31.1977 17.4996C31.1977 25.4108 24.8856 31.8748 17.0332 32.1231C17.1885 32.1284 17.3439 32.131 17.5001 32.131C25.5675 32.131 32.1315 25.5671 32.1315 17.4996C32.1315 9.43224 25.5675 2.86914 17.5001 2.86914Z" fill="#CE9811"/>
<path d="M15.3968 15.4365C15.7215 15.7279 16.1823 15.9754 16.7791 16.1781V12.255C16.1964 12.377 15.7391 12.6149 15.4073 12.9668C15.0747 13.3196 14.9097 13.7593 14.9097 14.2886C14.9097 14.7634 15.0721 15.1451 15.3977 15.4365H15.3968ZM19.8685 22.0224C20.166 21.6907 20.3161 21.2598 20.3161 20.7314C20.3161 20.3119 20.1669 19.9731 19.8685 19.7151C19.5701 19.4579 19.1365 19.2412 18.5678 19.0648V22.7035C19.1365 22.5815 19.5701 22.3542 19.8685 22.0224ZM21.7896 23.4249C21.0243 24.1771 19.9975 24.6484 18.71 24.838V27.0944H16.6369V24.8783C15.7286 24.8108 14.8851 24.6344 14.1067 24.35C13.3273 24.0656 12.6462 23.6795 12.0635 23.1915L12.9578 21.2808C14.1365 22.2024 15.41 22.7105 16.7791 22.8053V18.5777C15.8707 18.3477 15.1054 18.0932 14.4823 17.8159C13.8592 17.5385 13.337 17.1243 12.9174 16.5757C12.497 16.0272 12.2873 15.3119 12.2873 14.4316C12.2873 13.6996 12.4698 13.0326 12.8358 12.4297C13.2018 11.8267 13.7135 11.3256 14.3708 10.9254C15.0282 10.526 15.7839 10.2715 16.6369 10.1627V7.90625H18.71V10.1416C19.4955 10.2364 20.2344 10.426 20.9252 10.7112C21.6159 10.9956 22.1986 11.3554 22.6734 11.7881L21.7791 13.6988C20.79 12.8861 19.7193 12.3981 18.5678 12.2348V16.6459C19.4753 16.8768 20.2274 17.1234 20.8242 17.3876C21.4202 17.6517 21.9213 18.0484 22.3285 18.5768C22.7349 19.1051 22.9385 19.7967 22.9385 20.6498C22.9385 21.7477 22.5558 22.6728 21.7896 23.4241V23.4249Z" fill="#F7DE61"/>
</g>
<defs>
<clipPath id="clip0_2710_27374">
<rect width="35" height="35" fill="white"/>
</clipPath>
</defs>
</svg>
