<svg width="245" height="168" viewBox="0 0 245 168" fill="none" xmlns="http://www.w3.org/2000/svg">
<path d="M244.792 147.636H0V147.748H244.792V147.636Z" fill="#EBEBEB"/>
<path d="M41.8991 151.928H25.6841V152.04H41.8991V151.928Z" fill="#EBEBEB"/>
<path d="M106.675 150.706H83.787V150.819H106.675V150.706Z" fill="#EBEBEB"/>
<path d="M64.6205 155.414H55.2253V155.527H64.6205V155.414Z" fill="#EBEBEB"/>
<path d="M167.702 153.457H152.912V153.57H167.702V153.457Z" fill="#EBEBEB"/>
<path d="M181.519 153.457H172.06V153.57H181.519V153.457Z" fill="#EBEBEB"/>
<path d="M220.269 155.36H191.599V155.473H220.269V155.36Z" fill="#EBEBEB"/>
<path d="M116.031 127.524H21.4977C20.7571 127.522 20.0473 127.251 19.5241 126.768C19.0009 126.285 18.707 125.631 18.707 124.949V2.55228C18.7135 1.87409 19.0102 1.22562 19.5327 0.747744C20.0552 0.269864 20.7613 0.00116178 21.4977 0H116.031C116.773 0 117.484 0.271275 118.008 0.754148C118.533 1.23702 118.827 1.89194 118.827 2.57482V124.949C118.827 125.632 118.533 126.287 118.008 126.769C117.484 127.252 116.773 127.524 116.031 127.524ZM21.4977 0.0901868C20.7896 0.0913813 20.1109 0.351306 19.6106 0.812908C19.1104 1.27451 18.8294 1.90007 18.8294 2.55228V124.949C18.8294 125.601 19.1104 126.227 19.6106 126.688C20.1109 127.15 20.7896 127.41 21.4977 127.411H116.031C116.74 127.41 117.419 127.15 117.92 126.688C118.421 126.227 118.703 125.601 118.705 124.949V2.55228C118.703 1.89966 118.421 1.27411 117.92 0.812632C117.419 0.351159 116.74 0.0913788 116.031 0.0901868H21.4977Z" fill="#EBEBEB"/>
<path d="M221.934 127.524H127.395C126.654 127.522 125.944 127.251 125.42 126.768C124.896 126.286 124.601 125.631 124.6 124.949V2.55228C124.607 1.87367 124.905 1.22522 125.428 0.747462C125.952 0.269706 126.658 0.00114911 127.395 0H221.934C222.669 0.00234687 223.374 0.271574 223.896 0.749327C224.417 1.22708 224.713 1.87486 224.72 2.55228V124.949C224.72 125.63 224.426 126.284 223.904 126.766C223.382 127.249 222.674 127.521 221.934 127.524ZM127.395 0.0901868C126.687 0.0913788 126.007 0.351159 125.506 0.812632C125.005 1.27411 124.723 1.89966 124.722 2.55228V124.949C124.723 125.601 125.005 126.227 125.506 126.688C126.007 127.15 126.687 127.41 127.395 127.411H221.934C222.642 127.41 223.322 127.15 223.823 126.688C224.324 126.227 224.606 125.601 224.607 124.949V2.55228C224.606 1.89966 224.324 1.27411 223.823 0.812632C223.322 0.351159 222.642 0.0913788 221.934 0.0901868H127.395Z" fill="#EBEBEB"/>
<path d="M43.8225 85.7764L160.309 85.7764V18.6371L43.8225 18.6371L43.8225 85.7764Z" fill="#F0F0F0"/>
<path d="M158.028 82.6202V21.7939L46.0988 21.7939V82.6202H158.028Z" fill="#FAFAFA"/>
<path d="M143.296 82.6202L131.811 21.7939H123.346L134.826 82.6202H143.296Z" fill="white"/>
<path d="M132.873 82.6202L121.392 21.7939H117.608L129.089 82.6202H132.873Z" fill="white"/>
<path d="M114.347 82.6202L102.866 21.7939H94.4015L105.882 82.6202H114.347Z" fill="white"/>
<path d="M93.0067 82.6202L81.5211 21.7939H77.7366L89.2173 82.6202H93.0067Z" fill="white"/>
<path d="M128.619 82.6202V21.7939H128.041V82.6202H128.619Z" fill="#E0E0E0"/>
<path d="M158.028 82.6241V21.7979H157.45V82.6241H158.028Z" fill="#E0E0E0"/>
<path d="M130.9 82.6202V21.7939H128.619V82.6202H130.9Z" fill="#F0F0F0"/>
<path d="M100.364 82.6202V21.7939H99.7866V82.6202H100.364Z" fill="#E0E0E0"/>
<path d="M102.641 82.6202V21.7939H100.359V82.6202H102.641Z" fill="#F0F0F0"/>
<path d="M72.0909 82.6202V21.7939H71.5132V82.6202H72.0909Z" fill="#E0E0E0"/>
<path d="M74.3726 82.6241V21.7979H72.0911V82.6241H74.3726Z" fill="#F0F0F0"/>
<path d="M43.8176 85.776L43.8176 18.6367H43.2399L43.2399 85.776H43.8176Z" fill="#E0E0E0"/>
<path d="M31.9841 14.0284H165.479C165.681 14.0284 165.874 13.9549 166.017 13.8239C166.16 13.693 166.241 13.5152 166.243 13.3294C166.243 13.1429 166.162 12.9639 166.019 12.832C165.876 12.7001 165.682 12.626 165.479 12.626H31.9841C31.7824 12.6272 31.5894 12.7018 31.4472 12.8336C31.305 12.9654 31.2252 13.1436 31.2252 13.3294C31.2265 13.5144 31.3069 13.6915 31.4489 13.8224C31.5909 13.9532 31.7832 14.0272 31.9841 14.0284Z" fill="#E0E0E0"/>
<g opacity="0.6">
<path d="M112.962 133.778H163.614L163.614 11.2736H112.962L112.962 133.778Z" fill="#F5F5F5"/>
<path d="M143.762 134.779H148.006L146.817 12.2744H144.917L143.762 134.779Z" fill="#E6E6E6"/>
<path d="M153.127 134.779H155.178L154.6 12.2744H153.685L153.127 134.779Z" fill="#E6E6E6"/>
<path d="M131.453 134.779H133.499L132.927 12.2744H132.011L131.453 134.779Z" fill="#E6E6E6"/>
<path d="M121.025 134.779H123.071L122.499 12.2744H121.583L121.025 134.779Z" fill="#E6E6E6"/>
</g>
<g opacity="0.6">
<path d="M34.5974 133.778H59.9236L59.9236 11.2736H34.5974L34.5974 133.778Z" fill="#F5F5F5"/>
<path d="M49.9999 134.779H52.1198L51.5274 12.2744H50.5776L49.9999 134.779Z" fill="#E6E6E6"/>
<path d="M54.6804 134.779H55.7036L55.4197 12.2744H54.9595L54.6804 134.779Z" fill="#E6E6E6"/>
<path d="M43.8455 134.779H44.8687L44.5798 12.2744H44.1245L43.8455 134.779Z" fill="#E6E6E6"/>
<path d="M38.6324 134.779H39.6557L39.3668 12.2744H38.9066L38.6324 134.779Z" fill="#E6E6E6"/>
</g>
<path d="M210.389 30.2129H176.789V68.8397H210.389V30.2129Z" fill="#E6E6E6"/>
<path d="M211.867 30.2129H177.293V68.8397H211.867V30.2129Z" fill="#F5F5F5"/>
<path d="M209.219 66.0976V32.9541H179.947V66.0976H209.219Z" fill="#FAFAFA"/>
<path d="M209.219 66.0976V32.9541H208.945V66.0976H209.219Z" fill="#E6E6E6"/>
<path d="M204.265 47.3477C205.917 45.8262 205.917 43.3594 204.265 41.8378C202.613 40.3163 199.935 40.3163 198.283 41.8379C196.631 43.3594 196.631 45.8262 198.283 47.3477C199.935 48.8692 202.613 48.8692 204.265 47.3477Z" fill="#F0F0F0"/>
<path d="M200.597 56.0357C203.954 52.9433 203.954 47.9297 200.597 44.8374C197.24 41.7451 191.796 41.7451 188.439 44.8374C185.081 47.9297 185.081 52.9433 188.439 56.0357C191.796 59.128 197.24 59.128 200.597 56.0357Z" fill="white"/>
<path d="M192.28 45.4824C192.817 43.3882 191.409 41.2899 189.135 40.7956C186.861 40.3013 184.583 41.5983 184.047 43.6925C183.51 45.7867 184.918 47.8851 187.192 48.3793C189.465 48.8736 191.744 47.5766 192.28 45.4824Z" fill="#F0F0F0"/>
<path d="M175.79 101.622H171.198V144.74H175.79V101.622Z" fill="#F0F0F0"/>
<path d="M218.952 99.043H170.082V101.622H218.952V99.043Z" fill="#F0F0F0"/>
<path d="M215.961 144.74H173.068V147.635H215.961V144.74Z" fill="#F0F0F0"/>
<path d="M217.836 101.622H175.79V144.74H217.836V101.622Z" fill="#FAFAFA"/>
<path d="M179.619 119.655H214.002V106.425H179.619V119.655Z" fill="#F0F0F0"/>
<path d="M179.619 139.113H214.002V125.883H179.619V139.113Z" fill="#F0F0F0"/>
<path d="M200.73 105.645H192.891C192.399 105.645 192 106.012 192 106.465V106.88C192 107.333 192.399 107.701 192.891 107.701H200.73C201.222 107.701 201.621 107.333 201.621 106.88V106.465C201.621 106.012 201.222 105.645 200.73 105.645Z" fill="#FAFAFA"/>
<path d="M200.73 125.106H192.891C192.399 125.106 192 125.474 192 125.927V126.342C192 126.795 192.399 127.163 192.891 127.163H200.73C201.222 127.163 201.621 126.795 201.621 126.342V125.927C201.621 125.474 201.222 125.106 200.73 125.106Z" fill="#FAFAFA"/>
<path d="M93.7896 147.505C99.5439 146.645 103.451 141.651 102.517 136.351C101.583 131.051 96.1614 127.452 90.4071 128.312C84.6528 129.173 80.7452 134.167 81.6793 139.467C82.6133 144.767 88.0353 148.366 93.7896 147.505Z" fill="#EBEBEB"/>
<path d="M77.9948 147.476C85.177 146.402 90.0542 140.169 88.8884 133.554C87.7225 126.939 80.9551 122.447 73.7729 123.521C66.5907 124.594 61.7135 130.827 62.8794 137.443C64.0452 144.058 70.8126 148.55 77.9948 147.476Z" fill="#F5F5F5"/>
<path d="M122.396 168C174.822 168 217.322 165.715 217.322 162.896C217.322 160.076 174.822 157.791 122.396 157.791C69.9706 157.791 27.4709 160.076 27.4709 162.896C27.4709 165.715 69.9706 168 122.396 168Z" fill="#F5F5F5"/>
<path d="M61.9863 64.2761C58.7501 64.2761 57.2275 61.2774 57.1639 61.1511C57.1085 61.0108 57.1124 60.8563 57.1749 60.7185C57.2373 60.5807 57.3538 60.4695 57.5011 60.4071C57.6484 60.3446 57.8158 60.3355 57.9701 60.3814C58.1244 60.4274 58.2543 60.5251 58.334 60.6551C58.334 60.6957 59.6216 63.1533 62.0842 63.0902C62.2461 63.0986 62.3986 63.1627 62.5115 63.2698C62.6245 63.377 62.6896 63.5193 62.6939 63.6686C62.6982 63.8179 62.6414 63.9632 62.5348 64.0757C62.4283 64.1883 62.2796 64.2598 62.1185 64.2761H61.9863Z" fill="#E12B41"/>
<path d="M104.282 22.6325C104 22.6337 103.719 22.6171 103.44 22.5829C103.356 22.5714 103.276 22.5448 103.204 22.5047C103.131 22.4645 103.068 22.4117 103.018 22.3491C102.968 22.2865 102.931 22.2154 102.911 22.1398C102.89 22.0643 102.886 21.9858 102.899 21.9088C102.912 21.8318 102.94 21.7579 102.984 21.6911C103.028 21.6244 103.085 21.5663 103.153 21.52C103.221 21.4738 103.298 21.4403 103.38 21.4215C103.462 21.4027 103.547 21.399 103.631 21.4105C103.66 21.4105 106.608 21.7938 107.9 19.8593C107.944 19.793 108.002 19.7353 108.07 19.6895C108.138 19.6438 108.216 19.6109 108.298 19.5926C108.38 19.5744 108.465 19.5713 108.548 19.5834C108.632 19.5955 108.712 19.6226 108.784 19.6631C108.856 19.7037 108.918 19.7569 108.968 19.8198C109.018 19.8827 109.053 19.9539 109.073 20.0295C109.093 20.1051 109.096 20.1835 109.083 20.2603C109.07 20.3371 109.041 20.4108 108.997 20.4771C107.709 22.353 105.482 22.6325 104.282 22.6325Z" fill="#E12B41"/>
<path opacity="0.6" d="M104.282 22.6325C104 22.6337 103.719 22.6171 103.44 22.5829C103.356 22.5714 103.276 22.5448 103.204 22.5047C103.131 22.4645 103.068 22.4117 103.018 22.3491C102.968 22.2865 102.931 22.2154 102.911 22.1398C102.89 22.0643 102.886 21.9858 102.899 21.9088C102.912 21.8318 102.94 21.7579 102.984 21.6911C103.028 21.6244 103.085 21.5663 103.153 21.52C103.221 21.4738 103.298 21.4403 103.38 21.4215C103.462 21.4027 103.547 21.399 103.631 21.4105C103.66 21.4105 106.608 21.7938 107.9 19.8593C107.944 19.793 108.002 19.7353 108.07 19.6895C108.138 19.6438 108.216 19.6109 108.298 19.5926C108.38 19.5744 108.465 19.5713 108.548 19.5834C108.632 19.5955 108.712 19.6226 108.784 19.6631C108.856 19.7037 108.918 19.7569 108.968 19.8198C109.018 19.8827 109.053 19.9539 109.073 20.0295C109.093 20.1051 109.096 20.1835 109.083 20.2603C109.07 20.3371 109.041 20.4108 108.997 20.4771C107.709 22.353 105.482 22.6325 104.282 22.6325Z" fill="white"/>
<path d="M31.6276 45.2152C30.3855 45.1763 29.1792 44.822 28.1418 44.1916C28.0686 44.1484 28.0057 44.092 27.9569 44.0257C27.9081 43.9594 27.8745 43.8847 27.858 43.8061C27.8416 43.7275 27.8426 43.6466 27.8612 43.5684C27.8797 43.4902 27.9152 43.4163 27.9657 43.3511C28.0162 43.2859 28.0806 43.2309 28.1549 43.1893C28.2291 43.1478 28.3118 43.1206 28.3979 43.1093C28.484 43.0981 28.5716 43.1031 28.6555 43.1241C28.7394 43.145 28.8178 43.1814 28.8859 43.2311C28.9104 43.2311 31.3779 44.7688 33.4586 43.5468C33.5299 43.499 33.611 43.4652 33.697 43.4474C33.783 43.4296 33.872 43.4282 33.9586 43.4433C34.0451 43.4583 34.1275 43.4895 34.2005 43.5349C34.2735 43.5804 34.3357 43.6391 34.3831 43.7074C34.4306 43.7758 34.4624 43.8524 34.4766 43.9325C34.4907 44.0126 34.487 44.0945 34.4655 44.1732C34.444 44.2519 34.4053 44.3258 34.3517 44.3902C34.2981 44.4546 34.2308 44.5083 34.1539 44.5478C33.3996 44.9908 32.5221 45.2226 31.6276 45.2152Z" fill="#E12B41"/>
<path opacity="0.6" d="M31.6276 45.2152C30.3855 45.1763 29.1792 44.822 28.1418 44.1916C28.0686 44.1484 28.0057 44.092 27.9569 44.0257C27.9081 43.9594 27.8745 43.8847 27.858 43.8061C27.8416 43.7275 27.8426 43.6466 27.8612 43.5684C27.8797 43.4902 27.9152 43.4163 27.9657 43.3511C28.0162 43.2859 28.0806 43.2309 28.1549 43.1893C28.2291 43.1478 28.3118 43.1206 28.3979 43.1093C28.484 43.0981 28.5716 43.1031 28.6555 43.1241C28.7394 43.145 28.8178 43.1814 28.8859 43.2311C28.9104 43.2311 31.3779 44.7688 33.4586 43.5468C33.5299 43.499 33.611 43.4652 33.697 43.4474C33.783 43.4296 33.872 43.4282 33.9586 43.4433C34.0451 43.4583 34.1275 43.4895 34.2005 43.5349C34.2735 43.5804 34.3357 43.6391 34.3831 43.7074C34.4306 43.7758 34.4624 43.8524 34.4766 43.9325C34.4907 44.0126 34.487 44.0945 34.4655 44.1732C34.444 44.2519 34.4053 44.3258 34.3517 44.3902C34.2981 44.4546 34.2308 44.5083 34.1539 44.5478C33.3996 44.9908 32.5221 45.2226 31.6276 45.2152Z" fill="white"/>
<path d="M199.569 29.4017C198.329 29.371 197.122 29.0279 196.079 28.4097C195.938 28.3206 195.842 28.1838 195.812 28.0295C195.781 27.8752 195.818 27.7159 195.915 27.5868C196.011 27.4576 196.16 27.3691 196.327 27.3408C196.495 27.3125 196.668 27.3466 196.808 27.4357C196.833 27.4357 199.305 28.9689 201.386 27.7513C201.457 27.7096 201.536 27.6811 201.619 27.6676C201.702 27.6541 201.787 27.6557 201.869 27.6725C201.952 27.6892 202.03 27.7208 202.099 27.7652C202.168 27.8097 202.227 27.8663 202.272 27.9317C202.317 27.9971 202.348 28.0702 202.363 28.1466C202.377 28.223 202.376 28.3014 202.357 28.3772C202.339 28.453 202.305 28.5247 202.257 28.5883C202.209 28.6519 202.147 28.7062 202.076 28.7479C201.327 29.1851 200.456 29.4123 199.569 29.4017Z" fill="#E12B41"/>
<path opacity="0.6" d="M199.569 29.4017C198.329 29.371 197.122 29.0279 196.079 28.4097C195.938 28.3206 195.842 28.1838 195.812 28.0295C195.781 27.8752 195.818 27.7159 195.915 27.5868C196.011 27.4576 196.16 27.3691 196.327 27.3408C196.495 27.3125 196.668 27.3466 196.808 27.4357C196.833 27.4357 199.305 28.9689 201.386 27.7513C201.457 27.7096 201.536 27.6811 201.619 27.6676C201.702 27.6541 201.787 27.6557 201.869 27.6725C201.952 27.6892 202.03 27.7208 202.099 27.7652C202.168 27.8097 202.227 27.8663 202.272 27.9317C202.317 27.9971 202.348 28.0702 202.363 28.1466C202.377 28.223 202.376 28.3014 202.357 28.3772C202.339 28.453 202.305 28.5247 202.257 28.5883C202.209 28.6519 202.147 28.7062 202.076 28.7479C201.327 29.1851 200.456 29.4123 199.569 29.4017Z" fill="white"/>
<path d="M120.835 75.9788C117.834 75.9788 116.198 73.3003 116.125 73.1785C116.043 73.041 116.023 72.8789 116.07 72.728C116.117 72.577 116.228 72.4496 116.377 72.3736C116.527 72.2977 116.702 72.2795 116.866 72.323C117.03 72.3666 117.169 72.4683 117.251 72.6058C117.251 72.6419 118.72 75.0048 121.168 74.7748C121.331 74.7696 121.491 74.8218 121.615 74.9209C121.738 75.02 121.816 75.1586 121.833 75.3087C121.85 75.4587 121.804 75.6091 121.705 75.7293C121.606 75.8495 121.461 75.9306 121.3 75.9563C121.153 75.9698 120.992 75.9788 120.835 75.9788Z" fill="#E12B41"/>
<path opacity="0.6" d="M120.835 75.9788C117.834 75.9788 116.198 73.3003 116.125 73.1785C116.043 73.041 116.023 72.8789 116.07 72.728C116.117 72.577 116.228 72.4496 116.377 72.3736C116.527 72.2977 116.702 72.2795 116.866 72.323C117.03 72.3666 117.169 72.4683 117.251 72.6058C117.251 72.6419 118.72 75.0048 121.168 74.7748C121.331 74.7696 121.491 74.8218 121.615 74.9209C121.738 75.02 121.816 75.1586 121.833 75.3087C121.85 75.4587 121.804 75.6091 121.705 75.7293C121.606 75.8495 121.461 75.9306 121.3 75.9563C121.153 75.9698 120.992 75.9788 120.835 75.9788Z" fill="white"/>
<path d="M38.6772 88.0228C38.5213 88.0216 38.3712 87.9682 38.255 87.8724C38.1388 87.7767 38.0644 87.6452 38.0458 87.5026C38.0272 87.36 38.0657 87.2161 38.1539 87.0977C38.2422 86.9793 38.3743 86.8946 38.5254 86.8594C38.5548 86.8594 41.4287 86.1605 41.8203 83.9149C41.8338 83.8382 41.8636 83.7647 41.9079 83.6986C41.9523 83.6325 42.0103 83.5751 42.0787 83.5297C42.1472 83.4842 42.2246 83.4517 42.3067 83.4338C42.3888 83.4159 42.4739 83.4132 42.5572 83.4256C42.6404 83.438 42.7202 83.4655 42.792 83.5063C42.8637 83.5471 42.926 83.6006 42.9754 83.6636C43.0247 83.7266 43.0601 83.798 43.0794 83.8736C43.0988 83.9492 43.1019 84.0276 43.0884 84.1042C42.5645 87.13 38.9856 87.9732 38.8339 88.0093C38.7822 88.0183 38.7298 88.0228 38.6772 88.0228Z" fill="#E12B41"/>
<path opacity="0.6" d="M38.6772 88.0228C38.5213 88.0216 38.3712 87.9682 38.255 87.8724C38.1388 87.7767 38.0644 87.6452 38.0458 87.5026C38.0272 87.36 38.0657 87.2161 38.1539 87.0977C38.2422 86.9793 38.3743 86.8946 38.5254 86.8594C38.5548 86.8594 41.4287 86.1605 41.8203 83.9149C41.8338 83.8382 41.8636 83.7647 41.9079 83.6986C41.9523 83.6325 42.0103 83.5751 42.0787 83.5297C42.1472 83.4842 42.2246 83.4517 42.3067 83.4338C42.3888 83.4159 42.4739 83.4132 42.5572 83.4256C42.6404 83.438 42.7202 83.4655 42.792 83.5063C42.8637 83.5471 42.926 83.6006 42.9754 83.6636C43.0247 83.7266 43.0601 83.798 43.0794 83.8736C43.0988 83.9492 43.1019 84.0276 43.0884 84.1042C42.5645 87.13 38.9856 87.9732 38.8339 88.0093C38.7822 88.0183 38.7298 88.0228 38.6772 88.0228Z" fill="black"/>
<path d="M181.636 46.9206C181.476 46.9256 181.32 46.8753 181.198 46.7794C181.076 46.6835 180.998 46.5491 180.978 46.4026C180.958 46.2561 180.999 46.1082 181.092 45.9879C181.185 45.8676 181.323 45.7837 181.48 45.7527C181.509 45.7527 184.383 45.0582 184.775 42.8126C184.783 42.7313 184.809 42.6524 184.851 42.5808C184.894 42.5092 184.952 42.4464 185.022 42.3964C185.092 42.3464 185.172 42.3101 185.258 42.29C185.344 42.2698 185.434 42.2661 185.521 42.2791C185.609 42.2921 185.692 42.3216 185.767 42.3656C185.842 42.4097 185.906 42.4674 185.955 42.5352C186.004 42.603 186.038 42.6794 186.054 42.7597C186.07 42.84 186.068 42.9225 186.047 43.002C185.519 46.0277 181.94 46.871 181.788 46.9025C181.739 46.9152 181.688 46.9212 181.636 46.9206Z" fill="#E12B41"/>
<path opacity="0.6" d="M181.636 46.9206C181.476 46.9256 181.32 46.8753 181.198 46.7794C181.076 46.6835 180.998 46.5491 180.978 46.4026C180.958 46.2561 180.999 46.1082 181.092 45.9879C181.185 45.8676 181.323 45.7837 181.48 45.7527C181.509 45.7527 184.383 45.0582 184.775 42.8126C184.783 42.7313 184.809 42.6524 184.851 42.5808C184.894 42.5092 184.952 42.4464 185.022 42.3964C185.092 42.3464 185.172 42.3101 185.258 42.29C185.344 42.2698 185.434 42.2661 185.521 42.2791C185.609 42.2921 185.692 42.3216 185.767 42.3656C185.842 42.4097 185.906 42.4674 185.955 42.5352C186.004 42.603 186.038 42.6794 186.054 42.7597C186.07 42.84 186.068 42.9225 186.047 43.002C185.519 46.0277 181.94 46.871 181.788 46.9025C181.739 46.9152 181.688 46.9212 181.636 46.9206Z" fill="black"/>
<path d="M207.942 69.404H207.834C207.677 69.3769 204.045 68.7637 203.296 65.7965C203.276 65.7201 203.273 65.6409 203.287 65.5634C203.302 65.486 203.332 65.412 203.378 65.3457C203.424 65.2793 203.483 65.222 203.553 65.1771C203.623 65.1322 203.702 65.1005 203.785 65.084C203.868 65.0667 203.954 65.0647 204.038 65.078C204.122 65.0913 204.202 65.1197 204.274 65.1616C204.345 65.2035 204.408 65.258 204.456 65.3221C204.505 65.3862 204.54 65.4585 204.559 65.535C205.117 67.7445 208.035 68.2406 208.064 68.2406C208.218 68.271 208.355 68.3522 208.449 68.469C208.542 68.5859 208.587 68.7302 208.573 68.8749C208.559 69.0196 208.488 69.1546 208.374 69.2545C208.259 69.3545 208.109 69.4124 207.951 69.4175L207.942 69.404Z" fill="#E12B41"/>
<path d="M196.466 91.1431C195.345 91.1594 194.254 90.8059 193.391 90.1466C193.319 90.0992 193.259 90.0387 193.213 89.9687C193.168 89.8987 193.139 89.8209 193.128 89.7401C193.117 89.6593 193.124 89.5772 193.149 89.499C193.174 89.4209 193.216 89.3484 193.273 89.286C193.33 89.2236 193.4 89.1727 193.48 89.1366C193.559 89.1004 193.645 89.0797 193.734 89.0759C193.822 89.072 193.91 89.085 193.993 89.114C194.076 89.1431 194.151 89.1876 194.214 89.2447C196.109 90.6967 198.767 89.4792 198.796 89.4657C198.948 89.3939 199.125 89.3807 199.287 89.4289C199.45 89.4771 199.585 89.5828 199.663 89.7227C199.741 89.8626 199.755 90.0253 199.703 90.175C199.651 90.3247 199.536 90.4491 199.384 90.5208C198.472 90.9205 197.476 91.1329 196.466 91.1431Z" fill="#E12B41"/>
<path d="M166.459 17.1361C166.348 17.1369 166.238 17.1104 166.141 17.0594C166.009 16.9918 162.812 15.2872 163.203 12.2435C163.223 12.0874 163.309 11.9448 163.442 11.8472C163.576 11.7495 163.746 11.7047 163.916 11.7226C164.085 11.7406 164.24 11.8198 164.346 11.9428C164.452 12.0659 164.501 12.2227 164.481 12.3787C164.202 14.6334 166.768 16.0178 166.792 16.0313C166.917 16.0962 167.014 16.1976 167.069 16.3194C167.124 16.4413 167.133 16.5765 167.094 16.7035C167.056 16.8306 166.973 16.9422 166.858 17.0206C166.743 17.099 166.602 17.1396 166.459 17.1361Z" fill="#E12B41"/>
<path d="M38.5749 19.5392C38.4906 19.5425 38.4065 19.5304 38.3274 19.5037C38.2482 19.4771 38.1755 19.4363 38.1135 19.3837C38.0514 19.3312 38.0012 19.2679 37.9657 19.1975C37.9302 19.127 37.9101 19.0509 37.9066 18.9733C37.903 18.8957 37.9161 18.8183 37.9451 18.7453C37.974 18.6724 38.0183 18.6055 38.0754 18.5483C38.1324 18.4912 38.2012 18.4449 38.2776 18.4122C38.3541 18.3795 38.4368 18.361 38.521 18.3578C40.9689 18.1594 41.9481 15.571 41.9481 15.544C42.005 15.4001 42.1203 15.2821 42.2697 15.215C42.4192 15.1479 42.5911 15.1369 42.7492 15.1842C42.9073 15.2316 43.0392 15.3337 43.1172 15.4689C43.1952 15.6042 43.2131 15.762 43.1671 15.9092C43.1231 16.049 41.9481 19.2732 38.6336 19.5167L38.5749 19.5392Z" fill="#E12B41"/>
<path d="M86.3427 37.3822C84.6047 38.1308 83.0723 41.7292 83.5716 46.8969C84.071 52.0646 72.4483 48.4391 70.8669 54.229C68.0126 64.7087 87.1505 71.0082 95.307 64.7087C100.355 60.8127 105.099 47.9701 104.403 40.9626C103.659 33.4275 90.9693 28.3726 86.3427 37.3822Z" fill="#263238"/>
<path d="M104.708 50.6034C104.923 50.5448 105.237 50.4591 105.506 50.378L106.348 50.1164C106.911 49.936 107.469 49.7376 108.022 49.5257C109.124 49.1089 110.2 48.6347 111.244 48.1053C113.289 47.1002 115.129 45.7758 116.683 44.1912C118.069 42.676 119.062 40.6108 119.841 38.4914C120.237 37.4272 120.57 36.3314 120.854 35.2176C121.138 34.1038 121.407 32.963 121.613 31.8672L123.611 31.9799C123.614 34.4185 123.327 36.8501 122.754 39.2309C122.463 40.4509 122.068 41.648 121.574 42.8113C121.062 44.0392 120.375 45.1992 119.532 46.2609C117.808 48.2974 115.669 50.0051 113.236 51.2888C112.064 51.9272 110.847 52.4936 109.594 52.9843C108.967 53.2278 108.336 53.4353 107.689 53.6562C107.371 53.7599 107.048 53.8591 106.71 53.9493C106.372 54.0395 106.074 54.1252 105.672 54.2154L104.708 50.6034Z" fill="#7F3E3B"/>
<path d="M123.601 32.5989L124.433 29.8438L121.128 30.0782C121.128 30.0782 120.893 31.882 122.034 32.9687L123.601 32.5989Z" fill="#7F3E3B"/>
<path d="M124.927 26.6367L121.911 27.3627L121.128 30.0773L124.433 29.8428L124.927 26.6367Z" fill="#7F3E3B"/>
<path d="M100.968 51.3064C102.49 50.0303 106.353 49.0518 106.353 49.0518L110.588 54.9139C110.588 54.9139 105.756 57.8855 103.704 57.1956C101.57 56.5102 99.5477 52.4924 100.968 51.3064Z" fill="#E12B41"/>
<path d="M87.0194 134.689L89.6583 137.359L97.2321 132.389L94.5933 129.72L87.0194 134.689Z" fill="#7F3E3B"/>
<path d="M72.1255 145.236L75.6652 146.855L80.8695 139.825L77.3298 138.206L72.1255 145.236Z" fill="#7F3E3B"/>
<path d="M76.2286 146.453L73.4967 143.229C73.4508 143.173 73.3841 143.134 73.3093 143.12C73.2345 143.106 73.1566 143.118 73.0904 143.153L70.0109 144.776C69.9347 144.819 69.8692 144.876 69.8188 144.944C69.7684 145.012 69.7342 145.089 69.7185 145.17C69.7028 145.251 69.7059 145.334 69.7276 145.414C69.7493 145.494 69.7891 145.568 69.8444 145.633C70.8236 146.742 71.3475 147.234 72.5518 148.654C73.2862 149.524 74.7843 151.553 75.8027 152.757C76.821 153.961 78.1723 153.1 77.8638 152.514C76.4832 149.885 76.3951 148.325 76.444 147.071C76.4539 146.848 76.3775 146.629 76.2286 146.453Z" fill="#263238"/>
<path d="M90.4464 137.408L88.6447 133.421C88.6129 133.35 88.5561 133.29 88.4834 133.252C88.4107 133.214 88.3262 133.199 88.2432 133.209L84.4245 133.66C84.3336 133.669 84.2463 133.698 84.1698 133.744C84.0932 133.79 84.0297 133.852 83.9843 133.925C83.9389 133.998 83.9129 134.08 83.9086 134.164C83.9043 134.248 83.9217 134.332 83.9594 134.409C84.6154 135.793 85.012 136.438 85.8051 138.192C86.2947 139.27 87.4305 142.102 88.1013 143.603C88.772 145.105 90.4953 144.749 90.368 144.09C89.7952 141.141 89.9911 139.238 90.466 138.08C90.5109 137.972 90.5324 137.857 90.529 137.742C90.5257 137.626 90.4976 137.513 90.4464 137.408Z" fill="#263238"/>
<path opacity="0.2" d="M97.2266 132.389L93.3246 134.951L90.3724 132.488L94.5878 129.72L97.2266 132.389Z" fill="black"/>
<path opacity="0.2" d="M77.33 138.206L80.8697 139.825L78.1819 143.45L74.6422 141.827L77.33 138.206Z" fill="black"/>
<path d="M106.298 51.7627C106.298 51.7627 106.416 51.6004 104.272 73.1459L88.2622 74.1785C88.0762 68.1631 88.5657 63.9153 85.5156 51.5553C87.7649 51.1381 90.0443 50.8728 92.3355 50.7616C94.7617 50.6126 97.1963 50.6246 99.6206 50.7977C102.749 51.0728 106.298 51.7627 106.298 51.7627Z" fill="#E12B41"/>
<path d="M86.7202 55.1262C85.5305 54.6212 84.4877 54.0801 83.4057 53.5074C82.3237 52.9347 81.3005 52.3214 80.2821 51.6721C78.2094 50.376 76.2823 48.8926 74.5295 47.2439L73.8833 46.5991L73.7168 46.4367C73.6214 46.3357 73.5315 46.2304 73.4475 46.1211C73.2961 45.9222 73.165 45.7109 73.0559 45.4898C72.7317 44.7851 72.5652 44.0275 72.5663 43.2622C72.5772 42.044 72.7548 40.832 73.095 39.6547C73.7166 37.4515 74.5794 35.3122 75.6703 33.2695L77.5405 33.9369C77.2516 34.9605 76.9774 36.0247 76.7326 37.0664C76.4879 38.108 76.2822 39.1587 76.1451 40.1868C75.9862 41.1536 75.9435 42.1335 76.0179 43.1089C76.0423 43.4465 76.1353 43.7769 76.292 44.0829C76.292 44.1144 76.341 44.1505 76.3557 44.155C76.3704 44.1595 76.3557 44.155 76.3557 44.155L76.5074 44.2858L77.1096 44.8134C78.7902 46.2153 80.5913 47.4895 82.4951 48.6238C83.4497 49.2055 84.4534 49.7376 85.4326 50.2742C86.4117 50.8108 87.4643 51.3203 88.419 51.7668L86.7202 55.1262Z" fill="#7F3E3B"/>
<path d="M91.8169 52.3802C90.0006 50.0489 86.4315 50.085 86.4315 50.085L82.1281 55.9471C82.1281 55.9471 86.9309 58.9593 88.9822 58.2874C91.156 57.575 92.9381 53.8142 91.8169 52.3802Z" fill="#E12B41"/>
<path d="M99.6205 50.7978L92.3355 50.7617C91.2192 51.1766 90.573 53.8506 97.9657 56.1143C103.092 53.4312 100.365 51.0458 99.6205 50.7978Z" fill="white"/>
<path d="M93.0994 43.208C93.545 45.368 93.9807 49.3272 92.3357 50.7611C92.3357 50.7611 92.9722 52.9572 97.9659 56.1137C101.466 52.8805 99.6207 50.7972 99.6207 50.7972C97.0112 50.2065 97.0896 48.4208 97.5547 46.7388L93.0994 43.208Z" fill="#7F3E3B"/>
<path d="M108.198 64.6553H108.12C107.862 64.6358 107.623 64.5228 107.455 64.341C107.287 64.1593 107.204 63.9237 107.224 63.6858C107.4 61.6746 105.755 60.155 103.866 58.3919C101.697 56.3762 99.2341 54.09 99.1362 50.5321C99.1297 50.2929 99.2266 50.0612 99.4057 49.8878C99.5847 49.7144 99.8312 49.6137 100.091 49.6077C100.351 49.6017 100.602 49.691 100.79 49.8559C100.979 50.0208 101.088 50.2478 101.095 50.487C101.173 53.3279 103.249 55.2579 105.256 57.1247C107.263 58.9916 109.422 60.9937 109.173 63.8301C109.152 64.055 109.04 64.2645 108.86 64.4173C108.679 64.5701 108.443 64.655 108.198 64.6553Z" fill="#263238"/>
<path d="M93.8875 69.2182C93.8083 69.2179 93.7293 69.2089 93.6525 69.1911C93.4007 69.1335 93.184 68.9863 93.05 68.7817C92.916 68.5771 92.8756 68.3319 92.9377 68.0999C93.8826 64.5646 92.6439 61.7868 91.3319 58.8648C90.1569 56.2403 88.9427 53.5257 89.5302 50.3512C89.5809 50.1213 89.7269 49.9187 89.9371 49.7863C90.1473 49.6539 90.4053 49.6022 90.6563 49.642C90.9072 49.6819 91.1315 49.8103 91.2814 50C91.4312 50.1896 91.495 50.4256 91.4591 50.6578C90.9696 53.3183 92.0222 55.6812 93.1384 58.1794C94.4505 61.1059 95.934 64.4248 94.8373 68.5508C94.7811 68.743 94.6575 68.9126 94.4857 69.0333C94.3139 69.1541 94.1036 69.219 93.8875 69.2182Z" fill="#263238"/>
<path opacity="0.2" d="M96.6346 45.9951L94.6763 46.2071C94.7711 46.6927 94.9602 47.1585 95.2344 47.5824C95.6212 48.119 96.4828 48.3535 97.3347 48.376C97.3338 47.8182 97.4161 47.2628 97.5795 46.7256L96.6346 45.9951Z" fill="black"/>
<path d="M88.7666 41.0347C90.2011 44.3987 90.7249 45.8507 93.2267 47.0502C96.9867 48.8539 101.158 46.5046 100.845 42.8159C100.566 39.4926 98.2694 34.5503 94.1422 34.2708C93.2333 34.2055 92.3214 34.3552 91.4929 34.7057C90.6645 35.0562 89.9469 35.5958 89.4085 36.2734C88.87 36.9509 88.5284 37.744 88.416 38.5773C88.3037 39.4106 88.4244 40.2565 88.7666 41.0347Z" fill="#7F3E3B"/>
<path d="M92.6976 33.7848C95.4833 35.3631 93.099 44.6478 88.3844 44.1562C83.6697 43.6647 88.5802 31.4535 92.6976 33.7848Z" fill="#263238"/>
<path d="M92.5947 33.8194C90.4944 35.1046 91.9288 37.3412 99.0082 36.0155C99.0082 36.011 96.0805 31.682 92.5947 33.8194Z" fill="#263238"/>
<path d="M89.2753 44.3048C89.5849 44.9421 90.1549 45.4411 90.8615 45.6937C91.8064 46.0184 92.3597 45.2428 92.1736 44.3995C92.0023 43.6284 91.3071 42.5236 90.3279 42.5687C90.1139 42.582 89.9069 42.6443 89.7257 42.75C89.5445 42.8556 89.3948 43.0013 89.2902 43.1738C89.1857 43.3462 89.1295 43.54 89.1269 43.7375C89.1243 43.9351 89.1753 44.1301 89.2753 44.3048Z" fill="#7F3E3B"/>
<path d="M104.281 73.1455C104.281 73.1455 112.849 98.9073 113.54 109.991C114.254 121.522 95.6648 135.203 95.6648 135.203L91.0382 130.527C91.0382 130.527 106.142 118.712 104.071 110.154C101.207 98.3571 92.5314 73.9031 92.5314 73.9031L104.281 73.1455Z" fill="#263238"/>
<path opacity="0.2" d="M98.9399 81.578C98.1565 79.3234 96.4136 80.8385 95.8065 83.2284C97.0158 86.8359 98.416 91.0566 99.7477 95.2819C100.262 91.5391 100.472 85.9972 98.9399 81.578Z" fill="black"/>
<path d="M89.7849 130.301L95.655 135.879L98.1617 134.603L91.9587 128.385L89.7849 130.301Z" fill="#E12B41"/>
<path d="M100.047 73.4199C100.047 73.4199 97.5989 98.6721 95.1509 112.737C93.1681 124.1 79.6997 142.661 79.6997 142.661L74.7646 140.546C74.7646 140.546 83.8171 120.673 85.2271 112.949C89.7508 88.224 83.6408 81.0903 88.2674 74.1685L100.047 73.4199Z" fill="#263238"/>
<path d="M74.4167 140.596L79.9833 143.112L81.8095 141.025L75.298 138.197L74.4167 140.596Z" fill="#E12B41"/>
<path d="M87.9588 73.3304L87.337 74.6832C87.2881 74.7869 87.4252 74.8861 87.6112 74.8726L104.404 73.7903C104.546 73.7903 104.663 73.7092 104.663 73.6235L104.707 72.2707C104.707 72.1805 104.58 72.1129 104.424 72.1219L88.2085 73.1681C88.1542 73.1698 88.1017 73.1861 88.0574 73.2149C88.013 73.2438 87.9788 73.2839 87.9588 73.3304Z" fill="white"/>
<path d="M90.2602 74.8543L89.8294 74.8814C89.7413 74.8814 89.6727 74.8498 89.6727 74.8002L89.7462 73.0732C89.7462 73.0236 89.8245 72.974 89.9077 72.9694L90.3435 72.9424C90.4316 72.9424 90.5001 72.974 90.4952 73.0236L90.4218 74.7506C90.4218 74.8092 90.3484 74.8543 90.2602 74.8543Z" fill="#263238"/>
<path d="M103.194 74.0252L102.759 74.0523C102.671 74.0523 102.602 74.0207 102.607 73.9711L102.68 72.2441C102.68 72.1945 102.754 72.1494 102.842 72.1403L103.273 72.1133C103.361 72.1133 103.429 72.1449 103.429 72.1945L103.356 73.926C103.351 73.9756 103.302 74.0207 103.194 74.0252Z" fill="#263238"/>
<path d="M96.7279 74.4442L96.2922 74.4712C96.2089 74.4712 96.1404 74.4397 96.1404 74.3901L96.2138 72.6585C96.2138 72.6089 96.2873 72.5638 96.3754 72.5593L96.8111 72.5322C96.8943 72.5322 96.9629 72.5638 96.9629 72.6134L96.8894 74.3405C96.8894 74.4036 96.816 74.4352 96.7279 74.4442Z" fill="#263238"/>
<path d="M94.6666 39.7724C94.4316 39.8445 94.3337 40.1692 94.4512 40.5029L95.3079 40.2504C95.1904 39.9167 94.9016 39.6822 94.6666 39.7724Z" fill="#263238"/>
<path d="M98.4062 38.6815C98.1663 38.7537 98.0684 39.0828 98.1859 39.4165L99.0476 39.1595C98.8958 38.8258 98.6167 38.6139 98.4062 38.6815Z" fill="#263238"/>
<path d="M98.2843 38.7311L99.0725 38.2441C99.0725 38.2441 98.8473 39.0017 98.2843 38.7311Z" fill="#263238"/>
<path d="M97.427 40.043C97.9192 40.5999 98.4925 41.0915 99.1308 41.504C99.0125 41.6519 98.8604 41.7742 98.6854 41.8622C98.5103 41.9503 98.3164 42.0019 98.1173 42.0135L97.427 40.043Z" fill="#630F0F"/>
<path d="M97.4863 43.4147C97.5006 43.4032 97.511 43.3882 97.5162 43.3714C97.5214 43.3546 97.5212 43.3367 97.5156 43.32C97.5078 43.2985 97.4911 43.2807 97.469 43.2706C97.447 43.2604 97.4215 43.2588 97.3981 43.2659C97.0236 43.3853 96.6239 43.4222 96.2311 43.3737C95.8383 43.3251 95.4633 43.1925 95.1363 42.9863C95.1276 42.9783 95.1173 42.9719 95.106 42.9675C95.0946 42.9632 95.0825 42.9609 95.0702 42.9609C95.0579 42.9609 95.0457 42.9632 95.0344 42.9675C95.023 42.9719 95.0127 42.9783 95.0041 42.9863C94.9947 42.9939 94.9872 43.0033 94.982 43.0138C94.9769 43.0243 94.9742 43.0357 94.9742 43.0472C94.9742 43.0587 94.9769 43.0701 94.982 43.0806C94.9872 43.0911 94.9947 43.1005 95.0041 43.1081C95.354 43.339 95.7595 43.4883 96.1859 43.5433C96.6122 43.5983 97.0467 43.5573 97.452 43.4237L97.4863 43.4147Z" fill="#263238"/>
<path d="M93.428 39.5694C93.4528 39.5503 93.4714 39.5254 93.4818 39.4973C93.5492 39.2874 93.6707 39.0957 93.8362 38.9386C94.0016 38.7815 94.2059 38.6637 94.4316 38.5954C94.4554 38.5901 94.4778 38.5805 94.4976 38.5672C94.5174 38.5538 94.5341 38.5371 94.5468 38.5178C94.5595 38.4986 94.568 38.4772 94.5718 38.4549C94.5755 38.4326 94.5745 38.4099 94.5687 38.388C94.5629 38.3661 94.5525 38.3454 94.5381 38.3272C94.5236 38.309 94.5054 38.2936 94.4845 38.2819C94.4636 38.2701 94.4404 38.2623 94.4162 38.2589C94.392 38.2554 94.3673 38.2564 94.3435 38.2617C94.0597 38.344 93.8015 38.4877 93.5903 38.6806C93.3791 38.8736 93.221 39.1103 93.1293 39.371C93.1138 39.414 93.1175 39.461 93.1395 39.5016C93.1615 39.5422 93.2001 39.573 93.2468 39.5874C93.276 39.5999 93.3082 39.6048 93.3401 39.6017C93.3721 39.5985 93.4024 39.5873 93.428 39.5694Z" fill="#263238"/>
<path d="M99.2926 37.342C99.303 37.3369 99.3116 37.329 99.3171 37.3194C99.3328 37.3018 99.3445 37.2814 99.3515 37.2595C99.3585 37.2376 99.3608 37.2147 99.358 37.192C99.3553 37.1693 99.3477 37.1474 99.3356 37.1274C99.3235 37.1075 99.3072 37.09 99.2877 37.0759C99.0587 36.9014 98.7877 36.7797 98.4974 36.7209C98.207 36.6621 97.9057 36.6678 97.6182 36.7377C97.5945 36.7448 97.5726 36.7562 97.5538 36.7713C97.535 36.7863 97.5197 36.8047 97.5087 36.8253C97.4978 36.8459 97.4914 36.8683 97.49 36.8913C97.4887 36.9142 97.4923 36.9371 97.5007 36.9587C97.5174 37.001 97.5511 37.0358 97.5948 37.056C97.6385 37.0761 97.689 37.08 97.7357 37.0669C97.9635 37.013 98.202 37.0102 98.4312 37.0589C98.6604 37.1075 98.8735 37.2062 99.0527 37.3465C99.0869 37.3719 99.1297 37.3854 99.1736 37.3846C99.2175 37.3838 99.2596 37.3687 99.2926 37.342Z" fill="#263238"/>
<path d="M79.68 34.5999C79.5611 34.5996 79.4444 34.57 79.3422 34.5142L64.449 26.0637C64.3184 25.9752 64.2288 25.8446 64.1979 25.698C64.167 25.5514 64.197 25.3994 64.2821 25.2723C64.3671 25.1451 64.501 25.0521 64.657 25.0116C64.8131 24.9711 64.98 24.9861 65.1246 25.0536L80.0178 33.5041C80.1379 33.5712 80.2307 33.6727 80.2821 33.7931C80.3334 33.9135 80.3405 34.0461 80.3021 34.1705C80.2638 34.295 80.1821 34.4044 80.0697 34.4819C79.9573 34.5595 79.8204 34.6009 79.68 34.5999Z" fill="#E12B41"/>
<path d="M67.8224 26.9974C68.6595 26.9658 69.5212 26.9298 69.6338 26.2353C69.7464 25.5409 68.9386 25.2748 68.1651 25.0133L67.9545 24.9411C67.9545 24.8735 67.9203 24.8059 67.9007 24.7427L68.072 24.5669C68.6204 24.0077 69.1932 23.4305 68.7477 22.8804C68.3021 22.3302 67.5384 22.6549 66.7893 22.9751L66.5592 23.0743C66.4956 23.0337 66.4319 23.0021 66.3634 22.9661C66.2949 22.93 66.3634 22.8218 66.3634 22.7586C66.3242 21.992 66.2851 21.1984 65.536 21.0947C64.7869 20.991 64.4932 21.735 64.2092 22.4475C64.1847 22.5061 64.1603 22.5737 64.1309 22.6414L63.9106 22.691L63.7245 22.5377C63.1175 22.0281 62.4908 21.505 61.8935 21.9109C61.2962 22.3167 61.6487 23.0247 61.9963 23.7146L62.104 23.9265C62.0613 23.9831 62.0221 24.0418 61.9865 24.1024H61.7613C60.929 24.1385 60.0624 24.1746 59.9498 24.869C59.8372 25.5634 60.6499 25.8295 61.4186 26.091L61.6291 26.1632C61.6291 26.2308 61.6634 26.2984 61.683 26.3616C61.6242 26.4247 61.5655 26.4878 61.5116 26.5374C60.9633 27.0966 60.3954 27.6693 60.836 28.2239C61.2766 28.7786 62.0453 28.4449 62.7943 28.1292L63.0293 28.03L63.2203 28.1382C63.2203 28.2104 63.2203 28.2825 63.2203 28.3457C63.2594 29.1123 63.2986 29.9059 64.0477 30.0096C64.7967 30.1133 65.0954 29.3693 65.3793 28.6568C65.3793 28.6027 65.4283 28.5351 65.4528 28.4629C65.5273 28.4507 65.6008 28.4341 65.6731 28.4133L65.864 28.5711C66.4662 29.0762 67.0929 29.6038 67.6951 29.1979C68.2973 28.7921 67.935 28.0841 67.5874 27.3942C67.558 27.3356 67.5188 27.2589 67.4845 27.1823L67.602 27.0064L67.8224 26.9974Z" fill="#E12B41"/>
<path opacity="0.7" d="M67.8224 26.9974C68.6595 26.9658 69.5212 26.9298 69.6338 26.2353C69.7464 25.5409 68.9386 25.2748 68.1651 25.0133L67.9545 24.9411C67.9545 24.8735 67.9203 24.8059 67.9007 24.7427L68.072 24.5669C68.6204 24.0077 69.1932 23.4305 68.7477 22.8804C68.3021 22.3302 67.5384 22.6549 66.7893 22.9751L66.5592 23.0743C66.4956 23.0337 66.4319 23.0021 66.3634 22.9661C66.2949 22.93 66.3634 22.8218 66.3634 22.7586C66.3242 21.992 66.2851 21.1984 65.536 21.0947C64.7869 20.991 64.4932 21.735 64.2092 22.4475C64.1847 22.5061 64.1603 22.5737 64.1309 22.6414L63.9106 22.691L63.7245 22.5377C63.1175 22.0281 62.4908 21.505 61.8935 21.9109C61.2962 22.3167 61.6487 23.0247 61.9963 23.7146L62.104 23.9265C62.0613 23.9831 62.0221 24.0418 61.9865 24.1024H61.7613C60.929 24.1385 60.0624 24.1746 59.9498 24.869C59.8372 25.5634 60.6499 25.8295 61.4186 26.091L61.6291 26.1632C61.6291 26.2308 61.6634 26.2984 61.683 26.3616C61.6242 26.4247 61.5655 26.4878 61.5116 26.5374C60.9633 27.0966 60.3954 27.6693 60.836 28.2239C61.2766 28.7786 62.0453 28.4449 62.7943 28.1292L63.0293 28.03L63.2203 28.1382C63.2203 28.2104 63.2203 28.2825 63.2203 28.3457C63.2594 29.1123 63.2986 29.9059 64.0477 30.0096C64.7967 30.1133 65.0954 29.3693 65.3793 28.6568C65.3793 28.6027 65.4283 28.5351 65.4528 28.4629C65.5273 28.4507 65.6008 28.4341 65.6731 28.4133L65.864 28.5711C66.4662 29.0762 67.0929 29.6038 67.6951 29.1979C68.2973 28.7921 67.935 28.0841 67.5874 27.3942C67.558 27.3356 67.5188 27.2589 67.4845 27.1823L67.602 27.0064L67.8224 26.9974Z" fill="white"/>
<path d="M75.235 34.7442L74.623 31.1367L78.6181 32.9404C78.4675 33.5478 78.1271 34.1011 77.6389 34.5322C77.438 34.743 77.1765 34.8971 76.8846 34.9769C76.5926 35.0567 76.2822 35.0588 75.989 34.9832L75.235 34.7442Z" fill="#7F3E3B"/>
<path d="M76.8653 29.3691L78.9118 31.0241L78.6181 32.918L74.623 31.1323L76.8653 29.3691Z" fill="#7F3E3B"/>
<path d="M77.5106 148.181C77.5521 148.154 77.5914 148.124 77.6281 148.091C77.6701 148.056 77.7009 148.011 77.7173 147.961C77.7337 147.911 77.735 147.858 77.7211 147.807C77.6036 147.356 76.2524 146.905 76.1006 146.873C76.0838 146.867 76.0652 146.865 76.0475 146.869C76.0298 146.874 76.0141 146.883 76.0027 146.896C75.9926 146.91 75.9872 146.926 75.9872 146.943C75.9872 146.96 75.9926 146.977 76.0027 146.991C76.223 147.442 76.6636 148.181 77.1581 148.258C77.2819 148.275 77.4081 148.247 77.5106 148.181ZM76.2524 147.108C76.786 147.293 77.4763 147.608 77.54 147.847C77.5445 147.87 77.5424 147.893 77.5338 147.915C77.5252 147.936 77.5104 147.955 77.491 147.969C77.4537 148.013 77.4049 148.047 77.3491 148.068C77.2934 148.09 77.2327 148.097 77.1728 148.091C76.9035 148.046 76.5706 147.685 76.2524 147.108Z" fill="#E12B41"/>
<path d="M77.7605 146.977C77.7925 146.959 77.8207 146.936 77.8438 146.909C77.8915 146.856 77.9176 146.789 77.9176 146.72C77.9176 146.651 77.8915 146.584 77.8438 146.531C77.8074 146.474 77.7578 146.425 77.6986 146.387C77.6393 146.35 77.5719 146.325 77.501 146.314C76.938 146.22 76.0323 146.86 75.998 146.887C75.9853 146.897 75.9755 146.909 75.9695 146.923C75.9636 146.938 75.9616 146.953 75.9638 146.968C75.9665 146.982 75.9728 146.996 75.9821 147.008C75.9914 147.019 76.0036 147.029 76.0176 147.036C76.5871 147.211 77.2065 147.191 77.7605 146.977ZM76.2918 146.909C76.627 146.658 77.0398 146.509 77.4717 146.486C77.5167 146.491 77.5598 146.506 77.5972 146.529C77.6347 146.553 77.6655 146.584 77.6871 146.621C77.7507 146.716 77.7214 146.765 77.6871 146.797C77.5108 146.991 76.7079 147.027 76.2624 146.923L76.2918 146.909Z" fill="#E12B41"/>
<path d="M90.5342 139.45C90.6337 139.733 90.8273 139.979 91.0874 140.154C91.1607 140.194 91.2426 140.218 91.3273 140.225C91.4119 140.232 91.4973 140.222 91.577 140.195C91.6247 140.182 91.6677 140.158 91.7014 140.125C91.7351 140.091 91.7581 140.05 91.768 140.005C91.8708 139.554 90.5881 138.44 90.3286 138.201C90.3126 138.192 90.2939 138.187 90.2747 138.187C90.2556 138.187 90.2369 138.192 90.2209 138.201C90.2038 138.21 90.1902 138.223 90.1822 138.24C90.1742 138.256 90.1723 138.274 90.1768 138.292C90.249 138.689 90.3689 139.078 90.5342 139.45ZM91.5525 139.789C91.5803 139.84 91.5921 139.898 91.5868 139.956C91.5868 139.978 91.5868 140.001 91.5183 140.019C91.4611 140.039 91.3997 140.047 91.3386 140.042C91.2776 140.038 91.2185 140.02 91.1658 139.992C90.8671 139.829 90.5929 139.288 90.4167 138.522C90.8626 138.889 91.2455 139.316 91.5525 139.789Z" fill="#E12B41"/>
<path d="M90.1964 138.323C90.1949 138.332 90.1949 138.341 90.1964 138.35C90.5978 138.724 91.7973 139.329 92.1841 139.121C92.2673 139.076 92.3554 138.977 92.2869 138.76C92.0372 137.931 90.3285 138.192 90.2453 138.206C90.2282 138.208 90.2121 138.215 90.199 138.225C90.186 138.235 90.1765 138.249 90.1719 138.264C90.1721 138.286 90.1808 138.307 90.1964 138.323ZM92.1057 138.751L92.1302 138.806C92.1302 138.896 92.1302 138.95 92.1302 138.972C91.905 139.09 90.9993 138.702 90.5195 138.35C90.9209 138.31 91.8903 138.273 92.1057 138.751Z" fill="#E12B41"/>
<path d="M94.568 39.8216L95.3562 39.3301C95.3562 39.3301 95.131 40.0922 94.568 39.8216Z" fill="#263238"/>
<path d="M158.571 157.948L154.777 157.953L153.754 149.863L157.548 149.858L158.571 157.948Z" fill="#FFC3BD"/>
<path d="M191.232 142.933L188.358 145.219L181.851 139.704L184.72 137.418L191.232 142.933Z" fill="#FFC3BD"/>
<path d="M187.8 145.128L191.295 142.341C191.352 142.297 191.424 142.273 191.498 142.273C191.573 142.273 191.645 142.297 191.702 142.341L194.365 144.298C194.43 144.348 194.482 144.411 194.518 144.482C194.554 144.553 194.572 144.63 194.572 144.708C194.572 144.787 194.554 144.864 194.518 144.935C194.482 145.006 194.43 145.068 194.365 145.119C193.224 145.998 192.348 146.589 190.938 147.716C190.066 148.41 187.511 150.593 186.306 151.553C185.102 152.514 183.961 151.499 184.348 151.003C186.16 148.785 187.286 146.819 187.462 145.651C187.505 145.446 187.625 145.261 187.8 145.128Z" fill="#263238"/>
<path d="M154.801 157.547H158.948C159.023 157.547 159.096 157.571 159.155 157.614C159.213 157.658 159.254 157.718 159.271 157.786L160.025 160.893C160.043 160.968 160.043 161.045 160.024 161.12C160.006 161.195 159.969 161.265 159.916 161.325C159.864 161.385 159.798 161.433 159.723 161.466C159.647 161.499 159.565 161.516 159.481 161.515C157.983 161.493 155.824 161.416 153.944 161.416C151.751 161.416 150.463 161.47 147.888 161.474C146.331 161.474 145.895 160.027 146.547 159.896C149.513 159.292 151.325 159.287 153.89 157.826C154.16 157.657 154.475 157.56 154.801 157.547Z" fill="#263238"/>
<path d="M142.469 57.499C141.705 57.2285 141.049 56.9805 140.363 56.6919C139.678 56.4033 139.017 56.1192 138.351 55.8171C137.023 55.2158 135.717 54.5454 134.434 53.8059C133.143 53.0772 131.902 52.2761 130.718 51.4069C130.42 51.1815 130.116 50.956 129.823 50.726L128.951 49.991C128.662 49.7475 128.388 49.4679 128.109 49.2064C127.967 49.0621 127.845 48.9584 127.683 48.787C127.521 48.6157 127.365 48.4488 127.223 48.2775C126.688 47.6255 126.233 46.9208 125.867 46.1761C125.526 45.4962 125.237 44.7956 125 44.0793C124.55 42.7267 124.223 41.3421 124.021 39.9397C123.635 37.24 123.561 34.51 123.801 31.7959H126.65C126.846 33.0179 127.051 34.3031 127.321 35.5386C127.59 36.7742 127.874 38.0097 128.222 39.2002C128.55 40.363 128.966 41.5036 129.465 42.6138C129.88 43.5953 130.463 44.5089 131.193 45.3194L131.433 45.5448C131.507 45.617 131.654 45.7252 131.761 45.8154C131.996 46.0003 132.212 46.1942 132.461 46.37C132.951 46.7308 133.441 47.087 133.989 47.4297C135.046 48.1061 136.163 48.7509 137.328 49.3552C138.493 49.9594 139.683 50.5321 140.892 51.0732C141.499 51.3483 142.111 51.6189 142.723 51.8714C143.335 52.1239 143.976 52.39 144.525 52.6064L142.469 57.499Z" fill="#FFC3BD"/>
<path d="M143.075 60.4743C140.915 59.2372 138.874 57.8311 136.975 56.2716L138.488 49.1514C141.301 49.8883 144.16 50.4636 147.051 50.8739C151.824 51.4421 146.478 62.3411 143.075 60.4743Z" fill="#263238"/>
<path d="M126.748 32.4087L127.018 27.958L123.003 29.144C123.003 29.144 122.068 32.332 124.673 33.1708L126.748 32.4087Z" fill="#FFC3BD"/>
<path d="M126.534 25.5635L123.219 26.8351L123.004 29.1439L127.018 27.9579L126.534 25.5635Z" fill="#FFC3BD"/>
<path opacity="0.2" d="M153.759 149.863L154.283 154.034L158.077 154.03L157.553 149.858L153.759 149.863Z" fill="black"/>
<path opacity="0.2" d="M184.725 137.418L181.851 139.704L185.21 142.545L188.079 140.259L184.725 137.418Z" fill="black"/>
<path d="M161.641 50.7304C161.65 50.4829 161.605 50.2363 161.509 50.0049C161.414 49.7734 161.269 49.5617 161.085 49.3818C160.9 49.202 160.678 49.0576 160.433 48.9571C160.187 48.8565 159.922 48.8017 159.653 48.7959C148.824 48.611 141.779 51.4068 141.294 51.5871C141.113 51.6543 140.954 51.7629 140.831 51.9026C140.709 52.0422 140.627 52.2084 140.594 52.3853C140.143 54.8835 138.866 65.3541 145.127 81.741L165.2 79.094C164.931 76.3659 161.191 63.848 161.641 50.7304Z" fill="#263238"/>
<path d="M145.406 50.3294C144.217 51.7949 143.678 55.1724 147.619 57.6435C152.466 54.3111 154.963 50.7262 155.702 48.8594C152.224 49.0201 148.774 49.5127 145.406 50.3294Z" fill="white"/>
<path d="M144.505 51.7C144.245 51.7 143.996 51.605 143.813 51.4358C143.629 51.2667 143.526 51.0373 143.526 50.7981C143.526 50.0541 144.226 49.4137 144.818 48.9944C146.806 47.6416 150.694 46.609 155.589 47.9121C155.83 47.9853 156.03 48.1415 156.149 48.3479C156.267 48.5543 156.294 48.7948 156.223 49.019C156.153 49.2432 155.991 49.4335 155.771 49.55C155.552 49.6665 155.292 49.7001 155.046 49.6437C149.367 48.1331 145.866 50.2795 145.489 50.8973C145.463 51.1197 145.347 51.325 145.165 51.4733C144.983 51.6217 144.748 51.7024 144.505 51.7Z" fill="#E12B41"/>
<path d="M152.643 40.2871C152.496 42.889 152.677 47.5967 154.861 49.0307C153.578 50.5954 151.869 52.4307 148.623 52.9673C146.665 53.2875 145.994 52.6201 145.911 51.7769C145.883 51.3701 145.981 50.9644 146.192 50.6063C146.403 50.2482 146.72 49.9522 147.106 49.7522C149.216 48.6248 148.795 46.8121 148.036 45.0986L152.643 40.2871Z" fill="#FFC3BD"/>
<path d="M144.206 72.3878C144.096 72.3874 143.987 72.3691 143.883 72.3337C143.639 72.254 143.438 72.0882 143.326 71.8726C143.214 71.657 143.2 71.4093 143.286 71.1838C143.422 70.8683 143.485 70.5302 143.472 70.1909C143.458 69.8517 143.368 69.5188 143.208 69.2132L143.105 68.9562C142.938 68.6533 142.716 68.3788 142.449 68.1445C141.876 67.7213 141.48 67.1287 141.327 66.4671C141.174 65.8055 141.275 65.1157 141.612 64.5145C141.732 64.2572 141.803 63.9826 141.822 63.7029C141.729 63.3816 141.578 63.0769 141.377 62.801C140.973 62.2688 140.734 61.6452 140.686 60.9973C140.742 60.3197 141.009 59.6714 141.455 59.1304C141.623 58.9253 141.755 58.697 141.847 58.454C141.85 58.2031 141.797 57.9543 141.69 57.7235C141.455 57.211 141.396 56.6441 141.523 56.1001C141.722 55.4867 142.131 54.9489 142.689 54.567C142.846 54.4572 142.983 54.3248 143.095 54.1747C143.165 53.9569 143.165 53.7251 143.095 53.5073C142.946 52.985 143.025 52.4298 143.315 51.9606C143.658 51.4646 143.624 51.3383 143.594 51.2346C143.545 51.0764 143.523 50.912 143.531 50.7476C143.531 50.5084 143.634 50.279 143.818 50.1099C144.001 49.9407 144.25 49.8457 144.51 49.8457C144.77 49.8457 145.019 49.9407 145.202 50.1099C145.386 50.279 145.489 50.5084 145.489 50.7476V50.7746C145.626 51.2842 145.665 51.8929 145 52.8895C145.008 52.9954 145.022 53.1008 145.044 53.2052C145.191 53.7011 145.169 54.2269 144.981 54.711C144.793 55.1951 144.447 55.614 143.991 55.9107C143.678 56.1633 143.501 56.3166 143.433 56.5375C143.423 56.7459 143.468 56.9533 143.565 57.1418C143.773 57.6241 143.855 58.1446 143.805 58.6614C143.697 59.1795 143.462 59.6682 143.12 60.0909C142.892 60.3546 142.735 60.6634 142.659 60.9927C142.738 61.3084 142.883 61.607 143.085 61.8721C143.437 62.3565 143.676 62.9033 143.785 63.4774C143.813 64.0202 143.711 64.5619 143.487 65.0647C143.327 65.3853 143.252 65.7359 143.266 66.0883C143.421 66.401 143.642 66.6817 143.918 66.9135C144.371 67.3215 144.73 67.8091 144.975 68.3475L145.063 68.5819C145.545 69.59 145.575 70.7327 145.146 71.761C145.083 71.9441 144.957 72.1037 144.788 72.2165C144.619 72.3292 144.415 72.3893 144.206 72.3878Z" fill="#E12B41"/>
<path d="M161.46 50.5811C161.993 51.032 162.439 51.4108 162.889 51.8437C163.34 52.2766 163.78 52.6959 164.216 53.1288C165.088 53.9946 165.91 54.9055 166.703 55.8344C168.356 57.7597 169.739 59.8686 170.821 62.1114C171.093 62.7113 171.332 63.3239 171.535 63.9467C171.638 64.2623 171.726 64.5915 171.81 64.9252L171.839 65.047L171.883 65.2589C171.912 65.3987 171.927 65.5475 171.942 65.7098C171.965 66.0106 171.955 66.3128 171.912 66.6117C171.84 67.1506 171.663 67.6731 171.389 68.1539C171.16 68.5542 170.882 68.9294 170.561 69.2722C170.031 69.8304 169.419 70.3189 168.745 70.7242C167.594 71.4182 166.354 71.9786 165.053 72.3926C164.436 72.6001 163.815 72.7759 163.188 72.9247C162.561 73.0735 161.954 73.2133 161.274 73.3171L160.393 70.8234C160.882 70.5709 161.406 70.3048 161.9 70.0343C162.395 69.7637 162.88 69.4796 163.369 69.1955C164.279 68.6657 165.136 68.0621 165.93 67.3918C166.234 67.1217 166.502 66.8189 166.728 66.4899C166.899 66.2329 166.884 66.0616 166.835 66.1157C166.832 66.1305 166.832 66.1459 166.835 66.1608L166.806 66.0796C166.733 65.8722 166.664 65.6602 166.566 65.4438C166.385 65.0037 166.177 64.5732 165.944 64.1541C165.453 63.2635 164.893 62.406 164.27 61.5883C163.648 60.7406 162.963 59.9108 162.238 59.0992C161.514 58.2875 160.769 57.4893 159.981 56.7002C159.594 56.3079 159.198 55.9246 158.796 55.5458C158.395 55.167 157.974 54.7702 157.617 54.4546L161.46 50.5811Z" fill="#FFC3BD"/>
<path d="M160.197 48.8723C162.41 49.1744 165.881 54.2834 165.881 54.2834L160.246 61.2413C160.246 61.2413 157.24 58.6034 156.363 56.2811C154.709 51.8259 155.849 48.286 160.197 48.8723Z" fill="#263238"/>
<path d="M157.245 66.3867C157.075 66.385 156.908 66.3425 156.761 66.2634C156.614 66.1844 156.492 66.0714 156.407 65.9358C156.071 65.3294 155.925 64.6484 155.986 63.9697C156.012 63.6896 155.986 63.4074 155.908 63.1355C155.712 62.8555 155.465 62.6084 155.179 62.405C154.615 62.0187 154.176 61.4979 153.911 60.8989C153.729 60.2405 153.761 59.5474 154.004 58.9058C154.093 58.6614 154.141 58.4059 154.146 58.1482C154.022 57.8388 153.844 57.5507 153.617 57.2959C153.112 56.8184 152.817 56.1863 152.787 55.5207C152.757 54.855 152.995 54.2026 153.455 53.6885C153.588 53.5048 153.695 53.3063 153.773 53.0978C153.748 52.7555 153.659 52.4199 153.509 52.1057C153.229 51.5738 153.134 50.9757 153.235 50.3922C153.418 49.5621 153.872 48.8036 154.537 48.2187L154.601 48.16C154.784 48.0002 155.026 47.9114 155.278 47.9121C155.53 47.9128 155.772 48.003 155.954 48.164C156.136 48.3249 156.243 48.5441 156.253 48.776C156.264 49.008 156.177 49.2347 156.011 49.4091L155.898 49.5128C155.498 49.8682 155.229 50.3304 155.13 50.8341C155.183 51.0603 155.256 51.2821 155.35 51.4969C155.607 52.0432 155.735 52.6333 155.727 53.2285C155.651 53.7223 155.451 54.1931 155.144 54.6039C154.932 54.8701 154.793 55.1794 154.738 55.5057C154.853 55.7847 155.019 56.0439 155.228 56.2723C155.623 56.7249 155.912 57.2486 156.075 57.81C156.149 58.3331 156.094 58.8651 155.913 59.3657C155.789 59.6831 155.744 60.0221 155.781 60.3578C155.967 60.6342 156.208 60.8759 156.491 61.0702C156.989 61.4308 157.4 61.8821 157.7 62.396C157.912 62.9027 157.999 63.4463 157.955 63.9878C157.918 64.3389 157.967 64.6931 158.097 65.0249C158.229 65.2301 158.268 65.4754 158.205 65.707C158.142 65.9387 157.981 66.1377 157.759 66.2605C157.603 66.3454 157.425 66.3891 157.245 66.3867Z" fill="#E12B41"/>
<path opacity="0.2" d="M150.763 42.248L148.041 45.0934C148.246 45.5305 148.41 45.9831 148.53 46.4462C149.676 46.1351 151.101 44.7417 151.052 43.5963C151.044 43.1346 150.946 42.6779 150.763 42.248Z" fill="black"/>
<path d="M145.039 32.8869C143.83 34.8259 144.603 37.5856 144.603 37.5856C144.928 37.7799 145.303 37.8907 145.689 37.9065C146.076 37.9224 146.46 37.8427 146.802 37.6758L146.459 32.5352L145.039 32.8869Z" fill="#263238"/>
<path d="M154.571 37.8111C153.645 41.1751 153.288 43.1862 151.065 44.6066C147.721 46.7441 143.482 44.3902 143.3 40.8414C143.134 37.6443 144.676 32.684 148.573 31.9625C149.43 31.7989 150.319 31.8401 151.154 32.0821C151.989 32.3241 152.743 32.7589 153.344 33.3451C153.945 33.9313 154.374 34.6494 154.588 35.4311C154.803 36.2129 154.797 37.0322 154.571 37.8111Z" fill="#FFC3BD"/>
<path d="M143.908 41.725H143.776L135.477 40.1062C135.026 40.0182 134.631 39.7688 134.38 39.4128C134.128 39.0568 134.04 38.6233 134.136 38.2077C134.231 37.7921 134.502 37.4285 134.889 37.1968C135.275 36.9651 135.746 36.8843 136.197 36.9722C136.279 36.9882 136.357 37.0191 136.426 37.0629C136.495 37.1068 136.554 37.1628 136.6 37.2278C136.645 37.2928 136.676 37.3654 136.691 37.4415C136.706 37.5176 136.704 37.5956 136.687 37.6711C136.65 37.8233 136.55 37.956 136.408 38.0405C136.266 38.1249 136.093 38.1542 135.928 38.122C135.869 38.109 135.809 38.1075 135.75 38.1176C135.69 38.1277 135.634 38.1492 135.585 38.1807C135.535 38.2103 135.492 38.2486 135.459 38.2935C135.425 38.3384 135.402 38.3889 135.389 38.4422C135.368 38.5511 135.39 38.6634 135.453 38.7579C135.521 38.8477 135.621 38.9118 135.737 38.9382L144.035 40.5571C144.189 40.588 144.326 40.6702 144.418 40.788C144.511 40.9058 144.553 41.0509 144.537 41.1955C144.52 41.3401 144.447 41.4741 144.33 41.5718C144.213 41.6695 144.061 41.724 143.903 41.725H143.908Z" fill="#E12B41"/>
<path d="M143.874 41.8608L142.87 41.6624L143.188 40.3096L144.167 40.5035C144.365 40.5424 144.538 40.6522 144.648 40.8086C144.759 40.965 144.797 41.1553 144.755 41.3377C144.706 41.5109 144.588 41.6608 144.425 41.7577C144.262 41.8546 144.065 41.8914 143.874 41.8608Z" fill="white"/>
<path d="M152.305 35.9631C152.305 34.6824 151.257 33.749 147.762 33.997C144.907 34.1954 143.517 32.9689 144.335 31.2598C146.646 32.3691 146.264 30.9171 150.67 30.7413C155.076 30.5654 156.354 32.0941 156.819 34.4705C159.517 38.1546 154.861 39.6833 154.861 39.6833L153.039 41.1488C152.662 41.2278 152.269 41.2121 151.9 41.1035C151.532 40.9948 151.201 40.7971 150.944 40.531C150.944 40.531 150.587 37.5413 152.305 35.9631Z" fill="#263238"/>
<path d="M147.625 30.1043L147.512 30.1584C147.407 30.2098 147.319 30.2857 147.256 30.3785C147.193 30.4713 147.158 30.5776 147.154 30.6869C147.15 30.7961 147.178 30.9044 147.234 31.0009C147.29 31.0973 147.372 31.1785 147.473 31.2362L157.695 37.0577C157.791 37.112 157.901 37.1433 158.013 37.1486C158.126 37.154 158.238 37.1334 158.34 37.0885C158.442 37.0437 158.53 36.9761 158.596 36.892C158.662 36.8078 158.704 36.7098 158.719 36.6068C158.766 36.316 158.72 36.0187 158.586 35.7517C158.452 35.4848 158.236 35.26 157.965 35.1052L149.25 30.1449C149.006 30.0082 148.728 29.9325 148.443 29.9254C148.158 29.9182 147.876 29.9799 147.625 30.1043Z" fill="#E12B41"/>
<path d="M149.466 30.7274L152.08 27.2011C152.155 27.1006 152.268 27.0301 152.398 27.0042C152.527 26.9782 152.662 26.9986 152.775 27.0613L159.992 31.043C160.055 31.077 160.109 31.1231 160.152 31.178C160.194 31.233 160.223 31.2957 160.237 31.3619C160.251 31.428 160.249 31.4962 160.232 31.5617C160.215 31.6273 160.183 31.6887 160.139 31.742L157.01 35.5478L149.466 30.7274Z" fill="#E12B41"/>
<path d="M149.466 30.7278L150.509 29.0098L158.567 33.9159L157.01 35.5483L149.466 30.7278Z" fill="#E12B41"/>
<path opacity="0.6" d="M149.466 30.7278L150.509 29.0098L158.567 33.9159L157.01 35.5483L149.466 30.7278Z" fill="white"/>
<path d="M155.036 41.937C154.32 42.387 153.442 42.5618 152.588 42.424C151.477 42.2256 151.477 41.1884 152.245 40.4534C152.936 39.7905 154.35 39.1006 155.241 39.6733C156.133 40.246 155.922 41.3733 155.036 41.937Z" fill="#FFC3BD"/>
<path d="M152.858 153.232H159.282C159.282 153.232 158.273 132.191 156.887 121.378C156.466 118.086 156.922 113.577 156.966 108.54C157.025 102.195 157.343 95.2824 157.656 89.8577C157.989 84.1444 158.268 80.0273 158.268 80.0273L145.128 81.7544C145.128 81.7544 143.825 111.71 145.867 122.208C147.992 133.111 152.858 153.232 152.858 153.232Z" fill="#E12B41"/>
<path opacity="0.2" d="M156.965 108.526C157.024 102.182 157.342 95.2688 157.655 89.8441L155.697 87.4316C153.279 91.6028 154.958 102.709 156.965 108.526Z" fill="black"/>
<path d="M151.389 80.9155C151.389 80.9155 159.551 110.6 163.428 120.201C167.673 130.707 183.305 142.991 183.305 142.991L187.256 138.987C187.256 138.987 178.987 127.114 172.892 115.691C169.979 100.86 165.22 79.0938 165.22 79.0938L151.389 80.9155Z" fill="#E12B41"/>
<path d="M182.777 143.596L188.97 138.667L187.369 136.967L180.344 142.364L182.777 143.596Z" fill="#263238"/>
<path d="M152.05 153.367L159.707 153.358L159.702 151.081L151.149 150.973L152.05 153.367Z" fill="#263238"/>
<path d="M148.931 37.153C148.687 37.0854 148.398 37.3018 148.28 37.64L149.152 37.897C149.269 37.5588 149.171 37.2251 148.931 37.153Z" fill="#263238"/>
<path d="M145.113 36.4893C144.863 36.4893 144.624 36.7508 144.624 37.107L145.534 37.1611C145.549 36.8049 145.368 36.5253 145.113 36.4893Z" fill="#263238"/>
<path d="M146.429 37.5176C145.896 38.3016 145.249 39.0147 144.505 39.637C144.684 39.8077 144.901 39.9405 145.141 40.0262C145.381 40.1119 145.639 40.1483 145.896 40.133L146.429 37.5176Z" fill="#ED847E"/>
<path d="M150.175 36.7919C150.206 36.7986 150.238 36.7986 150.268 36.7919C150.314 36.7784 150.351 36.7491 150.373 36.7103C150.395 36.6715 150.4 36.6263 150.386 36.5844C150.31 36.3313 150.169 36.0988 149.974 35.9065C149.78 35.7142 149.538 35.5678 149.27 35.4796C149.247 35.4728 149.223 35.4703 149.2 35.4724C149.176 35.4744 149.153 35.481 149.133 35.4915C149.112 35.5021 149.094 35.5166 149.08 35.5339C149.065 35.5513 149.055 35.5712 149.049 35.5924C149.043 35.6131 149.041 35.6349 149.043 35.6564C149.046 35.6778 149.053 35.6987 149.064 35.7176C149.076 35.7365 149.091 35.7531 149.11 35.7664C149.128 35.7798 149.149 35.7896 149.172 35.7953C149.385 35.8707 149.575 35.9919 149.726 36.1488C149.878 36.3057 149.987 36.4937 150.043 36.6972C150.056 36.7212 150.075 36.7422 150.098 36.7586C150.12 36.775 150.147 36.7864 150.175 36.7919Z" fill="#263238"/>
<path d="M143.982 36.0168C144.012 36.0213 144.042 36.0192 144.07 36.0105C144.098 36.0019 144.123 35.987 144.144 35.9672C144.291 35.8106 144.477 35.6882 144.685 35.6099C144.894 35.5315 145.119 35.4994 145.343 35.5162C145.391 35.5227 145.439 35.5116 145.478 35.4854C145.516 35.4592 145.542 35.42 145.549 35.3764C145.556 35.334 145.545 35.2907 145.517 35.2561C145.49 35.2214 145.448 35.1982 145.402 35.1915C145.118 35.1657 144.832 35.203 144.567 35.3003C144.302 35.3976 144.066 35.5521 143.88 35.7507C143.862 35.7659 143.849 35.7841 143.839 35.8042C143.83 35.8244 143.825 35.846 143.825 35.8679C143.825 35.8899 143.83 35.9115 143.839 35.9317C143.849 35.9518 143.862 35.97 143.88 35.9852C143.91 36.0042 143.946 36.0151 143.982 36.0168Z" fill="#263238"/>
<path d="M187.261 146.364C187.51 146.154 187.733 145.92 187.927 145.665C187.936 145.651 187.941 145.636 187.941 145.62C187.941 145.604 187.936 145.588 187.927 145.574C187.919 145.559 187.906 145.547 187.89 145.54C187.874 145.532 187.856 145.53 187.838 145.534C187.682 145.534 186.286 145.746 186.105 146.156C186.085 146.201 186.078 146.25 186.085 146.299C186.092 146.347 186.113 146.393 186.144 146.431C186.191 146.501 186.256 146.558 186.333 146.599C186.41 146.639 186.497 146.66 186.585 146.661C186.841 146.637 187.08 146.532 187.261 146.364ZM187.652 145.732C187.246 146.215 186.854 146.494 186.59 146.494C186.53 146.493 186.471 146.477 186.42 146.449C186.368 146.42 186.326 146.38 186.296 146.332C186.285 146.316 186.279 146.297 186.279 146.278C186.279 146.259 186.285 146.24 186.296 146.224C186.365 146.012 187.094 145.823 187.652 145.732Z" fill="#E12B41"/>
<path d="M187.912 145.683C187.925 145.672 187.935 145.658 187.941 145.643C187.949 145.629 187.953 145.615 187.953 145.6C187.953 145.585 187.949 145.57 187.941 145.557C187.907 145.525 187.158 144.79 186.6 144.795C186.532 144.795 186.464 144.808 186.402 144.834C186.339 144.86 186.283 144.897 186.238 144.944C186.186 144.985 186.151 145.042 186.138 145.104C186.126 145.166 186.137 145.231 186.169 145.286C186.37 145.638 187.462 145.782 187.892 145.701L187.912 145.683ZM186.375 145.034C186.432 144.989 186.505 144.965 186.58 144.966C186.938 144.966 187.427 145.35 187.662 145.553C187.173 145.575 186.424 145.413 186.301 145.205C186.301 145.183 186.267 145.138 186.345 145.061L186.375 145.034Z" fill="#E12B41"/>
<path d="M154.43 158.034C154.446 158.029 154.459 158.02 154.47 158.008C154.48 157.996 154.487 157.982 154.489 157.966C154.493 157.95 154.491 157.932 154.483 157.917C154.475 157.901 154.461 157.888 154.444 157.881C154.268 157.8 152.746 157.087 152.285 157.326C152.241 157.347 152.204 157.379 152.177 157.418C152.151 157.457 152.136 157.501 152.134 157.547C152.124 157.622 152.134 157.698 152.164 157.768C152.194 157.838 152.242 157.9 152.305 157.948C152.721 158.287 153.808 158.147 154.42 158.034H154.43ZM152.403 157.457C152.692 157.367 153.519 157.655 154.121 157.908C153.284 158.039 152.653 158.007 152.422 157.813C152.382 157.781 152.35 157.739 152.331 157.693C152.312 157.646 152.307 157.596 152.315 157.547C152.315 157.529 152.32 157.512 152.331 157.496C152.341 157.481 152.356 157.469 152.374 157.461L152.403 157.457Z" fill="#E12B41"/>
<path d="M154.43 158.034H154.454C154.467 158.025 154.477 158.014 154.484 158C154.491 157.987 154.494 157.972 154.494 157.958C154.494 157.922 154.381 156.979 153.901 156.605C153.834 156.552 153.756 156.513 153.672 156.489C153.588 156.465 153.499 156.457 153.412 156.465C153.162 156.465 153.093 156.605 153.079 156.695C153.01 157.092 153.916 157.845 154.376 158.048C154.395 158.048 154.414 158.044 154.43 158.034ZM153.328 156.641H153.421C153.487 156.634 153.553 156.64 153.615 156.659C153.678 156.678 153.735 156.708 153.784 156.749C154.063 157.052 154.234 157.427 154.273 157.822C153.808 157.565 153.186 156.975 153.23 156.736C153.24 156.704 153.24 156.664 153.328 156.641Z" fill="#E12B41"/>
<path d="M160.853 70.5889L157.201 71.6531L160.035 74.2504C160.035 74.2504 163.345 72.9292 162.307 71.5854L160.853 70.5889Z" fill="#FFC3BD"/>
<path d="M155.698 74.6205L158.297 76.0725L160.035 74.2507L157.201 71.6533L155.698 74.6205Z" fill="#FFC3BD"/>
</svg>
