<?xml version="1.0" encoding="UTF-8"?>
<svg id="Layer_1" data-name="Layer 1" xmlns="http://www.w3.org/2000/svg" viewBox="0 0 600 200">
  <defs>
    <style>
      .cls-1 {
        fill: #e20c07;
      }
    </style>
  </defs>
  <path class="cls-1" d="M511.57,99.8c0,2.41,.98,4.58,2.55,6.16,1.57,1.57,3.75,2.55,6.16,2.55h15.19c5,0,9.76,1.06,14.05,2.97,12.12,5.39,20.57,17.54,20.57,31.65,0,18.32-14.23,33.31-32.24,34.54-.79,.06-1.58,.08-2.39,.08h-69.65c.23-2.32,.35-4.67,.35-7.04,0-6.38-.85-12.56-2.43-18.44h68.76c4.81,0,8.7-3.9,8.7-8.71,0-2.4-.97-4.58-2.55-6.15-1.57-1.58-3.75-2.55-6.16-2.55h-15.72c-5,0-9.76-1.06-14.05-2.97-12.12-5.39-20.57-17.53-20.57-31.65,0-18.65,14.75-33.85,33.21-34.59,.47-.02,.94-.03,1.41-.03h80.53v25.48h-77.01c-4.81,0-8.71,3.89-8.71,8.7Z"/>
  <g>
    <rect class="cls-1" x="255.38" y="105.83" width="19.98" height="19.98"/>
    <rect class="cls-1" x="230.56" y="130.2" width="19.98" height="19.98"/>
    <path class="cls-1" d="M230.56,125.81h19.98v-19.98h0c-11.04,0-19.98,8.95-19.98,19.98h0Z"/>
    <path class="cls-1" d="M275.37,130.2h-19.98v19.98h0c11.04,0,19.98-8.95,19.98-19.98h0Z"/>
  </g>
  <path class="cls-1" d="M326.94,23.61V177.74h-35.48V59.49c-42.14,7.39-75.39,40.63-82.77,82.77-1.01,5.76-1.54,11.69-1.54,17.74s.52,11.98,1.54,17.74h-35.89c-.75-5.81-1.13-11.73-1.13-17.74s.39-11.93,1.13-17.74c7.96-61.77,56.89-110.7,118.66-118.66,5.81-.75,11.73-1.13,17.74-1.13s11.93,.39,17.74,1.13Z"/>
  <path class="cls-1" d="M122.51,141.17V22.35h35.48V176.62c-5.81,.74-11.73,1.12-17.74,1.12s-11.93-.38-17.74-1.12C60.74,168.76,11.81,120.42,3.85,59.39c-.75-5.74-1.13-11.74-1.13-17.68s.58-13.72,1.33-19.46c21.92,0,47.64,0,69.32,0-8.99,12.2-15.88,29.3-15.88,45.55,0,37.24,28.77,68.24,65.03,73.36"/>
  <g>
    <rect class="cls-1" x="340.6" y="22.71" width="35.53" height="154.8"/>
    <path class="cls-1" d="M454.27,83.28c0-33.7-27.32-61.02-61.02-61.02-3.01,0-5.97,.22-8.87,.64V59.37c2.76-1.03,5.75-1.59,8.87-1.59,14.07,0,25.5,11.44,25.5,25.5s-11.44,25.5-25.5,25.5c-3.12,0-6.11-.56-8.87-1.59v38.71c2.76-1.03,5.75-1.59,8.87-1.59,14.07,0,25.5,11.44,25.5,25.5,0,2.77-.44,5.44-1.27,7.94h36.28c.34-2.6,.51-5.25,.51-7.94,0-16.91-6.88-32.21-17.98-43.26,11.11-11.05,17.98-26.36,17.98-43.26Z"/>
  </g>
</svg>