<svg version="1.2" xmlns="http://www.w3.org/2000/svg" viewBox="0 0 953 124" width="953" height="124"><defs><linearGradient id="P" gradientUnits="userSpaceOnUse"/><linearGradient id="g1" x1="88.7" y1="8" x2="88.7" y2="87.9" href="#P"><stop offset=".4" stop-color="#f62d19"/><stop offset="1" stop-color="#791715"/></linearGradient><linearGradient id="g2" x1="119.1" y1="9" x2="119.1" y2="88.1" href="#P"><stop offset=".4" stop-color="#f62d19"/><stop offset="1" stop-color="#791715"/></linearGradient><linearGradient id="g3" x1="171.1" y1="8.8" x2="171.1" y2="88.2" href="#P"><stop offset=".4" stop-color="#f62d19"/><stop offset="1" stop-color="#791715"/></linearGradient><clipPath clipPathUnits="userSpaceOnUse" id="cp1"><path d="M-89-206h3850v700H-89z"/></clipPath></defs><style>.b{fill:#efe817}.c{fill:#231f20}</style><g clip-path="url(#cp1)"><path fill-rule="evenodd" d="M204.9 53h-7.7V18h7.7v13.8h14.2V18h7.7v35h-7.7V38.9h-14.2zm34-4.6q-5.3-5.1-5.3-12.7v-.1q0-7.6 5.3-12.8 5.3-5.3 13.4-5.3 8 0 13.3 5.2 5.2 5.2 5.2 12.7v.2q0 7.5-5.2 12.7-5.4 5.4-13.4 5.4t-13.3-5.3zm21-5q2.9-3.1 2.9-7.7v-.1q0-4.6-3-7.8-3.1-3.2-7.6-3.2-4.7-.1-7.6 3.2-2.9 3.1-2.9 7.6v.2q0 4.5 3 7.7t7.6 3.3q4.6 0 7.6-3.2zm-11.7-28.3h-5.7l6.1-7.8h7.2l6.2 7.8h-5.9l-3.9-3.3zm7.6 48.6h-7.3v-7.1h7.3zM285.7 53H278V18h7.7zm31.3 0h-7.6V18h8.3l9.2 14.8 9.2-14.8h8.3v35h-7.6V30.1l-9.9 15h-.2L317 30.3zm37.3-4.7q-5.3-5.1-5.3-12.7v-.1q0-7.6 5.3-12.8 5.3-5.3 13.4-5.3 8 0 13.3 5.2 5.2 5.2 5.2 12.8v.1q0 7.5-5.2 12.8-5.4 5.3-13.4 5.3t-13.3-5.3zm21-5q2.9-3.1 2.9-7.7v-.1q0-4.6-3-7.8-3.1-3.2-7.6-3.2-4.7 0-7.6 3.2-2.9 3.1-2.9 7.7v.1q0 4.6 3 7.7 3 3.3 7.6 3.3t7.6-3.2zm-11.7-28.6h-6l6.4-7.3h7.2l6.4 7.3h-6.1l-3.9-2.8zM401.1 53h-7.7V18h7.7zm25-4.5q-5.1-5.1-5.1-12.9v-.1q0-7.5 5.2-12.8 5.3-5.3 13.2-5.3 8.2 0 13.7 4.8l-4.8 5.8q-4.3-3.5-9.2-3.5-4.2 0-7.1 3.2-2.9 3.2-2.9 7.7v.1q0 4.8 3 7.9 2.9 3.2 7.6 3.2 4.3 0 7.2-2.1v-5h-7.7v-6.7h15.2V48q-6.5 5.6-15 5.6-8.1 0-13.3-5.1zm43.7 4.5h-7.7V18h7.7zm41.4-27.7q3 4.3 3 10.1v.1q0 7.5-5.2 12.8-5.4 5.3-13.4 5.3t-13.3-5.3q-5.3-5.1-5.3-12.7v-.1q0-7.6 5.3-12.8 5.3-5.3 13.4-5.3 8 0 13.3 5.2 1.9-1.2 1.7-4.6h4.3q0 5.6-3.8 7.3zm-7.9 18q2.9-3.1 2.9-7.7v-.1q0-4.6-3-7.8-3.1-3.2-7.6-3.2-4.6 0-7.6 3.2-2.9 3.1-2.9 7.7v.1q0 4.6 3 7.7 3 3.3 7.6 3.3t7.6-3.2zM497.6 15H492l5.5-8.8 6.6 2.8zm31.5 38h-7.7V18h7.7zm40.4 0h-16.6V18h16.2q6.1 0 9.2 3.1 2.4 2.4 2.4 5.9v.1q0 4.9-4.6 7.6 6.5 2.5 6.5 8.6v.1q0 4.7-3.6 7.2-3.3 2.4-9.5 2.4zm3.5-24.6v-.1q0-3.6-5-3.6h-7.6v7.4h7.1q5.5 0 5.5-3.7zm2 14v-.1q0-3.8-5.7-3.8h-8.9v7.7h9.1q5.5 0 5.5-3.8zM593.8 53H586l15-35.3h7.1l15 35.3H615l-3.2-7.9H597zm10.6-26-4.6 11.4h9.3zm-3.8-12h-5.8l6.2-7.8h7.2l6.1 7.8h-5.8l-4-3.3zm17.1-6.1h-5.6l5.5-8.9 6.6 2.9zM644.4 53h-7.7V25.1H626V18h29v7.1h-10.6zm46.7 0h-13.7V38.8h-3.8V32h3.8V18h13.7q8.1 0 13.4 5 5.1 4.9 5.2 12.4v.1q-.1 7.5-5.2 12.4-5.4 5.1-13.4 5.1zm1.5-21v6.8h-7.5V46h6q4.7 0 7.6-2.9 2.9-2.9 2.9-7.5v-.1q0-4.7-2.9-7.6-2.9-3-7.6-3h-6V32zm27.6 16.3q-5.3-5.1-5.3-12.7v-.1q.1-7.6 5.4-12.8 5.2-5.3 13.3-5.3 8 0 13.3 5.2 5.3 5.2 5.2 12.8v.1q0 7.5-5.2 12.8-5.3 5.3-13.4 5.3-8 0-13.3-5.3zm21-5q2.9-3.1 2.9-7.7v-.1q0-4.6-3-7.8-3.1-3.2-7.6-3.2-4.6 0-7.5 3.2-3 3.1-3 7.7v.1q0 4.6 3 7.7 3 3.3 7.6 3.3t7.6-3.2zM729.6 15h-5.8l6.2-7.8h7.1l6.2 7.8h-5.8l-4-3.3zm7.6 48.7H730v-7.2h7.2zM766.6 53h-7.5V18h7l16.5 21.5V18h7.6v35h-6.6l-17-22.3zm33.2-4.5q-5.1-5.1-5.1-12.9v-.1q0-7.5 5.2-12.8 5.3-5.3 13.2-5.3 8.1 0 13.8 4.8l-4.9 5.9q-4.3-3.6-9.1-3.6-4.3 0-7.1 3.2-3 3.3-3 7.7v.1q0 4.8 3 8 2.9 3.1 7.6 3.1 4.3 0 7.3-2.1v-5h-7.8v-6.6h15.2v15.2q-6.5 5.5-15 5.5-8.1 0-13.3-5.1zm47.8-.6 4.5-5.4q5.2 4.2 10.5 4.2 5.1 0 5.1-3.3v-.1q0-1.5-1.4-2.4-1.3-.9-5.7-2-6.2-1.6-8.5-3.4-3.1-2.5-3.1-7.3v-.1q0-4.8 3.4-7.7 3.4-2.9 8.8-2.9 7.4 0 13.1 4.5l-4 5.8q-5-3.5-9.1-3.5-2.2 0-3.4.9-1.2.9-1.1 2.2v.1q0 1.7 1.4 2.6 1.4.8 6.1 2 5.8 1.5 8.2 3.6 2.9 2.5 2.9 6.9v.1q0 5.1-3.6 8-3.5 2.8-9.2 2.8-8.7 0-14.9-5.6zm39.3 5.1H879l15-35.2h7.1l15 35.2h-8l-3.2-7.8h-14.8zm10.6-26-4.7 11.3h9.3zm-4.3-17.5V6.1q1.1-.1 2.2-.1 3.2 0 5 1.2 1.7 1.2 1.7 3.1 0 2-2.1 4.5h-5q1.6-1.7 1.7-3.3 0-2.2-3.5-2zm36 43.5h-7.6V18h7.1L945 39.6V18h7.7v35h-6.6l-16.9-22.2zm-714 60.2h-6.9L194.2 78h8.5l9.1 24.6L221 78h8.3zm27.6-.3h-7.7v-35h7.7zm35.4 0h-26.7v-35h26.4v6.9h-18.7v7.1h16.5v6.8h-16.5v7.4h19zm-17.3-38h-5.8l6.2-7.8h7.2l6.1 7.8h-5.8l-4-3.3zm7.7 48.7h-7.3v-7.2h7.3zm32.3-10.7h-7.7V85h-10.6v-7.1h29V85h-10.7zm39.2 0h-7.6v-35h7.1L356 99.4V77.9h7.6v35H357l-16.9-22.3zm35.7 0H368l15-35.2h7.1l15 35.2H397l-3.2-7.8H379zm10.6-26-4.6 11.3h9.3zm31.6 26h-7.6v-35h8.3l9.2 14.8 9.2-14.8h8.3v35h-7.6V90.1l-9.9 14.9h-.2L418 90.2z" style="fill:#fff"/><path class="b" d="m128.1 40.5-.5.7-.1-29 .5-.7z"/><path class="c" d="m172.4 41.3-.5.7c-5-17.5-16.9-24.7-26-27.6-6-1.9-11.7-2.3-15.2-2.3-1.5 0-2.6.1-3.2.1l.5-.7c.6-.1 1.7-.2 3.2-.2 3.5 0 9.2.4 15.2 2.4 9.1 2.9 21 10 26 27.6z"/><path class="b" d="M131.6 40.6q-2.1 0-4 .6l.5-.7q1.9-.7 4-.7c2.1 0 4 .5 5.7 1.4q-.2.3-.5.7c-1.7-.9-3.7-1.3-5.7-1.3z"/><path class="c" d="m127.2 41.7-.5.7v-31l.5-.7z"/><path class="c" d="m127.8 41.5-.5.7-.6.2.5-.7z"/><path class="b" d="M137.3 41.9q.3-.4.5-.7c4.2 2.1 7 6.3 7 11.2 0 2.6-.8 5-2.1 7.1l-.5.7c1.3-2 2.1-4.4 2.1-7 0-4.9-2.8-9.2-7-11.3z"/><path class="c" d="m142 59-.5.7c1.2-1.8 2-4.1 2-6.5-.1-6.5-5.4-11.8-11.9-11.8q-2.2 0-4.3.8l.5-.7q2.1-.8 4.3-.8c6.5 0 11.8 5.2 11.9 11.7 0 2.5-.8 4.7-2 6.6zm24.9 17-.5.7c5.6-8.4 7-16.7 7.2-22.4.1-7.2-1.7-12.2-1.7-12.3l.5-.7s1.8 5 1.7 12.2c-.2 5.8-1.6 14-7.2 22.5zm.7.5-.5.7q-1.2 1.8-2.7 3.6l.5-.7q1.5-1.8 2.7-3.6z"/><path class="b" d="M166.4 76.7q-1.4 2-3 4l.5-.7q1.6-2 3-4c-.2.2-.4.5-.5.7z"/><path class="b" d="m163.9 80-.5.7-.4.5.5-.7z"/><path class="c" d="m164.1 80.6-.5.8-.6-.2.5-.7zm-21.4-21.2-.5.8c-2.3 3.4-6.2 5.6-10.6 5.6q-2 0-4-.6l.5-.8q2 .7 4 .7c4.4 0 8.3-2.3 10.6-5.7z"/><path class="c" d="m174.2 113.6-.5.8c.2-2 1.1-12.1-1.7-21.1-3.1-10.3-8.4-11.9-8.4-11.9l.5-.8c0 .1 5.3 1.7 8.4 11.9 2.8 9.1 1.9 19.1 1.7 21.1z"/><path class="b" d="M146.7 106.5c0-3.7-1.5-7-3.9-9.4q.2-.4.5-.7c2.4 2.4 3.9 5.7 3.9 9.3v.5q-.2.2-.3.4-.1.1-.1.2h-.1v.1-.4z"/><path class="b" d="M133.4 93.2c-2 0-4 .5-5.7 1.3l.5-.8c1.7-.8 3.7-1.2 5.7-1.2 3.6 0 7 1.5 9.4 3.9q-.3.3-.5.7c-2.4-2.4-5.8-3.9-9.4-3.9zm-5.2.5-.5.8-.1-29.3.5-.8z"/><path class="c" d="m127.3 95.2-.5.7V64l.5-.8z"/><path class="c" d="m128 94.8-.5.8-.7.3.5-.7z"/><path class="b" d="m146.7 106.9.1-.1q0-.1.1-.2.1-.2.3-.4-.1 1.8-.7 3.6l-.2.4-.1.1q0 .1-.1.1v.1q-.1 0-.1.1.6-1.8.7-3.7z"/><path class="c" d="m144.2 112.7-.5.7c1.4-2.1 2.1-4.5 2.1-6.9 0-6.9-5.6-12.4-12.4-12.4-2.1 0-4.1.5-5.9 1.5l.5-.8c1.8-1 3.8-1.5 5.9-1.5 6.8 0 12.4 5.6 12.4 12.4 0 2.5-.7 4.9-2.1 7z"/><path class="b" d="M144.3 114q1.2-1.6 1.7-3.4.3-.4.5-.8-.5 1.8-1.7 3.5c-.1.2-.3.5-.5.7z"/><path class="c" d="m145 113-.5.8q-.2.2-.3.4l.5-.7q.1-.2.3-.5z"/><path class="b" d="m174.2 113.6-.5.8h-29.6l.5-.8z"/><path fill-rule="evenodd" class="c" d="M173.4 92.3c3.1 10.2 1.6 21.7 1.6 21.8l-.1.4h-31.6l.3-.6s.1-.3.3-.8c1.6-2.2 2.4-4.7 2.4-7.4 0-6.8-5.6-12.4-12.4-12.4-2.1 0-4.1.5-5.9 1.5l-.7.4v-32l.6.2q2 .8 4.2.8c6.6 0 11.9-5.3 11.9-11.8-.1-6.5-5.4-11.7-11.9-11.7q-2.2 0-4.3.8l-.6.2v-31l.3-.1c.1 0 1.5-.1 3.7-.1 3.6 0 9.3.4 15.4 2.3 6 1.9 11.1 4.9 15.3 8.9 5.2 4.9 9 11.4 11.3 19.3.1.4 1.9 5.3 1.7 12.5-.1 6.7-2 16.7-10 26.6 1.5.7 5.7 3.4 8.5 12.2zm.8 21.3c.2-2 1.1-12-1.7-21.1-3.1-10.2-8.4-11.8-8.4-11.9l-.6-.1.4-.5c8.1-9.8 10-19.8 10.2-26.5.1-7.2-1.7-12.2-1.7-12.2-5-17.6-16.9-24.7-26-27.6-6-2-11.7-2.4-15.2-2.4-1.5 0-2.6.1-3.2.2l.1 29q1.9-.7 4-.7c7 0 12.7 5.7 12.7 12.6 0 7-5.7 12.7-12.7 12.7q-2 0-4-.7l.1 29.3c1.7-.8 3.7-1.2 5.7-1.2 7.3 0 13.3 5.9 13.3 13.2 0 2.8-.9 5.5-2.5 7.8z"/><path class="b" d="M131.2 11.3c3.5 0 9.2.4 15.2 2.4 9.1 2.9 21 10 26 27.6 0 0 1.8 5 1.7 12.2-.2 6.7-2.1 16.7-10.2 26.5l-.4.5.6.1c0 .1 5.3 1.7 8.4 11.9 2.8 9.1 1.9 19.1 1.7 21.1h-29.6c1.7-2.4 2.6-5.1 2.6-7.9 0-7.3-6-13.2-13.3-13.2-2 0-4 .4-5.7 1.2l-.1-29.3q2 .7 4 .7c7 0 12.7-5.7 12.7-12.7 0-6.9-5.7-12.6-12.7-12.6q-2.1 0-4 .7l-.1-29c.6-.1 1.7-.2 3.2-.2z"/><path class="c" d="m143.6 113.9-.5.7s.1-.2.3-.7l.5-.8c-.2.5-.3.8-.3.8zm-.3.6-.5.7.3-.6.5-.7zm31.6 0-.5.7h-31.6l.5-.7zM122.6 11.6l-.5.7H87.2l.5-.7zm-43.9-1-.5.7-.8.8.5-.8z"/><path class="b" d="M76.1 12.2c-1.1 1.1-3.2 3.5-5.4 6.8l.5-.8c2.2-3.3 4.3-5.6 5.4-6.8-.2.3-.4.6-.5.8z"/><path class="c" d="m71.4 19.4.5-.7c3-4.6 6-7.3 6-7.4l-.5.8s-3 2.8-6 7.3zm5.2-8-.5.8H1.9l.5-.8zm-75-.4-.5.7v-.4l.5-.7zM87 70.7l-.5.8-.2-60.1.5-.7z"/><path class="b" d="m87.8 71.5-.5.8-.1-60 .5-.7z"/><path class="c" d="m87.8 71.5-.5.8h-.4l.5-.7z"/><path class="c" d="m70.7 19 .5-.8c-.9 1.3-1.8 2.8-2.6 4.3-3.5 6.7-6.8 17-2.4 28.3s9.9 16.3 13.7 18.5c3.5 2.1 6.2 2.3 7.5 2.3l-.5.7c-1.3 0-4-.2-7.5-2.2-3.8-2.3-9.3-7.3-13.7-18.6-4.4-11.3-1.1-21.6 2.4-28.2.8-1.6 1.7-3 2.6-4.3zm52.1 94.7-.5.8-.2-102.2.5-.7z"/><path class="b" d="m122.8 113.7-.5.8H87l.5-.8z"/><path class="c" d="m123.7 114.6-.5.7H87l.5-.7z"/><path class="b" d="M2 29.6c-.3-5.1-.3-10.4-.1-17.4l.5-.8c-.2 7-.2 12.4.1 17.4.7 12.9 3.3 29.2 15.9 46.5q-.3.4-.5.8C5.3 58.8 2.7 42.5 2 29.6z"/><path class="b" d="M76.6 11.4c-1.5 1.6-5.1 5.6-8 11.1-3.5 6.7-6.8 17-2.4 28.3s9.9 16.3 13.7 18.5c3.5 2.1 6.2 2.3 7.2 2.3l.7-.1-.1-59.9h34.9l.2 102.1H87.5s-.8 0-2.2-.1c-7.8-.6-34.8-4.3-56.6-26.2C7.1 65.7 3.3 44.7 2.5 28.8c-.3-5-.3-10.4-.1-17.4z"/><path class="b" d="M28.2 88.2c-4-4.1-7.4-8.1-10.3-12.1q.2-.4.5-.8c2.9 4 6.3 8.1 10.3 12.1 21.8 21.9 48.8 25.6 56.6 26.2 1.4.1 2.2.1 2.2.1l-.5.8s-.8 0-2.2-.1c-7.8-.6-34.8-4.3-56.6-26.2z"/><path fill-rule="evenodd" class="c" d="M86.8 10.7h36.7l.2 103.9H87.5c-.1 0-.9 0-2.3-.1-7.8-.6-35.1-4.4-57.1-26.5C6.3 66.1 2.5 44.9 1.6 28.9c-.4-6.6-.2-13 0-17.9v-.4h77.1l-.8.7c0 .1-4.8 4.6-8.6 11.7-3.4 6.5-6.6 16.5-2.3 27.5 7.3 18.9 17.8 20.2 20 20.2zm35.9 103.1-.2-102.2H87.6l.1 59.9-.4.1c-1.3 0-4-.2-7.5-2.2-3.8-2.3-9.3-7.3-13.7-18.6-4.4-11.3-1.1-21.6 2.4-28.2 2.9-5.6 6.5-9.6 8-11.1H2.3c-.2 6.9-.2 12.3.1 17.3.9 15.9 4.6 36.9 26.3 58.7 21.7 21.8 48.7 25.5 56.5 26.1 1.4.1 2.2.2 2.2.2z"/><path class="c" d="m87.5 114.6-.5.7c-.1 0-.9 0-2.3-.1-7.8-.6-35.1-4.3-57.1-26.4C5.8 66.9 2 45.6 1.1 29.6c-.4-6.6-.2-13 0-17.9l.5-.7c-.2 4.9-.4 11.3 0 17.9.9 16 4.7 37.2 26.5 59.1 22 22.1 49.3 25.9 57.1 26.5 1.4.1 2.2.1 2.3.1z"/><path d="M88.1 78.5v30.7h-.9c-46.6-3.3-81.5-40.1-81-86.4v-7.1h56.1c1.1 0 2.3.1 4.1.2-.6 1.4-1 2.2-1.4 2.9-12.1 22.5-2.6 51.9 21.9 59.4q.6.2 1.2.3z" style="fill:url(#g1)"/><path d="M93.2 16.5h25.3v92.7H93.2z" style="fill:url(#g2)"/><path d="M170 109.3h-18.7q.1-1.1.1-2.2c0-10-8.1-18.2-18.1-18.4V69.2c9-.7 16-8.2 16-17.3 0-9.1-7-16.6-16-17.3v-18q31.1.3 35.2 30.6 3.7 16.5-10.5 33.5 15.2 6.8 12 28.6z" style="fill:url(#g3)"/><path class="b" d="M104 83.2h16.6v2h-8.3v14.2h6.2v2h-6.2v7.8h-2V95.9H93.2v-2.1h17.1v-8.6H102V72.7h-8.8v-2h16.7v-9.8h-4.6v-9.8H93.2V49h12.1V29.7H93.2v-2.1h6.2V16.5h2v11.1h17.1v2.1h-11.1v29.1h12v2.1h-7.5v11.8H104zm51.4-49.7v11.7h13.5v2h-10.4v4.1h-10.4v-2h8.3v-2.1h-3.1v-7.5h-12v-2h12v-6.2h13.6v2zm15.7 69.2v2.1h-15.3V86.7h-10.5v7.9h-2v-10h5.1v-7.7H129v-2h19.4v-9.5h-5.9v-2.1H168v2.1h-17.5v19.2h15.9v2.1h-8.5v16zm-38-79h24.4v2.1h-24.4z"/></g></svg>