<svg width="370" height="276" viewBox="0 0 370 276" fill="none" xmlns="http://www.w3.org/2000/svg">
<path d="M370 242.276H0V242.461H370V242.276Z" fill="#EBEBEB"/>
<path d="M63.3301 249.321H38.8213V249.506H63.3301V249.321Z" fill="#EBEBEB"/>
<path d="M161.238 247.315H126.643V247.5H161.238V247.315Z" fill="#EBEBEB"/>
<path d="M97.6733 255.041H83.4727V255.226H97.6733V255.041Z" fill="#EBEBEB"/>
<path d="M253.479 251.829H231.124V252.014H253.479V251.829Z" fill="#EBEBEB"/>
<path d="M274.363 251.829H260.066V252.014H274.363V251.829Z" fill="#EBEBEB"/>
<path d="M332.934 254.953H289.6V255.138H332.934V254.953Z" fill="#EBEBEB"/>
<path d="M175.38 209.272H32.4934C31.374 209.27 30.3012 208.824 29.5104 208.032C28.7195 207.24 28.2754 206.166 28.2754 205.047V4.1884C28.2851 3.07546 28.7336 2.0113 29.5234 1.22708C30.3131 0.442859 31.3804 0.00190653 32.4934 0H175.38C176.501 0 177.575 0.445175 178.368 1.23759C179.16 2.03001 179.605 3.10475 179.605 4.2254V205.047C179.605 206.167 179.16 207.242 178.368 208.034C177.575 208.827 176.501 209.272 175.38 209.272ZM32.4934 0.148001C31.4231 0.149961 30.3973 0.576508 29.6412 1.33402C28.8851 2.09153 28.4604 3.1181 28.4604 4.1884V205.047C28.4604 206.117 28.8851 207.143 29.6412 207.901C30.3973 208.659 31.4231 209.085 32.4934 209.087H175.38C176.451 209.085 177.478 208.659 178.235 207.901C178.992 207.144 179.418 206.118 179.42 205.047V4.1884C179.418 3.11742 178.992 2.09086 178.235 1.33357C177.478 0.576268 176.451 0.149957 175.38 0.148001H32.4934Z" fill="#EBEBEB"/>
<path d="M335.45 209.272H192.556C191.436 209.27 190.363 208.824 189.571 208.032C188.779 207.24 188.333 206.167 188.331 205.047V4.1884C188.343 3.07478 188.793 2.01064 189.584 1.22662C190.375 0.4426 191.443 0.00188573 192.556 0H335.45C336.562 0.00385133 337.628 0.445664 338.416 1.22968C339.204 2.01369 339.651 3.07674 339.661 4.1884V205.047C339.661 206.165 339.218 207.237 338.429 208.029C337.639 208.821 336.569 209.268 335.45 209.272ZM192.556 0.148001C191.485 0.149957 190.459 0.576268 189.702 1.33357C188.944 2.09086 188.518 3.11742 188.516 4.1884V205.047C188.518 206.118 188.944 207.144 189.702 207.901C190.459 208.659 191.485 209.085 192.556 209.087H335.45C336.521 209.085 337.548 208.659 338.305 207.901C339.063 207.144 339.489 206.118 339.491 205.047V4.1884C339.489 3.11742 339.063 2.09086 338.305 1.33357C337.548 0.576268 336.521 0.149957 335.45 0.148001H192.556Z" fill="#EBEBEB"/>
<path d="M66.2375 140.764L242.306 140.764V30.5851L66.2375 30.5851V140.764Z" fill="#F0F0F0"/>
<path d="M238.856 135.583V35.7646L69.6776 35.7646V135.583H238.856Z" fill="#FAFAFA"/>
<path d="M216.591 135.583L199.23 35.7646H186.436L203.789 135.583H216.591Z" fill="white"/>
<path d="M200.836 135.583L183.483 35.7646H177.763L195.116 135.583H200.836Z" fill="white"/>
<path d="M172.834 135.583L155.481 35.7646H142.687L160.04 135.583H172.834Z" fill="white"/>
<path d="M140.579 135.583L123.218 35.7646H117.498L134.851 135.583H140.579Z" fill="white"/>
<path d="M194.406 135.583V35.7646H193.533V135.583H194.406Z" fill="#E0E0E0"/>
<path d="M238.856 135.59V35.7715H237.983V135.59H238.856Z" fill="#E0E0E0"/>
<path d="M197.854 135.583V35.7646H194.405V135.583H197.854Z" fill="#F0F0F0"/>
<path d="M151.699 135.583V35.7646H150.826V135.583H151.699Z" fill="#E0E0E0"/>
<path d="M155.141 135.583V35.7646H151.692V135.583H155.141Z" fill="#F0F0F0"/>
<path d="M108.965 135.583V35.7646H108.092V135.583H108.965Z" fill="#E0E0E0"/>
<path d="M112.413 135.59V35.7715H108.965V135.59H112.413Z" fill="#F0F0F0"/>
<path d="M66.2295 140.763V30.584H65.3563V140.763H66.2295Z" fill="#E0E0E0"/>
<path d="M48.3433 23.0211H250.119C250.424 23.0211 250.717 22.9005 250.933 22.6856C251.149 22.4707 251.272 22.179 251.274 21.8741C251.274 21.568 251.152 21.2743 250.935 21.0578C250.719 20.8414 250.425 20.7197 250.119 20.7197H48.3433C48.0384 20.7217 47.7467 20.8442 47.5318 21.0604C47.3169 21.2767 47.1963 21.5692 47.1963 21.8741C47.1982 22.1777 47.3197 22.4684 47.5344 22.683C47.7491 22.8977 48.0397 23.0192 48.3433 23.0211Z" fill="#E0E0E0"/>
<g opacity="0.6">
<path d="M170.74 219.536H247.301L247.301 18.5003H170.74L170.74 219.536Z" fill="#F5F5F5"/>
<path d="M217.294 221.178H223.709L221.911 20.1426H219.04L217.294 221.178Z" fill="#E6E6E6"/>
<path d="M231.449 221.178H234.55L233.676 20.1426H232.293L231.449 221.178Z" fill="#E6E6E6"/>
<path d="M198.689 221.177H201.782L200.917 20.1416H199.533L198.689 221.177Z" fill="#E6E6E6"/>
<path d="M182.927 221.178H186.021L185.155 20.1426H183.771L182.927 221.178Z" fill="#E6E6E6"/>
</g>
<g opacity="0.6">
<path d="M52.294 219.536H90.5742L90.5742 18.5003H52.294L52.294 219.536Z" fill="#F5F5F5"/>
<path d="M75.5742 221.178H78.7784L77.883 20.1426H76.4474L75.5742 221.178Z" fill="#E6E6E6"/>
<path d="M82.6494 221.178H84.196L83.7668 20.1426H83.0712L82.6494 221.178Z" fill="#E6E6E6"/>
<path d="M66.2725 221.177H67.8191L67.3825 20.1416H66.6943L66.2725 221.177Z" fill="#E6E6E6"/>
<path d="M58.3926 221.178H59.9392L59.5026 20.1426H58.807L58.3926 221.178Z" fill="#E6E6E6"/>
</g>
<path d="M318 49.5811H267.214V112.969H318V49.5811Z" fill="#E6E6E6"/>
<path d="M320.234 49.5811H267.976V112.969H320.234V49.5811Z" fill="#F5F5F5"/>
<path d="M316.231 108.468V54.0781H271.987V108.468H316.231Z" fill="#FAFAFA"/>
<path d="M316.231 108.468V54.0781H315.817V108.468H316.231Z" fill="#E6E6E6"/>
<path d="M308.744 77.6997C311.24 75.2028 311.24 71.1546 308.744 68.6578C306.247 66.1609 302.198 66.1609 299.702 68.6578C297.205 71.1546 297.205 75.2028 299.702 77.6997C302.198 80.1965 306.247 80.1965 308.744 77.6997Z" fill="#F0F0F0"/>
<path d="M303.2 91.958C308.275 86.8833 308.275 78.6557 303.2 73.5811C298.125 68.5065 289.898 68.5065 284.823 73.5811C279.749 78.6557 279.749 86.8833 284.823 91.958C289.898 97.0326 298.125 97.0326 303.2 91.958Z" fill="white"/>
<path d="M290.629 74.6385C291.44 71.2019 289.311 67.7584 285.875 66.9472C282.438 66.1361 278.995 68.2645 278.184 71.7012C277.372 75.1379 279.501 78.5814 282.937 79.3925C286.374 80.2036 289.818 78.0752 290.629 74.6385Z" fill="#F0F0F0"/>
<path d="M265.705 166.766H258.764V237.524H265.705V166.766Z" fill="#F0F0F0"/>
<path d="M330.943 162.533H257.076V166.766H330.943V162.533Z" fill="#F0F0F0"/>
<path d="M326.422 237.525H261.591V242.276H326.422V237.525Z" fill="#F0F0F0"/>
<path d="M329.256 166.766H265.705V237.524H329.256V166.766Z" fill="#FAFAFA"/>
<path d="M271.491 196.359H323.461V174.648H271.491V196.359Z" fill="#F0F0F0"/>
<path d="M271.491 228.291H323.461V206.579H271.491V228.291Z" fill="#F0F0F0"/>
<path d="M303.4 173.368H291.553C290.809 173.368 290.206 173.971 290.206 174.715V175.396C290.206 176.14 290.809 176.743 291.553 176.743H303.4C304.144 176.743 304.747 176.14 304.747 175.396V174.715C304.747 173.971 304.144 173.368 303.4 173.368Z" fill="#FAFAFA"/>
<path d="M303.4 205.306H291.553C290.809 205.306 290.206 205.909 290.206 206.652V207.333C290.206 208.077 290.809 208.68 291.553 208.68H303.4C304.144 208.68 304.747 208.077 304.747 207.333V206.652C304.747 205.909 304.144 205.306 303.4 205.306Z" fill="#FAFAFA"/>
<path d="M141.762 242.062C150.46 240.651 156.366 232.455 154.954 223.758C153.542 215.06 145.347 209.154 136.65 210.566C127.952 211.978 122.046 220.173 123.458 228.87C124.869 237.568 133.065 243.474 141.762 242.062Z" fill="#EBEBEB"/>
<path d="M117.888 242.015C128.744 240.253 136.116 230.024 134.353 219.168C132.591 208.313 122.362 200.941 111.507 202.703C100.651 204.465 93.2791 214.694 95.0412 225.55C96.8034 236.405 107.032 243.777 117.888 242.015Z" fill="#F5F5F5"/>
<path d="M185 275.696C264.241 275.696 328.479 271.946 328.479 267.319C328.479 262.693 264.241 258.942 185 258.942C105.759 258.942 41.5215 262.693 41.5215 267.319C41.5215 271.946 105.759 275.696 185 275.696Z" fill="#F5F5F5"/>
<path d="M93.6915 105.48C88.8001 105.48 86.4987 100.559 86.4025 100.352C86.3188 100.121 86.3247 99.8678 86.4191 99.6416C86.5135 99.4154 86.6895 99.233 86.9122 99.1305C87.1348 99.028 87.3878 99.013 87.6211 99.0884C87.8543 99.1638 88.0506 99.3241 88.1711 99.5376C88.1711 99.6042 90.1173 103.637 93.8395 103.534C94.0842 103.547 94.3148 103.653 94.4854 103.828C94.6561 104.004 94.7545 104.238 94.761 104.483C94.7675 104.728 94.6817 104.966 94.5206 105.151C94.3596 105.336 94.1349 105.453 93.8913 105.48H93.6915Z" fill="#E12B41"/>
<path d="M157.621 37.1416C157.195 37.1435 156.77 37.1163 156.348 37.0602C156.222 37.0413 156.1 36.9976 155.991 36.9318C155.881 36.8659 155.786 36.7791 155.71 36.6764C155.634 36.5737 155.579 36.457 155.548 36.333C155.517 36.2091 155.511 36.0802 155.53 35.9539C155.549 35.8276 155.593 35.7062 155.659 35.5967C155.725 35.4873 155.811 35.3919 155.914 35.3159C156.017 35.24 156.133 35.185 156.257 35.1542C156.381 35.1234 156.51 35.1173 156.637 35.1362C156.681 35.1362 161.136 35.7652 163.089 32.5906C163.156 32.4818 163.243 32.3871 163.346 32.312C163.45 32.2369 163.567 32.1829 163.691 32.153C163.815 32.1231 163.943 32.118 164.069 32.1378C164.195 32.1577 164.316 32.2021 164.425 32.2687C164.534 32.3353 164.629 32.4226 164.704 32.5258C164.779 32.6289 164.833 32.7459 164.863 32.8699C164.893 32.9939 164.898 33.1226 164.878 33.2486C164.858 33.3747 164.814 33.4956 164.747 33.6044C162.801 36.6828 159.434 37.1416 157.621 37.1416Z" fill="#E12B41"/>
<path opacity="0.6" d="M157.621 37.1416C157.195 37.1435 156.77 37.1163 156.348 37.0602C156.222 37.0413 156.1 36.9976 155.991 36.9318C155.881 36.8659 155.786 36.7791 155.71 36.6764C155.634 36.5737 155.579 36.457 155.548 36.333C155.517 36.2091 155.511 36.0802 155.53 35.9539C155.549 35.8276 155.593 35.7062 155.659 35.5967C155.725 35.4873 155.811 35.3919 155.914 35.3159C156.017 35.24 156.133 35.185 156.257 35.1542C156.381 35.1234 156.51 35.1173 156.637 35.1362C156.681 35.1362 161.136 35.7652 163.089 32.5906C163.156 32.4818 163.243 32.3871 163.346 32.312C163.45 32.2369 163.567 32.1829 163.691 32.153C163.815 32.1231 163.943 32.118 164.069 32.1378C164.195 32.1577 164.316 32.2021 164.425 32.2687C164.534 32.3353 164.629 32.4226 164.704 32.5258C164.779 32.6289 164.833 32.7459 164.863 32.8699C164.893 32.9939 164.898 33.1226 164.878 33.2486C164.858 33.3747 164.814 33.4956 164.747 33.6044C162.801 36.6828 159.434 37.1416 157.621 37.1416Z" fill="white"/>
<path d="M47.805 74.1998C45.9276 74.1359 44.1042 73.5545 42.5362 72.52C42.4256 72.4491 42.3306 72.3565 42.2568 72.2477C42.1831 72.139 42.1323 72.0164 42.1074 71.8874C42.0825 71.7584 42.0841 71.6257 42.1121 71.4973C42.1401 71.3689 42.1938 71.2476 42.2702 71.1407C42.3465 71.0337 42.4437 70.9434 42.556 70.8752C42.6683 70.807 42.7933 70.7624 42.9234 70.7439C43.0534 70.7255 43.1859 70.7338 43.3127 70.7681C43.4395 70.8025 43.558 70.8622 43.661 70.9438C43.698 70.9438 47.4276 73.4672 50.5726 71.4618C50.6803 71.3835 50.8029 71.328 50.9329 71.2988C51.0628 71.2696 51.1974 71.2672 51.3282 71.2919C51.4591 71.3166 51.5835 71.3678 51.6939 71.4424C51.8043 71.5169 51.8982 71.6133 51.97 71.7254C52.0417 71.8376 52.0898 71.9633 52.1112 72.0948C52.1326 72.2262 52.1269 72.3607 52.0945 72.4898C52.062 72.619 52.0035 72.7402 51.9225 72.8459C51.8415 72.9516 51.7397 73.0396 51.6234 73.1046C50.4834 73.8315 49.157 74.2119 47.805 74.1998Z" fill="#E12B41"/>
<path opacity="0.6" d="M47.805 74.1998C45.9276 74.1359 44.1042 73.5545 42.5362 72.52C42.4256 72.4491 42.3306 72.3565 42.2568 72.2477C42.1831 72.139 42.1323 72.0164 42.1074 71.8874C42.0825 71.7584 42.0841 71.6257 42.1121 71.4973C42.1401 71.3689 42.1938 71.2476 42.2702 71.1407C42.3465 71.0337 42.4437 70.9434 42.556 70.8752C42.6683 70.807 42.7933 70.7624 42.9234 70.7439C43.0534 70.7255 43.1859 70.7338 43.3127 70.7681C43.4395 70.8025 43.558 70.8622 43.661 70.9438C43.698 70.9438 47.4276 73.4672 50.5726 71.4618C50.6803 71.3835 50.8029 71.328 50.9329 71.2988C51.0628 71.2696 51.1974 71.2672 51.3282 71.2919C51.4591 71.3166 51.5835 71.3678 51.6939 71.4424C51.8043 71.5169 51.8982 71.6133 51.97 71.7254C52.0417 71.8376 52.0898 71.9633 52.1112 72.0948C52.1326 72.2262 52.1269 72.3607 52.0945 72.4898C52.062 72.619 52.0035 72.7402 51.9225 72.8459C51.8415 72.9516 51.7397 73.0396 51.6234 73.1046C50.4834 73.8315 49.157 74.2119 47.805 74.1998Z" fill="white"/>
<path d="M301.647 48.2487C299.773 48.1982 297.948 47.6351 296.371 46.6207C296.159 46.4745 296.014 46.2501 295.967 45.9968C295.921 45.7435 295.977 45.4822 296.123 45.2702C296.269 45.0582 296.494 44.913 296.747 44.8665C297 44.8201 297.261 44.8761 297.473 45.0223C297.51 45.0223 301.247 47.5383 304.392 45.5403C304.5 45.4718 304.62 45.4251 304.745 45.4029C304.87 45.3807 304.999 45.3834 305.123 45.4109C305.248 45.4384 305.365 45.4901 305.47 45.5631C305.574 45.6361 305.663 45.7289 305.732 45.8363C305.8 45.9437 305.847 46.0635 305.869 46.1889C305.891 46.3143 305.889 46.4429 305.861 46.5673C305.834 46.6917 305.782 46.8094 305.709 46.9138C305.636 47.0182 305.543 47.1072 305.436 47.1757C304.304 47.8932 302.987 48.266 301.647 48.2487Z" fill="#E12B41"/>
<path opacity="0.6" d="M301.647 48.2487C299.773 48.1982 297.948 47.6351 296.371 46.6207C296.159 46.4745 296.014 46.2501 295.967 45.9968C295.921 45.7435 295.977 45.4822 296.123 45.2702C296.269 45.0582 296.494 44.913 296.747 44.8665C297 44.8201 297.261 44.8761 297.473 45.0223C297.51 45.0223 301.247 47.5383 304.392 45.5403C304.5 45.4718 304.62 45.4251 304.745 45.4029C304.87 45.3807 304.999 45.3834 305.123 45.4109C305.248 45.4384 305.365 45.4901 305.47 45.5631C305.574 45.6361 305.663 45.7289 305.732 45.8363C305.8 45.9437 305.847 46.0635 305.869 46.1889C305.891 46.3143 305.889 46.4429 305.861 46.5673C305.834 46.6917 305.782 46.8094 305.709 46.9138C305.636 47.0182 305.543 47.1072 305.436 47.1757C304.304 47.8932 302.987 48.266 301.647 48.2487Z" fill="white"/>
<path d="M182.64 124.684C178.104 124.684 175.633 120.288 175.522 120.089C175.397 119.863 175.367 119.597 175.438 119.349C175.51 119.101 175.677 118.892 175.903 118.768C176.128 118.643 176.394 118.613 176.642 118.685C176.89 118.756 177.099 118.923 177.224 119.149C177.224 119.208 179.444 123.086 183.144 122.708C183.391 122.7 183.632 122.785 183.819 122.948C184.006 123.111 184.124 123.338 184.149 123.584C184.174 123.83 184.105 124.077 183.956 124.274C183.806 124.472 183.587 124.605 183.343 124.647C183.121 124.669 182.877 124.684 182.64 124.684Z" fill="#E12B41"/>
<path opacity="0.6" d="M182.64 124.684C178.104 124.684 175.633 120.288 175.522 120.089C175.397 119.863 175.367 119.597 175.438 119.349C175.51 119.101 175.677 118.892 175.903 118.768C176.128 118.643 176.394 118.613 176.642 118.685C176.89 118.756 177.099 118.923 177.224 119.149C177.224 119.208 179.444 123.086 183.144 122.708C183.391 122.7 183.632 122.785 183.819 122.948C184.006 123.111 184.124 123.338 184.149 123.584C184.174 123.83 184.105 124.077 183.956 124.274C183.806 124.472 183.587 124.605 183.343 124.647C183.121 124.669 182.877 124.684 182.64 124.684Z" fill="white"/>
<path d="M58.4602 144.449C58.2246 144.447 57.9977 144.36 57.8221 144.203C57.6464 144.045 57.5341 143.83 57.5059 143.596C57.4778 143.362 57.5359 143.125 57.6693 142.931C57.8027 142.737 58.0024 142.598 58.2308 142.54C58.2752 142.54 62.619 141.393 63.211 137.708C63.2314 137.582 63.2764 137.462 63.3435 137.353C63.4105 137.245 63.4982 137.15 63.6016 137.076C63.705 137.001 63.8221 136.948 63.9462 136.919C64.0703 136.889 64.1989 136.885 64.3247 136.905C64.4506 136.926 64.5712 136.971 64.6796 137.038C64.7881 137.105 64.8823 137.192 64.9568 137.296C65.0314 137.399 65.0849 137.516 65.1142 137.64C65.1435 137.764 65.148 137.893 65.1276 138.019C64.3358 142.984 58.9264 144.368 58.697 144.427C58.619 144.442 58.5397 144.449 58.4602 144.449Z" fill="#E12B41"/>
<path opacity="0.6" d="M58.4602 144.449C58.2246 144.447 57.9977 144.36 57.8221 144.203C57.6464 144.045 57.5341 143.83 57.5059 143.596C57.4778 143.362 57.5359 143.125 57.6693 142.931C57.8027 142.737 58.0024 142.598 58.2308 142.54C58.2752 142.54 62.619 141.393 63.211 137.708C63.2314 137.582 63.2764 137.462 63.3435 137.353C63.4105 137.245 63.4982 137.15 63.6016 137.076C63.705 137.001 63.8221 136.948 63.9462 136.919C64.0703 136.889 64.1989 136.885 64.3247 136.905C64.4506 136.926 64.5712 136.971 64.6796 137.038C64.7881 137.105 64.8823 137.192 64.9568 137.296C65.0314 137.399 65.0849 137.516 65.1142 137.64C65.1435 137.764 65.148 137.893 65.1276 138.019C64.3358 142.984 58.9264 144.368 58.697 144.427C58.619 144.442 58.5397 144.449 58.4602 144.449Z" fill="black"/>
<path d="M274.542 76.9975C274.3 77.0058 274.063 76.9232 273.879 76.7658C273.695 76.6085 273.576 76.388 273.546 76.1476C273.517 75.9071 273.578 75.6643 273.718 75.4669C273.859 75.2695 274.068 75.1318 274.305 75.0809C274.349 75.0809 278.693 73.9413 279.285 70.2561C279.297 70.1227 279.337 69.9933 279.401 69.8758C279.465 69.7583 279.553 69.6553 279.659 69.5732C279.765 69.4911 279.886 69.4316 280.016 69.3985C280.146 69.3654 280.281 69.3593 280.414 69.3807C280.546 69.402 280.672 69.4504 280.785 69.5227C280.898 69.595 280.994 69.6897 281.069 69.8009C281.144 69.9122 281.195 70.0376 281.219 70.1694C281.243 70.3011 281.239 70.4365 281.209 70.5669C280.41 75.5323 275 76.9161 274.771 76.9679C274.696 76.9886 274.619 76.9986 274.542 76.9975Z" fill="#E12B41"/>
<path opacity="0.6" d="M274.542 76.9975C274.3 77.0058 274.063 76.9232 273.879 76.7658C273.695 76.6085 273.576 76.388 273.546 76.1476C273.517 75.9071 273.578 75.6643 273.718 75.4669C273.859 75.2695 274.068 75.1318 274.305 75.0809C274.349 75.0809 278.693 73.9413 279.285 70.2561C279.297 70.1227 279.337 69.9933 279.401 69.8758C279.465 69.7583 279.553 69.6553 279.659 69.5732C279.765 69.4911 279.886 69.4316 280.016 69.3985C280.146 69.3654 280.281 69.3593 280.414 69.3807C280.546 69.402 280.672 69.4504 280.785 69.5227C280.898 69.595 280.994 69.6897 281.069 69.8009C281.144 69.9122 281.195 70.0376 281.219 70.1694C281.243 70.3011 281.239 70.4365 281.209 70.5669C280.41 75.5323 275 76.9161 274.771 76.9679C274.696 76.9886 274.619 76.9986 274.542 76.9975Z" fill="black"/>
<path d="M314.301 113.895H314.138C313.902 113.85 308.411 112.844 307.279 107.975C307.249 107.849 307.245 107.719 307.266 107.592C307.288 107.465 307.334 107.344 307.403 107.235C307.472 107.126 307.562 107.032 307.668 106.958C307.773 106.884 307.893 106.832 308.019 106.805C308.144 106.777 308.274 106.774 308.4 106.795C308.527 106.817 308.648 106.864 308.757 106.933C308.865 107.001 308.959 107.091 309.033 107.196C309.107 107.301 309.16 107.42 309.188 107.545C310.031 111.171 314.442 111.985 314.486 111.985C314.719 112.035 314.926 112.169 315.068 112.36C315.209 112.552 315.276 112.789 315.255 113.026C315.234 113.264 315.127 113.485 314.954 113.649C314.781 113.813 314.554 113.908 314.316 113.917L314.301 113.895Z" fill="#E12B41"/>
<path d="M296.955 149.57C295.261 149.597 293.613 149.017 292.308 147.935C292.199 147.857 292.108 147.758 292.039 147.643C291.971 147.528 291.927 147.401 291.91 147.268C291.893 147.135 291.904 147.001 291.942 146.872C291.98 146.744 292.043 146.625 292.129 146.523C292.215 146.42 292.322 146.337 292.442 146.277C292.561 146.218 292.692 146.184 292.826 146.178C292.959 146.171 293.093 146.193 293.218 146.241C293.342 146.288 293.456 146.361 293.551 146.455C296.415 148.838 300.433 146.84 300.478 146.818C300.707 146.7 300.974 146.678 301.22 146.757C301.466 146.836 301.67 147.01 301.788 147.239C301.905 147.469 301.927 147.736 301.848 147.982C301.769 148.227 301.595 148.431 301.366 148.549C299.987 149.205 298.482 149.553 296.955 149.57Z" fill="#E12B41"/>
<path d="M251.601 28.1205C251.432 28.1218 251.267 28.0784 251.12 27.9947C250.92 27.8837 246.088 25.0865 246.68 20.0915C246.71 19.8354 246.84 19.6015 247.041 19.4412C247.243 19.2809 247.501 19.2074 247.757 19.2368C248.013 19.2663 248.247 19.3962 248.407 19.5982C248.567 19.8001 248.641 20.0574 248.612 20.3135C248.19 24.0135 252.067 26.2853 252.104 26.3075C252.293 26.414 252.44 26.5805 252.523 26.7804C252.606 26.9803 252.619 27.2022 252.561 27.4107C252.504 27.6193 252.378 27.8024 252.204 27.9311C252.03 28.0597 251.817 28.1264 251.601 28.1205Z" fill="#E12B41"/>
<path d="M58.3059 32.0644C58.1786 32.0697 58.0515 32.0499 57.9318 32.0061C57.8121 31.9624 57.7023 31.8954 57.6085 31.8092C57.5147 31.723 57.4388 31.6191 57.3851 31.5035C57.3315 31.388 57.3011 31.263 57.2958 31.1357C57.2904 31.0084 57.3102 30.8812 57.354 30.7616C57.3978 30.6419 57.4647 30.5321 57.5509 30.4383C57.6372 30.3445 57.741 30.2686 57.8566 30.2149C57.9722 30.1613 58.0972 30.1309 58.2245 30.1256C61.9245 29.8 63.4045 25.5524 63.4045 25.508C63.4904 25.2718 63.6647 25.0783 63.8906 24.9682C64.1165 24.858 64.3763 24.8399 64.6153 24.9177C64.8543 24.9954 65.0537 25.1629 65.1716 25.3849C65.2894 25.6068 65.3165 25.8658 65.2471 26.1074C65.1805 26.3368 63.4045 31.6278 58.3947 32.0274L58.3059 32.0644Z" fill="#E12B41"/>
<path d="M130.506 61.3461C127.879 62.5745 125.563 68.4797 126.317 76.9601C127.072 85.4405 109.505 79.4909 107.114 88.9925C102.8 106.19 131.727 116.528 144.055 106.19C151.685 99.7965 158.855 78.7213 157.804 67.2217C156.68 54.8563 137.499 46.5609 130.506 61.3461Z" fill="#263238"/>
<path d="M158.265 83.0439C158.59 82.9477 159.064 82.8071 159.471 82.6739L160.744 82.2447C161.595 81.9487 162.438 81.6231 163.274 81.2753C164.94 80.5913 166.566 79.8131 168.144 78.9443C171.235 77.2949 174.017 75.1216 176.365 72.5211C178.459 70.0347 179.961 66.6455 181.138 63.1675C181.737 61.4211 182.241 59.6229 182.67 57.7951C183.099 55.9673 183.506 54.0951 183.817 52.2969L186.836 52.4819C186.841 56.4837 186.407 60.474 185.541 64.3811C185.101 66.3831 184.504 68.3476 183.758 70.2567C182.984 72.2718 181.946 74.1753 180.672 75.9177C178.065 79.2596 174.833 82.0621 171.155 84.1687C169.383 85.2162 167.544 86.1457 165.65 86.9511C164.703 87.3507 163.748 87.6911 162.771 88.0537C162.29 88.2239 161.802 88.3867 161.291 88.5347C160.781 88.6827 160.329 88.8233 159.722 88.9713L158.265 83.0439Z" fill="#7F3E3B"/>
<path d="M186.821 53.496L188.079 48.9746L183.084 49.3594C183.084 49.3594 182.729 52.3194 184.453 54.1028L186.821 53.496Z" fill="#7F3E3B"/>
<path d="M188.825 43.7119L184.267 44.9033L183.083 49.3581L188.078 48.9733L188.825 43.7119Z" fill="#7F3E3B"/>
<path d="M152.611 84.1961C154.912 82.1019 160.751 80.4961 160.751 80.4961L167.152 90.1161C167.152 90.1161 159.848 94.9927 156.748 93.8605C153.521 92.7357 150.465 86.1423 152.611 84.1961Z" fill="#E12B41"/>
<path d="M131.529 221.031L135.518 225.412L146.966 217.257L142.977 212.876L131.529 221.031Z" fill="#7F3E3B"/>
<path d="M109.017 238.338L114.367 240.995L122.233 229.458L116.883 226.802L109.017 238.338Z" fill="#7F3E3B"/>
<path d="M115.218 240.336L111.089 235.045C111.02 234.953 110.919 234.889 110.806 234.866C110.693 234.843 110.575 234.862 110.475 234.919L105.82 237.583C105.705 237.654 105.606 237.748 105.53 237.859C105.454 237.971 105.402 238.097 105.378 238.23C105.354 238.363 105.359 238.499 105.392 238.63C105.425 238.761 105.485 238.883 105.569 238.989C107.049 240.81 107.84 241.616 109.661 243.947C110.771 245.376 113.035 248.706 114.574 250.681C116.114 252.657 118.156 251.244 117.69 250.282C115.603 245.968 115.47 243.407 115.544 241.35C115.559 240.984 115.443 240.625 115.218 240.336Z" fill="#263238"/>
<path d="M136.709 225.493L133.986 218.951C133.938 218.834 133.852 218.736 133.742 218.673C133.632 218.61 133.504 218.586 133.379 218.603L127.607 219.343C127.47 219.358 127.338 219.405 127.222 219.48C127.106 219.556 127.01 219.658 126.941 219.778C126.873 219.898 126.834 220.032 126.827 220.17C126.821 220.308 126.847 220.446 126.904 220.572C127.895 222.843 128.495 223.902 129.694 226.78C130.434 228.549 132.15 233.196 133.164 235.66C134.178 238.124 136.783 237.54 136.59 236.459C135.725 231.62 136.021 228.497 136.738 226.595C136.806 226.419 136.839 226.23 136.834 226.041C136.829 225.852 136.786 225.665 136.709 225.493Z" fill="#263238"/>
<path opacity="0.2" d="M146.957 217.257L141.059 221.46L136.597 217.42L142.968 212.876L146.957 217.257Z" fill="black"/>
<path opacity="0.2" d="M116.884 226.802L122.234 229.458L118.171 235.408L112.821 232.744L116.884 226.802Z" fill="black"/>
<path d="M160.669 84.9454C160.669 84.9454 160.846 84.679 157.605 120.036L133.407 121.731C133.126 111.859 133.866 104.888 129.256 84.605C132.656 83.9203 136.101 83.485 139.564 83.3026C143.231 83.058 146.911 83.0777 150.575 83.3618C155.304 83.8132 160.669 84.9454 160.669 84.9454Z" fill="#E12B41"/>
<path d="M131.076 90.4655C129.278 89.6367 127.702 88.7487 126.066 87.8089C124.431 86.8691 122.884 85.8627 121.345 84.7971C118.212 82.6701 115.299 80.2358 112.65 77.5303L111.673 76.4721L111.422 76.2057C111.277 76.0399 111.142 75.867 111.015 75.6877C110.786 75.3613 110.588 75.0145 110.423 74.6517C109.933 73.4953 109.681 72.252 109.683 70.9961C109.699 68.997 109.968 67.0079 110.482 65.0761C111.421 61.4605 112.725 57.9497 114.374 54.5977L117.201 55.6929C116.764 57.3727 116.35 59.1191 115.98 60.8285C115.61 62.5379 115.299 64.2621 115.092 65.9493C114.852 67.5357 114.787 69.1438 114.9 70.7445C114.937 71.2985 115.077 71.8407 115.314 72.3429C115.314 72.3947 115.388 72.4539 115.41 72.4613C115.432 72.4687 115.41 72.4613 115.41 72.4613L115.64 72.6759L116.55 73.5417C119.09 75.8422 121.812 77.9333 124.69 79.7947C126.133 80.7493 127.65 81.6225 129.13 82.5031C130.61 83.3837 132.201 84.2199 133.644 84.9525L131.076 90.4655Z" fill="#7F3E3B"/>
<path d="M138.78 85.959C136.035 82.1332 130.64 82.1924 130.64 82.1924L124.136 91.8124C124.136 91.8124 131.395 96.7556 134.496 95.653C137.781 94.4838 140.475 88.3122 138.78 85.959Z" fill="#E12B41"/>
<path d="M150.576 83.3619L139.564 83.3027C137.877 83.9835 136.9 88.3717 148.074 92.0865C155.822 87.6835 151.7 83.7689 150.576 83.3619Z" fill="white"/>
<path d="M140.719 70.9062C141.392 74.4509 142.051 80.9481 139.564 83.3013C139.564 83.3013 140.526 86.905 148.074 92.085C153.365 86.7792 150.576 83.3604 150.576 83.3604C146.631 82.391 146.75 79.4606 147.453 76.7004L140.719 70.9062Z" fill="#7F3E3B"/>
<path d="M163.541 106.101H163.422C163.032 106.069 162.67 105.884 162.416 105.586C162.163 105.288 162.037 104.901 162.068 104.51C162.334 101.21 159.848 98.7163 156.992 95.8229C153.713 92.5151 149.991 88.7633 149.843 82.9247C149.833 82.5322 149.98 82.1518 150.251 81.8673C150.521 81.5829 150.894 81.4175 151.286 81.4077C151.679 81.3979 152.059 81.5444 152.344 81.815C152.628 82.0856 152.793 82.4582 152.803 82.8507C152.922 87.5127 156.059 90.6799 159.093 93.7435C162.127 96.8071 165.391 100.093 165.013 104.747C164.982 105.116 164.813 105.46 164.54 105.711C164.268 105.962 163.911 106.101 163.541 106.101Z" fill="#263238"/>
<path d="M141.91 113.59C141.79 113.59 141.671 113.575 141.555 113.546C141.174 113.451 140.846 113.21 140.644 112.874C140.441 112.538 140.38 112.136 140.474 111.755C141.902 105.953 140.03 101.395 138.047 96.5998C136.271 92.293 134.436 87.8382 135.324 82.6286C135.4 82.2514 135.621 81.9189 135.939 81.7016C136.257 81.4844 136.647 81.3995 137.026 81.4649C137.405 81.5304 137.744 81.7411 137.971 82.0523C138.197 82.3635 138.294 82.7507 138.239 83.1318C137.499 87.4978 139.09 91.3754 140.778 95.475C142.761 100.278 145.003 105.724 143.345 112.495C143.261 112.81 143.074 113.089 142.814 113.287C142.554 113.485 142.236 113.592 141.91 113.59Z" fill="#263238"/>
<path opacity="0.2" d="M146.063 75.4805L143.103 75.8283C143.246 76.6252 143.532 77.3897 143.946 78.0853C144.531 78.9659 145.833 79.3507 147.121 79.3877C147.119 78.4722 147.244 77.5608 147.491 76.6793L146.063 75.4805Z" fill="black"/>
<path d="M134.17 67.3403C136.338 72.8607 137.13 75.2435 140.911 77.2119C146.594 80.1719 152.899 76.3165 152.425 70.2633C152.004 64.8095 148.533 56.6991 142.295 56.2403C140.921 56.1332 139.543 56.3789 138.29 56.954C137.038 57.5292 135.954 58.4147 135.14 59.5266C134.326 60.6385 133.81 61.94 133.64 63.3074C133.47 64.6749 133.652 66.0631 134.17 67.3403Z" fill="#7F3E3B"/>
<path d="M140.111 55.442C144.322 58.032 140.718 73.2686 133.592 72.462C126.466 71.6554 133.888 51.6162 140.111 55.442Z" fill="#263238"/>
<path d="M139.956 55.4993C136.781 57.6083 138.949 61.2787 149.65 59.1031C149.65 59.0957 145.225 51.9917 139.956 55.4993Z" fill="#263238"/>
<path d="M134.938 72.7057C135.406 73.7514 136.268 74.5704 137.336 74.9849C138.764 75.5177 139.6 74.2449 139.319 72.8611C139.06 71.5957 138.009 69.7827 136.529 69.8567C136.206 69.8785 135.893 69.9807 135.619 70.1541C135.345 70.3275 135.119 70.5666 134.961 70.8496C134.803 71.1326 134.718 71.4506 134.714 71.7748C134.71 72.0989 134.787 72.4189 134.938 72.7057Z" fill="#7F3E3B"/>
<path d="M157.621 120.036C157.621 120.036 170.571 162.312 171.614 180.502C172.694 199.423 144.597 221.875 144.597 221.875L137.604 214.201C137.604 214.201 160.433 194.813 157.302 180.768C152.973 161.41 139.861 121.279 139.861 121.279L157.621 120.036Z" fill="#263238"/>
<path opacity="0.2" d="M149.547 133.873C148.363 130.173 145.728 132.66 144.811 136.582C146.638 142.502 148.755 149.428 150.768 156.362C151.545 150.22 151.863 141.125 149.547 133.873Z" fill="black"/>
<path d="M135.709 213.831L144.582 222.984L148.37 220.89L138.995 210.686L135.709 213.831Z" fill="#E12B41"/>
<path d="M151.219 120.486C151.219 120.486 147.519 161.926 143.819 185.007C140.822 203.655 120.465 234.113 120.465 234.113L113.006 230.643C113.006 230.643 126.688 198.031 128.82 185.355C135.657 144.781 126.422 133.074 133.415 121.715L151.219 120.486Z" fill="#263238"/>
<path d="M112.48 230.724L120.894 234.853L123.654 231.427L113.812 226.787L112.48 230.724Z" fill="#E12B41"/>
<path d="M132.949 120.339L132.009 122.559C131.935 122.729 132.142 122.892 132.424 122.87L157.806 121.094C158.02 121.094 158.198 120.961 158.198 120.82L158.264 118.6C158.264 118.452 158.072 118.341 157.835 118.356L133.326 120.073C133.244 120.075 133.165 120.102 133.098 120.15C133.031 120.197 132.979 120.263 132.949 120.339Z" fill="white"/>
<path d="M136.427 122.84L135.776 122.884C135.643 122.884 135.539 122.832 135.539 122.751L135.65 119.917C135.65 119.835 135.768 119.754 135.894 119.747L136.553 119.702C136.686 119.702 136.79 119.754 136.782 119.835L136.671 122.67C136.671 122.766 136.56 122.84 136.427 122.84Z" fill="#263238"/>
<path d="M155.977 121.478L155.319 121.523C155.185 121.523 155.082 121.471 155.089 121.39L155.2 118.555C155.2 118.474 155.311 118.4 155.444 118.385L156.096 118.341C156.229 118.341 156.332 118.393 156.332 118.474L156.221 121.316C156.214 121.397 156.14 121.471 155.977 121.478Z" fill="#263238"/>
<path d="M146.203 122.167L145.545 122.211C145.419 122.211 145.315 122.159 145.315 122.078L145.426 119.236C145.426 119.155 145.537 119.081 145.671 119.074L146.329 119.029C146.455 119.029 146.559 119.081 146.559 119.162L146.448 121.997C146.448 122.1 146.337 122.152 146.203 122.167Z" fill="#263238"/>
<path d="M143.087 65.2682C142.732 65.3866 142.584 65.9194 142.762 66.467L144.057 66.0526C143.879 65.505 143.443 65.1202 143.087 65.2682Z" fill="#263238"/>
<path d="M148.74 63.4777C148.378 63.5961 148.23 64.1363 148.407 64.6839L149.71 64.2621C149.48 63.7145 149.058 63.3667 148.74 63.4777Z" fill="#263238"/>
<path d="M148.556 63.559L149.747 62.7598C149.747 62.7598 149.407 64.003 148.556 63.559Z" fill="#263238"/>
<path d="M147.26 65.7129C148.004 66.6268 148.87 67.4336 149.835 68.1105C149.656 68.3533 149.426 68.5539 149.162 68.6984C148.897 68.8429 148.604 68.9276 148.303 68.9467L147.26 65.7129Z" fill="#630F0F"/>
<path d="M147.35 71.2466C147.371 71.2278 147.387 71.2031 147.395 71.1755C147.403 71.1479 147.402 71.1186 147.394 71.0912C147.382 71.0559 147.357 71.0268 147.324 71.0101C147.29 70.9935 147.252 70.9907 147.216 71.0024C146.65 71.1984 146.046 71.259 145.453 71.1793C144.859 71.0996 144.292 70.8819 143.798 70.5436C143.785 70.5304 143.769 70.5199 143.752 70.5128C143.735 70.5056 143.716 70.502 143.698 70.502C143.679 70.502 143.661 70.5056 143.644 70.5128C143.626 70.5199 143.611 70.5304 143.598 70.5436C143.584 70.5561 143.572 70.5715 143.565 70.5887C143.557 70.6059 143.553 70.6246 143.553 70.6435C143.553 70.6624 143.557 70.6811 143.565 70.6983C143.572 70.7155 143.584 70.7309 143.598 70.7434C144.127 71.1224 144.74 71.3674 145.384 71.4576C146.028 71.5479 146.685 71.4805 147.298 71.2614L147.35 71.2466Z" fill="#263238"/>
<path d="M141.216 64.9352C141.253 64.904 141.281 64.863 141.297 64.8168C141.399 64.4724 141.583 64.1578 141.833 63.9001C142.083 63.6423 142.392 63.449 142.733 63.3368C142.769 63.3281 142.803 63.3123 142.832 63.2905C142.862 63.2687 142.888 63.2412 142.907 63.2095C142.926 63.1779 142.939 63.1428 142.945 63.1063C142.95 63.0697 142.949 63.0324 142.94 62.9964C142.931 62.9605 142.915 62.9266 142.894 62.8967C142.872 62.8669 142.844 62.8416 142.813 62.8223C142.781 62.8031 142.746 62.7903 142.709 62.7846C142.673 62.7789 142.635 62.7805 142.6 62.7892C142.171 62.9243 141.78 63.16 141.461 63.4767C141.142 63.7934 140.903 64.1818 140.764 64.6096C140.741 64.6803 140.746 64.7574 140.78 64.8239C140.813 64.8905 140.871 64.9412 140.942 64.9648C140.986 64.9853 141.035 64.9934 141.083 64.9882C141.131 64.9829 141.177 64.9646 141.216 64.9352Z" fill="#263238"/>
<path d="M150.079 61.2806C150.095 61.2722 150.108 61.2593 150.116 61.2436C150.14 61.2146 150.158 61.1811 150.169 61.1452C150.179 61.1093 150.182 61.0716 150.178 61.0344C150.174 60.9972 150.163 60.9612 150.144 60.9285C150.126 60.8958 150.102 60.867 150.072 60.844C149.726 60.5576 149.316 60.3578 148.878 60.2613C148.439 60.1648 147.983 60.1743 147.549 60.289C147.513 60.3006 147.48 60.3193 147.451 60.344C147.423 60.3687 147.4 60.3989 147.383 60.4327C147.367 60.4665 147.357 60.5033 147.355 60.5409C147.353 60.5785 147.358 60.6161 147.371 60.6516C147.396 60.721 147.447 60.7781 147.513 60.8112C147.579 60.8442 147.656 60.8506 147.726 60.8292C148.071 60.7407 148.431 60.7362 148.778 60.816C149.124 60.8958 149.446 61.0577 149.717 61.288C149.768 61.3297 149.833 61.3519 149.9 61.3505C149.966 61.3492 150.03 61.3244 150.079 61.2806Z" fill="#263238"/>
<path d="M120.435 56.7802C120.256 56.7798 120.079 56.7313 119.925 56.6396L97.4141 42.772C97.2167 42.6267 97.0813 42.4125 97.0345 42.1719C96.9878 41.9313 97.0332 41.6819 97.1618 41.4732C97.2903 41.2646 97.4926 41.1119 97.7285 41.0454C97.9644 40.9789 98.2167 41.0036 98.4353 41.1144L120.946 54.9821C121.128 55.0921 121.268 55.2588 121.346 55.4563C121.423 55.6539 121.434 55.8715 121.376 56.0757C121.318 56.2799 121.194 56.4594 121.025 56.5867C120.855 56.714 120.648 56.782 120.435 56.7802Z" fill="#E12B41"/>
<path d="M102.513 44.3041C103.778 44.2523 105.081 44.1931 105.251 43.0535C105.421 41.9139 104.2 41.4773 103.031 41.0481L102.713 40.9297C102.713 40.8187 102.661 40.7077 102.631 40.6041L102.89 40.3155C103.719 39.3979 104.585 38.4507 103.911 37.5479C103.238 36.6451 102.084 37.1779 100.951 37.7033L100.604 37.8661C100.507 37.7995 100.411 37.7477 100.308 37.6885C100.204 37.6293 100.308 37.4517 100.308 37.3481C100.248 36.0901 100.189 34.7877 99.0569 34.6175C97.9247 34.4473 97.4807 35.6683 97.0515 36.8375C97.0145 36.9337 96.9775 37.0447 96.9331 37.1557L96.6001 37.2371L96.3189 36.9855C95.4013 36.1493 94.4541 35.2909 93.5513 35.9569C92.6485 36.6229 93.1813 37.7847 93.7067 38.9169L93.8695 39.2647C93.805 39.3575 93.7457 39.4539 93.6919 39.5533H93.3515C92.0935 39.6125 90.7837 39.6717 90.6135 40.8113C90.4433 41.9509 91.6717 42.3875 92.8335 42.8167L93.1517 42.9351C93.1517 43.0461 93.2035 43.1571 93.2331 43.2607C93.1443 43.3643 93.0555 43.4679 92.9741 43.5493C92.1453 44.4669 91.2869 45.4067 91.9529 46.3169C92.6189 47.2271 93.7807 46.6795 94.9129 46.1615L95.2681 45.9987L95.5567 46.1763C95.5567 46.2947 95.5567 46.4131 95.5567 46.5167C95.6159 47.7747 95.6751 49.0771 96.8073 49.2473C97.9395 49.4175 98.3909 48.1965 98.8201 47.0273C98.8201 46.9385 98.8941 46.8275 98.9311 46.7091C99.0437 46.689 99.155 46.6618 99.2641 46.6277L99.5527 46.8867C100.463 47.7155 101.41 48.5813 102.32 47.9153C103.231 47.2493 102.683 46.0875 102.158 44.9553C102.113 44.8591 102.054 44.7333 102.002 44.6075L102.18 44.3189L102.513 44.3041Z" fill="#E12B41"/>
<path opacity="0.7" d="M102.513 44.3041C103.778 44.2523 105.081 44.1931 105.251 43.0535C105.421 41.9139 104.2 41.4773 103.031 41.0481L102.713 40.9297C102.713 40.8187 102.661 40.7077 102.631 40.6041L102.89 40.3155C103.719 39.3979 104.585 38.4507 103.911 37.5479C103.238 36.6451 102.084 37.1779 100.951 37.7033L100.604 37.8661C100.507 37.7995 100.411 37.7477 100.308 37.6885C100.204 37.6293 100.308 37.4517 100.308 37.3481C100.248 36.0901 100.189 34.7877 99.0569 34.6175C97.9247 34.4473 97.4807 35.6683 97.0515 36.8375C97.0145 36.9337 96.9775 37.0447 96.9331 37.1557L96.6001 37.2371L96.3189 36.9855C95.4013 36.1493 94.4541 35.2909 93.5513 35.9569C92.6485 36.6229 93.1813 37.7847 93.7067 38.9169L93.8695 39.2647C93.805 39.3575 93.7457 39.4539 93.6919 39.5533H93.3515C92.0935 39.6125 90.7837 39.6717 90.6135 40.8113C90.4433 41.9509 91.6717 42.3875 92.8335 42.8167L93.1517 42.9351C93.1517 43.0461 93.2035 43.1571 93.2331 43.2607C93.1443 43.3643 93.0555 43.4679 92.9741 43.5493C92.1453 44.4669 91.2869 45.4067 91.9529 46.3169C92.6189 47.2271 93.7807 46.6795 94.9129 46.1615L95.2681 45.9987L95.5567 46.1763C95.5567 46.2947 95.5567 46.4131 95.5567 46.5167C95.6159 47.7747 95.6751 49.0771 96.8073 49.2473C97.9395 49.4175 98.3909 48.1965 98.8201 47.0273C98.8201 46.9385 98.8941 46.8275 98.9311 46.7091C99.0437 46.689 99.155 46.6618 99.2641 46.6277L99.5527 46.8867C100.463 47.7155 101.41 48.5813 102.32 47.9153C103.231 47.2493 102.683 46.0875 102.158 44.9553C102.113 44.8591 102.054 44.7333 102.002 44.6075L102.18 44.3189L102.513 44.3041Z" fill="white"/>
<path d="M113.717 57.0177L112.792 51.0977L118.83 54.0577C118.603 55.0543 118.088 55.9624 117.35 56.6699C117.047 57.0157 116.651 57.2686 116.21 57.3995C115.769 57.5305 115.3 57.534 114.857 57.4099L113.717 57.0177Z" fill="#7F3E3B"/>
<path d="M116.181 48.1963L119.274 50.9121L118.83 54.0201L112.792 51.0897L116.181 48.1963Z" fill="#7F3E3B"/>
<path d="M117.156 243.173C117.219 243.128 117.278 243.078 117.334 243.025C117.397 242.967 117.444 242.893 117.469 242.811C117.493 242.729 117.495 242.642 117.474 242.559C117.297 241.819 115.254 241.079 115.025 241.027C115 241.016 114.971 241.014 114.945 241.02C114.918 241.027 114.894 241.042 114.877 241.064C114.862 241.087 114.854 241.114 114.854 241.142C114.854 241.169 114.862 241.196 114.877 241.219C115.21 241.959 115.876 243.173 116.623 243.299C116.81 243.326 117.001 243.281 117.156 243.173ZM115.254 241.412C116.061 241.715 117.104 242.233 117.201 242.625C117.207 242.662 117.204 242.7 117.191 242.735C117.178 242.771 117.156 242.802 117.127 242.825C117.07 242.897 116.996 242.953 116.912 242.988C116.828 243.023 116.736 243.035 116.646 243.025C116.239 242.951 115.735 242.359 115.254 241.412Z" fill="#E12B41"/>
<path d="M117.534 241.196C117.583 241.167 117.625 241.13 117.66 241.085C117.732 240.998 117.772 240.888 117.772 240.774C117.772 240.661 117.732 240.551 117.66 240.464C117.605 240.37 117.53 240.29 117.441 240.228C117.351 240.167 117.249 240.126 117.142 240.108C116.291 239.953 114.922 241.004 114.87 241.048C114.851 241.064 114.836 241.085 114.827 241.108C114.818 241.131 114.815 241.157 114.819 241.181C114.823 241.205 114.832 241.227 114.846 241.246C114.861 241.266 114.879 241.281 114.9 241.292C115.761 241.581 116.697 241.547 117.534 241.196ZM115.314 241.085C115.821 240.672 116.445 240.429 117.098 240.39C117.166 240.398 117.231 240.422 117.288 240.461C117.344 240.5 117.391 240.551 117.423 240.612C117.52 240.767 117.475 240.848 117.423 240.9C117.157 241.218 115.943 241.278 115.27 241.107L115.314 241.085Z" fill="#E12B41"/>
<path d="M136.842 228.846C136.992 229.309 137.285 229.713 137.678 230C137.789 230.065 137.912 230.105 138.04 230.117C138.168 230.128 138.297 230.111 138.418 230.067C138.49 230.046 138.555 230.007 138.606 229.952C138.657 229.897 138.692 229.829 138.706 229.756C138.862 229.016 136.923 227.188 136.531 226.796C136.507 226.78 136.478 226.771 136.449 226.771C136.42 226.771 136.392 226.78 136.368 226.796C136.342 226.81 136.322 226.832 136.31 226.859C136.298 226.885 136.295 226.915 136.301 226.944C136.411 227.596 136.592 228.234 136.842 228.846ZM138.381 229.401C138.423 229.486 138.441 229.58 138.433 229.674C138.433 229.711 138.433 229.748 138.329 229.778C138.243 229.811 138.15 229.825 138.058 229.817C137.965 229.809 137.876 229.781 137.796 229.734C137.345 229.467 136.93 228.579 136.664 227.321C137.338 227.924 137.917 228.625 138.381 229.401Z" fill="#E12B41"/>
<path d="M136.331 226.994C136.329 227.009 136.329 227.024 136.331 227.039C136.938 227.653 138.751 228.645 139.335 228.304C139.461 228.23 139.594 228.067 139.491 227.712C139.113 226.351 136.531 226.78 136.405 226.802C136.379 226.805 136.355 226.816 136.335 226.833C136.315 226.851 136.301 226.873 136.294 226.898C136.294 226.934 136.307 226.968 136.331 226.994ZM139.217 227.697L139.254 227.786C139.254 227.934 139.254 228.023 139.254 228.06C138.914 228.252 137.545 227.616 136.819 227.039C137.426 226.972 138.891 226.913 139.217 227.697Z" fill="#E12B41"/>
<path d="M142.938 65.3496L144.13 64.543C144.13 64.543 143.789 65.7936 142.938 65.3496Z" fill="#263238"/>
<path d="M239.678 259.2L233.943 259.208L232.396 245.932L238.131 245.925L239.678 259.2Z" fill="#FFC3BD"/>
<path d="M289.045 234.558L284.701 238.31L274.866 229.26L279.203 225.508L289.045 234.558Z" fill="#FFC3BD"/>
<path d="M283.856 238.161L289.14 233.587C289.226 233.516 289.335 233.477 289.447 233.477C289.559 233.477 289.668 233.516 289.754 233.587L293.78 236.799C293.878 236.882 293.957 236.985 294.011 237.101C294.065 237.217 294.093 237.344 294.093 237.472C294.093 237.601 294.065 237.727 294.011 237.844C293.957 237.96 293.878 238.063 293.78 238.146C292.056 239.589 290.731 240.558 288.6 242.408C287.283 243.548 283.42 247.129 281.599 248.706C279.779 250.282 278.055 248.617 278.639 247.803C281.377 244.162 283.079 240.936 283.346 239.019C283.411 238.682 283.592 238.379 283.856 238.161Z" fill="#263238"/>
<path d="M233.98 258.541H240.248C240.361 258.542 240.472 258.581 240.56 258.652C240.649 258.723 240.711 258.822 240.736 258.933L241.876 264.032C241.903 264.155 241.903 264.282 241.875 264.405C241.846 264.528 241.791 264.643 241.712 264.741C241.633 264.839 241.532 264.918 241.419 264.972C241.305 265.026 241.18 265.054 241.054 265.053C238.79 265.016 235.526 264.89 232.685 264.89C229.37 264.89 227.423 264.979 223.531 264.986C221.178 264.986 220.519 262.611 221.503 262.396C225.988 261.405 228.726 261.397 232.603 259C233.011 258.722 233.487 258.563 233.98 258.541Z" fill="#263238"/>
<path d="M215.339 94.3577C214.185 93.9137 213.193 93.5067 212.157 93.0331C211.121 92.5595 210.122 92.0933 209.116 91.5975C207.108 90.6109 205.135 89.5107 203.196 88.2971C201.245 87.1014 199.369 85.7866 197.579 84.3603C197.128 83.9903 196.669 83.6203 196.225 83.2429L194.908 82.0367C194.471 81.6371 194.057 81.1783 193.635 80.7491C193.42 80.5123 193.235 80.3421 192.991 80.0609C192.747 79.7797 192.51 79.5059 192.296 79.2247C191.486 78.1549 190.799 76.9983 190.246 75.7763C189.731 74.6605 189.294 73.5108 188.936 72.3353C188.256 70.1157 187.761 67.8435 187.456 65.5421C186.872 61.1117 186.761 56.6318 187.123 52.1777H191.43C191.726 54.1831 192.037 56.2921 192.444 58.3197C192.851 60.3473 193.28 62.3749 193.805 64.3285C194.302 66.2368 194.93 68.1085 195.685 69.9303C196.311 71.5412 197.193 73.0404 198.297 74.3703L198.66 74.7403C198.771 74.8587 198.993 75.0363 199.155 75.1843C199.511 75.4877 199.836 75.8059 200.214 76.0945C200.954 76.6865 201.694 77.2711 202.522 77.8335C204.121 78.9435 205.808 80.0017 207.569 80.9933C209.33 81.9849 211.129 82.9247 212.956 83.8127C213.874 84.2641 214.799 84.7081 215.724 85.1225C216.649 85.5369 217.618 85.9735 218.447 86.3287L215.339 94.3577Z" fill="#FFC3BD"/>
<path d="M216.257 99.2406C212.991 97.2105 209.906 94.9031 207.036 92.3438L209.323 80.6592C213.574 81.8686 217.897 82.8127 222.265 83.486C229.48 84.4184 221.4 102.304 216.257 99.2406Z" fill="#263238"/>
<path d="M191.579 53.1837L191.986 45.8799L185.918 47.8261C185.918 47.8261 184.504 53.0579 188.441 54.4343L191.579 53.1837Z" fill="#FFC3BD"/>
<path d="M191.254 41.9502L186.245 44.037L185.919 47.8258L191.987 45.8796L191.254 41.9502Z" fill="#FFC3BD"/>
<path opacity="0.2" d="M232.404 245.932L233.196 252.777L238.931 252.77L238.139 245.925L232.404 245.932Z" fill="black"/>
<path opacity="0.2" d="M279.21 225.508L274.866 229.26L279.943 233.922L284.279 230.17L279.21 225.508Z" fill="black"/>
<path d="M244.319 83.2505C244.332 82.8444 244.264 82.4397 244.12 82.0599C243.975 81.6801 243.757 81.3326 243.478 81.0375C243.199 80.7424 242.864 80.5054 242.492 80.3404C242.121 80.1754 241.721 80.0855 241.314 80.0759C224.946 79.7725 214.297 84.3605 213.564 84.6565C213.291 84.7668 213.051 84.9449 212.865 85.1741C212.68 85.4033 212.557 85.676 212.506 85.9663C211.825 90.0659 209.894 107.249 219.359 134.14L249.699 129.797C249.292 125.32 243.638 104.777 244.319 83.2505Z" fill="#263238"/>
<path d="M219.78 82.5921C217.981 84.9971 217.167 90.5397 223.124 94.5949C230.45 89.1263 234.224 83.2433 235.342 80.1797C230.085 80.4434 224.87 81.2518 219.78 82.5921Z" fill="white"/>
<path d="M218.418 84.8416C218.025 84.8416 217.649 84.6857 217.371 84.4082C217.093 84.1306 216.938 83.7542 216.938 83.3616C216.938 82.1406 217.996 81.0898 218.891 80.4016C221.895 78.1816 227.771 76.487 235.171 78.6256C235.535 78.7457 235.838 79.002 236.016 79.3407C236.195 79.6794 236.235 80.0742 236.129 80.4421C236.023 80.81 235.778 81.1223 235.446 81.3135C235.114 81.5047 234.721 81.5598 234.35 81.4672C225.766 78.9882 220.475 82.5106 219.905 83.5244C219.865 83.8894 219.69 84.2263 219.415 84.4697C219.14 84.7131 218.785 84.8457 218.418 84.8416Z" fill="#E12B41"/>
<path d="M230.718 66.1113C230.496 70.3811 230.77 78.1067 234.07 80.4599C232.131 83.0277 229.549 86.0395 224.643 86.9201C221.683 87.4455 220.669 86.3503 220.543 84.9665C220.501 84.299 220.649 83.6333 220.968 83.0456C221.287 82.458 221.766 81.9722 222.349 81.6439C225.538 79.7939 224.902 76.8191 223.755 74.0071L230.718 66.1113Z" fill="#FFC3BD"/>
<path d="M217.966 118.791C217.799 118.791 217.634 118.761 217.478 118.703C217.108 118.572 216.805 118.3 216.636 117.946C216.467 117.592 216.445 117.186 216.575 116.816C216.78 116.298 216.876 115.743 216.856 115.186C216.835 114.63 216.699 114.083 216.457 113.582L216.301 113.16C216.049 112.663 215.713 112.213 215.31 111.828C214.444 111.134 213.845 110.161 213.614 109.075C213.383 107.99 213.535 106.858 214.044 105.871C214.226 105.449 214.334 104.998 214.362 104.539C214.221 104.012 213.994 103.512 213.689 103.059C213.078 102.186 212.717 101.162 212.646 100.099C212.729 98.9871 213.133 97.9232 213.807 97.0354C214.062 96.6988 214.261 96.3242 214.399 95.9254C214.405 95.5137 214.324 95.1054 214.163 94.7266C213.807 93.8856 213.719 92.9554 213.911 92.0626C214.211 91.0559 214.829 90.1733 215.672 89.5466C215.91 89.3666 216.118 89.1492 216.286 88.9028C216.392 88.5454 216.392 88.1651 216.286 87.8076C216.061 86.9506 216.181 86.0394 216.619 85.2694C217.137 84.4554 217.086 84.2482 217.041 84.078C216.966 83.8185 216.934 83.5487 216.945 83.2788C216.945 82.8863 217.101 82.5099 217.378 82.2323C217.656 81.9548 218.032 81.7988 218.425 81.7988C218.817 81.7988 219.194 81.9548 219.471 82.2323C219.749 82.5099 219.905 82.8863 219.905 83.2788V83.3232C220.112 84.1594 220.171 85.1584 219.165 86.7938C219.177 86.9676 219.199 87.1406 219.232 87.3118C219.455 88.1257 219.422 88.9885 219.137 89.783C218.852 90.5774 218.33 91.2649 217.641 91.7518C217.167 92.1662 216.901 92.4178 216.797 92.7804C216.782 93.1223 216.85 93.4627 216.997 93.772C217.311 94.5635 217.435 95.4176 217.359 96.2658C217.195 97.1159 216.841 97.9179 216.323 98.6116C215.98 99.0444 215.742 99.5511 215.628 100.092C215.747 100.61 215.966 101.1 216.272 101.535C216.804 102.33 217.164 103.227 217.33 104.169C217.371 105.06 217.217 105.949 216.878 106.774C216.637 107.3 216.523 107.875 216.545 108.454C216.779 108.967 217.113 109.428 217.53 109.808C218.214 110.477 218.758 111.278 219.128 112.161L219.261 112.546C219.989 114.2 220.035 116.075 219.387 117.763C219.291 118.063 219.101 118.325 218.845 118.51C218.59 118.695 218.282 118.794 217.966 118.791Z" fill="#E12B41"/>
<path d="M244.044 83.0059C244.851 83.7459 245.524 84.3675 246.205 85.0779C246.886 85.7883 247.552 86.4765 248.211 87.1869C249.528 88.6077 250.771 90.1025 251.97 91.6269C254.467 94.7864 256.558 98.2471 258.193 101.928C258.605 102.912 258.966 103.917 259.274 104.939C259.429 105.457 259.562 105.998 259.688 106.545L259.732 106.745L259.799 107.093C259.843 107.322 259.866 107.566 259.888 107.833C259.923 108.326 259.908 108.822 259.843 109.313C259.734 110.197 259.466 111.055 259.052 111.844C258.705 112.501 258.286 113.116 257.801 113.679C256.999 114.595 256.075 115.397 255.056 116.062C253.316 117.201 251.441 118.12 249.476 118.8C248.544 119.14 247.604 119.429 246.657 119.673C245.709 119.917 244.792 120.146 243.763 120.317L242.431 116.224C243.171 115.81 243.963 115.373 244.71 114.929C245.458 114.485 246.19 114.019 246.93 113.553C248.306 112.684 249.601 111.693 250.801 110.593C251.26 110.15 251.665 109.653 252.007 109.113C252.266 108.691 252.244 108.41 252.17 108.499C252.164 108.523 252.164 108.548 252.17 108.573L252.125 108.44C252.014 108.099 251.911 107.751 251.763 107.396C251.488 106.674 251.175 105.968 250.823 105.28C250.08 103.818 249.234 102.411 248.292 101.069C247.352 99.6781 246.316 98.3165 245.221 96.9845C244.126 95.6525 243.001 94.3427 241.81 93.0477C241.225 92.4039 240.626 91.7749 240.019 91.1533C239.412 90.5317 238.776 89.8805 238.235 89.3625L244.044 83.0059Z" fill="#FFC3BD"/>
<path d="M242.136 80.2021C245.481 80.6979 250.727 89.0821 250.727 89.0821L242.21 100.5C242.21 100.5 237.666 96.1713 236.342 92.3603C233.841 85.0491 235.565 79.2401 242.136 80.2021Z" fill="#263238"/>
<path d="M237.674 108.943C237.417 108.94 237.165 108.87 236.943 108.74C236.721 108.611 236.537 108.425 236.408 108.203C235.9 107.208 235.679 106.09 235.772 104.976C235.811 104.517 235.771 104.053 235.654 103.607C235.357 103.148 234.984 102.742 234.551 102.408C233.699 101.775 233.036 100.92 232.634 99.9369C232.36 98.8564 232.409 97.719 232.775 96.6661C232.91 96.2651 232.982 95.8458 232.99 95.4229C232.803 94.9152 232.533 94.4424 232.19 94.0243C231.428 93.2407 230.981 92.2033 230.936 91.111C230.891 90.0186 231.251 88.948 231.946 88.1043C232.147 87.8028 232.309 87.4771 232.427 87.1349C232.389 86.5733 232.253 86.0225 232.028 85.5069C231.605 84.6341 231.46 83.6525 231.613 82.6949C231.889 81.3327 232.576 80.0879 233.582 79.1281L233.678 79.0319C233.954 78.7695 234.321 78.6238 234.702 78.625C235.083 78.6262 235.448 78.7742 235.723 79.0383C235.998 79.3024 236.16 79.6621 236.176 80.0427C236.192 80.4233 236.06 80.7955 235.809 81.0817L235.639 81.2519C235.034 81.8351 234.628 82.5935 234.477 83.4201C234.557 83.7914 234.669 84.1553 234.81 84.5079C235.198 85.4043 235.392 86.3727 235.38 87.3495C235.265 88.1598 234.963 88.9324 234.499 89.6065C234.179 90.0433 233.968 90.551 233.885 91.0865C234.059 91.5444 234.31 91.9696 234.625 92.3445C235.223 93.0871 235.659 93.9467 235.905 94.8679C236.018 95.7264 235.935 96.5994 235.661 97.4209C235.473 97.9418 235.405 98.4981 235.461 99.0489C235.742 99.5026 236.106 99.8992 236.534 100.218C237.287 100.81 237.909 101.55 238.362 102.394C238.682 103.225 238.814 104.117 238.747 105.006C238.692 105.582 238.765 106.163 238.961 106.708C239.162 107.045 239.221 107.447 239.125 107.827C239.03 108.207 238.787 108.534 238.451 108.735C238.216 108.875 237.947 108.947 237.674 108.943Z" fill="#E12B41"/>
<path opacity="0.2" d="M227.876 69.3311L223.762 74.0005C224.072 74.7177 224.32 75.4605 224.502 76.2205C226.233 75.7099 228.387 73.4232 228.313 71.5436C228.301 70.7859 228.153 70.0364 227.876 69.3311Z" fill="black"/>
<path d="M219.225 53.9678C217.397 57.1498 218.567 61.6786 218.567 61.6786C219.057 61.9974 219.623 62.1793 220.208 62.2053C220.792 62.2313 221.373 62.1006 221.889 61.8266L221.371 53.3906L219.225 53.9678Z" fill="#263238"/>
<path d="M233.632 62.0491C232.234 67.5695 231.693 70.8699 228.334 73.2009C223.28 76.7085 216.871 72.8457 216.597 67.0219C216.346 61.7753 218.677 53.6353 224.567 52.4513C225.863 52.1829 227.206 52.2504 228.468 52.6476C229.73 53.0447 230.87 53.7582 231.778 54.7202C232.687 55.6822 233.334 56.8606 233.659 58.1435C233.983 59.4263 233.974 60.7708 233.632 62.0491Z" fill="#FFC3BD"/>
<path d="M217.515 68.4717H217.315L204.772 65.8151C204.09 65.6709 203.493 65.2616 203.113 64.6774C202.733 64.0931 202.6 63.3817 202.744 62.6997C202.889 62.0177 203.298 61.421 203.882 61.0407C204.466 60.6605 205.178 60.5279 205.86 60.6721C205.984 60.6985 206.102 60.7491 206.206 60.8211C206.311 60.8931 206.4 60.985 206.468 61.0916C206.537 61.1983 206.584 61.3174 206.607 61.4423C206.629 61.5671 206.627 61.6952 206.6 61.8191C206.545 62.0688 206.393 62.2866 206.179 62.4252C205.964 62.5638 205.703 62.6119 205.453 62.5591C205.365 62.5377 205.273 62.5352 205.184 62.5518C205.094 62.5684 205.009 62.6037 204.935 62.6553C204.86 62.7039 204.795 62.7668 204.744 62.8405C204.693 62.9141 204.658 62.9971 204.639 63.0845C204.606 63.2632 204.64 63.4475 204.735 63.6025C204.837 63.75 204.99 63.8552 205.164 63.8985L217.707 66.5551C217.94 66.6059 218.147 66.7408 218.286 66.9341C218.426 67.1274 218.49 67.3655 218.465 67.6029C218.44 67.8402 218.329 68.06 218.152 68.2203C217.976 68.3807 217.746 68.4702 217.507 68.4717H217.515Z" fill="#E12B41"/>
<path d="M217.463 68.695L215.946 68.3694L216.427 66.1494L217.907 66.4676C218.207 66.5315 218.468 66.7116 218.635 66.9683C218.801 67.225 218.859 67.5373 218.795 67.8366C218.722 68.1208 218.544 68.3668 218.297 68.5259C218.05 68.6849 217.753 68.7453 217.463 68.695Z" fill="white"/>
<path d="M230.207 59.0156C230.207 56.914 228.624 55.3822 223.34 55.7892C219.026 56.1148 216.924 54.102 218.16 51.2974C221.653 53.1178 221.076 50.735 227.736 50.4464C234.396 50.1578 236.327 52.6664 237.03 56.5662C241.108 62.612 234.07 65.1206 234.07 65.1206L231.317 67.5256C230.747 67.6552 230.152 67.6295 229.595 67.4512C229.038 67.2729 228.539 66.9485 228.15 66.5118C228.15 66.5118 227.61 61.6056 230.207 59.0156Z" fill="#263238"/>
<path d="M223.133 49.402L222.963 49.4908C222.805 49.5752 222.671 49.6997 222.576 49.852C222.482 50.0042 222.428 50.1787 222.422 50.358C222.416 50.5373 222.458 50.715 222.542 50.8733C222.627 51.0315 222.752 51.1647 222.904 51.2594L238.355 60.8128C238.5 60.9019 238.666 60.9532 238.836 60.9621C239.006 60.9709 239.176 60.937 239.33 60.8634C239.483 60.7899 239.616 60.679 239.716 60.5409C239.816 60.4028 239.88 60.2419 239.902 60.0728C239.974 59.5956 239.904 59.1077 239.702 58.6696C239.499 58.2316 239.172 57.8626 238.762 57.6086L225.59 49.4686C225.222 49.2442 224.802 49.12 224.371 49.1083C223.94 49.0966 223.513 49.1979 223.133 49.402Z" fill="#E12B41"/>
<path d="M225.916 50.4249L229.868 44.6381C229.981 44.4731 230.152 44.3576 230.348 44.3149C230.543 44.2723 230.747 44.3058 230.918 44.4087L241.826 50.9429C241.921 50.9987 242.004 51.0742 242.068 51.1644C242.132 51.2547 242.176 51.3575 242.197 51.4661C242.218 51.5747 242.215 51.6865 242.19 51.7941C242.164 51.9016 242.116 52.0025 242.048 52.0899L237.319 58.3355L225.916 50.4249Z" fill="#E12B41"/>
<path d="M225.916 50.4249L227.492 47.6055L239.673 55.6567L237.319 58.3355L225.916 50.4249Z" fill="#E12B41"/>
<path opacity="0.6" d="M225.916 50.4249L227.492 47.6055L239.673 55.6567L237.319 58.3355L225.916 50.4249Z" fill="white"/>
<path d="M234.335 68.8197C233.253 69.5583 231.926 69.8451 230.635 69.6189C228.955 69.2933 228.955 67.5913 230.117 66.3851C231.161 65.2973 233.299 64.1651 234.646 65.1049C235.993 66.0447 235.675 67.8947 234.335 68.8197Z" fill="#FFC3BD"/>
<path d="M231.043 251.459H240.752C240.752 251.459 239.228 216.93 237.134 199.185C236.497 193.783 237.185 186.383 237.252 178.117C237.341 167.706 237.822 156.361 238.295 147.459C238.799 138.083 239.22 131.327 239.22 131.327L219.359 134.161C219.359 134.161 217.39 183.32 220.476 200.547C223.688 218.44 231.043 251.459 231.043 251.459Z" fill="#E12B41"/>
<path opacity="0.2" d="M237.251 178.096C237.34 167.684 237.821 156.34 238.295 147.438L235.335 143.479C231.679 150.324 234.217 168.55 237.251 178.096Z" fill="black"/>
<path d="M228.823 132.785C228.823 132.785 241.159 181.499 247.02 197.253C253.436 214.495 277.064 234.653 277.064 234.653L283.036 228.082C283.036 228.082 270.537 208.598 261.324 189.853C256.921 165.515 249.728 129.795 249.728 129.795L228.823 132.785Z" fill="#E12B41"/>
<path d="M276.265 235.646L285.626 227.557L283.206 224.768L272.587 233.625L276.265 235.646Z" fill="#263238"/>
<path d="M229.822 251.681L241.395 251.667L241.388 247.93L228.46 247.752L229.822 251.681Z" fill="#263238"/>
<path d="M225.108 60.9685C224.738 60.8575 224.302 61.2127 224.124 61.7677L225.441 62.1895C225.619 61.6345 225.471 61.0869 225.108 60.9685Z" fill="#263238"/>
<path d="M219.337 59.8809C218.959 59.8809 218.597 60.3101 218.597 60.8947L219.973 60.9835C219.995 60.3989 219.721 59.9401 219.337 59.8809Z" fill="#263238"/>
<path d="M221.326 61.5674C220.52 62.8541 219.542 64.0243 218.418 65.0454C218.688 65.3256 219.016 65.5436 219.379 65.6842C219.742 65.8247 220.131 65.8845 220.52 65.8594L221.326 61.5674Z" fill="#ED847E"/>
<path d="M226.988 60.3764C227.035 60.3875 227.083 60.3875 227.129 60.3764C227.197 60.3543 227.254 60.3063 227.288 60.2426C227.321 60.1789 227.328 60.1047 227.307 60.036C227.192 59.6206 226.978 59.2391 226.684 58.9235C226.391 58.6079 226.026 58.3677 225.619 58.223C225.585 58.2118 225.55 58.2077 225.514 58.2111C225.478 58.2145 225.444 58.2252 225.412 58.2426C225.381 58.2599 225.354 58.2836 225.332 58.3121C225.31 58.3406 225.295 58.3732 225.286 58.408C225.276 58.442 225.273 58.4777 225.277 58.513C225.281 58.5483 225.292 58.5824 225.309 58.6135C225.326 58.6445 225.349 58.6717 225.377 58.6937C225.405 58.7156 225.437 58.7317 225.471 58.741C225.793 58.8648 226.081 59.0637 226.31 59.3212C226.539 59.5786 226.703 59.8872 226.789 60.221C226.808 60.2604 226.836 60.2949 226.871 60.3218C226.905 60.3487 226.946 60.3674 226.988 60.3764Z" fill="#263238"/>
<path d="M217.628 59.1046C217.672 59.112 217.718 59.1085 217.76 59.0944C217.803 59.0802 217.841 59.0557 217.872 59.0232C218.095 58.7662 218.376 58.5654 218.691 58.4368C219.006 58.3083 219.346 58.2556 219.685 58.2832C219.757 58.2938 219.83 58.2756 219.888 58.2326C219.946 58.1896 219.985 58.1253 219.996 58.0538C220.007 57.9841 219.989 57.9131 219.948 57.8562C219.906 57.7994 219.844 57.7613 219.774 57.7504C219.345 57.708 218.912 57.7692 218.512 57.9289C218.111 58.0885 217.755 58.342 217.473 58.668C217.447 58.6928 217.426 58.7227 217.412 58.7558C217.398 58.7888 217.391 58.8244 217.391 58.8604C217.391 58.8963 217.398 58.9319 217.412 58.965C217.426 58.998 217.447 59.0279 217.473 59.0528C217.519 59.084 217.573 59.1019 217.628 59.1046Z" fill="#263238"/>
<path d="M283.042 240.188C283.419 239.843 283.757 239.459 284.049 239.041C284.063 239.019 284.071 238.993 284.071 238.967C284.071 238.94 284.063 238.915 284.049 238.893C284.038 238.868 284.018 238.848 283.994 238.836C283.97 238.824 283.942 238.82 283.916 238.826C283.679 238.826 281.57 239.174 281.296 239.847C281.266 239.921 281.255 240.002 281.266 240.081C281.276 240.16 281.307 240.235 281.355 240.299C281.425 240.413 281.523 240.507 281.64 240.573C281.756 240.639 281.887 240.675 282.021 240.676C282.408 240.636 282.769 240.464 283.042 240.188ZM283.634 239.152C283.02 239.943 282.428 240.402 282.029 240.402C281.938 240.4 281.849 240.374 281.771 240.328C281.694 240.281 281.629 240.215 281.585 240.136C281.567 240.109 281.558 240.079 281.558 240.047C281.558 240.015 281.567 239.985 281.585 239.958C281.688 239.61 282.791 239.3 283.634 239.152Z" fill="#E12B41"/>
<path d="M284.026 239.072C284.046 239.054 284.061 239.031 284.071 239.005C284.082 238.984 284.088 238.96 284.088 238.935C284.088 238.911 284.082 238.887 284.071 238.865C284.019 238.813 282.887 237.607 282.043 237.614C281.94 237.615 281.838 237.636 281.744 237.678C281.649 237.721 281.565 237.782 281.496 237.858C281.417 237.927 281.364 238.019 281.345 238.122C281.327 238.224 281.343 238.329 281.392 238.421C281.695 238.998 283.346 239.235 283.997 239.102L284.026 239.072ZM281.703 238.006C281.789 237.932 281.9 237.893 282.014 237.895C282.554 237.895 283.294 238.524 283.649 238.857C282.909 238.894 281.777 238.628 281.592 238.288C281.592 238.251 281.54 238.177 281.658 238.051L281.703 238.006Z" fill="#E12B41"/>
<path d="M233.419 259.34C233.442 259.332 233.463 259.317 233.479 259.298C233.495 259.278 233.505 259.254 233.507 259.229C233.514 259.202 233.511 259.173 233.499 259.148C233.486 259.122 233.466 259.101 233.441 259.089C233.174 258.956 230.873 257.786 230.177 258.179C230.111 258.214 230.054 258.266 230.014 258.329C229.974 258.393 229.951 258.466 229.948 258.541C229.933 258.664 229.948 258.788 229.994 258.904C230.039 259.019 230.112 259.12 230.207 259.2C230.836 259.755 232.479 259.525 233.404 259.34H233.419ZM230.355 258.393C230.792 258.245 232.042 258.719 232.952 259.133C231.687 259.348 230.732 259.296 230.385 258.978C230.323 258.925 230.275 258.857 230.247 258.781C230.218 258.704 230.21 258.622 230.222 258.541C230.222 258.512 230.23 258.483 230.246 258.458C230.262 258.433 230.284 258.413 230.311 258.401L230.355 258.393Z" fill="#E12B41"/>
<path d="M233.419 259.34H233.456C233.475 259.325 233.49 259.306 233.5 259.284C233.511 259.263 233.516 259.239 233.515 259.214C233.515 259.155 233.345 257.609 232.62 256.994C232.518 256.908 232.401 256.843 232.273 256.804C232.146 256.764 232.012 256.751 231.88 256.765C231.502 256.765 231.399 256.994 231.377 257.142C231.273 257.794 232.642 259.029 233.338 259.362C233.366 259.363 233.395 259.355 233.419 259.34ZM231.754 257.054H231.895C231.993 257.042 232.093 257.053 232.188 257.083C232.282 257.114 232.369 257.164 232.442 257.231C232.865 257.728 233.123 258.343 233.182 258.992C232.479 258.571 231.539 257.601 231.606 257.209C231.621 257.157 231.621 257.091 231.754 257.054Z" fill="#E12B41"/>
<path d="M243.128 115.84L237.607 117.586L241.892 121.849C241.892 121.849 246.894 119.68 245.326 117.475L243.128 115.84Z" fill="#FFC3BD"/>
<path d="M235.335 122.455L239.264 124.838L241.891 121.848L237.607 117.586L235.335 122.455Z" fill="#FFC3BD"/>
</svg>
