<svg width="246" height="187" viewBox="0 0 246 187" fill="none" xmlns="http://www.w3.org/2000/svg">
<ellipse cx="122.999" cy="176.107" rx="108.033" ry="10.8932" fill="#D9D9D9"/>
<path d="M246 159.989H0V160.109H246V159.989Z" fill="#EBEBEB"/>
<path d="M221.351 167.673H205.056V167.792H221.351V167.673Z" fill="#EBEBEB"/>
<path d="M162.96 168.971H158.685V169.09H162.96V168.971Z" fill="#EBEBEB"/>
<path d="M204.564 163.241H195.123V163.361H204.564V163.241Z" fill="#EBEBEB"/>
<path d="M47.06 164.043H25.8105V164.162H47.06V164.043Z" fill="#EBEBEB"/>
<path d="M54.5577 164.043H51.4434V164.162H54.5577V164.043Z" fill="#EBEBEB"/>
<path d="M110.774 166.059H64.6836V166.178H110.774V166.059Z" fill="#EBEBEB"/>
<path d="M116.604 138.693H21.6037C20.8595 138.692 20.1462 138.404 19.6204 137.893C19.0946 137.382 18.7993 136.689 18.7993 135.967V6.36177C18.8058 5.64364 19.104 4.95699 19.629 4.45096C20.1541 3.94494 20.8637 3.66041 21.6037 3.65918H116.604C117.349 3.65918 118.064 3.94643 118.59 4.45774C119.117 4.96905 119.413 5.66254 119.413 6.38564V135.967C119.413 136.69 119.117 137.383 118.59 137.895C118.064 138.406 117.349 138.693 116.604 138.693ZM21.6037 3.75468C20.8921 3.75594 20.2101 4.03118 19.7074 4.51996C19.2047 5.00875 18.9223 5.67115 18.9223 6.36177V135.967C18.9223 136.657 19.2047 137.32 19.7074 137.809C20.2101 138.297 20.8921 138.573 21.6037 138.574H116.604C117.316 138.573 117.999 138.298 118.502 137.809C119.006 137.32 119.289 136.658 119.29 135.967V6.36177C119.289 5.67071 119.006 5.00832 118.502 4.51967C117.999 4.03102 117.316 3.75594 116.604 3.75468H21.6037Z" fill="#EBEBEB"/>
<path d="M223.028 138.693H128.023C127.278 138.692 126.564 138.404 126.038 137.893C125.511 137.382 125.215 136.689 125.213 135.967V6.36177C125.221 5.6432 125.52 4.95656 126.046 4.45066C126.572 3.94477 127.282 3.6604 128.023 3.65918H223.028C223.767 3.66166 224.475 3.94675 224.999 4.45264C225.523 4.95853 225.821 5.64446 225.827 6.36177V135.967C225.827 136.688 225.533 137.38 225.008 137.891C224.483 138.402 223.771 138.691 223.028 138.693ZM128.023 3.75468C127.311 3.75594 126.628 4.03102 126.125 4.51967C125.621 5.00832 125.338 5.67071 125.336 6.36177V135.967C125.338 136.658 125.621 137.32 126.125 137.809C126.628 138.298 127.311 138.573 128.023 138.574H223.028C223.74 138.573 224.422 138.298 224.926 137.809C225.429 137.32 225.713 136.658 225.714 135.967V6.36177C225.713 5.67071 225.429 5.00832 224.926 4.51967C224.422 4.03102 223.74 3.75594 223.028 3.75468H128.023Z" fill="#EBEBEB"/>
<path d="M155.915 113.147H141.401L138.956 92.9209H153.474L155.915 113.147Z" fill="#E6E6E6"/>
<path d="M157.484 113.147H141.813L139.368 92.9209H155.038L157.484 113.147Z" fill="#F0F0F0"/>
<path d="M143.585 111.223L141.233 91.8369H154.306L156.658 111.223H143.585Z" fill="#E0E0E0"/>
<path d="M134.321 113.147H119.802L117.362 92.9209H131.881L134.321 113.147Z" fill="#E6E6E6"/>
<path d="M135.885 113.147H120.22L117.775 92.9209H133.445L135.885 113.147Z" fill="#F0F0F0"/>
<path d="M121.991 111.223L119.639 91.8369H132.712L135.063 111.223H121.991Z" fill="#FAFAFA"/>
<path d="M197.898 113.19H194.764V159.989H197.898V113.19Z" fill="#E6E6E6"/>
<path d="M198.881 113.19H196.707V159.989H198.881V113.19Z" fill="#F5F5F5"/>
<path d="M90.8527 118.357L199.555 118.357V113.191L90.8527 113.191V118.357Z" fill="#F5F5F5"/>
<path d="M89.4553 118.357H86.3213V159.99H89.4553V118.357Z" fill="#E6E6E6"/>
<path d="M90.4393 118.357H88.2646V159.99H90.4393V118.357Z" fill="#F5F5F5"/>
<path d="M82.1096 118.357H78.9756V159.99H82.1096V118.357Z" fill="#E6E6E6"/>
<path d="M83.099 118.357H80.9243V159.99H83.099V118.357Z" fill="#F5F5F5"/>
<path d="M190.552 118.357H187.417V159.99H190.552V118.357Z" fill="#E6E6E6"/>
<path d="M191.54 118.357H189.366V159.99H191.54V118.357Z" fill="#F5F5F5"/>
<path d="M90.8525 113.19H78.9756V118.357H90.8525V113.19Z" fill="#E6E6E6"/>
<path d="M44.939 106.582L43.0005 99.7734C43.0694 139.209 43.3547 141.482 43.3498 148.262H44.8996C45.1161 115.258 45.7163 115.053 44.939 106.582Z" fill="#E0E0E0"/>
<path d="M44.2306 160.014C51.4581 160.014 57.5589 155.812 59.0447 150.139C59.4068 148.621 59.9244 147.141 60.5896 145.722L60.7028 145.493H27.7388L27.8519 145.722C28.5195 147.14 29.0371 148.62 29.3968 150.139C30.8974 155.812 36.9982 160.014 44.2306 160.014Z" fill="#FAFAFA"/>
<path d="M27.6901 146.906H60.7722C61.6922 146.906 62.4942 146.018 62.7402 144.743C63.0698 142.919 62.1055 141.143 60.7722 141.143H27.6901C26.3715 141.143 25.4072 142.919 25.7221 144.743C25.9632 146.027 26.7701 146.906 27.6901 146.906Z" fill="#F0F0F0"/>
<path d="M49.318 113.239C51.1039 106.358 40.9786 98.9812 28.8262 91.4082C28.9 111.802 42.5825 139.167 49.318 113.239Z" fill="#E0E0E0"/>
<path d="M44.4916 121.896C43.2665 116.433 37.3379 116.643 26.0317 115.421C33.456 129.779 49.1016 142.475 44.4916 121.896Z" fill="#E0E0E0"/>
<path d="M49.7406 103.932C53.9176 100.083 46.5032 91.0394 38.7444 82.9746C34.7149 98.5312 42.5426 110.545 49.7406 103.932Z" fill="#E0E0E0"/>
<path d="M42.4941 114.022C40.9394 108.521 42.9123 96.9041 59.1631 96.0732C56.5259 111.835 49.6921 139.582 42.4941 114.022Z" fill="#E0E0E0"/>
<path d="M42.1201 125.687C42.6121 119.212 47.7535 111.543 64.57 117.058C57.0719 129.616 40.9343 141.291 42.1201 125.687Z" fill="#E0E0E0"/>
<path d="M217.523 121.308L218.94 116.376C218.891 144.939 218.684 146.587 218.689 151.5H217.567C217.395 127.592 216.972 127.444 217.523 121.308Z" fill="#F5F5F5"/>
<path d="M218.039 160.013C212.8 160.013 208.381 156.971 207.304 152.851C207.043 151.751 206.669 150.679 206.187 149.651L206.104 149.484H229.97L229.892 149.651C229.408 150.679 229.033 151.751 228.77 152.851C227.697 156.971 223.274 160.013 218.039 160.013Z" fill="#FAFAFA"/>
<path d="M230.02 150.526H206.054C205.39 150.526 204.809 149.881 204.642 148.96C204.406 147.637 205.1 146.353 206.054 146.353H230.02C230.974 146.353 231.673 147.637 231.436 148.96C231.269 149.881 230.689 150.526 230.02 150.526Z" fill="#F0F0F0"/>
<path d="M214.512 129.554C213.297 124.569 220.2 119.226 228.48 113.739C228.441 128.513 219.113 148.338 214.512 129.554Z" fill="#F5F5F5"/>
<path d="M217.813 135.824C218.65 131.865 222.689 132.004 230.394 131.13C225.336 141.534 214.674 150.726 217.813 135.824Z" fill="#F5F5F5"/>
<path d="M214.236 122.793C211.392 120.004 216.44 113.463 221.729 107.613C224.475 118.896 219.141 127.601 214.236 122.793Z" fill="#F5F5F5"/>
<path d="M219.177 130.122C220.234 126.135 218.891 117.707 207.816 117.12C209.593 128.537 214.267 148.634 219.177 130.122Z" fill="#F5F5F5"/>
<path d="M219.432 138.569C219.097 133.88 215.594 128.322 204.136 132.319C209.228 141.415 220.239 149.871 219.432 138.569Z" fill="#F5F5F5"/>
<path d="M122.999 181.554C175.684 181.554 218.393 179.134 218.393 176.148C218.393 173.163 175.684 170.743 122.999 170.743C70.3148 170.743 27.6055 173.163 27.6055 176.148C27.6055 179.134 70.3148 181.554 122.999 181.554Z" fill="#F5F5F5"/>
<path d="M192.485 8.43555H53.5093V84.9103H192.485V8.43555Z" fill="white"/>
<path d="M192.49 87.5833V87.1059C193.09 87.1046 193.664 86.8726 194.088 86.4608C194.511 86.0491 194.749 85.4911 194.749 84.9094H195.241C195.241 85.6178 194.951 86.2972 194.436 86.7985C193.92 87.2998 193.22 87.5821 192.49 87.5833ZM103.074 87.5833H92.521V87.1059H103.074V87.5833ZM195.241 14.5609H194.749V11.9347H195.241V14.5609ZM195.241 10.0772H194.749V8.43468C194.749 7.85297 194.511 7.29502 194.088 6.88324C193.664 6.47146 193.09 6.2395 192.49 6.23823H185.155V5.76074H192.49C193.22 5.76201 193.92 6.04428 194.436 6.54561C194.951 7.04693 195.241 7.72634 195.241 8.43468V10.0772Z" fill="#E12B41"/>
<path d="M192.489 85.9128H53.5092C53.2361 85.9115 52.9745 85.8053 52.7818 85.6174C52.5891 85.4295 52.481 85.1752 52.481 84.9101V8.43534C52.481 8.17023 52.5891 7.9159 52.7818 7.72799C52.9745 7.54008 53.2361 7.43388 53.5092 7.43262H192.489C192.763 7.43388 193.024 7.54008 193.217 7.72799C193.41 7.9159 193.518 8.17023 193.518 8.43534V84.9101C193.518 85.1752 193.41 85.4295 193.217 85.6174C193.024 85.8053 192.763 85.9115 192.489 85.9128ZM54.5424 83.9121H191.456V9.43807H54.5424V83.9121Z" fill="#E12B41"/>
<g opacity="0.4">
<path d="M141.628 23.6426L144.442 71.0239L136.949 75.646L107.512 77.2933L104.447 25.7197L141.628 23.6426Z" fill="#E12B41"/>
<path d="M129.989 56.3238C137.18 53.2033 140.403 45.016 137.188 38.0369C133.972 31.0577 125.536 27.9297 118.345 31.0501C111.154 34.1706 107.931 42.3579 111.146 49.337C114.361 56.3161 122.797 59.4442 129.989 56.3238Z" fill="white"/>
<path d="M116.648 45.8921L114.306 46.1924L114.111 44.7593L116.453 44.459C116.814 44.4126 117.101 44.3176 117.313 44.1742C117.524 44.0266 117.668 43.842 117.745 43.6203C117.821 43.3985 117.842 43.157 117.806 42.8957C117.77 42.6303 117.684 42.39 117.548 42.1748C117.411 41.9597 117.22 41.7973 116.974 41.6876C116.728 41.5779 116.424 41.5463 116.062 41.5927L114.377 41.8088L115.396 49.2869L113.502 49.5297L112.288 40.6123L115.866 40.1534C116.586 40.0611 117.219 40.1086 117.767 40.2959C118.318 40.4786 118.761 40.7729 119.094 41.1788C119.428 41.5847 119.633 42.0715 119.711 42.639C119.789 43.2147 119.72 43.7304 119.504 44.186C119.288 44.6416 118.936 45.017 118.45 45.312C117.968 45.6065 117.367 45.7998 116.648 45.8921Z" fill="#F3AAB3"/>
<path d="M124.653 48.0995L122.653 48.3561L122.47 46.9213L124.458 46.6664C124.955 46.6027 125.359 46.4408 125.67 46.1807C125.981 45.9165 126.194 45.5631 126.309 45.1204C126.428 44.6772 126.447 44.1575 126.366 43.5614L126.307 43.1265C126.245 42.6692 126.14 42.2735 125.991 41.9394C125.847 41.6047 125.662 41.3314 125.437 41.1194C125.211 40.9074 124.949 40.7603 124.651 40.678C124.352 40.5917 124.02 40.572 123.654 40.619L121.597 40.8828L121.401 39.4435L123.458 39.1797C124.072 39.1009 124.648 39.1309 125.185 39.2698C125.725 39.404 126.208 39.635 126.634 39.9626C127.059 40.2902 127.409 40.7024 127.682 41.1991C127.959 41.6912 128.14 42.2557 128.227 42.8927L128.285 43.3153C128.371 43.9482 128.346 44.5391 128.212 45.0882C128.081 45.6367 127.854 46.1228 127.53 46.5465C127.211 46.9656 126.806 47.3103 126.316 47.5809C125.83 47.8468 125.276 48.0196 124.653 48.0995ZM122.511 39.3011L123.726 48.2185L121.833 48.4613L120.618 39.5439L122.511 39.3011Z" fill="#F3AAB3"/>
<path d="M130.917 38.223L132.132 47.1404L130.238 47.3832L129.024 38.4658L130.917 38.223ZM135.096 41.563L135.291 42.9962L131.114 43.532L130.919 42.0988L135.096 41.563ZM135.019 37.6969L135.215 39.1361L130.596 39.7286L130.4 38.2893L135.019 37.6969Z" fill="#F3AAB3"/>
<path d="M139.479 60.8446L110.996 62.4385L111.576 72.2155L140.06 70.6216L139.479 60.8446Z" fill="white"/>
<path d="M137.9 65.4105L123.439 66.2197L123.49 67.0778L137.951 66.2686L137.9 65.4105Z" fill="#E12B41"/>
<path d="M121.273 66.3385L113.1 66.7959L113.151 67.654L121.324 67.1966L121.273 66.3385Z" fill="#E12B41"/>
<path d="M131.539 68.6113L113.267 69.6338L113.318 70.4918L131.59 69.4694L131.539 68.6113Z" fill="#E12B41"/>
<path d="M133.711 69.354L138.117 69.1074L138.066 68.2494L133.66 68.4959L133.711 69.354Z" fill="#E12B41"/>
<path d="M137.729 62.5686L112.934 63.9561L112.985 64.8141L137.78 63.4266L137.729 62.5686Z" fill="#E12B41"/>
<path opacity="0.4" d="M65.4003 15.3843L61.0854 66.8691L98.2073 69.7994L102.522 18.3147L65.4003 15.3843Z" fill="#E12B41"/>
<path d="M69.0281 18.4999L65.8276 56.6875L95.2161 59.0074L98.4166 20.8197L69.0281 18.4999Z" fill="white"/>
<ellipse cx="75.3811" cy="24.2608" rx="3.68184" ry="3.57326" fill="#F3DCDF"/>
<path d="M86.3337 31.8647L96.7979 42.3964L95.2476 58.9462L64.0488 56.5014L67.1493 41.6442L70.8312 30.7363L74.3192 39.3874L78.1949 34.8738L78.97 38.0709L86.3337 31.8647Z" fill="#E1A7AE"/>
<path d="M67.6456 60.7712L67.5396 62.0371L92.6323 64.0179L92.7384 62.7519L67.6456 60.7712Z" fill="white"/>
<path d="M67.4269 63.404L67.3208 64.6699L92.4136 66.6507L92.5197 65.3847L67.4269 63.404Z" fill="white"/>
<path opacity="0.7" d="M149.615 17.0791L147.154 68.6787L184.358 70.3499L186.819 18.7503L149.615 17.0791Z" fill="#E12B41"/>
<path d="M153.346 20.1927L152.828 31.0439L182.282 32.367L182.8 21.5157L153.346 20.1927Z" fill="white"/>
<path d="M153.346 34.9798L152.828 45.8311L182.282 47.1541L182.8 36.3028L153.346 34.9798Z" fill="white"/>
<path d="M153.346 49.7679L152.828 60.6191L182.282 61.9422L182.8 51.0909L153.346 49.7679Z" fill="white"/>
<path opacity="0.7" d="M176.967 25.3137C176.959 25.4775 176.885 25.6318 176.761 25.7427C176.636 25.8536 176.472 25.9123 176.303 25.9058L159.407 25.1466C159.238 25.1379 159.079 25.0649 158.965 24.9434C158.851 24.8218 158.791 24.6615 158.797 24.4972C158.806 24.3333 158.882 24.1796 159.007 24.0695C159.132 23.9595 159.298 23.9021 159.466 23.9099L176.362 24.6691C176.445 24.6728 176.527 24.6924 176.603 24.7268C176.678 24.7612 176.746 24.8097 176.802 24.8696C176.858 24.9294 176.902 24.9995 176.93 25.0757C176.958 25.1519 176.971 25.2328 176.967 25.3137Z" fill="#E12B41"/>
<path opacity="0.7" d="M176.967 40.1018C176.959 40.2656 176.885 40.4198 176.761 40.5308C176.636 40.6417 176.472 40.7003 176.303 40.6939L159.407 39.9347C159.238 39.926 159.079 39.853 158.965 39.7315C158.851 39.6099 158.791 39.4496 158.797 39.2853C158.806 39.1214 158.882 38.9677 159.007 38.8576C159.132 38.7476 159.298 38.6902 159.466 38.698L176.362 39.4572C176.445 39.4609 176.527 39.4805 176.603 39.5149C176.678 39.5493 176.746 39.5978 176.802 39.6577C176.858 39.7175 176.902 39.7876 176.93 39.8638C176.958 39.94 176.971 40.0209 176.967 40.1018Z" fill="#E12B41"/>
<path opacity="0.7" d="M176.967 54.8889C176.959 55.0527 176.885 55.2069 176.761 55.3179C176.636 55.4288 176.472 55.4875 176.303 55.481L159.407 54.7218C159.238 54.7131 159.079 54.6401 158.965 54.5186C158.851 54.397 158.791 54.2367 158.797 54.0724C158.806 53.9085 158.882 53.7548 159.007 53.6447C159.132 53.5347 159.298 53.4773 159.466 53.4851L176.362 54.2443C176.445 54.248 176.527 54.2676 176.603 54.302C176.678 54.3364 176.746 54.3849 176.802 54.4448C176.858 54.5046 176.902 54.5747 176.93 54.6509C176.958 54.7271 176.971 54.808 176.967 54.8889Z" fill="#E12B41"/>
<path opacity="0.7" d="M176.834 28.0588C176.831 28.1401 176.812 28.2201 176.776 28.2939C176.741 28.3678 176.691 28.4342 176.63 28.4893C176.568 28.5443 176.495 28.5869 176.417 28.6147C176.338 28.6424 176.254 28.6547 176.17 28.6509L159.255 27.8917C159.086 27.883 158.928 27.8099 158.815 27.6882C158.701 27.5665 158.642 27.4062 158.65 27.2423C158.654 27.1614 158.674 27.082 158.71 27.0087C158.745 26.9353 158.795 26.8695 158.857 26.8149C158.918 26.7604 158.991 26.7182 159.069 26.6907C159.148 26.6633 159.231 26.6511 159.314 26.655L176.229 27.4142C176.313 27.4179 176.394 27.4375 176.47 27.4719C176.546 27.5063 176.613 27.5548 176.67 27.6147C176.726 27.6746 176.769 27.7446 176.798 27.8208C176.826 27.897 176.838 27.9779 176.834 28.0588Z" fill="#E12B41"/>
<path opacity="0.7" d="M176.834 42.8469C176.831 42.9282 176.812 43.0081 176.776 43.082C176.741 43.1559 176.691 43.2223 176.63 43.2773C176.568 43.3324 176.495 43.375 176.417 43.4028C176.338 43.4305 176.254 43.4428 176.17 43.439L159.255 42.6798C159.086 42.6711 158.928 42.598 158.815 42.4763C158.701 42.3546 158.642 42.1943 158.65 42.0304C158.654 41.9495 158.674 41.8701 158.71 41.7967C158.745 41.7234 158.795 41.6576 158.857 41.603C158.918 41.5485 158.991 41.5063 159.069 41.4788C159.148 41.4514 159.231 41.4392 159.314 41.4431L176.229 42.2023C176.313 42.206 176.394 42.2256 176.47 42.26C176.546 42.2944 176.613 42.3429 176.67 42.4028C176.726 42.4626 176.769 42.5327 176.798 42.6089C176.826 42.6851 176.838 42.766 176.834 42.8469Z" fill="#E12B41"/>
<path opacity="0.7" d="M176.834 57.634C176.831 57.7153 176.812 57.7952 176.776 57.8691C176.741 57.943 176.691 58.0094 176.63 58.0645C176.568 58.1195 176.495 58.1621 176.417 58.1899C176.338 58.2176 176.254 58.2299 176.17 58.2261L159.255 57.4669C159.086 57.4582 158.928 57.3851 158.815 57.2634C158.701 57.1417 158.642 56.9814 158.65 56.8175C158.654 56.7366 158.674 56.6572 158.71 56.5839C158.745 56.5105 158.795 56.4447 158.857 56.3901C158.918 56.3356 158.991 56.2934 159.069 56.2659C159.148 56.2385 159.231 56.2263 159.314 56.2302L176.229 56.9894C176.313 56.9931 176.394 57.0127 176.47 57.0471C176.546 57.0815 176.613 57.13 176.67 57.1899C176.726 57.2498 176.769 57.3198 176.798 57.396C176.826 57.4722 176.838 57.5531 176.834 57.634Z" fill="#E12B41"/>
<path opacity="0.1" d="M71.0034 13.2488L62.1509 19.1934L63.6066 21.2352L72.4591 15.2907L71.0034 13.2488Z" fill="#263238"/>
<path opacity="0.1" d="M155.298 15.2459L146.445 21.1904L147.901 23.2323L156.754 17.2877L155.298 15.2459Z" fill="#263238"/>
<path opacity="0.1" d="M100.19 64.1658L91.3374 70.1104L92.7931 72.1522L101.646 66.2076L100.19 64.1658Z" fill="#263238"/>
<path opacity="0.1" d="M185.818 64.325L176.965 70.2695L178.421 72.3114L187.274 66.3668L185.818 64.325Z" fill="#263238"/>
<path opacity="0.1" d="M144.225 27.5016L134.548 21.6445L133.194 23.7513L142.871 29.6084L144.225 27.5016Z" fill="#263238"/>
<path opacity="0.1" d="M114.917 76.8785L105.24 71.0215L103.886 73.1283L113.563 78.9854L114.917 76.8785Z" fill="#263238"/>
<path opacity="0.1" d="M189.676 22.6559L180 16.7988L178.646 18.9056L188.323 24.7627L189.676 22.6559Z" fill="#263238"/>
<path d="M103.367 26.4306L56.5908 49.1338L61.155 57.991L107.931 35.2878L103.367 26.4306Z" fill="#E12B41"/>
<path opacity="0.2" d="M103.367 26.4306L56.5908 49.1338L61.155 57.991L107.931 35.2878L103.367 26.4306Z" fill="black"/>
<path d="M60.9095 49.4869L63.1991 48.328C63.6685 48.0904 64.1086 47.9544 64.5192 47.92C64.9326 47.8843 65.3025 47.9538 65.6289 48.1287C65.9553 48.3035 66.2234 48.586 66.433 48.9762C66.6046 49.2953 66.6957 49.598 66.7064 49.8841C66.7185 50.166 66.6644 50.4346 66.5441 50.6898C66.4251 50.9408 66.2549 51.1797 66.0334 51.4063L65.7428 51.8137L63.7526 52.8211L63.2296 51.8678L64.7096 51.1187C64.9316 51.0062 65.0952 50.8749 65.2004 50.7245C65.3055 50.5741 65.3579 50.4122 65.3577 50.2388C65.3603 50.064 65.3132 49.8865 65.2165 49.7065C65.1138 49.5155 64.9886 49.369 64.8407 49.2668C64.6929 49.1647 64.5246 49.1145 64.3361 49.1163C64.1475 49.118 63.9408 49.1758 63.7159 49.2896L62.6913 49.8083L65.3765 54.8048L64.1116 55.4451L60.9095 49.4869ZM67.5438 53.7078L64.7166 51.7606L66.0489 51.0758L68.8665 52.9653L68.8973 53.0226L67.5438 53.7078Z" fill="white"/>
<path d="M73.2486 49.602L73.7632 50.5596L70.4954 52.2137L69.9808 51.2561L73.2486 49.602ZM67.7065 46.0463L70.9086 52.0045L69.6436 52.6448L66.4416 46.6867L67.7065 46.0463ZM71.4394 47.2436L71.9408 48.1766L69.0989 49.6152L68.5975 48.6822L71.4394 47.2436ZM70.5569 44.6035L71.0737 45.5652L67.8101 47.2172L67.2933 46.2555L70.5569 44.6035Z" fill="white"/>
<path d="M76.0016 47.0997L73.7825 42.9707L75.0433 42.3326L77.2623 46.4616C77.4764 46.8599 77.5704 47.2478 77.5444 47.6253C77.517 48.0001 77.3883 48.3428 77.1584 48.6535C76.9313 48.9628 76.6238 49.2157 76.2359 49.412C75.8339 49.6155 75.4431 49.73 75.0635 49.7556C74.684 49.7812 74.333 49.7037 74.0108 49.5233C73.6871 49.3401 73.4131 49.0398 73.1888 48.6224L74.4579 47.98C74.5752 48.1982 74.6992 48.3558 74.83 48.4527C74.9636 48.5482 75.104 48.5934 75.2514 48.5882C75.3988 48.583 75.5554 48.5384 75.7213 48.4545C75.8815 48.3734 76.0009 48.2661 76.0793 48.1327C76.1578 47.9992 76.1913 47.8452 76.1797 47.6707C76.1709 47.4946 76.1115 47.3043 76.0016 47.0997Z" fill="white"/>
<path d="M82.9297 44.7015L83.4443 45.6591L80.1765 47.3132L79.6619 46.3556L82.9297 44.7015ZM77.3877 41.1459L80.5897 47.104L79.3248 47.7444L76.1227 41.7862L77.3877 41.1459ZM81.1205 42.3431L81.6219 43.2761L78.78 44.7147L78.2786 43.7817L81.1205 42.3431ZM80.238 39.703L80.7549 40.6647L77.4913 42.3167L76.9745 41.355L80.238 39.703Z" fill="white"/>
<path d="M86.6787 41.5077L87.9395 40.8695C88.1297 41.2833 88.2072 41.697 88.1719 42.1104C88.1395 42.5224 87.9903 42.9068 87.7243 43.2636C87.4611 43.6189 87.078 43.9239 86.5748 44.1786C86.1813 44.3778 85.7933 44.4909 85.4109 44.5179C85.027 44.5421 84.6574 44.4863 84.3019 44.3505C83.9492 44.2132 83.6207 43.9978 83.3163 43.7042C83.0119 43.4106 82.7424 43.0456 82.5078 42.6091L82.2857 42.1958C82.0511 41.7593 81.8983 41.3352 81.8272 40.9235C81.7575 40.5077 81.7669 40.1194 81.8556 39.7587C81.9471 39.3966 82.1129 39.0698 82.3531 38.7782C82.5932 38.4866 82.9059 38.2433 83.291 38.0483C83.8026 37.7894 84.2825 37.661 84.7306 37.6632C85.1816 37.6639 85.5891 37.7735 85.9531 37.9917C86.3199 38.2086 86.6315 38.5089 86.8879 38.8928L85.6229 39.5331C85.4798 39.3001 85.3214 39.1218 85.1477 38.9981C84.9724 38.8716 84.7764 38.8095 84.5594 38.8117C84.3439 38.8098 84.0955 38.88 83.8144 39.0223C83.6036 39.129 83.44 39.2604 83.3236 39.4165C83.2073 39.5725 83.1375 39.7553 83.1142 39.9649C83.091 40.1745 83.1164 40.4115 83.1906 40.6758C83.266 40.9361 83.3888 41.2244 83.5589 41.5409L83.7854 41.9624C83.9511 42.2706 84.1209 42.53 84.2947 42.7404C84.4672 42.9481 84.6458 43.1076 84.8307 43.2187C85.0169 43.3257 85.2107 43.3803 85.4121 43.3825C85.6149 43.3805 85.8287 43.3226 86.0536 43.2087C86.3178 43.075 86.5137 42.9238 86.6412 42.7551C86.7687 42.5865 86.8341 42.3989 86.8376 42.1924C86.8438 41.9845 86.7909 41.7563 86.6787 41.5077Z" fill="white"/>
<path d="M89.2487 35.1419L92.4508 41.1001L91.1901 41.7383L87.988 35.7801L89.2487 35.1419ZM91.1377 34.1857L91.6546 35.1474L86.6453 37.683L86.1285 36.7213L91.1377 34.1857Z" fill="white"/>
<path d="M98.6658 36.7361L99.1804 37.6936L95.9126 39.3478L95.398 38.3902L98.6658 36.7361ZM93.1237 33.1804L96.3258 39.1386L95.0608 39.7789L91.8588 33.8207L93.1237 33.1804ZM96.8566 34.3777L97.358 35.3107L94.5161 36.7493L94.0146 35.8162L96.8566 34.3777ZM95.9741 31.7376L96.4909 32.6992L93.2273 34.3512L92.7105 33.3896L95.9741 31.7376Z" fill="white"/>
<path d="M101.803 36.3661L100.466 37.0427L99.9602 36.0808L101.288 35.4085C101.62 35.2406 101.861 35.0267 102.011 34.7669C102.159 34.5043 102.216 34.2034 102.18 33.864C102.147 33.5233 102.024 33.1537 101.81 32.7554L101.653 32.4649C101.489 32.1593 101.311 31.9077 101.119 31.71C100.93 31.5108 100.728 31.3648 100.514 31.272C100.299 31.1793 100.077 31.141 99.8458 31.1572C99.6135 31.1707 99.375 31.2393 99.1305 31.3631L97.7559 32.0589L97.2391 31.0973L98.6136 30.4015C99.024 30.1937 99.436 30.072 99.8494 30.0362C100.264 29.9963 100.664 30.0385 101.049 30.1629C101.434 30.2872 101.788 30.4898 102.111 30.7707C102.435 31.0475 102.711 31.3986 102.94 31.8242L103.091 32.1066C103.319 32.5294 103.457 32.9503 103.507 33.3693C103.56 33.7867 103.529 34.1843 103.413 34.5619C103.299 34.9354 103.106 35.2779 102.834 35.5893C102.563 35.8966 102.219 36.1555 101.803 36.3661ZM97.9812 30.7216L101.183 36.6798L99.9183 37.3201L96.7162 31.3619L97.9812 30.7216Z" fill="white"/>
<path d="M149.389 59.3632L97.9189 50.3574L96.1085 60.1034L147.578 69.1092L149.389 59.3632Z" fill="#E12B41"/>
<path opacity="0.2" d="M149.389 59.3632L97.9189 50.3574L96.1085 60.1034L147.578 69.1092L149.389 59.3632Z" fill="black"/>
<path d="M98.2985 51.6679L101.127 52.1786C101.707 52.2833 102.189 52.4576 102.574 52.7014C102.962 52.9458 103.237 53.2535 103.399 53.6245C103.562 53.9956 103.597 54.4221 103.504 54.9041C103.429 55.2984 103.294 55.6246 103.101 55.8827C102.912 56.138 102.674 56.3374 102.388 56.481C102.106 56.6219 101.788 56.7178 101.433 56.7688L100.89 56.9323L98.4308 56.4883L98.6472 55.3034L100.476 55.6335C100.75 55.6831 100.987 55.677 101.185 55.6152C101.384 55.5534 101.545 55.4464 101.667 55.2942C101.793 55.1426 101.878 54.9556 101.92 54.7332C101.965 54.4972 101.959 54.2852 101.902 54.097C101.845 53.9088 101.733 53.7525 101.566 53.6283C101.399 53.5041 101.177 53.4169 100.899 53.3667L99.6335 53.1382L98.4502 59.3112L96.8874 59.029L98.2985 51.6679ZM101.128 59.7946L100.027 56.2012L101.681 56.4892L102.814 60.0257L102.8 60.0965L101.128 59.7946Z" fill="white"/>
<path d="M109.038 59.9989L108.812 61.1819L104.774 60.453L105.001 59.27L109.038 59.9989ZM106.696 53.1841L105.285 60.5452L103.722 60.263L105.133 52.9019L106.696 53.1841ZM109.122 56.7239L108.901 57.8766L105.39 57.2426L105.611 56.0899L109.122 56.7239ZM110.217 53.8199L109.99 55.008L105.958 54.28L106.185 53.0919L110.217 53.8199Z" fill="white"/>
<path d="M113.225 59.6406L114.203 54.5394L115.76 54.8207L114.782 59.9218C114.688 60.4139 114.496 60.8169 114.206 61.1306C113.916 61.441 113.561 61.6558 113.139 61.7749C112.721 61.8947 112.272 61.9113 111.793 61.8248C111.296 61.7351 110.872 61.5749 110.521 61.3442C110.17 61.1134 109.917 60.8114 109.763 60.4383C109.608 60.0617 109.581 59.6156 109.68 59.0999L111.248 59.383C111.196 59.6527 111.193 59.8736 111.239 60.0458C111.289 60.2186 111.38 60.3519 111.513 60.4457C111.646 60.5394 111.815 60.6048 112.02 60.6418C112.217 60.6775 112.398 60.663 112.561 60.5984C112.725 60.5337 112.863 60.421 112.977 60.2601C113.094 60.0999 113.176 59.8934 113.225 59.6406Z" fill="white"/>
<path d="M120.999 62.1584L120.772 63.3414L116.735 62.6125L116.962 61.4295L120.999 62.1584ZM118.657 55.3436L117.245 62.7047L115.683 62.4225L117.094 55.0614L118.657 55.3436ZM121.082 58.8834L120.861 60.0361L117.35 59.4021L117.571 58.2495L121.082 58.8834ZM122.178 55.9794L121.95 57.1675L117.918 56.4395L118.146 55.2514L122.178 55.9794Z" fill="white"/>
<path d="M126.549 61.858L128.106 62.1392C127.98 62.629 127.755 63.0435 127.431 63.3825C127.111 63.7223 126.708 63.9598 126.222 64.0953C125.74 64.2314 125.188 64.2433 124.566 64.131C124.08 64.0433 123.659 63.8837 123.305 63.6523C122.951 63.4175 122.666 63.122 122.451 62.7658C122.239 62.4102 122.103 62.0021 122.044 61.5416C121.985 61.0811 122.007 60.5812 122.111 60.042L122.209 59.5313C122.312 58.9921 122.478 58.5182 122.707 58.1097C122.941 57.6985 123.224 57.3644 123.557 57.1072C123.894 56.8506 124.271 56.6746 124.688 56.579C125.105 56.4835 125.551 56.4787 126.027 56.5646C126.659 56.6787 127.171 56.8862 127.563 57.187C127.957 57.4884 128.237 57.8563 128.402 58.2905C128.57 58.7254 128.631 59.1966 128.584 59.7042L127.021 59.4221C127.06 59.1223 127.048 58.8603 126.983 58.6359C126.919 58.4081 126.791 58.2228 126.599 58.0801C126.411 57.9346 126.144 57.8305 125.797 57.7678C125.536 57.7208 125.3 57.7269 125.087 57.7862C124.874 57.8454 124.684 57.9592 124.515 58.1275C124.346 58.2958 124.201 58.5206 124.078 58.8019C123.96 59.0805 123.864 59.4152 123.789 59.8062L123.689 60.3269C123.616 60.7078 123.581 61.0485 123.585 61.349C123.589 61.6462 123.633 61.9051 123.716 62.1259C123.804 62.344 123.935 62.5211 124.11 62.6574C124.289 62.7909 124.518 62.8827 124.796 62.9328C125.122 62.9918 125.401 62.9898 125.632 62.927C125.863 62.8641 126.054 62.7433 126.203 62.5645C126.356 62.3863 126.471 62.1508 126.549 61.858Z" fill="white"/>
<path d="M133.31 57.9894L131.899 65.3505L130.342 65.0692L131.753 57.7082L133.31 57.9894ZM135.644 58.4108L135.416 59.5989L129.228 58.4815L129.455 57.2934L135.644 58.4108Z" fill="white"/>
<path d="M140.44 65.6686L140.213 66.8516L136.176 66.1227L136.403 64.9396L140.44 65.6686ZM138.098 58.8538L136.687 66.2148L135.124 65.9327L136.535 58.5716L138.098 58.8538ZM140.524 62.3935L140.303 63.5462L136.792 62.9123L137.012 61.7596L140.524 62.3935ZM141.619 59.4896L141.391 60.6777L137.359 59.9497L137.587 58.7616L141.619 59.4896Z" fill="white"/>
<path d="M143.454 67.4366L141.802 67.1385L142.039 65.9573L143.68 66.2536C144.09 66.3276 144.453 66.3007 144.768 66.1728C145.085 66.0416 145.347 65.8153 145.556 65.4938C145.768 65.173 145.922 64.7666 146.016 64.2745L146.085 63.9155C146.157 63.538 146.179 63.1985 146.151 62.897C146.126 62.5961 146.052 62.3334 145.93 62.1091C145.808 61.8848 145.64 61.7027 145.426 61.563C145.212 61.4199 144.955 61.321 144.653 61.2665L142.954 60.9598L143.182 59.7718L144.88 60.0784C145.387 60.1699 145.835 60.3379 146.223 60.5823C146.615 60.8239 146.936 61.1277 147.185 61.4936C147.435 61.8595 147.602 62.2732 147.686 62.7347C147.774 63.1935 147.767 63.6858 147.667 64.2116L147.6 64.5604C147.5 65.0828 147.323 65.5444 147.07 65.9451C146.821 66.3464 146.512 66.6742 146.143 66.9285C145.779 67.18 145.367 67.3515 144.908 67.4429C144.452 67.5315 143.968 67.5294 143.454 67.4366ZM144.099 59.9373L142.688 67.2984L141.125 67.0162L142.536 59.6551L144.099 59.9373Z" fill="white"/>
<path d="M190.866 51.0589L141.979 33.0264L138.353 42.2835L187.241 60.3159L190.866 51.0589Z" fill="#E12B41"/>
<path opacity="0.2" d="M190.866 51.0589L141.979 33.0264L138.353 42.2835L187.241 60.3159L190.866 51.0589Z" fill="black"/>
<path d="M145.635 37.19L142.04 41.421L140.718 40.9196L145.317 35.9152L146.158 36.2343L145.635 37.19ZM145.043 42.5605L145.353 37.0831L145.624 36.0315L146.473 36.3538L146.369 43.0635L145.043 42.5605ZM145.847 40.3528L145.466 41.2977L142.28 40.0891L142.66 39.1441L145.847 40.3528Z" fill="white"/>
<path d="M151.133 42.6318L152.372 43.1017C152.188 43.4864 151.936 43.7937 151.614 44.0239C151.294 44.2551 150.924 44.3894 150.501 44.4269C150.081 44.4654 149.624 44.3908 149.129 44.2033C148.743 44.0566 148.422 43.8607 148.167 43.6157C147.913 43.3681 147.727 43.0809 147.607 42.7542C147.489 42.4285 147.444 42.0713 147.47 41.6825C147.496 41.2937 147.595 40.8849 147.768 40.4559L147.932 40.0498C148.104 39.6209 148.318 39.2555 148.574 38.9537C148.833 38.6503 149.121 38.418 149.437 38.2568C149.756 38.0967 150.096 38.0091 150.455 37.9941C150.815 37.9791 151.184 38.0433 151.562 38.1869C152.065 38.3776 152.453 38.6269 152.727 38.9348C153.004 39.2437 153.175 39.5899 153.24 39.9731C153.309 40.3574 153.282 40.7553 153.161 41.1667L151.918 40.6952C151.999 40.454 152.031 40.236 152.014 40.041C151.998 39.8434 151.923 39.6711 151.788 39.524C151.657 39.3754 151.453 39.2487 151.177 39.1439C150.97 39.0653 150.773 39.0342 150.589 39.0506C150.404 39.067 150.228 39.1316 150.061 39.2446C149.895 39.3576 149.738 39.5207 149.592 39.7341C149.449 39.9457 149.316 40.2071 149.19 40.518L149.024 40.9322C148.902 41.2351 148.818 41.5108 148.772 41.7591C148.727 42.0048 148.721 42.225 148.754 42.4199C148.791 42.6131 148.87 42.7792 148.993 42.9183C149.119 43.0558 149.292 43.1664 149.513 43.2503C149.773 43.3488 150.003 43.3898 150.204 43.3733C150.405 43.3568 150.581 43.2862 150.733 43.1616C150.888 43.038 151.022 42.8614 151.133 42.6318Z" fill="white"/>
<path d="M156.685 44.7379L157.924 45.2079C157.74 45.5925 157.488 45.8999 157.166 46.1301C156.846 46.3613 156.476 46.4956 156.053 46.533C155.633 46.5715 155.176 46.497 154.681 46.3094C154.295 46.1627 153.974 45.9669 153.719 45.7219C153.465 45.4742 153.279 45.187 153.159 44.8603C153.041 44.5346 152.996 44.1774 153.022 43.7886C153.048 43.3999 153.147 42.991 153.32 42.5621L153.484 42.156C153.656 41.7271 153.87 41.3617 154.126 41.0599C154.385 40.7565 154.673 40.5242 154.989 40.363C155.308 40.2029 155.648 40.1153 156.007 40.1003C156.367 40.0852 156.736 40.1495 157.114 40.293C157.617 40.4837 158.005 40.733 158.279 41.041C158.556 41.3499 158.727 41.696 158.792 42.0793C158.86 42.4636 158.834 42.8615 158.713 43.2729L157.47 42.8013C157.551 42.5602 157.583 42.3422 157.566 42.1472C157.55 41.9496 157.475 41.7772 157.34 41.6302C157.209 41.4815 157.005 41.3548 156.729 41.25C156.521 41.1715 156.325 41.1404 156.141 41.1567C155.956 41.1731 155.78 41.2378 155.613 41.3508C155.447 41.4638 155.29 41.6269 155.144 41.8402C155.001 42.0519 154.868 42.3132 154.742 42.6242L154.575 43.0384C154.453 43.3413 154.37 43.6169 154.324 43.8653C154.279 44.1109 154.273 44.3312 154.306 44.526C154.343 44.7192 154.422 44.8854 154.545 45.0245C154.671 45.162 154.844 45.2726 155.065 45.3564C155.325 45.4549 155.555 45.4959 155.756 45.4794C155.957 45.4629 156.133 45.3924 156.285 45.2677C156.44 45.1441 156.574 44.9675 156.685 44.7379Z" fill="white"/>
<path d="M162.385 48.0544L162.006 48.9953L158.795 47.7772L159.174 46.8363L162.385 48.0544ZM161.559 42.0766L159.201 47.9312L157.958 47.4597L160.316 41.605L161.559 42.0766ZM162.985 45.3664L162.616 46.2832L159.823 45.2238L160.193 44.307L162.985 45.3664ZM164.36 43.1391L163.979 44.084L160.772 42.8675L161.153 41.9225L164.36 43.1391Z" fill="white"/>
<path d="M165.921 48.0746L164.384 47.4915L164.763 46.5506L166.3 47.1337C166.537 47.2238 166.746 47.2596 166.925 47.2412C167.106 47.22 167.258 47.1542 167.382 47.0436C167.506 46.9331 167.603 46.7921 167.672 46.6205C167.742 46.4463 167.773 46.271 167.764 46.0947C167.756 45.9183 167.695 45.7563 167.583 45.6086C167.47 45.4609 167.295 45.342 167.058 45.2518L165.951 44.8322L163.974 49.7419L162.731 49.2704L165.089 43.4157L167.438 44.3069C167.911 44.4861 168.282 44.7227 168.552 45.0167C168.826 45.3091 168.994 45.6341 169.057 45.9918C169.12 46.3494 169.076 46.7145 168.926 47.0871C168.774 47.4651 168.553 47.7581 168.262 47.9661C167.971 48.1741 167.626 48.2887 167.225 48.31C166.828 48.3323 166.393 48.2538 165.921 48.0746Z" fill="white"/>
<path d="M173.255 46.5136L170.897 52.3683L169.659 51.8984L172.017 46.0437L173.255 46.5136ZM175.112 47.2178L174.731 48.1627L169.809 46.2955L170.189 45.3505L175.112 47.2178Z" fill="white"/>
<path d="M177.889 53.9359L177.51 54.8769L174.299 53.6587L174.678 52.7178L177.889 53.9359ZM177.063 47.9581L174.705 53.8128L173.462 53.3412L175.82 47.4866L177.063 47.9581ZM178.489 51.2479L178.12 52.1647L175.327 51.1054L175.697 50.1886L178.489 51.2479ZM179.864 49.0206L179.483 49.9656L176.276 48.749L176.657 47.8041L179.864 49.0206Z" fill="white"/>
<path d="M180.087 55.8545L178.774 55.3562L179.161 54.4185L180.466 54.9136C180.792 55.0372 181.095 55.0704 181.376 55.0132C181.658 54.9533 181.912 54.8068 182.136 54.5737C182.363 54.3416 182.556 54.0298 182.713 53.6384L182.828 53.3529C182.949 53.0527 183.023 52.7761 183.048 52.5231C183.076 52.2711 183.058 52.0433 182.994 51.8396C182.929 51.6359 182.82 51.4601 182.666 51.3122C182.514 51.1615 182.317 51.0406 182.077 50.9495L180.726 50.4371L181.107 49.4921L182.458 50.0045C182.861 50.1575 183.203 50.3644 183.483 50.6252C183.767 50.8844 183.982 51.184 184.129 51.5239C184.275 51.8637 184.346 52.2304 184.34 52.6238C184.338 53.0156 184.253 53.4206 184.085 53.8388L183.973 54.1163C183.806 54.5318 183.585 54.8854 183.312 55.1772C183.041 55.47 182.733 55.6931 182.388 55.8465C182.046 55.9982 181.679 56.0767 181.285 56.0818C180.895 56.0854 180.496 56.0096 180.087 55.8545ZM181.836 49.7688L179.478 55.6234L178.235 55.1519L180.593 49.2972L181.836 49.7688Z" fill="white"/>
</g>
<path d="M53.5295 46.6768C54.0756 49.3841 54.6217 54.35 52.6685 56.1549C56.2768 57.0043 59.5847 58.7768 62.2477 61.2879C64.2157 57.7545 61.3473 56.1549 61.3473 56.1549C58.233 55.4339 58.3117 53.1945 58.8529 51.0888L53.5295 46.6768Z" fill="#F5C1BE"/>
<path d="M62.0897 58.9527C61.455 56.0353 63.5657 55.6103 60.1217 54.1778C57.4353 53.0509 52.2792 52.9268 51.0295 53.8531C50.3358 54.3736 51.1919 56.1737 51.1919 56.1737L62.0897 58.9527Z" fill="#E12B41"/>
<path d="M50.9264 61.4026C50.6853 61.7703 50.3951 62.2478 50.1245 62.6823C49.8539 63.1168 49.5833 63.58 49.3225 64.0384C48.801 64.9552 48.2745 65.872 47.7924 66.8126C46.8084 68.6796 45.8982 70.5848 45.1061 72.5425C44.9043 73.02 44.7075 73.4975 44.5304 74.0036L44.2795 74.7151C44.2795 74.7151 44.2352 74.7151 44.2254 74.801C44.1889 75.0777 44.2107 75.3587 44.2893 75.6271C44.3953 76.0399 44.5352 76.4439 44.7075 76.8351C45.5967 78.6739 46.6538 80.4318 47.8662 82.0875L47.9006 82.14C48.0742 82.4137 48.1461 82.7367 48.1045 83.0554C48.0629 83.3742 47.9102 83.6696 47.6719 83.8926C47.4335 84.1156 47.1237 84.2528 46.7939 84.2814C46.4641 84.31 46.1342 84.2284 45.8588 84.05C45.3373 83.6871 44.8748 83.3337 44.4271 82.947C43.9794 82.5602 43.5218 82.1782 43.0938 81.758C42.1955 80.9036 41.3909 79.9611 40.6928 78.9456C40.3036 78.3841 39.9739 77.7858 39.7088 77.1598C39.3701 76.4037 39.1719 75.5954 39.1233 74.7724C39.1038 74.2529 39.1618 73.7334 39.2955 73.2301L39.5317 72.3897C39.6842 71.8262 39.8564 71.2771 40.0237 70.7232C40.7462 68.5284 41.6189 66.3829 42.6362 64.301C43.1282 63.2649 43.6793 62.2383 44.2647 61.2355C44.555 60.758 44.8502 60.2376 45.1602 59.741C45.4701 59.2444 45.7752 58.786 46.1442 58.2273C46.563 57.6049 47.2195 57.1695 47.9692 57.0168C48.7189 56.8641 49.5003 57.0067 50.1417 57.4132C50.783 57.8197 51.2317 58.4568 51.389 59.1844C51.5463 59.912 51.3994 60.6704 50.9805 61.2928L50.9264 61.4026Z" fill="#F5C1BE"/>
<path d="M49.6619 83.1713L49.0075 82.7654L47.1428 81.5908L45.7554 83.5533C46.1933 85.4633 48.1465 86.3657 48.1465 86.3657L48.8943 86.5281C49.1582 86.5901 49.4364 86.5545 49.6747 86.4283C49.9131 86.302 50.0944 86.0942 50.1834 85.8452L50.4195 85.2818C50.5532 84.8984 50.5512 84.4826 50.414 84.1003C50.2768 83.7181 50.0121 83.3911 49.6619 83.1713Z" fill="#F5C1BE"/>
<path d="M48.0821 56.5846C45.6713 57.573 43.5705 60.0273 41.4795 64.9312C42.0355 66.9509 48.3232 70.2599 48.3232 70.2599C48.3232 70.2599 56.2789 54.1494 48.0821 56.5846Z" fill="#263238"/>
<path d="M69.8049 62.5438C69.7262 64.363 72.693 68.5792 69.0325 71.024C68.5995 74.7054 68.0485 78.3296 67.0645 84.3698H47.9454C49.9822 77.685 48.5604 73.1966 46.0315 61.4503C45.8936 60.8074 45.8965 60.1435 46.0399 59.5017C46.1832 58.8599 46.4639 58.2544 46.8637 57.7246C47.2635 57.1948 47.7736 56.7524 48.3608 56.4261C48.948 56.0997 49.5993 55.8967 50.2725 55.8303C51.0351 55.7586 51.842 55.6966 52.6686 55.6536C55.5578 55.4527 58.4582 55.4527 61.3474 55.6536C62.2822 55.7348 63.2515 55.8494 64.1764 55.9735C65.7872 56.196 67.2553 56.9916 68.2955 58.2058C69.3357 59.42 69.8736 60.9661 69.8049 62.5438Z" fill="#263238"/>
<path d="M65.6717 44.1795C65.5979 44.5376 65.7357 44.8718 65.9817 44.9148C66.2277 44.9578 66.4737 44.7095 66.5524 44.3466C66.6312 43.9837 66.4885 43.6542 66.2474 43.6113C66.0063 43.5683 65.7455 43.8166 65.6717 44.1795Z" fill="#263238"/>
<path d="M66.1348 43.6057L67.0794 43.5293C67.0794 43.5293 66.4841 44.1166 66.1348 43.6057Z" fill="#263238"/>
<path d="M65.7505 44.5811C65.9114 45.4682 66.1978 46.3294 66.6017 47.1404C66.3869 47.2383 66.1526 47.2891 65.9153 47.2891C65.6781 47.2891 65.4437 47.2383 65.229 47.1404L65.7505 44.5811Z" fill="#630F0F"/>
<path d="M66.9118 42.3695C66.9408 42.3721 66.9701 42.3684 66.9974 42.3584C67.0246 42.3485 67.0492 42.3327 67.0693 42.3122C67.1102 42.2712 67.133 42.2164 67.133 42.1594C67.133 42.1023 67.1102 42.0475 67.0693 42.0066C66.8335 41.7507 66.5381 41.5531 66.2078 41.4302C65.8775 41.3073 65.5218 41.2626 65.1702 41.2999C65.1116 41.3104 65.0597 41.3428 65.0256 41.3902C64.9915 41.4375 64.9781 41.496 64.9881 41.5529C65 41.6092 65.0337 41.6588 65.0822 41.6917C65.1307 41.7246 65.1904 41.7381 65.2489 41.7296C65.5241 41.7046 65.8015 41.7435 66.0582 41.8431C66.3148 41.9428 66.5433 42.1003 66.7249 42.3026C66.748 42.3278 66.7771 42.3471 66.8097 42.3587C66.8423 42.3704 66.8774 42.3741 66.9118 42.3695Z" fill="#263238"/>
<path d="M53.6281 40.6223C52.9935 45.1107 52.6441 47.0016 54.4252 49.6946C57.1312 53.7771 62.8433 53.5145 64.8162 49.2983C66.5973 45.4784 67.3353 38.7935 63.3058 36.1864C59.2763 33.5793 54.2481 36.1291 53.6281 40.6223Z" fill="#F5C1BE"/>
<path d="M62.8425 43.8167C61.0172 46.6817 62.38 50.4634 66.1143 51.1796C60.6482 54.9995 48.9484 54.269 47.6102 51.6189C45.0813 46.6053 46.9558 38.3781 51.5905 35.1694C56.2251 31.9606 63.1229 32.1469 67.0786 39.7103C66.1635 40.7847 64.7613 43.0241 62.8425 43.8167Z" fill="#263238"/>
<path d="M60.516 44.676C60.88 45.8029 61.008 46.2851 61.7066 46.7387C61.9186 46.8989 62.1744 46.9952 62.4423 47.0157C62.7102 47.0361 62.9783 46.9798 63.2135 46.8537C63.4487 46.7276 63.6407 46.5373 63.7655 46.3064C63.8903 46.0754 63.9425 45.814 63.9157 45.5546C63.8763 44.4707 63.281 42.8138 62.115 42.618C60.9489 42.4222 60.1371 43.5491 60.516 44.676Z" fill="#F5C1BE"/>
<path d="M67.0493 84.3555C67.0493 84.3555 67.0837 108.645 65.1846 124.068C64.8845 138.551 63.1871 172.366 63.1871 172.366H59.4184C59.4184 172.366 53.5734 143.545 55.4135 126.398C47.7481 101.903 52.7862 84.3793 52.7862 84.3793L67.0493 84.3555Z" fill="#F5C1BE"/>
<path d="M63.211 171.259C63.3066 171.223 63.411 171.216 63.5109 171.238C63.6108 171.26 63.7016 171.311 63.7719 171.383C65.1373 173.075 67.0395 174.284 69.1839 174.821C71.5603 175.518 70.5861 176.664 67.024 176.253C62.8371 175.747 61.7301 176.344 60.3279 176.344C58.9257 176.344 58.1779 175.112 58.9847 172.433C59.0121 172.341 59.0676 172.259 59.144 172.197C59.2203 172.136 59.314 172.098 59.4128 172.09C60.7076 171.956 61.9821 171.677 63.211 171.259Z" fill="#263238"/>
<path d="M62.0557 84.3555C62.0557 84.3555 54.2427 112.69 49.8098 125.897C45.1604 139.744 40.7964 171.345 40.7865 172.39H37.5295C37.5295 172.39 34.1642 146.778 40.0633 125.883C41.6574 91.981 47.9353 84.3793 47.9353 84.3793L62.0557 84.3555Z" fill="#F5C1BE"/>
<path d="M40.9092 171.259C40.9936 171.222 41.0882 171.215 41.1775 171.237C41.2669 171.26 41.3457 171.311 41.4012 171.383C42.2081 172.443 42.0162 173.828 45.0026 174.821C47.0936 175.518 46.085 176.664 42.8821 176.253C39.1134 175.747 39.0445 176.344 37.7653 176.344C36.4861 176.344 35.9154 175.079 36.9486 172.4C36.9826 172.311 37.0401 172.233 37.1152 172.172C37.1903 172.112 37.2805 172.072 37.3766 172.056C38.5824 171.926 39.7681 171.658 40.9092 171.259Z" fill="#263238"/>
<g opacity="0.2">
<path d="M65.0421 129.402C64.9929 131.035 64.9388 132.777 64.8699 134.592C61.5285 133.94 58.2524 133.006 55.0791 131.799C55.1135 130.242 55.1972 128.728 55.3251 127.296C58.4845 128.308 61.7394 129.013 65.0421 129.402Z" fill="black"/>
<path d="M40.3439 120.702C43.4346 122.475 46.6486 124.037 49.9625 125.377C49.9034 125.549 49.8493 125.721 49.7903 125.888C49.4557 126.881 49.1261 127.97 48.8063 129.13C45.8229 127.712 42.9267 126.127 40.1323 124.384C40.2045 123.12 40.275 121.893 40.3439 120.702Z" fill="black"/>
</g>
<path d="M67.0499 84.3556C67.0499 84.3556 67.478 103.412 66.0069 132.076C52.1768 131.068 38.7354 122.555 38.7354 122.555C38.7354 122.555 39.1388 92.301 47.9456 84.3556C52.9197 83.0807 66.9515 83.9354 67.0499 84.3556Z" fill="#E12B41"/>
<path d="M68.7859 59.1963C69.2533 59.8218 69.6518 60.39 70.0454 60.9964C70.439 61.6028 70.8326 62.1949 71.2115 62.8013C71.9659 64.0237 72.6776 65.2683 73.3468 66.5353C74.0208 67.8006 74.6358 69.1089 75.2065 70.4411C75.7811 71.7908 76.2852 73.1677 76.717 74.5667L76.776 74.7672C76.8763 75.0953 76.8983 75.4412 76.8403 75.7787C76.7824 76.1163 76.6459 76.4366 76.4414 76.7154C75.856 77.508 75.236 78.2767 74.5768 79.0073C73.9265 79.7378 73.2384 80.4358 72.5153 81.0987C71.796 81.7612 71.0422 82.3875 70.257 82.9752C69.8683 83.2713 69.455 83.5435 69.0467 83.8204C68.6383 84.0973 68.23 84.3409 67.7429 84.6083C67.4495 84.7698 67.107 84.8263 66.7751 84.768C66.4432 84.7097 66.1428 84.5404 65.9263 84.2893C65.7098 84.0383 65.5909 83.7216 65.5902 83.3942C65.5894 83.0669 65.7071 82.7496 65.9225 82.4978L66.0012 82.407L66.8327 81.452C67.1131 81.1178 67.3837 80.7692 67.6592 80.4302C68.2004 79.7426 68.7367 79.0503 69.2435 78.3436C69.7502 77.6369 70.2275 76.9111 70.7195 76.2092C71.2115 75.5073 71.6198 74.7529 72.0479 74.0271L71.7724 76.1758C71.2804 74.9916 70.7884 73.817 70.1881 72.6424C69.5879 71.4677 68.9729 70.317 68.3087 69.1662C67.6445 68.0155 66.9557 66.8791 66.2472 65.7522C65.5387 64.6253 64.7712 63.4841 64.0775 62.4432L64.0381 62.3811C63.637 61.7678 63.4969 61.0274 63.6473 60.3158C63.7977 59.6042 64.2269 58.9771 64.8445 58.5666C65.462 58.1561 66.2196 57.9943 66.9576 58.1154C67.6956 58.2364 68.3564 58.6308 68.8007 59.2154L68.7859 59.1963Z" fill="#F5C1BE"/>
<path d="M69.4703 85L68.7421 83.6917L67.6105 81.6289L66.2083 81.987C65.6587 82.1263 65.1884 82.4714 64.9006 82.9467C64.6128 83.4221 64.5311 83.9887 64.6733 84.5225C64.8177 85.0582 65.0503 85.5677 65.3621 86.0314L66.3461 86.9147C66.4875 87.0386 66.6641 87.1181 66.8529 87.1428C67.0417 87.1676 67.2337 87.1363 67.4039 87.0532L69.0472 86.2462C69.1608 86.193 69.2622 86.1181 69.3454 86.026C69.4286 85.934 69.4918 85.8266 69.5313 85.7103C69.5708 85.594 69.5857 85.4711 69.5752 85.3491C69.5648 85.2271 69.5291 85.1083 69.4703 85Z" fill="#F5C1BE"/>
<path d="M65.7845 56.3981C68.338 56.9568 71.0932 58.542 73.1301 63.2405C72.9529 65.3224 67.3933 69.9254 67.3933 69.9254C67.3933 69.9254 57.2729 55.4288 65.7845 56.3981Z" fill="#263238"/>
<path d="M205.656 47.1828L206.055 47.6603L206.404 48.1091C206.635 48.4051 206.847 48.706 207.059 49.0068C207.492 49.5989 207.88 50.2148 208.274 50.8212C209.041 52.0532 209.75 53.3137 210.409 54.6412C210.734 55.2858 211.044 55.9542 211.344 56.618C211.644 57.2817 211.915 57.974 212.166 58.6712C212.698 60.0749 213.136 61.5104 213.479 62.9686L213.592 63.4079C213.686 63.7908 213.709 64.1869 213.661 64.5777C213.409 66.3363 212.865 68.0438 212.052 69.6343C211.709 70.3462 211.322 71.0381 210.896 71.7066C210.488 72.3656 210.07 72.9958 209.622 73.6166C208.742 74.8028 207.786 75.9335 206.758 77.002C206.266 77.5272 205.73 78.0334 205.199 78.5347C204.667 79.0361 204.121 79.4897 203.497 79.9672C203.039 80.3308 202.467 80.532 201.875 80.5374C201.284 80.5428 200.708 80.3521 200.244 79.9969C199.779 79.6417 199.453 79.1432 199.32 78.5839C199.187 78.0245 199.254 77.4378 199.511 76.9208L199.59 76.7585L200.446 75.0538C200.746 74.4808 201.027 73.8983 201.302 73.3253C201.858 72.1746 202.39 71.0381 202.837 69.9065C203.289 68.8384 203.667 67.7426 203.969 66.6261C204.227 65.7443 204.351 64.8306 204.338 63.914L204.515 65.5231C204.072 64.4679 203.6 63.4222 203.039 62.3717C202.478 61.3212 201.927 60.2851 201.307 59.2537C200.687 58.2223 200.057 57.1909 199.388 56.1834L198.404 54.6841L197.46 53.3185L197.283 53.0654C196.528 51.9873 196.235 50.6659 196.468 49.3821C196.701 48.0983 197.44 46.9531 198.529 46.1898C199.618 45.4264 200.97 45.1052 202.299 45.2941C203.628 45.4831 204.829 46.1675 205.647 47.2019L205.656 47.1828Z" fill="#E12B41"/>
<path opacity="0.2" d="M205.656 47.1828L206.055 47.6603L206.404 48.1091C206.635 48.4051 206.847 48.706 207.059 49.0068C207.492 49.5989 207.88 50.2148 208.274 50.8212C209.041 52.0532 209.75 53.3137 210.409 54.6412C210.734 55.2858 211.044 55.9542 211.344 56.618C211.644 57.2817 211.915 57.974 212.166 58.6712C212.698 60.0749 213.136 61.5104 213.479 62.9686L213.592 63.4079C213.686 63.7908 213.709 64.1869 213.661 64.5777C213.409 66.3363 212.865 68.0438 212.052 69.6343C211.709 70.3462 211.322 71.0381 210.896 71.7066C210.488 72.3656 210.07 72.9958 209.622 73.6166C208.742 74.8028 207.786 75.9335 206.758 77.002C206.266 77.5272 205.73 78.0334 205.199 78.5347C204.667 79.0361 204.121 79.4897 203.497 79.9672C203.039 80.3308 202.467 80.532 201.875 80.5374C201.284 80.5428 200.708 80.3521 200.244 79.9969C199.779 79.6417 199.453 79.1432 199.32 78.5839C199.187 78.0245 199.254 77.4378 199.511 76.9208L199.59 76.7585L200.446 75.0538C200.746 74.4808 201.027 73.8983 201.302 73.3253C201.858 72.1746 202.39 71.0381 202.837 69.9065C203.289 68.8384 203.667 67.7426 203.969 66.6261C204.227 65.7443 204.351 64.8306 204.338 63.914L204.515 65.5231C204.072 64.4679 203.6 63.4222 203.039 62.3717C202.478 61.3212 201.927 60.2851 201.307 59.2537C200.687 58.2223 200.057 57.1909 199.388 56.1834L198.404 54.6841L197.46 53.3185L197.283 53.0654C196.528 51.9873 196.235 50.6659 196.468 49.3821C196.701 48.0983 197.44 46.9531 198.529 46.1898C199.618 45.4264 200.97 45.1052 202.299 45.2941C203.628 45.4831 204.829 46.1675 205.647 47.2019L205.656 47.1828Z" fill="black"/>
<path d="M192.441 174.673C192.441 174.673 197.47 172.882 198.124 171.684H202.483L202.217 176.148H198.66L198.267 175.737L197.568 176.148C195.393 176.148 193.391 176.067 192.053 175.589C192.034 175.417 192.06 175.244 192.128 175.084C192.196 174.924 192.303 174.782 192.441 174.673Z" fill="#E12B41"/>
<path d="M203.727 125.586C203.117 105.976 204.681 92.8686 202.812 83.2042L185.331 82.9512C185.331 82.9512 189.946 114.069 192.219 127.023C194.492 139.978 197.577 171.97 197.577 171.97H203.314C203.314 171.97 206.979 140.756 203.727 125.586Z" fill="#263238"/>
<path opacity="0.3" d="M191.939 97.458C192.869 100.261 193.272 118.248 192.249 127.229C192.249 127.163 192.225 127.091 192.215 127.024C191.418 122.474 190.33 115.674 189.263 108.77L191.939 97.458Z" fill="black"/>
<path d="M160.481 170.781C160.481 170.781 168.471 171.507 169.411 170.552L173.544 171.903L172.068 176.138L169.524 175.303L169.263 174.787L168.486 174.964C166.429 174.291 160.983 172.424 159.841 171.545C159.866 171.373 159.939 171.211 160.052 171.077C160.165 170.942 160.313 170.84 160.481 170.781Z" fill="#E12B41"/>
<path d="M186.38 124.98C194.744 106.754 198.724 83.1184 198.724 83.1184L179.624 80.5352C179.624 80.5352 176.736 112.135 175.152 125.319C173.494 139.028 168.786 170.68 168.786 170.68L174.719 172.624C174.719 172.624 186.576 141.071 186.38 124.98Z" fill="#263238"/>
<path d="M195.585 34.1377C195.024 38.4351 196.245 41.1138 197.283 43.6875C195.472 45.3205 192.535 47.3498 188.624 47.2925C184.712 47.2352 185.426 44.6711 186.474 43.3485C189.278 41.9733 189.381 39.7625 188.697 38.5401L195.585 34.1377Z" fill="#E0B5B1"/>
<path opacity="0.2" d="M188.825 38.8125C189.102 39.4782 189.126 40.2176 188.894 40.8991C190.124 40.7702 191.398 40.2115 191.871 39.5001C190.66 39.3186 189.568 38.9175 188.825 38.8125Z" fill="black"/>
<path d="M200.933 44.5513C200.933 44.5513 198.557 42.5219 197.573 42.0444C196.589 41.5669 189.002 41.7293 187.241 42.0444C185.48 42.3596 183.334 44.9094 183.334 44.9094L200.933 44.5513Z" fill="#263238"/>
<path d="M184.87 29.7548C184.821 30.1034 184.589 30.3565 184.353 30.3231C184.117 30.2896 183.97 29.984 184.019 29.6355C184.068 29.2869 184.294 29.0291 184.511 29.0625C184.727 29.0959 184.914 29.4063 184.87 29.7548Z" fill="#263238"/>
<path d="M184.54 27.6629C184.574 27.672 184.61 27.6724 184.645 27.6641C184.679 27.6557 184.711 27.6389 184.737 27.6152C184.929 27.4334 185.164 27.2991 185.42 27.2235C185.677 27.1479 185.949 27.1332 186.213 27.1806C186.264 27.196 186.319 27.1916 186.367 27.1685C186.414 27.1453 186.451 27.1052 186.469 27.0565C186.482 27.0033 186.474 26.9471 186.445 26.8999C186.417 26.8526 186.371 26.818 186.316 26.8034C185.985 26.7408 185.643 26.7562 185.32 26.8484C184.996 26.9407 184.7 27.107 184.456 27.3334C184.418 27.3726 184.396 27.4248 184.396 27.4791C184.396 27.5334 184.418 27.5856 184.456 27.6247C184.481 27.6439 184.509 27.657 184.54 27.6629Z" fill="#263238"/>
<path d="M197.15 30.619C196.166 34.8304 195.767 37.3516 193.174 39.1517C189.268 41.8638 184.19 38.9798 183.885 34.5439C183.605 30.5569 185.307 24.3352 189.898 23.385C190.914 23.1738 191.968 23.2164 192.963 23.5088C193.958 23.8011 194.859 24.3337 195.584 25.0565C196.309 25.7793 196.832 26.6688 197.106 27.6417C197.38 28.6146 197.395 29.639 197.15 30.619Z" fill="#E0B5B1"/>
<path d="M187.783 34.2712C187.989 34.3468 188.188 34.4395 188.378 34.5482C188.391 34.5559 188.402 34.5661 188.41 34.578C188.419 34.5899 188.425 34.6034 188.428 34.6176C188.431 34.6318 188.432 34.6465 188.429 34.6608C188.426 34.6751 188.421 34.6888 188.413 34.701C188.394 34.7255 188.367 34.7429 188.336 34.7498C188.306 34.7568 188.273 34.7531 188.245 34.7392C187.817 34.4902 187.336 34.3377 186.839 34.2931C186.342 34.2485 185.84 34.3128 185.372 34.4813C185.344 34.4945 185.312 34.4964 185.282 34.4866C185.253 34.4767 185.228 34.456 185.215 34.4288C185.204 34.4008 185.205 34.3702 185.217 34.3428C185.229 34.3154 185.251 34.2933 185.279 34.2808C186.084 33.9827 186.975 33.9793 187.783 34.2712Z" fill="#263238"/>
<path d="M193.957 32.9918C193.131 32.4239 192.41 31.723 191.827 30.9195C191.827 30.9195 192.688 28.2838 193.957 27.6678C192.279 27.2572 190.73 26.2354 190.843 25.0273C187.359 25.4666 186.031 25.1467 185.431 23.5567C184.831 21.9666 186.631 20.5294 189.047 20.2142C191.463 19.8991 192.535 21.4461 192.535 21.4461C194.052 20.8604 195.729 20.7897 197.293 21.2456C199.753 22.043 198.518 24.2729 198.518 24.2729C198.518 24.2729 201.022 23.041 201.923 26.5792C202.823 30.1174 199.546 30.3418 199.546 30.3418C199.546 30.3418 200.939 30.7667 200.447 32.9918C200.324 33.6004 199.978 34.1451 199.473 34.5253C198.969 34.9054 198.339 35.0952 197.701 35.0594C197.701 35.0594 194.041 40.0348 193.957 32.9918Z" fill="#263238"/>
<path d="M187.89 30.3987C187.841 30.7472 187.615 31.0051 187.398 30.9717C187.182 30.9382 187.01 30.6279 187.059 30.2793C187.108 29.9307 187.339 29.6777 187.551 29.7063C187.762 29.735 187.944 30.0501 187.89 30.3987Z" fill="#263238"/>
<path d="M187.61 27.3194C187.619 27.3523 187.636 27.3826 187.66 27.4076C187.685 27.4325 187.714 27.4514 187.748 27.4626C188.002 27.5396 188.233 27.6742 188.423 27.8552C188.613 28.0361 188.756 28.2584 188.84 28.5036C188.846 28.5299 188.858 28.5546 188.874 28.5764C188.891 28.5982 188.911 28.6166 188.935 28.6304C188.959 28.6442 188.986 28.6532 189.013 28.6569C189.041 28.6605 189.069 28.6587 189.096 28.6516C189.123 28.6454 189.149 28.6341 189.171 28.6182C189.194 28.6024 189.213 28.5823 189.228 28.5593C189.242 28.5362 189.252 28.5105 189.257 28.4837C189.261 28.457 189.26 28.4296 189.253 28.4033C189.154 28.0902 188.977 27.8054 188.739 27.5733C188.501 27.3412 188.208 27.1688 187.885 27.0711C187.859 27.0621 187.831 27.0583 187.803 27.0599C187.775 27.0616 187.747 27.0686 187.722 27.0806C187.697 27.0926 187.675 27.1093 187.656 27.1298C187.638 27.1503 187.624 27.1742 187.615 27.2C187.601 27.2385 187.599 27.28 187.61 27.3194Z" fill="#263238"/>
<path d="M184.993 30.2412C184.993 30.2412 183.896 32.1512 182.862 32.982C183.418 33.6505 184.535 33.5359 184.535 33.5359L184.993 30.2412Z" fill="#A02724"/>
<path d="M195.781 33.5362C195.245 34.2978 194.431 34.8336 193.503 35.0355C192.328 35.2551 191.968 34.1091 192.485 32.9966C192.952 31.9939 194.123 30.6712 195.211 30.9577C196.298 31.2442 196.48 32.5621 195.781 33.5362Z" fill="#E0B5B1"/>
<path d="M200.736 44.0795C195.431 43.4589 190.072 43.4076 184.756 43.9267C182.629 44.1549 180.648 45.0863 179.146 46.5644C177.644 48.0425 176.711 49.9774 176.505 52.044C175.673 60.7247 176.318 74.4287 177.853 88.1852C191.294 92.5637 204.421 87.9942 204.421 87.9942C204.716 84.9908 203.589 75.2882 202.551 70.0358C203.314 64.6115 205.252 58.4041 206.345 51.2036C206.469 50.377 206.422 49.5345 206.206 48.7259C205.99 47.9172 205.609 47.1587 205.086 46.4949C204.564 45.8311 203.91 45.2754 203.163 44.8606C202.415 44.4458 201.59 44.1802 200.736 44.0795Z" fill="#E12B41"/>
<path d="M156.195 57.3247L152.19 57.8022L151.083 53.1848C151.083 53.1848 154.817 51.8813 157.125 54.708L156.195 57.3247Z" fill="#E0B5B1"/>
<path d="M149.48 56.661L152.19 57.7736L151.083 53.1563H148.997C148.91 53.1555 148.824 53.1744 148.745 53.2115C148.667 53.2485 148.598 53.3026 148.545 53.3697C148.491 53.4367 148.455 53.5149 148.438 53.598C148.421 53.681 148.424 53.7668 148.446 53.8486L149.155 56.3268C149.18 56.4024 149.222 56.4717 149.278 56.5295C149.334 56.5873 149.403 56.6322 149.48 56.661Z" fill="#E0B5B1"/>
<path d="M186.872 53.2563L186.203 54.2113C185.986 54.5121 185.76 54.8034 185.543 55.0994C185.101 55.6867 184.633 56.2454 184.161 56.8088C183.206 57.9367 182.193 59.0172 181.125 60.0462C180.579 60.5667 180.028 61.0776 179.448 61.5837C178.867 62.0899 178.257 62.5674 177.622 63.0401C176.303 64.0467 174.882 64.9218 173.381 65.6519L172.924 65.8764C172.056 66.2955 171.059 66.389 170.124 66.139C168.696 65.7417 167.297 65.2504 165.937 64.6683C164.624 64.124 163.384 63.4889 162.164 62.8539C160.943 62.2188 159.782 61.5073 158.641 60.7672C157.485 60.0284 156.37 59.2315 155.3 58.3798C154.848 58.015 154.535 57.5128 154.412 56.9542C154.29 56.3957 154.365 55.8134 154.625 55.3013C154.886 54.7892 155.316 54.3772 155.848 54.1318C156.379 53.8864 156.98 53.8219 157.554 53.9487L157.662 53.9725C158.892 54.2495 160.161 54.5981 161.396 54.9275C162.631 55.257 163.856 55.5721 165.081 55.8825C166.306 56.1929 167.502 56.465 168.673 56.7277C169.844 56.9903 170.995 57.167 172.048 57.3054L168.791 57.7829C169.657 57.1638 170.478 56.489 171.251 55.7631C172.073 54.9801 172.889 54.1253 173.711 53.2372C174.533 52.3491 175.31 51.4132 176.082 50.4582L177.243 49.0258L178.326 47.6506L178.493 47.4309C179.313 46.4112 180.507 45.7383 181.826 45.5528C183.144 45.3673 184.486 45.6837 185.57 46.4357C186.654 47.1877 187.397 48.3172 187.643 49.5883C187.89 50.8593 187.62 52.1735 186.892 53.2563H186.872Z" fill="#E12B41"/>
</svg>
