<svg width="218" height="149" viewBox="0 0 218 149" fill="none" xmlns="http://www.w3.org/2000/svg">
<path d="M1.64764 123.583V137.258H20.3337H40.9417V123.583H1.64764Z" fill="#F5F5F5"/>
<path d="M-0.00012207 119.76V123.583H42.3142V119.76H20.3333H-0.00012207Z" fill="#E0E0E0"/>
<path d="M21.1571 137.259H40.9415V123.583H42.3143V119.76H20.3334V123.229L21.1571 137.259Z" fill="#E0E0E0"/>
<path d="M15.1133 125.787H7.14465V127.844H15.1133V125.787Z" fill="#E0E0E0"/>
<path d="M16.3489 130.419H6.11823V134.767H16.3489V130.419Z" fill="white"/>
<path d="M7.69379 106.102V119.777H26.3767H46.9848V106.102H7.69379Z" fill="#F5F5F5"/>
<path d="M6.04346 102.277V106.101H48.3609V102.277H26.3769H6.04346Z" fill="#E0E0E0"/>
<path d="M27.2006 119.776H46.9849V106.101H48.3609V102.277H26.3769V105.747L27.2006 119.776Z" fill="#E0E0E0"/>
<path d="M21.1568 108.305H13.1882V110.362H21.1568V108.305Z" fill="#E0E0E0"/>
<path d="M22.3924 112.94H12.1617V117.288H22.3924V112.94Z" fill="white"/>
<path d="M31.8558 1.93555H2.76434V47.0688H31.8558V1.93555Z" fill="#E0E0E0"/>
<path d="M30.3959 1.93555H1.30438V47.0688H30.3959V1.93555Z" fill="#F5F5F5"/>
<path d="M26.7828 6.82422H4.92053V42.1794H26.7828V6.82422Z" fill="white"/>
<path d="M26.7824 42.1801C26.7824 42.1801 26.7824 42.1199 26.7824 42.0064C26.7824 41.8929 26.7824 41.7225 26.7824 41.5055C26.7824 41.0613 26.7824 40.4101 26.7824 39.5652C26.7824 37.8721 26.7824 35.4009 26.7637 32.2818C26.7637 26.0503 26.7419 17.2207 26.7294 6.82483L26.8011 6.90164H4.94197L5.01998 6.81815C5.01998 20.1561 5.01998 32.4521 5.01998 42.1734L4.95757 42.1066L20.8699 42.14L25.2661 42.1567H26.4205C26.6826 42.1567 26.8199 42.1567 26.8199 42.1567H26.433H25.291H20.9229L4.97006 42.1934H4.90765V42.1266C4.90765 32.4054 4.90765 20.1093 4.90765 6.7714V6.68457H4.98878H26.8479H26.9197V6.82817C26.9197 17.2441 26.8948 26.0904 26.8854 32.3386C26.8854 35.4476 26.8854 37.9122 26.8636 39.602C26.8636 40.4402 26.8636 41.0847 26.8636 41.5255C26.8636 41.7392 26.8636 41.9062 26.8636 42.0198C26.8636 42.1333 26.7824 42.1801 26.7824 42.1801Z" fill="#E0E0E0"/>
<path d="M30.4796 1.93555C30.3287 2.22095 30.1543 2.4914 29.9585 2.74371C29.6216 3.22459 29.1411 3.88247 28.5951 4.59379C28.0491 5.3051 27.5343 5.92958 27.1567 6.38375C26.9678 6.63611 26.759 6.87073 26.5327 7.08505C26.6964 6.80893 26.8822 6.54858 27.0881 6.30694L28.4734 4.49026L29.8712 2.67024C30.0544 2.4075 30.2579 2.16173 30.4796 1.93555Z" fill="#E0E0E0"/>
<path d="M26.8821 42.0664C27.9685 43.9163 29.2476 45.6281 30.6948 47.1692L26.8821 42.0664Z" fill="white"/>
<path d="M30.7076 47.169C30.4643 46.9801 30.2415 46.7628 30.043 46.5211C29.0289 45.4134 28.1226 44.1983 27.3379 42.8944C27.1629 42.6339 27.0143 42.354 26.8949 42.0596C27.0909 42.3013 27.2703 42.5581 27.4315 42.8277C27.7436 43.3085 28.2022 43.9698 28.7264 44.6744C29.2505 45.379 29.756 46.0102 30.1242 46.4343C30.3347 46.6641 30.5296 46.9096 30.7076 47.169Z" fill="#E0E0E0"/>
<path d="M1.29822 47.0326L5.10782 42L1.29822 47.0326Z" fill="white"/>
<path d="M5.11094 42C4.54009 42.8902 3.92562 43.7474 3.2701 44.5681C2.6538 45.4262 1.99559 46.2488 1.29822 47.0326C1.8708 46.1429 2.48629 45.2857 3.14218 44.4645C3.75802 43.607 4.41516 42.7844 5.11094 42Z" fill="#E0E0E0"/>
<path d="M1.29822 1.93555C1.96299 2.6868 2.58798 3.47727 3.17026 4.30325C3.78817 5.09176 4.36421 5.9168 4.89565 6.77447C4.23941 6.02159 3.62177 5.2312 3.04545 4.40677C2.42248 3.6168 1.83925 2.79189 1.29822 1.93555Z" fill="#E0E0E0"/>
<path d="M19.9715 14.001H12.6518V36.2487H19.9715V14.001Z" fill="#E0E0E0"/>
<path d="M188.814 132.476C188.127 131.845 186.592 129.845 187.775 127.517C188.208 126.662 189.132 126.242 189.959 125.864C190.786 125.487 191.669 125.163 192.361 124.528C193.662 123.343 194.021 121.373 194.885 119.793C195.878 117.976 197.728 116.617 199.684 116.711C201.924 116.821 203.793 118.778 204.639 121.012C205.484 123.246 205.515 125.724 205.534 128.135C205.534 129.471 205.487 130.97 204.573 131.872C203.731 132.703 202.461 132.713 201.319 132.673L189.076 132.273" fill="#F5F5F5"/>
<path d="M212.23 96.4463H180.034L185.834 133.458C185.954 134.229 186.275 134.949 186.762 135.532C187.249 136.116 187.88 136.539 188.583 136.754L188.695 136.787C188.792 136.811 188.882 136.847 188.982 136.864C189.198 136.911 189.417 136.938 189.637 136.944V136.981L189.796 136.954H204.149C204.414 136.954 204.678 136.926 204.938 136.871C205.775 136.732 206.547 136.303 207.135 135.649C207.722 134.996 208.094 134.155 208.192 133.254L211 107.75L211.125 106.749H211.11L212.214 96.6366L212.23 96.4463ZM206.155 120.053H202.854L203.188 109.313H207.016L206.155 120.053ZM207.334 109.313H210.498L209.319 120.053H206.476L207.334 109.313ZM197.896 131.962L197.693 122.631H202.451L202.161 131.962H197.896ZM192.751 122.631H197.375L197.575 131.962H193.428L192.751 122.631ZM193.107 131.962H189.232C188.863 129.444 188.383 126.168 187.865 122.631H192.43L193.107 131.962ZM192.558 120.053L191.778 109.313H197.082L197.313 120.053H192.558ZM197.631 120.053L197.4 109.313H202.854L202.542 120.053H197.631ZM197.347 106.735L197.132 96.7903H203.247L202.935 106.735H197.347ZM197.035 106.735H191.597L190.876 96.7903H196.804L197.035 106.735ZM191.278 106.735H185.525C185.322 105.363 185.129 104.064 184.954 102.892C184.355 98.8841 184.13 97.358 184.018 96.7903H190.57L191.278 106.735ZM191.466 109.313L192.246 120.053H187.488C187.328 118.964 187.176 117.862 187.004 116.76C186.63 114.222 186.258 111.688 185.906 109.313H191.466ZM187.166 120.053H184.046L182.361 109.313H185.572C186.074 112.633 186.63 116.326 187.163 120.053H187.166ZM187.547 122.631C188.018 125.861 188.483 129.043 188.91 131.962H185.927L184.464 122.631H187.547ZM202.486 131.962L202.776 122.631H205.952L205.209 131.962H202.486ZM203.269 106.735L203.581 96.7903H208.018L207.222 106.735H203.269ZM183.703 96.7903C183.831 97.5083 184.417 101.422 185.204 106.735H181.971L180.411 96.7903H183.703ZM208.018 131.962H205.522L206.286 122.631H209.053L208.018 131.962ZM210.782 106.735H207.534L208.326 96.7903H211.871L210.782 106.735Z" fill="#E0E0E0"/>
<path d="M212.948 4.35352V34.6594H172.281L170.814 4.56724L212.948 4.35352Z" fill="#E0E0E0"/>
<path d="M170.814 4.56698V34.5957H211.481V4.56698L170.814 4.56698Z" fill="white"/>
<path d="M211.675 34.8032H170.621V4.36035H211.675V34.8032ZM171.008 34.3891H211.278V4.77445H171.008V34.3891Z" fill="#E0E0E0"/>
<path d="M207.076 8.29785H175.22V30.8662H207.076V8.29785Z" fill="white"/>
<path d="M207.075 8.29777H206.919H206.467H204.717L198.165 8.32448L175.232 8.37457L175.323 8.27439C175.323 15.1704 175.323 22.8112 175.323 30.8393L175.223 30.7325L207.079 30.7525L207.001 30.8393C207.016 23.97 207.032 18.3396 207.041 14.4191C207.041 12.4588 207.057 10.9293 207.063 9.87735C207.063 9.35861 207.063 8.96121 207.063 8.68515C207.063 8.41465 207.063 8.27105 207.063 8.27105C207.063 8.27105 207.063 8.40129 207.063 8.66845C207.063 8.93561 207.063 9.33635 207.063 9.84395C207.063 10.8892 207.063 12.4154 207.082 14.3656C207.082 18.2995 207.107 23.95 207.125 30.8393V30.9262H207.044L175.188 30.9462H175.089V30.8727C175.089 22.858 175.089 15.2038 175.089 8.30778V8.21094H175.182L198.174 8.25769L204.726 8.28441H206.458H206.898L207.075 8.29777Z" fill="#E0E0E0"/>
<path d="M170.814 4.49023C171.065 4.62013 171.3 4.78278 171.513 4.97446C171.931 5.30841 172.496 5.75256 173.107 6.27686C173.719 6.80116 174.259 7.29541 174.636 7.66609C174.855 7.85113 175.051 8.06549 175.22 8.30394C175.182 8.35069 174.202 7.48576 172.983 6.44384C171.763 5.40192 170.78 4.53031 170.814 4.49023Z" fill="#E0E0E0"/>
<path d="M211.481 4.56739C211.516 4.61414 210.545 5.48575 209.341 6.51766C208.137 7.54956 207.11 8.34436 207.076 8.29761C207.041 8.25085 208.012 7.37925 209.216 6.34734C210.42 5.31544 211.447 4.52064 211.481 4.56739Z" fill="#E0E0E0"/>
<path d="M211.45 34.5995L206.91 30.6689L211.45 34.5995Z" fill="white"/>
<path d="M206.91 30.6688C206.948 30.6221 207.99 31.4637 209.241 32.549C210.492 33.6343 211.481 34.5527 211.447 34.5994C211.413 34.6462 210.367 33.8046 209.116 32.716C207.865 31.6273 206.879 30.7123 206.91 30.6688Z" fill="#E0E0E0"/>
<path d="M170.814 34.5954C170.78 34.5487 171.728 33.6838 172.932 32.6652C174.137 31.6467 175.138 30.8585 175.173 30.9053C175.207 30.9521 174.262 31.817 173.057 32.8355C171.853 33.8541 170.848 34.6422 170.814 34.5954Z" fill="#E0E0E0"/>
<path d="M181.687 15.3275V22.8848H201.734V15.3275H181.687Z" fill="#E0E0E0"/>
<path d="M212.23 137.259C212.23 137.305 165.329 137.346 107.486 137.346C49.6433 137.346 2.73315 137.305 2.73315 137.259C2.73315 137.212 49.6246 137.172 107.486 137.172C165.348 137.172 212.23 137.209 212.23 137.259Z" fill="#263238"/>
<path d="M28.498 20.5205H187.234C187.792 20.5205 188.327 20.7576 188.721 21.1798C189.116 21.6019 189.337 22.1744 189.337 22.7713V131.205C189.337 132.494 188.858 133.73 188.006 134.642C187.154 135.554 185.999 136.066 184.795 136.067H30.6259C29.4202 136.067 28.264 135.554 27.4114 134.642C26.5589 133.729 26.08 132.492 26.08 131.201V23.1053C26.0808 22.4194 26.3359 21.762 26.7893 21.2774C27.2427 20.7927 27.8572 20.5205 28.498 20.5205Z" fill="#455A64"/>
<path d="M19.2534 127.524H196.13V133.061C196.13 134.276 195.679 135.442 194.876 136.301C194.073 137.16 192.984 137.643 191.849 137.643H23.5341C22.3988 137.643 21.3099 137.16 20.5072 136.301C19.7044 135.442 19.2534 134.276 19.2534 133.061V127.524Z" fill="#455A64"/>
<path d="M184.498 25.1055H30.4608V122.689H184.498V25.1055Z" fill="#F5F5F5"/>
<path d="M91.6138 127.524L93.8103 131.261H124.696L126.733 127.524H91.6138Z" fill="#263238"/>
<path d="M189.366 127.488H26.1051V128.046H189.366V127.488Z" fill="#263238"/>
<path d="M74.076 20.5192H57.1153V14.1207C57.1153 9.60903 60.5318 5.79199 64.747 5.79199L74.076 5.94895V20.5192Z" fill="#E0E0E0"/>
<path d="M64.3817 5.78248C64.3817 5.78248 74.0352 4.84408 74.0352 18.3189V123.129H149.79V14.5086C149.79 13.3378 149.574 12.1787 149.155 11.0974C148.735 10.0161 148.121 9.03393 147.347 8.20703C146.572 7.38012 145.653 6.72473 144.642 6.27833C143.631 5.83193 142.547 5.60329 141.454 5.60548L64.3817 5.78248Z" fill="white"/>
<path d="M64.3818 5.78202L120.428 5.58833L134 5.54826L141.217 5.52488C142.481 5.48772 143.737 5.75572 144.891 6.30897C146.045 6.86222 147.068 7.68654 147.884 8.72078C148.719 9.78545 149.312 11.0429 149.616 12.3942C149.696 12.7337 149.755 13.0784 149.794 13.4261C149.837 13.7601 149.834 14.1241 149.856 14.4747C149.856 15.1716 149.856 15.8729 149.856 16.5786C149.856 19.3905 149.856 22.248 149.856 25.1511C149.856 30.9507 149.856 36.9161 149.856 43.0474C149.856 67.5393 149.856 94.4757 149.856 122.728V123.215H149.775H74.0197H73.9448V123.135C73.9448 86.8482 73.9666 56.0347 73.976 34.3046C73.976 28.8679 73.976 23.999 73.976 19.7545C73.976 18.6925 73.976 17.6706 73.9198 16.6922C73.8652 15.7531 73.7443 14.8198 73.5579 13.9003C73.3787 13.0624 73.1302 12.2433 72.8153 11.4525C72.5191 10.7462 72.1552 10.0747 71.7295 9.44879C71.0007 8.40778 70.0664 7.55148 68.9933 6.94083C68.2092 6.49695 67.368 6.17961 66.4972 5.99909C65.969 5.88417 65.4323 5.81935 64.8935 5.8054C64.5316 5.8054 64.3444 5.8054 64.3444 5.8054C64.5272 5.79372 64.7106 5.79372 64.8935 5.8054C65.434 5.81503 65.9727 5.87537 66.5034 5.98573C67.374 6.16395 68.2151 6.47905 68.9995 6.92079C70.0801 7.52942 71.0211 8.38714 71.7545 9.43209C72.1839 10.0578 72.5519 10.7293 72.8528 11.4358C73.1708 12.2297 73.4224 13.0522 73.6047 13.8937C73.7934 14.8163 73.9164 15.7529 73.9729 16.6955C74.0415 17.6773 74.0322 18.6992 74.0322 19.7611C74.0322 24.0056 74.0322 28.8746 74.0322 34.3113C74.0322 56.0548 74.0478 86.8683 74.0602 123.142L73.9854 123.065H149.741L149.659 123.152V122.751C149.659 94.489 149.659 67.5627 149.659 43.0708C149.659 36.9462 149.659 30.9807 149.659 25.1745V16.5786C149.641 15.1727 149.756 13.7634 149.425 12.4276C149.141 11.1102 148.578 9.87991 147.781 8.83098C146.98 7.81286 145.975 7.00102 144.841 6.45582C143.707 5.91061 142.472 5.64607 141.229 5.68184H133.997L120.403 5.70522L64.3818 5.78202Z" fill="#263238"/>
<path d="M106.463 37.5907C106.463 37.6375 101.854 37.6776 96.1664 37.6776C90.4785 37.6776 85.8702 37.6375 85.8702 37.5907C85.8702 37.544 90.4754 37.5039 96.1664 37.5039C101.857 37.5039 106.463 37.5507 106.463 37.5907Z" fill="#263238"/>
<path d="M111.073 40.2216C111.073 40.2717 105.435 40.3084 98.4777 40.3084C91.52 40.3084 85.8851 40.2717 85.8851 40.2216C85.8851 40.1715 91.5231 40.1348 98.4777 40.1348C105.432 40.1348 111.073 40.1748 111.073 40.2216Z" fill="#263238"/>
<path d="M112.727 50.5917C112.727 50.6385 106.905 50.6785 99.7229 50.6785C92.5405 50.6785 86.7185 50.6385 86.7185 50.5917C86.7185 50.545 92.5405 50.5049 99.7229 50.5049C106.905 50.5049 112.727 50.5416 112.727 50.5917Z" fill="#263238"/>
<path d="M129.716 60.6972C129.716 60.7439 119.982 60.784 107.976 60.784C95.9698 60.784 86.2352 60.7439 86.2352 60.6972C86.2352 60.6504 95.9666 60.6104 107.976 60.6104C119.985 60.6104 129.716 60.6471 129.716 60.6972Z" fill="#263238"/>
<path d="M129.716 63.7089C129.716 63.759 119.982 63.7957 107.976 63.7957C95.9698 63.7957 86.2352 63.759 86.2352 63.7089C86.2352 63.6588 95.9666 63.6221 107.976 63.6221C119.985 63.6221 129.716 63.6621 129.716 63.7089Z" fill="#263238"/>
<path d="M129.716 66.7245C129.716 66.7746 119.982 66.8113 107.976 66.8113C95.9698 66.8113 86.2352 66.7746 86.2352 66.7245C86.2352 66.6744 95.9666 66.6377 107.976 66.6377C119.985 66.6377 129.716 66.6778 129.716 66.7245Z" fill="#263238"/>
<path d="M129.716 69.7401C129.716 69.7869 119.982 69.827 107.976 69.827C95.9698 69.827 86.2352 69.7869 86.2352 69.7401C86.2352 69.6934 95.9666 69.6533 107.976 69.6533C119.985 69.6533 129.716 69.6934 129.716 69.7401Z" fill="#263238"/>
<path d="M129.716 72.7558C129.716 72.8025 119.982 72.8426 107.976 72.8426C95.9698 72.8426 86.2352 72.8025 86.2352 72.7558C86.2352 72.709 95.9666 72.6689 107.976 72.6689C119.985 72.6689 129.716 72.7057 129.716 72.7558Z" fill="#263238"/>
<path d="M102.725 75.7714C102.725 75.8181 99.0306 75.8582 94.4784 75.8582C89.9262 75.8582 86.2352 75.8181 86.2352 75.7714C86.2352 75.7246 89.9262 75.6846 94.4784 75.6846C99.0306 75.6846 102.725 75.7213 102.725 75.7714Z" fill="#263238"/>
<path d="M136.084 88.498C136.084 88.5447 131.766 88.5848 126.443 88.5848C121.12 88.5848 116.799 88.5447 116.799 88.498C116.799 88.4512 121.117 88.4111 126.443 88.4111C131.769 88.4111 136.084 88.4512 136.084 88.498Z" fill="#263238"/>
<path d="M136.084 91.4099C136.084 91.4567 131.766 91.4967 126.443 91.4967C121.12 91.4967 116.799 91.4567 116.799 91.4099C116.799 91.3632 121.108 91.3164 126.446 91.3164C131.784 91.3164 136.084 91.3632 136.084 91.4099Z" fill="#263238"/>
<path d="M134.805 104.063C134.8 104.015 134.8 103.965 134.805 103.917C134.805 103.813 134.789 103.673 134.777 103.492C134.777 103.399 134.771 103.295 134.758 103.182C134.758 103.065 134.724 102.941 134.705 102.808C134.666 102.496 134.607 102.188 134.527 101.886C134.33 101.05 134.015 100.252 133.591 99.5184C132.601 97.7458 131.065 96.3981 129.246 95.7075C127.428 95.0169 125.441 95.0265 123.629 95.7348C123.259 95.8775 122.898 96.0471 122.549 96.2424C122.196 96.4505 121.856 96.6837 121.532 96.9403C121.203 97.2032 120.89 97.4887 120.596 97.7952C120.305 98.1188 120.034 98.4624 119.785 98.8238C119.27 99.5637 118.871 100.388 118.602 101.265C118.032 103.08 118.032 105.044 118.602 106.859C118.871 107.736 119.27 108.56 119.785 109.3C120.034 109.661 120.305 110.005 120.596 110.328C120.89 110.635 121.203 110.92 121.532 111.183C122.169 111.699 122.876 112.107 123.629 112.392C125.019 112.932 126.518 113.067 127.972 112.783C129.131 112.551 130.231 112.059 131.199 111.339C132.167 110.618 132.981 109.687 133.588 108.605C134.012 107.872 134.327 107.073 134.524 106.237C134.604 105.935 134.664 105.627 134.702 105.316C134.721 105.182 134.743 105.059 134.755 104.945C134.768 104.832 134.755 104.725 134.774 104.631C134.774 104.451 134.796 104.297 134.802 104.207C134.797 104.159 134.797 104.111 134.802 104.063C134.806 104.111 134.806 104.159 134.802 104.207V104.635C134.802 104.728 134.802 104.835 134.802 104.948C134.802 105.062 134.774 105.189 134.755 105.326C134.724 105.639 134.669 105.95 134.593 106.254C134.406 107.1 134.099 107.91 133.682 108.655C132.689 110.462 131.136 111.841 129.293 112.551C127.45 113.261 125.433 113.258 123.591 112.542C123.214 112.398 122.846 112.226 122.49 112.028C122.129 111.818 121.783 111.581 121.454 111.317C121.116 111.051 120.795 110.761 120.493 110.449C120.196 110.119 119.92 109.769 119.666 109.4C119.141 108.646 118.733 107.806 118.459 106.912C117.877 105.063 117.877 103.061 118.459 101.212C118.734 100.318 119.141 99.4779 119.666 98.7236C119.92 98.3551 120.198 98.0058 120.496 97.6784C120.797 97.3654 121.117 97.0742 121.454 96.8068C122.401 96.0587 123.483 95.5319 124.632 95.2603C125.781 94.9888 126.971 94.9786 128.123 95.2305C129.276 95.4823 130.367 95.9906 131.324 96.7224C132.282 97.4542 133.085 98.3931 133.682 99.4784C134.098 100.224 134.406 101.034 134.593 101.879C134.67 102.185 134.724 102.497 134.755 102.811C134.774 102.948 134.793 103.072 134.802 103.185C134.811 103.299 134.802 103.406 134.802 103.502V103.927C134.806 103.972 134.808 104.018 134.805 104.063Z" fill="#E12B41"/>
<path d="M131.667 105.388C132.354 102.298 130.57 99.1979 127.683 98.463C124.797 97.728 121.9 99.637 121.213 102.727C120.526 105.817 122.31 108.917 125.197 109.652C128.083 110.387 130.98 108.478 131.667 105.388Z" fill="#E12B41"/>
<path d="M138.393 99.1104L138.168 99.2439L137.497 99.6246L134.917 101.064L130.839 103.338C130.425 103.569 129.976 103.723 129.513 103.792C129.261 103.826 129.005 103.803 128.762 103.723C128.519 103.644 128.294 103.51 128.103 103.331C127.899 103.143 127.755 102.892 127.688 102.613C127.65 102.468 127.646 102.314 127.677 102.167C127.708 102.02 127.773 101.883 127.866 101.769C128.06 101.541 128.33 101.402 128.618 101.381C128.768 101.359 128.922 101.391 129.055 101.47C129.187 101.55 129.292 101.673 129.354 101.822V101.845C129.362 102.81 129.041 103.744 128.452 104.474C128.144 104.868 127.764 105.19 127.334 105.42C126.905 105.65 126.436 105.782 125.956 105.809C125.45 105.838 124.944 105.759 124.468 105.574C123.991 105.39 123.554 105.106 123.183 104.737C122.78 104.36 122.501 103.856 122.384 103.298C122.33 103.004 122.367 102.699 122.49 102.43C122.615 102.154 122.83 101.938 123.095 101.822C123.232 101.766 123.381 101.747 123.527 101.769C123.672 101.791 123.81 101.851 123.928 101.946C124.153 102.138 124.317 102.399 124.399 102.694C124.488 102.979 124.531 103.278 124.527 103.579C124.54 103.727 124.54 103.877 124.527 104.026C124.521 104.177 124.503 104.326 124.474 104.474C124.255 105.688 123.637 106.779 122.733 107.549C122.277 107.953 121.748 108.251 121.178 108.424C120.609 108.596 120.012 108.64 119.426 108.551C118.218 108.334 117.135 107.629 116.4 106.581C115.97 105.993 115.674 105.307 115.532 104.577C115.379 103.851 115.432 103.093 115.685 102.4C115.822 102.053 116.055 101.759 116.353 101.558C116.654 101.359 117.015 101.286 117.364 101.354C117.534 101.396 117.695 101.478 117.833 101.593C117.971 101.708 118.083 101.855 118.162 102.022C118.315 102.339 118.426 102.676 118.493 103.024C118.786 104.374 118.706 105.786 118.262 107.088C117.842 108.342 117.033 109.403 115.969 110.094C114.957 110.755 113.767 111.033 112.59 110.885C112.028 110.812 111.485 110.624 110.989 110.331C110.51 110.042 110.086 109.658 109.741 109.199C109.075 108.337 108.709 107.253 108.709 106.133C108.719 105.607 108.825 105.087 109.021 104.604C109.105 104.365 109.234 104.146 109.4 103.963C109.567 103.78 109.767 103.635 109.988 103.539C110.213 103.464 110.452 103.457 110.68 103.518C110.895 103.594 111.09 103.721 111.251 103.889C111.552 104.214 111.778 104.61 111.91 105.045C112.045 105.446 112.116 105.87 112.119 106.297C112.119 106.504 112.119 106.704 112.119 106.905C112.119 107.105 112.103 107.299 112.084 107.489C111.967 108.801 111.61 110.075 111.033 111.239C110.67 111.973 110.222 112.654 109.698 113.266C109.52 113.477 109.37 113.624 109.27 113.724C109.17 113.824 109.117 113.871 109.117 113.871C109.117 113.871 109.164 113.814 109.261 113.711C109.358 113.607 109.498 113.457 109.673 113.243C110.182 112.624 110.62 111.941 110.977 111.209C111.538 110.049 111.884 108.784 111.994 107.482C112.013 107.292 112.022 107.098 112.025 106.901C112.028 106.704 112.025 106.504 112.025 106.3C112.02 105.884 111.949 105.472 111.816 105.081C111.691 104.666 111.477 104.288 111.192 103.976C111.043 103.823 110.862 103.708 110.665 103.642C110.459 103.587 110.243 103.594 110.041 103.662C109.835 103.754 109.65 103.891 109.496 104.063C109.342 104.236 109.222 104.44 109.145 104.664C108.963 105.132 108.867 105.633 108.861 106.14C108.868 107.227 109.225 108.278 109.872 109.115C110.209 109.567 110.626 109.942 111.099 110.221C111.572 110.499 112.091 110.675 112.627 110.738C113.773 110.879 114.929 110.607 115.913 109.964C116.948 109.288 117.733 108.251 118.137 107.028C118.57 105.757 118.647 104.378 118.359 103.061C118.296 102.728 118.192 102.405 118.047 102.103C117.979 101.955 117.881 101.826 117.761 101.723C117.641 101.621 117.501 101.549 117.351 101.511C117.042 101.451 116.724 101.518 116.459 101.698C116.187 101.878 115.976 102.146 115.857 102.463C115.615 103.122 115.565 103.844 115.713 104.534C115.85 105.239 116.137 105.901 116.552 106.467C117.263 107.478 118.308 108.159 119.473 108.371C120.038 108.453 120.612 108.409 121.16 108.24C121.708 108.072 122.217 107.783 122.655 107.392C123.53 106.649 124.128 105.594 124.34 104.42C124.39 104.136 124.411 103.847 124.402 103.559C124.408 103.275 124.367 102.993 124.284 102.724C124.21 102.462 124.066 102.23 123.869 102.056C123.771 101.978 123.657 101.928 123.536 101.911C123.416 101.893 123.293 101.909 123.179 101.956C122.951 102.058 122.764 102.245 122.655 102.483C122.547 102.721 122.514 102.991 122.562 103.251C122.676 103.771 122.94 104.238 123.317 104.587C123.673 104.942 124.092 105.217 124.549 105.396C125.006 105.574 125.492 105.652 125.978 105.626C126.438 105.6 126.888 105.473 127.3 105.252C127.712 105.031 128.076 104.722 128.371 104.343C128.942 103.641 129.255 102.74 129.251 101.809V101.832C129.2 101.706 129.11 101.602 128.997 101.537C128.884 101.473 128.753 101.45 128.627 101.475C128.373 101.49 128.133 101.609 127.959 101.809C127.878 101.908 127.822 102.027 127.794 102.155C127.767 102.283 127.77 102.417 127.803 102.543C127.862 102.803 127.995 103.036 128.184 103.211C128.362 103.38 128.572 103.506 128.8 103.581C129.028 103.656 129.268 103.678 129.504 103.645C129.956 103.582 130.394 103.435 130.799 103.211L134.886 100.984L137.485 99.5779L138.162 99.2139L138.393 99.1104Z" fill="#263238"/>
<path d="M110.443 16.7284C110.443 16.7785 103.844 16.8186 95.704 16.8186C87.5638 16.8186 80.9617 16.7785 80.9617 16.7284C80.9617 16.6783 87.5607 16.6416 95.704 16.6416C103.847 16.6416 110.443 16.6817 110.443 16.7284Z" fill="#E0E0E0"/>
<path d="M115.358 16.7284C114.68 16.8486 113.989 16.8486 113.311 16.7284C113.989 16.6127 114.68 16.6127 115.358 16.7284Z" fill="#E0E0E0"/>
<path d="M144.705 16.7284C144.705 16.7785 138.683 16.8186 131.261 16.8186C123.838 16.8186 117.816 16.7785 117.816 16.7284C117.816 16.6783 123.832 16.6416 131.261 16.6416C138.69 16.6416 144.705 16.6817 144.705 16.7284Z" fill="#E0E0E0"/>
<path d="M110.443 25.5087C110.443 25.5588 103.844 25.5955 95.704 25.5955C87.5638 25.5955 80.9617 25.5588 80.9617 25.5087C80.9617 25.4586 87.5607 25.4219 95.704 25.4219C103.847 25.4219 110.443 25.4619 110.443 25.5087Z" fill="#E0E0E0"/>
<path d="M115.358 25.5087C114.68 25.6245 113.989 25.6245 113.311 25.5087C113.989 25.3929 114.68 25.3929 115.358 25.5087Z" fill="#E0E0E0"/>
<path d="M144.705 25.5087C144.705 25.5588 138.683 25.5955 131.261 25.5955C123.838 25.5955 117.816 25.5588 117.816 25.5087C117.816 25.4586 123.832 25.4219 131.261 25.4219C138.69 25.4219 144.705 25.4619 144.705 25.5087Z" fill="#E0E0E0"/>
<path d="M85.6771 22.0058H86.7266C86.7093 22.3085 86.6208 22.5759 86.461 22.808C86.3033 23.038 86.0841 23.2187 85.8034 23.3498C85.5227 23.479 85.189 23.5436 84.8025 23.5436C84.4936 23.5436 84.2172 23.4941 83.9732 23.3952C83.7292 23.2964 83.5218 23.1551 83.3512 22.9714C83.1828 22.7858 83.0532 22.5628 82.9625 22.3025C82.874 22.0401 82.8297 21.7445 82.8297 21.4155V21.1461C82.8297 20.8172 82.8761 20.5215 82.969 20.2592C83.0619 19.9968 83.1947 19.7728 83.3674 19.5872C83.5402 19.4015 83.7475 19.2592 83.9894 19.1603C84.2313 19.0615 84.5012 19.012 84.7992 19.012C85.2009 19.012 85.5399 19.0796 85.8164 19.2148C86.0928 19.35 86.3066 19.5357 86.4577 19.7718C86.6111 20.0079 86.7029 20.2773 86.7331 20.58H85.6803C85.6717 20.4085 85.6371 20.2642 85.5767 20.1472C85.5162 20.0281 85.4233 19.9383 85.2981 19.8778C85.1728 19.8172 85.0065 19.7869 84.7992 19.7869C84.648 19.7869 84.5152 19.8132 84.4008 19.8657C84.2885 19.9181 84.1945 19.9999 84.119 20.1108C84.0455 20.2218 83.9905 20.3631 83.9538 20.5346C83.917 20.7042 83.8987 20.906 83.8987 21.1401V21.4155C83.8987 21.6476 83.9149 21.8484 83.9473 22.0179C83.9797 22.1874 84.0315 22.3277 84.1028 22.4387C84.1762 22.5497 84.2701 22.6324 84.3846 22.6869C84.499 22.7414 84.6383 22.7686 84.8025 22.7686C84.9903 22.7686 85.1469 22.7414 85.2722 22.6869C85.3974 22.6304 85.4935 22.5456 85.5605 22.4326C85.6274 22.3196 85.6663 22.1773 85.6771 22.0058Z" fill="#E12B41"/>
<path d="M90.4777 20.8495V21.6123H88.0353V20.8495H90.4777ZM88.3689 19.0756V23.483H87.3129V19.0756H88.3689ZM91.2066 19.0756V23.483H90.1538V19.0756H91.2066Z" fill="#E12B41"/>
<path d="M95.7449 18.7547H96.3862C96.3862 19.0413 96.3441 19.2855 96.2599 19.4873C96.1779 19.6891 96.0483 19.8435 95.8712 19.9504C95.6963 20.0554 95.4695 20.1078 95.1909 20.1078V19.6265C95.34 19.6265 95.4544 19.5922 95.5343 19.5236C95.6142 19.453 95.6693 19.3531 95.6995 19.2239C95.7297 19.0927 95.7449 18.9363 95.7449 18.7547ZM95.923 21.1824V21.3792C95.923 21.7142 95.8734 22.0149 95.774 22.2813C95.6768 22.5477 95.5375 22.7747 95.3561 22.9624C95.1769 23.15 94.962 23.2943 94.7115 23.3952C94.4632 23.4941 94.19 23.5436 93.892 23.5436C93.6544 23.5436 93.4309 23.5113 93.2214 23.4467C93.012 23.3821 92.823 23.2893 92.6546 23.1682C92.4883 23.0471 92.3447 22.8978 92.2237 22.7202C92.105 22.5426 92.0132 22.3418 91.9484 22.1178C91.8858 21.8918 91.8544 21.6456 91.8544 21.3792V21.1824C91.8544 20.8474 91.903 20.5467 92.0002 20.2804C92.0996 20.012 92.2388 19.7839 92.4181 19.5962C92.5995 19.4086 92.8144 19.2653 93.0627 19.1664C93.3111 19.0655 93.5853 19.015 93.8855 19.015C94.1252 19.015 94.3487 19.0473 94.556 19.1119C94.7655 19.1765 94.9534 19.2703 95.1197 19.3934C95.286 19.5145 95.4296 19.6638 95.5505 19.8414C95.6714 20.017 95.7632 20.2178 95.8258 20.4438C95.8906 20.6678 95.923 20.914 95.923 21.1824ZM94.8541 21.3792V21.1764C94.8541 20.9968 94.84 20.8343 94.8119 20.689C94.7839 20.5417 94.7428 20.4125 94.6888 20.3016C94.637 20.1906 94.5722 20.0977 94.4945 20.0231C94.4167 19.9464 94.3271 19.8889 94.2256 19.8505C94.1241 19.8122 94.0108 19.793 93.8855 19.793C93.7279 19.793 93.5886 19.8233 93.4676 19.8838C93.3489 19.9423 93.2484 20.0301 93.1664 20.1472C93.0843 20.2642 93.0228 20.4095 92.9817 20.5831C92.9407 20.7546 92.9202 20.9524 92.9202 21.1764V21.3792C92.9202 21.5568 92.9331 21.7192 92.9591 21.8666C92.9871 22.0119 93.0271 22.141 93.0789 22.254C93.1329 22.365 93.1988 22.4589 93.2765 22.5355C93.3564 22.6122 93.4471 22.6708 93.5486 22.7111C93.6523 22.7495 93.7667 22.7686 93.892 22.7686C94.0475 22.7686 94.1846 22.7384 94.3034 22.6778C94.4243 22.6173 94.5247 22.5275 94.6046 22.4084C94.6867 22.2893 94.7482 22.144 94.7893 21.9725C94.8325 21.799 94.8541 21.6012 94.8541 21.3792ZM93.743 17.8799L94.3844 18.8213H93.5583L92.6578 17.8799H93.743Z" fill="#E12B41"/>
<path d="M100.192 21.9513H99.0069V21.1855H100.192C100.367 21.1855 100.508 21.1582 100.614 21.1037C100.722 21.0492 100.8 20.9746 100.85 20.8797C100.902 20.7829 100.928 20.6739 100.928 20.5528C100.928 20.4277 100.902 20.3116 100.85 20.2047C100.8 20.0957 100.722 20.0079 100.614 19.9413C100.508 19.8747 100.367 19.8414 100.192 19.8414H99.3891V23.483H98.3331V19.0756H100.192C100.568 19.0756 100.89 19.1392 101.158 19.2663C101.428 19.3934 101.634 19.568 101.776 19.79C101.921 20.0099 101.994 20.2622 101.994 20.5467C101.994 20.8313 101.921 21.0785 101.776 21.2884C101.634 21.4983 101.428 21.6617 101.158 21.7788C100.89 21.8938 100.568 21.9513 100.192 21.9513Z" fill="#E12B41"/>
<path d="M105.8 20.8495V21.6123H103.357V20.8495H105.8ZM103.691 19.0756V23.483H102.635V19.0756H103.691ZM106.529 19.0756V23.483H105.476V19.0756H106.529Z" fill="#E12B41"/>
<path d="M110.519 22.7202V23.483H108.009V22.7202H110.519ZM108.368 19.0756V23.483H107.312V19.0756H108.368ZM110.195 20.8495V21.5881H108.009V20.8495H110.195ZM110.523 19.0756V19.8414H108.009V19.0756H110.523ZM109.288 17.889L110.309 18.7365V18.7729H109.509L108.997 18.3461L108.488 18.7729H107.704V18.7244L108.705 17.889H109.288Z" fill="#E12B41"/>
<path d="M114.183 23.483H113.146L113.153 22.7202H114.183C114.418 22.7202 114.617 22.6697 114.779 22.5688C114.941 22.4659 115.064 22.3146 115.148 22.1148C115.233 21.913 115.275 21.6678 115.275 21.3792V21.1764C115.275 20.9584 115.251 20.7667 115.203 20.6012C115.156 20.4337 115.086 20.2935 114.993 20.1805C114.9 20.0675 114.784 19.9827 114.646 19.9262C114.51 19.8697 114.354 19.8414 114.177 19.8414H113.127V19.0756H114.177C114.496 19.0756 114.788 19.126 115.051 19.2269C115.317 19.3278 115.546 19.4721 115.738 19.6598C115.932 19.8475 116.082 20.0695 116.188 20.3258C116.294 20.5821 116.347 20.8676 116.347 21.1824V21.3792C116.347 21.692 116.294 21.9776 116.188 22.2359C116.082 22.4922 115.932 22.7141 115.738 22.9018C115.546 23.0875 115.318 23.2308 115.054 23.3317C114.791 23.4326 114.501 23.483 114.183 23.483ZM113.746 19.0756V23.483H112.69V19.0756H113.746Z" fill="#E12B41"/>
<path d="M119.573 19.0756H120.629V21.9695C120.629 22.3125 120.552 22.6011 120.396 22.8352C120.243 23.0693 120.029 23.2459 119.755 23.365C119.48 23.484 119.163 23.5436 118.802 23.5436C118.44 23.5436 118.12 23.484 117.843 23.365C117.569 23.2459 117.353 23.0693 117.196 22.8352C117.04 22.6011 116.962 22.3125 116.962 21.9695V19.0756H118.022V21.9695C118.022 22.1592 118.052 22.3146 118.112 22.4357C118.175 22.5547 118.265 22.6425 118.381 22.699C118.498 22.7535 118.638 22.7807 118.802 22.7807C118.966 22.7807 119.106 22.7535 119.22 22.699C119.337 22.6425 119.424 22.5547 119.483 22.4357C119.543 22.3146 119.573 22.1592 119.573 21.9695V19.0756Z" fill="#E12B41"/>
<path d="M122.139 19.0756L123.062 21.0371L123.992 19.0756H125.132L123.6 21.8908V23.483H122.528V21.8908L120.992 19.0756H122.139Z" fill="#E12B41"/>
<path d="M128.731 22.7202V23.483H126.22V22.7202H128.731ZM126.58 19.0756V23.483H125.524V19.0756H126.58ZM128.407 20.8495V21.5881H126.22V20.8495H128.407ZM128.734 19.0756V19.8414H126.22V19.0756H128.734ZM127.5 17.889L128.52 18.7365V18.7729H127.72L127.208 18.3461L126.7 18.7729H125.916V18.7244L126.917 17.889H127.5ZM126.658 24.1581C126.658 24.035 126.709 23.932 126.813 23.8493C126.917 23.7666 127.053 23.7252 127.221 23.7252C127.39 23.7252 127.526 23.7666 127.629 23.8493C127.735 23.932 127.788 24.035 127.788 24.1581C127.788 24.2791 127.735 24.38 127.629 24.4608C127.526 24.5435 127.39 24.5849 127.221 24.5849C127.053 24.5849 126.917 24.5435 126.813 24.4608C126.709 24.38 126.658 24.2791 126.658 24.1581Z" fill="#E12B41"/>
<path d="M131.51 19.0756V23.483H130.457V19.0756H131.51ZM132.945 19.0756V19.8414H129.052V19.0756H132.945Z" fill="#E12B41"/>
<path d="M137.492 60.2607L129.757 79.4996C129.72 79.5892 129.709 79.6887 129.726 79.785C129.743 79.8813 129.787 79.9699 129.852 80.039C129.917 80.1081 130 80.1545 130.09 80.1721C130.18 80.1897 130.273 80.1776 130.356 80.1374L136.319 77.3189C136.377 77.2901 136.441 77.2749 136.505 77.2743C136.57 77.2737 136.634 77.2878 136.692 77.3156C136.751 77.3434 136.804 77.3842 136.847 77.4354C136.891 77.4867 136.923 77.5471 136.943 77.6128L138.955 84.0747C138.986 84.1698 139.044 84.2522 139.12 84.3106C139.197 84.3689 139.289 84.4003 139.383 84.4003C139.477 84.4003 139.568 84.3689 139.645 84.3106C139.722 84.2522 139.779 84.1698 139.81 84.0747L147.083 63.3231L137.492 60.2607Z" fill="#E12B41"/>
<path d="M147.573 63.4757L151.277 84.0403C151.294 84.1364 151.338 84.2247 151.403 84.2937C151.467 84.3627 151.55 84.4092 151.64 84.4272C151.73 84.4452 151.823 84.4339 151.906 84.3947C151.99 84.3554 152.061 84.2901 152.11 84.2073L155.56 78.293C155.594 78.2356 155.638 78.1863 155.691 78.1482C155.743 78.1101 155.802 78.0841 155.864 78.0719C155.927 78.0596 155.99 78.0614 156.052 78.077C156.114 78.0927 156.171 78.1219 156.222 78.1628L161.279 82.3004C161.354 82.3608 161.445 82.3949 161.538 82.3983C161.632 82.4017 161.724 82.3742 161.802 82.3195C161.881 82.2647 161.942 82.1854 161.976 82.0924C162.011 81.9993 162.019 81.8971 161.997 81.7995L157.111 60.2598L147.573 63.4757Z" fill="#E12B41"/>
<g opacity="0.3">
<path d="M137.492 60.2607L129.757 79.4996C129.72 79.5892 129.709 79.6887 129.726 79.785C129.743 79.8813 129.787 79.9699 129.852 80.039C129.917 80.1081 130 80.1545 130.09 80.1721C130.18 80.1897 130.273 80.1776 130.356 80.1374L136.319 77.3189C136.377 77.2901 136.441 77.2749 136.505 77.2743C136.57 77.2737 136.634 77.2878 136.692 77.3156C136.751 77.3434 136.804 77.3842 136.847 77.4354C136.891 77.4867 136.923 77.5471 136.943 77.6128L138.955 84.0747C138.986 84.1698 139.044 84.2522 139.12 84.3106C139.197 84.3689 139.289 84.4003 139.383 84.4003C139.477 84.4003 139.568 84.3689 139.645 84.3106C139.722 84.2522 139.779 84.1698 139.81 84.0747L147.083 63.3231L137.492 60.2607Z" fill="black"/>
</g>
<g opacity="0.3">
<path d="M147.572 63.4767L151.276 84.0413C151.293 84.1374 151.337 84.2256 151.402 84.2946C151.467 84.3636 151.549 84.4102 151.639 84.4282C151.729 84.4462 151.822 84.4349 151.906 84.3956C151.989 84.3564 152.06 84.2911 152.109 84.2083L155.56 78.294C155.593 78.2366 155.638 78.1873 155.69 78.1492C155.742 78.1111 155.801 78.0851 155.864 78.0728C155.926 78.0606 155.99 78.0623 156.051 78.078C156.113 78.0937 156.171 78.1229 156.221 78.1638L161.279 82.3014C161.354 82.3617 161.444 82.3959 161.537 82.3993C161.631 82.4027 161.723 82.3752 161.802 82.3204C161.88 82.2657 161.941 82.1864 161.976 82.0933C162.011 82.0003 162.018 81.898 161.996 81.8005L157.11 60.2607L147.572 63.4767Z" fill="black"/>
</g>
<path d="M147.947 26.5517L150.487 24.5547L152.484 27.1628L155.407 25.9072L156.733 28.9662L159.86 28.5253L160.431 31.8415L163.56 32.2455L163.345 35.6118L166.281 36.834L165.292 40.0366L167.85 42.0069L166.15 44.8455L168.172 47.4302L165.86 49.7278L167.22 52.7701L164.449 54.3797L165.058 57.6892L162 58.5107L161.819 61.8769L158.668 61.8602L157.71 65.0728L154.662 64.2179L152.986 67.0731L150.234 65.4334L147.947 67.7544L145.663 65.4334L142.911 67.0731L141.236 64.2179L138.188 65.0728L137.23 61.8602L134.079 61.8769L133.898 58.5107L130.84 57.6892L131.448 54.3797L128.678 52.7701L130.035 49.7278L127.726 47.4302L129.748 44.8455L128.048 42.0069L130.606 40.0366L129.614 36.834L132.553 35.6118L132.338 32.2455L135.467 31.8415L136.038 28.5253L139.164 28.9662L140.49 25.9072L143.414 27.1628L145.408 24.5547L147.947 26.5517Z" fill="#E12B41"/>
<path d="M158.04 56.9576C163.615 50.9911 163.615 41.3175 158.04 35.351C152.466 29.3845 143.428 29.3845 137.854 35.351C132.279 41.3175 132.279 50.9911 137.854 56.9576C143.428 62.9241 152.466 62.9241 158.04 56.9576Z" fill="white"/>
<path d="M151.061 42.5343L154.889 43.1354C155.031 43.1574 155.164 43.2216 155.274 43.3205C155.383 43.4195 155.465 43.5493 155.509 43.6953C155.553 43.8414 155.558 43.9977 155.524 44.1466C155.489 44.2955 155.416 44.4311 155.313 44.538L152.54 47.4267C152.45 47.5195 152.383 47.6343 152.344 47.7612C152.306 47.8881 152.297 48.0232 152.318 48.1547L152.97 52.2456C152.994 52.3966 152.978 52.5518 152.924 52.6936C152.87 52.8355 152.78 52.9583 152.664 53.0483C152.548 53.1383 152.411 53.1918 152.269 53.2028C152.126 53.2137 151.983 53.1818 151.856 53.1105L148.424 51.1769C148.314 51.1144 148.192 51.0816 148.067 51.0816C147.943 51.0816 147.82 51.1144 147.71 51.1769L144.278 53.1005C144.151 53.1711 144.008 53.2025 143.866 53.1909C143.723 53.1794 143.586 53.1254 143.471 53.0352C143.355 52.9449 143.266 52.8219 143.212 52.68C143.158 52.5381 143.143 52.383 143.167 52.2322L143.825 48.1513C143.847 48.0201 143.838 47.8854 143.8 47.7586C143.762 47.6318 143.696 47.5168 143.607 47.4233L140.836 44.528C140.733 44.4209 140.661 44.285 140.626 44.1359C140.592 43.9867 140.597 43.8302 140.642 43.6841C140.686 43.538 140.768 43.4082 140.878 43.3094C140.988 43.2107 141.122 43.1469 141.264 43.1254L145.095 42.5343C145.218 42.5161 145.335 42.4657 145.436 42.3877C145.537 42.3097 145.618 42.2063 145.672 42.0868L147.392 38.3733C147.455 38.236 147.553 38.1204 147.675 38.0396C147.796 37.9588 147.936 37.916 148.08 37.916C148.223 37.916 148.363 37.9588 148.484 38.0396C148.606 38.1204 148.704 38.236 148.768 38.3733L150.474 42.0935C150.531 42.2127 150.614 42.3152 150.716 42.392C150.819 42.4689 150.937 42.5177 151.061 42.5343Z" fill="#E12B41"/>
<path d="M203.403 58.2893C203.403 58.2893 199.684 74.5961 183.032 70.8592C183.032 70.8592 187.859 54.3454 203.403 58.2893Z" fill="#263238"/>
<path d="M195.366 82.9847C195.366 82.9847 187.722 95.1839 175.085 86.7483C175.085 86.7483 183.697 74.7362 195.366 82.9847Z" fill="#263238"/>
<path d="M183.179 101.595C183.179 101.595 172.028 111.744 161.338 99.1643C161.357 99.1643 173.441 89.5064 183.179 101.595Z" fill="#263238"/>
<path d="M171.37 62.1396C171.37 62.1396 183.738 68.5014 177.735 83.0816C177.735 83.0816 165.413 75.6679 171.37 62.1396Z" fill="#263238"/>
<path d="M168.686 79.7188C168.686 79.7188 174.855 88.6319 165.66 96.2893C165.66 96.2893 159.885 86.6749 168.686 79.7188Z" fill="#263238"/>
<path d="M197.294 39.2207C197.294 39.2207 198.714 52.4384 185.375 54.5557C185.382 54.5557 184.723 40.8571 197.294 39.2207Z" fill="#263238"/>
<path d="M178.165 25.8623C178.165 25.8623 188.951 30.6845 184.268 44.2295C184.268 44.2028 173.457 38.4255 178.165 25.8623Z" fill="#263238"/>
<path d="M171.653 45.1582C171.653 45.1582 185.937 46.9014 184.68 63.5421C184.68 63.5421 170.093 60.7436 171.653 45.1582Z" fill="#263238"/>
<path d="M151.327 103.242C151.327 103.242 151.386 103.218 151.508 103.182L152.041 103.031C152.512 102.898 153.208 102.721 154.088 102.414C156.574 101.59 158.978 100.505 161.264 99.1742C164.658 97.1893 167.791 94.7311 170.581 91.8641C172.23 90.1776 173.768 88.3698 175.183 86.4541L176.256 84.9113L176.796 84.1332C176.97 83.866 177.13 83.5888 177.301 83.315L178.309 81.6452L179.245 79.902C179.398 79.6082 179.557 79.3176 179.707 79.0271C179.857 78.7365 179.984 78.426 180.122 78.1288C180.396 77.531 180.674 76.9432 180.939 76.3488C181.204 75.7544 181.413 75.1466 181.651 74.5522C181.766 74.2549 181.891 73.9611 181.997 73.6638L182.309 72.7622L182.905 70.9856C183.07 70.3878 183.217 69.7934 183.395 69.209C183.476 68.9151 183.557 68.6245 183.635 68.334C183.713 68.0435 183.769 67.7496 183.838 67.4591L184.215 65.7359C185.03 61.6889 185.388 57.5515 185.279 53.4132C185.194 50.6247 184.904 47.8477 184.412 45.1078C184.215 44.1394 184.044 43.3947 183.941 42.8871C183.888 42.6366 183.847 42.4463 183.819 42.3093C183.791 42.1724 183.785 42.1123 183.785 42.1123C183.785 42.1123 183.803 42.1758 183.835 42.306L183.972 42.8804C184.087 43.3847 184.284 44.1294 184.474 45.0945C185.776 51.9199 185.738 58.9605 184.362 65.7693C184.237 66.337 184.111 66.9136 183.984 67.4991C183.919 67.7897 183.866 68.0869 183.785 68.3774C183.704 68.668 183.626 68.9618 183.544 69.2557L183.055 71.0357L182.459 72.819C182.359 73.1195 182.259 73.4201 182.147 73.724C182.034 74.0279 181.916 74.3184 181.797 74.6189L181.086 76.4223C180.821 77.0167 180.54 77.6078 180.268 78.2056L179.85 79.1072C179.697 79.4011 179.538 79.6916 179.385 79.9855L178.449 81.7354L177.435 83.4052C177.264 83.679 177.105 83.9562 176.927 84.2233L176.384 85.0081L175.307 86.5543C173.893 88.4781 172.353 90.2926 170.699 91.9843C167.897 94.8549 164.749 97.3112 161.339 99.2878C159.037 100.612 156.616 101.682 154.113 102.484C153.23 102.781 152.528 102.948 152.054 103.068L151.517 103.205L151.327 103.242Z" fill="#263238"/>
<path d="M167.348 86.9053C167.364 87.0293 167.364 87.1552 167.348 87.2793C167.329 87.5164 167.295 87.8637 167.248 88.2811C167.151 89.1327 166.986 90.3049 166.752 91.5906C166.518 92.8763 166.256 94.0318 166.047 94.8566C165.941 95.2707 165.853 95.6047 165.785 95.8351C165.758 95.9569 165.717 96.0746 165.663 96.1857C165.671 96.0614 165.691 95.9383 165.722 95.8184C165.781 95.5479 165.853 95.2173 165.934 94.8165C166.115 93.985 166.359 92.8295 166.593 91.5472C166.827 90.2648 167.008 89.0993 167.132 88.2544C167.192 87.8604 167.245 87.5264 167.285 87.2526C167.295 87.1348 167.316 87.0185 167.348 86.9053Z" fill="#455A64"/>
<path d="M170.387 100.143C170.269 100.149 170.152 100.138 170.037 100.11L169.101 99.9597C168.302 99.8328 167.195 99.6658 165.981 99.5122C164.767 99.3586 163.644 99.2484 162.839 99.1783L161.884 99.0881C161.766 99.0836 161.649 99.0657 161.535 99.0347C161.652 99.0184 161.77 99.0184 161.887 99.0347C162.115 99.0347 162.443 99.0347 162.845 99.0681C163.657 99.1115 164.77 99.2016 166 99.3553C167.229 99.5089 168.334 99.6892 169.12 99.8562C169.519 99.9363 169.837 100.006 170.056 100.06C170.169 100.073 170.28 100.101 170.387 100.143Z" fill="#455A64"/>
<path d="M185.419 83.9699C185.285 84.02 185.148 84.0558 185.007 84.0767L183.878 84.3138C182.923 84.5175 181.61 84.8114 180.168 85.1821C178.727 85.5528 177.432 85.9402 176.496 86.2274L175.388 86.5613C175.255 86.6111 175.119 86.6469 174.979 86.6682C175.102 86.5938 175.233 86.5356 175.369 86.4945C175.625 86.3943 175.993 86.2608 176.465 86.1005C177.401 85.7832 178.683 85.3791 180.127 85.0051C181.572 84.6311 182.895 84.3539 183.872 84.1836C184.352 84.0968 184.742 84.0367 185.014 83.9999C185.147 83.9752 185.283 83.9652 185.419 83.9699Z" fill="#455A64"/>
<path d="M174.502 71.4639C174.599 71.5893 174.683 71.7246 174.755 71.8679C174.914 72.1351 175.123 72.5358 175.363 73.0267C176.615 75.6405 177.38 78.4895 177.616 81.4156C177.66 81.9732 177.678 82.4174 177.678 82.7514C177.693 82.9135 177.693 83.0768 177.678 83.2389C177.647 83.0796 177.631 82.9174 177.628 82.7547C177.613 82.4441 177.575 81.9933 177.516 81.4356C177.221 78.536 176.463 75.7122 175.276 73.0869C175.048 72.5826 174.858 72.1819 174.717 71.9047C174.633 71.7655 174.56 71.6179 174.502 71.4639Z" fill="#455A64"/>
<path d="M191.069 63.8594C190.968 63.9532 190.858 64.036 190.742 64.1065L189.825 64.7443C189.057 65.292 188.015 66.0801 186.923 67.0219C185.831 67.9636 184.895 68.8987 184.237 69.5899L183.463 70.4181C183.375 70.5255 183.276 70.6228 183.169 70.7087C183.241 70.5889 183.324 70.4771 183.416 70.3747C183.584 70.1643 183.837 69.8671 184.155 69.5098C184.992 68.5785 185.882 67.704 186.82 66.8916C187.757 66.0788 188.739 65.3282 189.762 64.6442C190.158 64.3837 190.48 64.1833 190.698 64.0497C190.814 63.9704 190.939 63.9064 191.069 63.8594Z" fill="#455A64"/>
<path d="M175.472 51.7871C175.515 51.8145 175.555 51.847 175.591 51.884L175.903 52.1845C176.174 52.4483 176.561 52.8524 177.026 53.33C177.962 54.3118 179.21 55.711 180.508 57.3373C181.806 58.9637 182.898 60.5099 183.656 61.652C184.034 62.223 184.333 62.6906 184.533 63.0178L184.761 63.3985C184.811 63.4887 184.836 63.5355 184.829 63.5388C184.792 63.5037 184.76 63.4633 184.733 63.4186L184.48 63.0579L183.563 61.7221C182.783 60.6 181.691 59.0705 180.383 57.4476C179.076 55.8246 177.856 54.412 176.951 53.4101L175.859 52.2446L175.566 51.9107C175.5 51.8339 175.469 51.7938 175.472 51.7871Z" fill="#455A64"/>
<path d="M192.677 43.5146C192.584 43.6619 192.48 43.8004 192.365 43.9287L191.497 45.0241C190.77 45.9525 189.794 47.2582 188.789 48.761C187.785 50.2638 186.948 51.6764 186.362 52.715L185.694 53.9439C185.618 54.1001 185.529 54.2487 185.429 54.388C185.487 54.2234 185.557 54.0637 185.638 53.9105C185.781 53.6099 186.003 53.1791 186.284 52.6515C186.845 51.5962 187.672 50.1703 188.68 48.6608C189.688 47.1514 190.683 45.8523 191.432 44.944C191.806 44.4864 192.118 44.1258 192.34 43.882C192.442 43.7496 192.555 43.6267 192.677 43.5146Z" fill="#455A64"/>
<path d="M179.766 30.9648C179.851 31.1217 179.926 31.2846 179.991 31.4524C180.125 31.7663 180.303 32.2272 180.54 32.7882C180.992 33.9303 181.591 35.5266 182.206 37.3065C182.821 39.0865 183.335 40.7128 183.688 41.8983C183.866 42.4894 184 42.9703 184.094 43.3043C184.148 43.4752 184.19 43.6506 184.218 43.8286C184.142 43.667 184.079 43.4982 184.031 43.3243L183.579 41.9351C183.201 40.7629 182.668 39.1433 182.053 37.3667C181.438 35.59 180.858 33.9904 180.434 32.835C180.228 32.2773 180.059 31.8331 179.931 31.4624C179.861 31.3029 179.805 31.1362 179.766 30.9648Z" fill="#455A64"/>
<path d="M16.5862 54.6591C16.5862 54.6591 20.1026 70.0675 35.837 66.5377C35.8277 66.5377 31.2661 50.9322 16.5862 54.6591Z" fill="#263238"/>
<path d="M24.181 77.9953C24.181 77.9953 31.4039 89.5233 43.3382 81.5519C43.3382 81.5519 35.201 70.2009 24.181 77.9953Z" fill="#263238"/>
<path d="M35.6874 95.5811C35.6874 95.5811 46.227 105.175 56.3204 93.2869C56.3204 93.2869 44.8916 84.1567 35.6874 95.5811Z" fill="#263238"/>
<path d="M46.8508 58.2988C46.8508 58.2988 35.163 64.3099 40.8353 78.0853C40.8322 78.0853 52.4887 71.0824 46.8508 58.2988Z" fill="#263238"/>
<path d="M49.3843 74.9102C49.3843 74.9102 43.556 83.3324 52.2423 90.569C52.2423 90.569 57.7024 81.4856 49.3843 74.9102Z" fill="#263238"/>
<path d="M22.3523 36.6387C22.3523 36.6387 21.0107 49.1284 33.6157 51.1287C33.6157 51.1287 34.2273 38.1849 22.3523 36.6387Z" fill="#263238"/>
<path d="M40.4302 23.999C40.4302 23.999 30.2339 28.5574 34.6612 41.3644C34.6612 41.3477 44.8763 35.8809 40.4302 23.999Z" fill="#263238"/>
<path d="M46.5827 42.249C46.5827 42.249 33.0822 43.8987 34.2709 59.6144C34.2709 59.6211 48.0585 56.9795 46.5827 42.249Z" fill="#263238"/>
<path d="M68.7506 98.2058L68.5665 98.169L68.033 98.0422C67.565 97.9253 66.8723 97.7683 65.9956 97.4911C63.5116 96.7507 61.0927 95.7796 58.7664 94.5891C57.1556 93.7744 55.5927 92.8555 54.0863 91.8374C52.3525 90.6776 50.6978 89.3876 49.1348 87.9769C47.4022 86.423 45.7843 84.7282 44.2956 82.9076L43.1599 81.4415C42.7917 80.9373 42.4422 80.413 42.0772 79.8953C41.8962 79.6349 41.7153 79.371 41.5312 79.1106L41.0288 78.2924C40.6981 77.738 40.3456 77.1904 40.0242 76.6226C39.4002 75.4605 38.7762 74.3317 38.2614 73.1496C37.6997 71.9974 37.2567 70.8119 36.7949 69.6498C33.5389 60.9856 32.7212 51.4914 34.4424 42.3361C34.6296 41.381 34.8199 40.6496 34.9291 40.1487C34.9884 39.9049 35.0321 39.7146 35.0633 39.581C35.0945 39.4474 35.1163 39.3906 35.1163 39.3906C35.1163 39.3906 35.1163 39.4574 35.0789 39.5877C35.0414 39.7179 35.0134 39.9216 34.9603 40.1554C34.8605 40.6596 34.6795 41.3943 34.5017 42.3494C34.0256 45.0555 33.7553 47.7984 33.6936 50.5512C33.6038 57.0628 34.7084 63.5299 36.9447 69.5863C37.4033 70.7385 37.8464 71.924 38.408 73.0728C38.9166 74.2483 39.5531 75.3737 40.1615 76.5325C40.4735 77.1002 40.8323 77.6445 41.163 78.2022L41.6653 79.0237L42.2082 79.8052C42.5702 80.3228 42.9196 80.8471 43.2847 81.348L44.4172 82.8074C47.2468 86.2672 50.5275 89.2725 54.1581 91.7305C57.8392 94.2213 61.8308 96.1427 66.0143 97.4377C66.8848 97.7249 67.5744 97.8919 68.0424 98.0188L68.5697 98.1657L68.7506 98.2058Z" fill="#263238"/>
<path d="M50.6482 81.6992C50.6824 81.8077 50.7064 81.9196 50.7199 82.0332C50.7605 82.2936 50.8073 82.6076 50.8634 82.9782C50.982 83.7764 51.1567 84.8784 51.3751 86.0907C51.5935 87.3029 51.8244 88.3916 51.9992 89.1797C52.0772 89.5437 52.1427 89.8476 52.1988 90.1147C52.2297 90.2232 52.2475 90.3354 52.2519 90.4487C52.2014 90.3425 52.1627 90.2305 52.1364 90.1147C52.074 89.901 51.9867 89.5838 51.8868 89.193C51.6871 88.4116 51.4438 87.3229 51.2191 86.1073C50.9945 84.8918 50.8447 83.7697 50.7542 82.9782C50.7074 82.5775 50.6762 82.2502 50.6606 82.0231C50.6445 81.9161 50.6404 81.8073 50.6482 81.6992Z" fill="#455A64"/>
<path d="M47.7868 94.2089C47.8874 94.1651 47.9919 94.1326 48.0988 94.112C48.3047 94.0619 48.6105 93.9951 48.9849 93.9183C49.7368 93.7681 50.7821 93.5844 51.9427 93.4441C53.1034 93.3039 54.158 93.2137 54.9224 93.177C55.3062 93.1569 55.6151 93.1436 55.8272 93.1436C55.938 93.1279 56.0503 93.1279 56.1611 93.1436C56.0542 93.1744 55.9441 93.1913 55.8335 93.1937L54.9318 93.2805C54.1705 93.3506 53.119 93.4575 51.9615 93.6144C50.8039 93.7714 49.7774 93.9183 49.0036 94.0386L48.1082 94.1755C48.0029 94.2015 47.8948 94.2127 47.7868 94.2089Z" fill="#455A64"/>
<path d="M33.5721 78.921C33.7062 78.916 33.8403 78.9283 33.9715 78.9577C34.2274 78.9911 34.5955 79.0479 35.0479 79.1281C35.959 79.2883 37.207 79.5488 38.5736 79.9028C39.9402 80.2568 41.1601 80.6375 42.0369 80.9414C42.4737 81.0917 42.8263 81.2219 43.0696 81.3154C43.1973 81.3562 43.3207 81.411 43.4378 81.4791C43.3045 81.4624 43.1736 81.4287 43.0478 81.3789L42.0026 81.0449C41.1196 80.7744 39.8965 80.4138 38.533 80.0598C37.1696 79.7058 35.9309 79.4286 35.0292 79.2349L33.9622 79.0112C33.8298 78.9941 33.6993 78.9639 33.5721 78.921Z" fill="#455A64"/>
<path d="M43.8899 67.1084C43.8394 67.2523 43.7767 67.3909 43.7027 67.5225C43.5716 67.783 43.3907 68.1637 43.1754 68.6412C42.6176 69.8789 42.1584 71.1647 41.8025 72.485C41.4504 73.8065 41.201 75.1569 41.0568 76.5224C41.0038 77.0467 40.9664 77.4742 40.9508 77.7681C40.9487 77.922 40.9319 78.0753 40.9008 78.2256C40.883 78.0727 40.8778 77.9185 40.8852 77.7647C40.8852 77.4675 40.9008 77.0401 40.9414 76.5124C41.0539 75.1322 41.29 73.7668 41.6465 72.4349C42.0037 71.1048 42.4812 69.8152 43.0724 68.5845C43.3002 68.1136 43.4967 67.7396 43.6465 67.4891C43.714 67.3529 43.7957 67.2251 43.8899 67.1084Z" fill="#455A64"/>
<path d="M28.2336 59.9258C28.3523 59.9723 28.4662 60.0316 28.5737 60.1028C28.789 60.2263 29.0948 60.4167 29.4692 60.6638C30.4365 61.3091 31.366 62.0173 32.2523 62.7844C33.1375 63.5529 33.9773 64.3793 34.7671 65.259C35.0791 65.5929 35.3068 65.8768 35.466 66.0771C35.5542 66.1798 35.6326 66.2917 35.7 66.4111C35.5966 66.3307 35.5024 66.2377 35.4192 66.1339L34.6828 65.3424C34.0588 64.6745 33.1789 63.813 32.1462 62.9146C31.1135 62.0163 30.1275 61.2783 29.4037 60.764L28.5394 60.1562C28.4294 60.0926 28.3267 60.0152 28.2336 59.9258Z" fill="#455A64"/>
<path d="M42.9725 48.5146C42.8608 48.6655 42.7388 48.8072 42.6075 48.9388L41.581 50.0575C40.7229 51.0026 39.556 52.3384 38.333 53.8712C37.1099 55.404 36.0678 56.85 35.3284 57.912L34.461 59.171C34.3615 59.33 34.251 59.4807 34.1302 59.6218C34.2109 59.4508 34.3038 59.2867 34.4079 59.1309C34.5951 58.8203 34.8791 58.3762 35.2348 57.8385C35.9524 56.7565 36.9851 55.2972 38.2113 53.7577C39.4375 52.2181 40.6106 50.9091 41.4998 49.9707C41.9429 49.5065 42.3048 49.1358 42.5638 48.8887C42.6914 48.7536 42.828 48.6286 42.9725 48.5146Z" fill="#455A64"/>
<path d="M26.7144 40.6963C26.8354 40.7971 26.9481 40.9088 27.0513 41.0302C27.2604 41.2607 27.5537 41.6013 27.9062 42.0321C28.8295 43.1614 29.698 44.3407 30.5084 45.5653C31.4444 46.9912 32.2431 48.3404 32.7735 49.3356C33.0387 49.8331 33.2447 50.2406 33.3975 50.5278C33.4764 50.6721 33.5422 50.8242 33.5941 50.9819C33.4995 50.8491 33.415 50.7084 33.3414 50.5612L32.6893 49.399C32.1339 48.4205 31.3414 47.0881 30.3929 45.6655C29.4444 44.2428 28.5209 43.0106 27.8345 42.1323C27.5225 41.7115 27.2323 41.3642 27.0201 41.097C26.9053 40.9754 26.8028 40.841 26.7144 40.6963Z" fill="#455A64"/>
<path d="M38.9196 28.8379C38.8802 29.0037 38.828 29.1656 38.7636 29.3221C38.6419 29.6561 38.4827 30.0935 38.2893 30.6178C37.8899 31.7099 37.3533 33.2226 36.7605 34.9024C36.1677 36.5822 35.6747 38.1117 35.3065 39.2204C35.1318 39.7514 34.9945 40.1922 34.8791 40.5328C34.8344 40.6967 34.7748 40.8555 34.7012 41.007C34.7268 40.8391 34.7654 40.6738 34.8167 40.5128C34.9009 40.1788 35.032 39.7413 35.1973 39.177C35.5312 38.0582 36.0148 36.5054 36.5982 34.8356C37.1817 33.1659 37.7464 31.6497 38.1739 30.5677C38.3891 30.0267 38.567 29.5926 38.6949 29.2921C38.7563 29.1335 38.8315 28.9814 38.9196 28.8379Z" fill="#455A64"/>
<path d="M68.7347 44.5643C71.0092 44.8815 71.3462 47.3761 72.1886 49.47C73.031 51.5638 74.6441 53.4273 75.8859 55.3007C76.5411 56.3026 77.4459 57.1809 77.6706 58.3564C77.917 59.5853 77.3929 60.8576 77.1464 62.11C76.8999 63.3623 77.0746 64.8951 78.1979 65.4494C78.0717 65.6071 77.913 65.7312 77.7343 65.8117C77.5556 65.8923 77.3618 65.9272 77.1682 65.9136C77.1682 66.4914 76.6472 66.989 76.0793 67.1559C75.5071 67.2779 74.9174 67.2711 74.3477 67.1359C74.5006 67.5199 74.1761 67.9841 73.7736 68.1377C73.3651 68.2573 72.9341 68.2573 72.5256 68.1377C72.1201 68.0146 71.6954 67.9816 71.2775 68.0409C70.3415 68.258 69.7955 69.3767 68.8595 69.517C67.574 69.7173 66.6505 67.9574 65.3806 68.2646C64.7847 68.4082 64.3884 68.9659 63.8986 69.3466C63.4087 69.7273 62.5819 69.6305 62.3386 69.0828C61.6584 70.0012 60.6069 70.8928 59.4993 71.1366C59.5785 70.9359 59.6003 70.7145 59.562 70.5006C59.5236 70.2866 59.4269 70.0896 59.284 69.9344C58.6767 70.4652 57.9471 70.8113 57.1717 70.9362C57.4047 70.7072 57.5885 70.4267 57.7102 70.1142C57.832 69.8017 57.8888 69.4646 57.8769 69.1262C57.6159 69.3455 57.3117 69.4983 56.9873 69.5729C56.6629 69.6476 56.3269 69.6421 56.0048 69.557C57.1468 68.8591 57.2529 67.2361 56.8535 66.0172C56.4541 64.7982 55.6741 63.7062 55.5243 62.4205C55.359 61.0213 56.894 59.2513 56.5945 57.8788C56.1328 55.7616 56.1671 54.4725 56.2482 52.4956C56.3012 51.2032 56.8348 50.0544 57.3652 48.8488C57.9862 47.3555 59.0499 46.1231 60.3916 45.3424C61.5991 44.6143 63.3401 43.9464 64.7223 43.9131C67.1871 43.8563 68.1887 43.7728 70.1387 45.1687" fill="#263238"/>
<path d="M61.1407 61.803C60.3312 60.1209 59.66 58.3666 59.1345 56.56C58.6078 54.7449 58.5113 52.818 58.8537 50.953C58.913 50.6758 59.4778 48.7756 59.7461 48.7656C59.9364 48.7656 59.6587 50.4921 59.7773 50.6558C60.8974 52.1986 61.3997 54.1789 61.4964 56.1292C61.5749 58.0299 61.4556 59.9339 61.1407 61.8063" fill="#263238"/>
<path d="M71.9173 77.7989C69.1935 78.1329 62.6414 75.0672 62.2763 72.1618L60.0673 54.6763C59.3372 50.001 61.2685 45.6596 65.6585 44.9917L66.0672 44.955C68.052 44.7842 70.024 45.4201 71.5904 46.7359C73.1568 48.0516 74.2026 49.9507 74.5194 52.0548C75.1435 56.1122 75.7675 60.6005 75.9016 62.7946C76.1887 67.3329 72.0047 68.4016 72.0047 68.4016C72.0047 68.4016 72.1108 69.4502 72.2636 70.776C72.61 73.7548 72.1669 77.0208 71.9173 77.7889V77.7989Z" fill="#FFBE9D"/>
<path d="M72.0047 68.4013C70.0464 68.564 68.0854 68.1224 66.3543 67.1289C66.3543 67.1289 67.9393 70.425 72.1358 69.6536L72.0047 68.4013Z" fill="#EB996E"/>
<path d="M72.9408 56.0019C72.9548 56.1702 72.9069 56.3377 72.8072 56.4687C72.7076 56.5997 72.564 56.6838 72.4072 56.7032C72.3306 56.7169 72.2522 56.7139 72.1767 56.6944C72.1012 56.6749 72.0302 56.6393 71.9678 56.5897C71.9055 56.5402 71.8531 56.4776 71.8139 56.4059C71.7747 56.3341 71.7494 56.2547 71.7395 56.1722C71.7255 56.0039 71.7734 55.8364 71.8731 55.7054C71.9727 55.5744 72.1163 55.4903 72.2731 55.4709C72.3497 55.4567 72.4283 55.4593 72.5039 55.4786C72.5796 55.4979 72.6508 55.5335 72.7133 55.5831C72.7757 55.6328 72.8281 55.6955 72.8672 55.7675C72.9063 55.8395 72.9313 55.9192 72.9408 56.0019Z" fill="#263238"/>
<path d="M73.7679 54.1322C73.6993 54.2224 73.2157 53.8985 72.5636 53.9553C71.9115 54.012 71.4622 54.4027 71.3842 54.3226C71.3062 54.2425 71.4123 54.1289 71.6089 53.9519C71.8743 53.7173 72.2015 53.5772 72.5449 53.5512C72.8833 53.5201 73.2222 53.6055 73.5121 53.795C73.7243 53.9419 73.8023 54.0888 73.7679 54.1322Z" fill="#263238"/>
<path d="M66.8193 56.513C66.8295 56.6808 66.7803 56.8465 66.6814 56.9771C66.5825 57.1078 66.4412 57.1936 66.2857 57.2177C66.2092 57.2309 66.1309 57.2276 66.0556 57.2079C65.9803 57.1882 65.9094 57.1525 65.8472 57.103C65.7849 57.0535 65.7326 56.9912 65.6932 56.9197C65.6539 56.8482 65.6283 56.7689 65.618 56.6867C65.6078 56.5189 65.657 56.3532 65.7559 56.2226C65.8548 56.092 65.9961 56.0061 66.1516 55.9821C66.2281 55.9693 66.3062 55.973 66.3813 55.9928C66.4565 56.0127 66.5272 56.0484 66.5893 56.0978C66.6515 56.1472 66.7038 56.2094 66.7433 56.2807C66.7828 56.352 66.8086 56.431 66.8193 56.513Z" fill="#263238"/>
<path d="M67.3966 54.84C67.328 54.9302 66.8412 54.6096 66.1923 54.6664C65.5433 54.7231 65.0878 55.1139 65.0129 55.0337C64.938 54.9536 65.0378 54.84 65.2344 54.6597C65.4998 54.4255 65.8272 54.2865 66.1704 54.2623C66.5099 54.2307 66.8499 54.3161 67.1408 54.5061C67.3529 54.653 67.4434 54.7999 67.3966 54.84Z" fill="#263238"/>
<path d="M70.1356 59.9961C70.4697 59.8505 70.82 59.7517 71.1777 59.7022C71.3431 59.6688 71.4897 59.6187 71.5147 59.4951C71.5162 59.3101 71.4638 59.1293 71.3649 58.9775L70.7721 57.6651C69.9453 55.795 69.3307 54.2488 69.4024 54.2154C69.4742 54.182 70.2012 55.6681 71.028 57.5382L71.6021 58.874C71.7224 59.0799 71.771 59.3247 71.7394 59.5653C71.7201 59.63 71.6874 59.6892 71.6436 59.7384C71.5998 59.7876 71.5461 59.8254 71.4866 59.8491C71.3957 59.8829 71.3015 59.9053 71.2058 59.9159C70.8537 59.9908 70.4941 60.0177 70.1356 59.9961Z" fill="#263238"/>
<path d="M67.1313 52.2455C67.0565 52.4292 66.4106 52.2956 65.6399 52.3457C64.8693 52.3958 64.2359 52.5761 64.1454 52.3991C64.1049 52.3156 64.2234 52.142 64.4824 51.975C64.8288 51.7734 65.2133 51.6582 65.6072 51.638C66.001 51.6178 66.3941 51.693 66.7569 51.8581C67.044 51.9951 67.1781 52.152 67.1313 52.2455Z" fill="#263238"/>
<path d="M73.4934 52.5154C73.3717 52.6857 72.8288 52.5755 72.1892 52.6323C71.5496 52.689 71.0223 52.8594 70.885 52.7057C70.8226 52.6323 70.885 52.4653 71.1159 52.2916C71.4256 52.0777 71.7808 51.9511 72.1485 51.9236C72.5162 51.8962 72.8844 51.9688 73.2188 52.1347C73.4559 52.2749 73.5464 52.4319 73.4934 52.5154Z" fill="#263238"/>
<path d="M60.6664 58.0063C60.5915 57.9795 57.6868 57.3384 58.0112 60.4274C58.3357 63.5164 61.1688 62.5346 61.1656 62.4311C61.1625 62.3276 60.6664 58.0063 60.6664 58.0063Z" fill="#FFBE9D"/>
<path d="M60.1607 61.379C60.1607 61.379 60.1139 61.4224 60.0328 61.4759C59.9187 61.5435 59.785 61.5626 59.6584 61.5293C59.3464 61.4458 59.0344 60.9582 58.9533 60.4005C58.9192 60.1361 58.9405 59.8669 59.0157 59.6124C59.032 59.5127 59.071 59.4189 59.1293 59.3391C59.1875 59.2593 59.2631 59.1961 59.3495 59.1549C59.4054 59.1318 59.467 59.1302 59.5239 59.1503C59.5808 59.1704 59.6294 59.211 59.6615 59.2651C59.7114 59.3486 59.699 59.4121 59.7146 59.4154C59.7302 59.4187 59.7707 59.3553 59.7333 59.2317C59.71 59.1565 59.6624 59.0926 59.5991 59.0514C59.5128 58.9962 59.4098 58.9794 59.3121 59.0046C59.1964 59.0449 59.0922 59.116 59.0092 59.2112C58.9263 59.3064 58.8673 59.4227 58.8378 59.549C58.744 59.8314 58.7151 60.1337 58.7536 60.4306C58.8378 61.0517 59.1966 61.5994 59.6272 61.6796C59.7074 61.695 59.7898 61.6907 59.8682 61.667C59.9465 61.6432 60.0189 61.6007 60.0796 61.5427C60.1607 61.4558 60.1701 61.3824 60.1607 61.379Z" fill="#EB996E"/>
<path d="M72.0702 47.1761C72.507 46.8421 70.922 45.3995 69.7114 44.992C67.8799 44.3742 65.1717 44.2006 63.6242 44.8952C61.7521 45.7301 60.2826 46.9623 59.5275 48.966C58.8122 50.9969 58.6151 53.195 58.9566 55.3345C59.0069 55.9955 59.2224 56.6299 59.5806 57.1712C60.0611 57.8023 60.8848 58.133 60.9565 59.078C60.9767 59.4247 61.1221 59.7493 61.3621 59.983C61.9612 60.514 62.5415 59.8661 62.7755 59.2617C63.2716 57.9693 63.178 56.5133 63.0875 55.1207C63.066 54.125 62.891 53.14 62.5696 52.2053C62.3699 51.7078 62.0891 51.2503 61.9144 50.7426C61.8135 50.4947 61.764 50.2263 61.7694 49.9559C61.7748 49.6855 61.8349 49.4195 61.9456 49.1764C62.0017 49.0797 62.0664 48.9891 62.139 48.9059C62.4986 48.4771 62.9583 48.1583 63.4709 47.9822C63.9836 47.8062 64.5307 47.7792 65.0563 47.9041C66.7505 48.3082 69.6334 48.8659 70.2918 48.1813C71.2278 47.1794 71.4243 46.6117 71.4243 46.6117L72.0702 47.1761Z" fill="#263238"/>
<path d="M68.3951 60.5936C68.3576 60.5936 68.3514 60.7773 68.4387 61.0377C68.559 61.3806 68.7774 61.674 69.0628 61.8759C69.337 62.0714 69.6427 62.2106 69.9645 62.2867C70.2047 62.3468 70.3607 62.3535 70.3732 62.3134C70.3857 62.2733 70.2546 62.1832 70.0362 62.0696C69.7591 61.9373 69.4921 61.7821 69.2375 61.6054C68.6571 61.208 68.4855 60.5669 68.3951 60.5936Z" fill="#263238"/>
<path d="M60.7599 58.4102C60.7849 58.4636 60.8067 58.5204 60.8317 58.5838C60.8317 58.5905 60.8036 58.5204 60.7599 58.4102Z" fill="#E12B41"/>
<path d="M59.771 57.922C59.771 57.922 60.2546 57.2541 60.7601 58.3962C60.1579 56.8801 56.1549 45.9165 67.1313 44.4705C67.1313 44.4705 63.1657 43.7225 60.7757 45.833C60.7757 45.8464 55.9146 48.9555 59.771 57.922Z" fill="#455A64"/>
<path d="M80.7596 113.284L55.2469 113.655C55.2469 113.655 48.1113 110.459 46.1519 110.372C44.1925 110.286 40.2986 110.553 38.4984 113.655C36.6263 116.861 36.3798 122.515 42.1114 126.622C47.6963 130.63 73.2278 134.323 76.7441 133.969L83.1777 124.712C83.1777 124.712 83.2463 117.115 83.1777 116.751C83.1091 116.387 82.0295 113.134 82.0295 113.134L80.7596 113.284Z" fill="#263238"/>
<path d="M65.4872 126.108L52.2675 131.361L58.2923 149.001C59.8305 148.279 59.8742 137.92 59.8742 137.92L68.4731 134.915L65.4872 126.108Z" fill="#E12B41"/>
<g opacity="0.6">
<path d="M58.7256 132.186C58.6197 132.036 58.4656 131.933 58.2928 131.896C58.1201 131.86 57.9409 131.893 57.7896 131.989C57.6425 132.097 57.5404 132.262 57.5049 132.449C57.4694 132.636 57.5032 132.83 57.5993 132.991C57.712 133.151 57.8763 133.261 58.0602 133.298C58.2442 133.336 58.4346 133.299 58.5946 133.195C58.7341 133.066 58.8214 132.884 58.8383 132.687C58.8551 132.49 58.8002 132.294 58.685 132.14" fill="white"/>
</g>
<path d="M52.2675 131.361L53.6028 130.833L58.907 147.975C58.907 147.975 58.857 148.886 58.3079 149L52.2675 131.361Z" fill="#263238"/>
<path d="M60.0546 138.174C59.9735 138.2 59.7925 137.783 59.3869 137.462C58.9813 137.142 58.5695 137.045 58.5726 136.955C58.5757 136.865 59.0874 136.808 59.5679 137.209C60.0484 137.609 60.1357 138.16 60.0546 138.174Z" fill="#263238"/>
<path d="M59.9739 140.301C59.9022 140.351 59.637 140.034 59.1971 139.873C58.7571 139.713 58.3702 139.77 58.3422 139.683C58.3141 139.596 58.754 139.349 59.2969 139.573C59.8398 139.796 60.0488 140.271 59.9739 140.301Z" fill="#263238"/>
<path d="M58.2643 142.161C58.2206 142.091 58.5763 141.827 59.0974 141.86C59.6184 141.894 59.9273 142.244 59.8711 142.308C59.815 142.371 59.4967 142.214 59.0724 142.181C58.6481 142.148 58.3017 142.244 58.2643 142.161Z" fill="#263238"/>
<path d="M61.9455 137.255C61.8582 137.255 61.8363 136.811 61.6335 136.337C61.4307 135.863 61.1624 135.539 61.2154 135.466C61.2685 135.392 61.6803 135.646 61.905 136.21C62.1296 136.775 62.0235 137.276 61.9455 137.255Z" fill="#263238"/>
<path d="M63.7584 136.067C63.7241 136.067 63.5587 135.76 63.4464 135.182C63.3915 134.842 63.3747 134.497 63.3965 134.153C63.4097 133.949 63.4358 133.746 63.4745 133.545C63.493 133.429 63.5277 133.317 63.5774 133.211C63.615 133.132 63.6763 133.069 63.7516 133.031C63.8268 132.994 63.9116 132.984 63.9924 133.004C64.063 133.025 64.128 133.064 64.1822 133.117C64.2364 133.169 64.2783 133.235 64.3044 133.308C64.3424 133.416 64.3666 133.528 64.3762 133.642C64.4364 134.196 64.3645 134.756 64.1671 135.272C63.9519 135.82 63.6991 136.077 63.6742 136.053C63.6492 136.03 63.8177 135.719 63.9675 135.195C64.0539 134.887 64.1032 134.568 64.1141 134.247C64.1184 134.058 64.109 133.869 64.086 133.682C64.0673 133.479 64.0143 133.318 63.9207 133.302C63.8863 133.302 63.8738 133.302 63.8333 133.355C63.7987 133.436 63.7735 133.521 63.7584 133.609C63.7194 133.794 63.6903 133.981 63.671 134.17C63.6436 134.494 63.6436 134.821 63.671 135.145C63.7194 135.45 63.7486 135.758 63.7584 136.067Z" fill="#263238"/>
<path d="M63.6027 136.003C63.5809 135.98 63.8118 135.696 64.3203 135.459C64.6181 135.326 64.9344 135.247 65.2564 135.225C65.4492 135.216 65.6425 135.226 65.8336 135.255C65.9587 135.26 66.0805 135.299 66.1872 135.37C66.2938 135.44 66.3816 135.539 66.442 135.656C66.4685 135.735 66.4729 135.82 66.4546 135.901C66.4363 135.983 66.3961 136.056 66.339 136.113C66.2589 136.198 66.1674 136.269 66.0676 136.324C65.8938 136.426 65.7065 136.499 65.5122 136.541C65.1863 136.614 64.8485 136.6 64.5294 136.498C63.9865 136.321 63.7681 136 63.7931 135.98C64.0488 136.098 64.3114 136.199 64.5793 136.28C64.8689 136.339 65.167 136.33 65.4529 136.254C65.618 136.211 65.7766 136.144 65.9241 136.053C66.0894 135.957 66.2049 135.83 66.1643 135.766C66.1237 135.703 65.9521 135.583 65.7868 135.566C65.6147 135.534 65.4403 135.518 65.2657 135.519C64.9661 135.525 64.6687 135.577 64.3827 135.673C63.9023 135.836 63.6308 136.047 63.6027 136.003Z" fill="#263238"/>
<path d="M76.3916 123.928L89.1839 130.273L81.8829 147.348C80.4009 146.503 81.1185 136.17 81.1185 136.17L72.7661 132.46L76.3916 123.928Z" fill="#E12B41"/>
<g opacity="0.6">
<path d="M82.6848 130.556C82.8014 130.419 82.9603 130.331 83.1324 130.31C83.3044 130.288 83.4779 130.334 83.6208 130.439C83.756 130.559 83.8433 130.729 83.8648 130.915C83.8862 131.102 83.8402 131.29 83.7363 131.441C83.6123 131.59 83.441 131.685 83.2555 131.707C83.07 131.73 82.8833 131.677 82.7316 131.561C82.6031 131.418 82.5313 131.228 82.5313 131.03C82.5313 130.832 82.6031 130.642 82.7316 130.499" fill="white"/>
</g>
<path d="M89.1835 130.279L87.8918 129.638L81.3615 146.282C81.3615 146.282 81.3459 147.197 81.8826 147.354L89.1835 130.279Z" fill="#263238"/>
<path d="M80.9189 136.401C81 136.434 81.2122 136.033 81.6397 135.733C82.0671 135.432 82.4852 135.399 82.4883 135.295C82.4914 135.192 81.986 135.108 81.4774 135.466C80.9688 135.823 80.8409 136.401 80.9189 136.401Z" fill="#263238"/>
<path d="M80.8597 138.541C80.9253 138.598 81.2123 138.3 81.6647 138.18C82.1171 138.06 82.4978 138.147 82.529 138.063C82.5602 137.98 82.1452 137.709 81.5929 137.873C81.0407 138.037 80.7724 138.504 80.8597 138.541Z" fill="#263238"/>
<path d="M82.4193 140.542C82.4692 140.471 82.1291 140.168 81.6112 140.171C81.0933 140.174 80.7563 140.485 80.8062 140.552C80.8561 140.618 81.1869 140.488 81.6143 140.492C82.0418 140.495 82.3694 140.618 82.4193 140.542Z" fill="#263238"/>
<path d="M79.1028 135.342C79.1902 135.342 79.2464 134.905 79.4772 134.45C79.7081 133.996 80.0045 133.692 79.9577 133.615C79.9109 133.539 79.4804 133.759 79.2152 134.283C78.95 134.808 79.0248 135.352 79.1028 135.342Z" fill="#263238"/>
<path d="M77.3837 134.006C77.418 134.023 77.6052 133.719 77.7456 133.151C77.8271 132.817 77.87 132.474 77.8735 132.129C77.8741 131.925 77.8626 131.721 77.8392 131.518C77.8307 131.398 77.8044 131.279 77.7612 131.168C77.7289 131.086 77.6722 131.018 77.5999 130.974C77.5276 130.931 77.4439 130.914 77.3619 130.927C77.29 130.943 77.2224 130.976 77.1645 131.024C77.1066 131.072 77.0599 131.134 77.028 131.204C76.982 131.31 76.9505 131.423 76.9344 131.538C76.8968 131.741 76.8769 131.946 76.8751 132.153C76.8744 132.501 76.9238 132.846 77.0218 133.178C77.0866 133.492 77.2376 133.778 77.4555 133.999C77.4991 133.973 77.3369 133.666 77.2277 133.118C77.1639 132.803 77.1377 132.481 77.1497 132.159C77.1593 131.971 77.1823 131.783 77.2183 131.598C77.2527 131.398 77.3182 131.241 77.4118 131.231C77.4492 131.231 77.4617 131.231 77.4929 131.294C77.5228 131.377 77.5417 131.464 77.5491 131.552C77.5759 131.741 77.5926 131.931 77.599 132.123C77.6069 132.448 77.5871 132.773 77.5397 133.094C77.4697 133.395 77.4176 133.699 77.3837 134.006Z" fill="#263238"/>
<path d="M77.5428 133.953C77.5678 133.929 77.3588 133.619 76.8689 133.348C76.5759 133.188 76.2592 133.083 75.9329 133.038C75.7416 133.011 75.5482 133.004 75.3557 133.018C75.2339 133.013 75.113 133.041 75.004 133.1C74.895 133.158 74.8014 133.245 74.7317 133.352C74.7008 133.429 74.6908 133.513 74.703 133.596C74.7151 133.679 74.7489 133.756 74.8003 133.819C74.8743 133.909 74.9606 133.987 75.0562 134.05C75.222 134.167 75.4042 134.256 75.5959 134.313C75.9143 134.414 76.251 134.427 76.5756 134.353C77.1341 134.223 77.3744 133.919 77.3494 133.899C77.0848 133.994 76.8149 134.071 76.5413 134.13C76.2501 134.166 75.955 134.133 75.6771 134.033C75.5155 133.976 75.3621 133.895 75.2215 133.792C75.0624 133.682 74.9563 133.545 75.0031 133.489C75.0499 133.432 75.2278 133.322 75.39 133.315C75.5644 133.298 75.7398 133.298 75.9142 133.315C76.2129 133.344 76.5061 133.42 76.7847 133.539C77.2589 133.762 77.5116 133.993 77.5428 133.953Z" fill="#263238"/>
<path d="M82.0297 113.138C82.0297 113.138 93.0467 108.733 97.1028 109.304C99.371 109.638 102.915 111.475 103.187 114.587C103.458 117.7 102.747 121.857 98.8188 123.884C94.8906 125.911 79.2497 133.425 75.5338 134.571C71.8178 135.716 62.5449 138.438 62.5449 138.438L59.0349 127.718C59.0349 127.718 78.2451 120.598 79.2591 119.8C80.2731 119.002 82.8409 117.92 82.8409 117.92L82.0297 113.138Z" fill="#263238"/>
<path d="M43.7307 114.6L43.8087 114.577L44.0302 114.506C44.2237 114.443 44.5107 114.353 44.8883 114.256C45.342 114.137 45.8027 114.051 46.2673 113.999C46.8838 113.939 47.5042 113.939 48.1206 113.999C48.8688 114.065 49.6082 114.216 50.3265 114.45C50.7261 114.577 51.1154 114.739 51.4903 114.934L52.6884 115.562C54.3389 116.403 56.1767 117.268 58.1392 118.096C62.0642 119.766 65.8333 120.581 68.5196 121.232C69.8675 121.566 70.9595 121.813 71.7083 122.007L72.5757 122.224L72.8004 122.281H72.8784L72.8035 122.254L72.5788 122.187C72.3854 122.131 72.0952 122.044 71.7208 121.944C70.972 121.74 69.8862 121.463 68.5383 121.132C65.8551 120.464 62.0954 119.643 58.1829 117.966C56.2235 117.138 54.3857 116.28 52.7352 115.442L51.5309 114.837C51.1497 114.642 50.7542 114.48 50.3484 114.353C49.6237 114.121 48.8779 113.973 48.1238 113.912C47.5011 113.851 46.8744 113.851 46.2517 113.912C45.7843 113.97 45.3214 114.064 44.8664 114.193C44.492 114.296 44.205 114.393 44.0146 114.463L43.7962 114.55C43.7727 114.564 43.7507 114.581 43.7307 114.6Z" fill="#455A64"/>
<path d="M44.3077 113.044C44.3077 113.064 44.6447 113.001 45.1845 112.937C45.886 112.858 46.5922 112.837 47.2968 112.874C48.0029 112.914 48.705 113.013 49.3966 113.171C49.927 113.291 50.2515 113.392 50.2546 113.371C50.1854 113.331 50.1121 113.3 50.0362 113.278C49.8315 113.202 49.6232 113.137 49.4122 113.084C48.0252 112.713 46.5841 112.634 45.1689 112.851C44.9006 112.891 44.6821 112.934 44.5449 112.974C44.4636 112.988 44.384 113.011 44.3077 113.044Z" fill="#455A64"/>
<path d="M86.666 116.256C86.666 116.276 86.978 116.023 87.5116 115.672C88.8899 114.758 90.4363 114.174 92.045 113.959C92.669 113.879 93.0497 113.869 93.0466 113.845C92.9563 113.835 92.8654 113.835 92.7751 113.845C92.5282 113.844 92.2814 113.856 92.0357 113.882C90.4034 114.051 88.8343 114.643 87.4648 115.609C87.2058 115.796 86.9999 115.943 86.8657 116.076C86.7931 116.128 86.7261 116.189 86.666 116.256Z" fill="#455A64"/>
<path d="M81.1372 132.276L81.0498 132.312L80.8002 132.426C80.5787 132.519 80.2573 132.683 79.8268 132.86C78.9687 133.224 77.6989 133.725 76.0827 134.296C72.8284 135.435 68.1484 136.884 62.551 138.394L62.6165 138.43C61.5713 135.331 60.4324 131.908 59.2094 128.312L59.175 128.392L63.3871 126.538L86.7283 116.256C87.68 115.181 88.5536 114.232 89.3742 113.464C90.0678 112.808 90.8084 112.21 91.5894 111.678C92.0808 111.347 92.588 111.044 93.1089 110.769L93.5176 110.566L93.6549 110.492L93.5145 110.556L93.0995 110.749C92.5738 111.015 92.0623 111.311 91.5676 111.638C90.7801 112.166 90.0331 112.76 89.3336 113.414C88.5068 114.179 87.6269 115.124 86.6722 116.196C80.9843 118.694 72.6319 122.361 63.3185 126.438L59.1002 128.295L59.0471 128.318L59.0658 128.375C60.2827 131.972 61.4371 135.388 62.4823 138.491L62.4979 138.537H62.5478C68.1452 137.014 72.8191 135.548 76.0702 134.393C77.6957 133.809 78.9625 133.301 79.8143 132.924C80.2417 132.743 80.5631 132.573 80.7815 132.473L81.028 132.349L81.1372 132.276Z" fill="#455A64"/>
<path d="M53.9019 75.5547C53.9019 75.5547 50.7319 77.5116 50.0892 79.8092C49.6961 81.2051 46.7383 99.0547 46.2703 102.575C45.8022 106.094 46.7882 108.703 48.1922 109.871C49.5962 111.04 53.8458 112.593 53.8458 112.593L59.8269 114.667L61.5398 109.992L55.8488 101.239L56.398 95.3412L53.9019 75.5547Z" fill="#E12B41"/>
<path d="M60.1392 72.473L62.1173 70.9101C62.1173 70.9101 64.6945 73.732 67.6554 73.3981C70.6163 73.0641 72.3698 70.6396 72.3698 70.6396L81.1996 72.5665C81.7924 72.6934 82.872 73.0942 83.9047 74.6738C85.0591 76.437 90.5224 84.2514 90.5224 84.2514H94.3476C94.865 84.2517 95.3726 84.4029 95.8157 84.6889C96.2588 84.9749 96.6206 85.3847 96.8623 85.8744C97.5144 87.2102 98.2976 88.9868 98.2227 89.7249C98.0916 90.9705 98.3163 94.4002 96.7563 95.4621C96.2602 95.7961 94.4848 96.8179 93.112 96.7512C91.0808 96.6476 88.7221 95.5155 87.3649 94.5003C86.2136 93.6387 83.5397 90.6633 82.51 89.4911V89.5078L81.8486 114.3L58.7071 113.606L53.9022 75.5554C53.9022 75.5554 59.9052 72.473 60.1392 72.473Z" fill="#E12B41"/>
<path d="M82.5909 79.1152C82.5597 79.1152 82.5004 82.1876 82.4567 85.9779C82.413 89.7682 82.4068 92.8406 82.4411 92.8406C82.4754 92.8406 82.5347 89.7716 82.5753 85.9779C82.6158 82.1842 82.6252 79.1152 82.5909 79.1152Z" fill="#263238"/>
<path d="M51.1003 99.1552C51.1003 99.1552 51.2968 99.1886 51.6463 99.2588C52.1394 99.3643 52.6198 99.529 53.0784 99.7497C53.7592 100.076 54.4004 100.49 54.9879 100.982C55.7093 101.589 56.3824 102.259 57.0003 102.986C57.6618 103.75 58.2671 104.508 58.8349 105.18C59.332 105.782 59.8579 106.356 60.4106 106.9C60.7843 107.262 61.1804 107.596 61.5962 107.901C61.7428 108.015 61.8645 108.088 61.9425 108.142C61.9816 108.171 62.0234 108.196 62.0673 108.215C62.0343 108.178 61.9965 108.147 61.955 108.122C61.8801 108.058 61.7647 107.978 61.6243 107.861C61.2199 107.538 60.8334 107.19 60.4667 106.819C60.0018 106.355 59.4777 105.764 58.9067 105.09C58.3357 104.415 57.7429 103.654 57.0783 102.885C56.4552 102.156 55.7746 101.486 55.044 100.882C54.4474 100.389 53.7955 99.9785 53.1034 99.6595C52.637 99.4445 52.1476 99.292 51.6463 99.2053C51.51 99.1803 51.3725 99.1636 51.2344 99.1552C51.1899 99.1501 51.1449 99.1501 51.1003 99.1552Z" fill="#263238"/>
<path d="M50.5763 97.4751C50.5763 97.4985 50.9257 97.5519 51.478 97.7156C52.9238 98.1413 54.2356 98.9766 55.2751 100.133C55.6745 100.574 55.8991 100.881 55.8991 100.868C55.8641 100.786 55.819 100.71 55.765 100.641C55.6332 100.441 55.4893 100.25 55.3344 100.07C54.3152 98.8629 52.9801 98.0122 51.503 97.6287C51.2814 97.5679 51.0562 97.5232 50.829 97.4952C50.7456 97.4793 50.661 97.4726 50.5763 97.4751Z" fill="#263238"/>
<g opacity="0.3">
<path d="M93.6521 93.1238C92.4259 93.4811 90.9532 91.5943 89.8394 90.4121C89.2622 89.7977 88.66 89.1431 88.4478 88.3016C88.2947 87.5935 88.3615 86.8514 88.6382 86.1877C88.8453 85.5894 89.1187 85.0198 89.4525 84.4912C89.3527 85.5098 89.1155 87.0726 89.4369 88.3517C89.7052 89.417 90.3355 90.2685 90.9969 91.0733C91.6584 91.8782 92.557 92.8199 93.6427 93.1238" fill="black"/>
</g>
<path d="M88.4222 92.0453C88.4472 92.0453 88.3037 91.6111 88.1882 90.8998C88.1236 90.4834 88.0861 90.0628 88.0759 89.6408C88.071 89.1245 88.1044 88.6086 88.1758 88.098C88.2542 87.5889 88.3711 87.0874 88.5252 86.5986C88.6564 86.1997 88.8138 85.8114 88.9963 85.4364C89.3083 84.7986 89.5673 84.4346 89.5486 84.4346C89.4763 84.5074 89.4124 84.5893 89.3583 84.6783C89.2864 84.7748 89.2208 84.8763 89.1617 84.9822C89.0749 85.118 88.9947 85.2584 88.9215 85.403C88.727 85.7759 88.5601 86.1645 88.4222 86.5652C88.2595 87.0593 88.1374 87.5678 88.0572 88.0846C87.9855 88.603 87.9553 89.127 87.9667 89.6509C87.9817 90.0783 88.0287 90.5038 88.1071 90.9232C88.1352 91.1035 88.1789 91.2572 88.2132 91.4041C88.2408 91.5238 88.2741 91.642 88.313 91.7581C88.3426 91.8566 88.3791 91.9527 88.4222 92.0453Z" fill="#263238"/>
<path d="M71.4055 71.6142C71.4055 71.6476 71.6614 71.8179 71.9453 72.0884C72.2292 72.3589 72.4352 72.6161 72.4352 72.5927C72.3356 72.3577 72.1916 72.1473 72.0122 71.9749C71.8328 71.8024 71.622 71.6717 71.3931 71.5908L71.4055 71.6142Z" fill="#263238"/>
<path d="M69.003 73.0967C68.9781 73.1234 69.2089 73.3906 69.3961 73.7846C69.5834 74.1787 69.6551 74.536 69.6926 74.5327C69.7061 74.25 69.6397 73.9696 69.5022 73.7278C69.4009 73.4672 69.2265 73.2466 69.003 73.0967Z" fill="#263238"/>
<path d="M64.8724 74.6505C64.9813 74.4135 65.07 74.1665 65.1376 73.9125C65.2405 73.6718 65.319 73.4199 65.3716 73.1611C65.0796 73.5986 64.9068 74.1142 64.8724 74.6505Z" fill="#263238"/>
<path d="M62.2174 73.3078C62.2517 73.3078 62.3422 72.8836 62.6043 72.4261C62.8664 71.9686 63.1784 71.6814 63.1534 71.6514C62.8759 71.8143 62.65 72.0619 62.5045 72.3627C62.3251 72.6412 62.2254 72.9696 62.2174 73.3078Z" fill="#263238"/>
<path d="M54.5946 81.3359C54.5634 81.3359 54.9534 84.7289 55.4713 88.8999C55.9893 93.0709 56.4292 96.4505 56.4635 96.4471C56.4978 96.4438 56.1047 93.0542 55.5868 88.8832C55.0688 84.7122 54.6289 81.3326 54.5946 81.3359Z" fill="#263238"/>
<path d="M89.2836 86.8194C89.2719 86.9359 89.2719 87.0534 89.2836 87.17C89.2908 87.3068 89.3064 87.4429 89.3304 87.5774C89.346 87.6576 89.3585 87.7411 89.3709 87.8312C89.3834 87.9214 89.4146 88.0116 89.4396 88.1084C89.5507 88.5684 89.7033 89.0157 89.8951 89.4442C90.1336 89.965 90.4178 90.4603 90.7438 90.9236C91.0778 91.3817 91.4576 91.7994 91.8763 92.1692C92.2211 92.4687 92.6034 92.7149 93.0121 92.9006C93.0994 92.9406 93.1805 92.9807 93.2617 93.0108L93.4925 93.0809L93.6953 93.141C93.7577 93.141 93.817 93.1577 93.8701 93.1644C93.9732 93.1828 94.0775 93.1929 94.1821 93.1944C93.7876 93.1112 93.4019 92.9859 93.0308 92.8204C92.637 92.6237 92.268 92.3746 91.9325 92.0791C91.5235 91.7103 91.1522 91.2961 90.8249 90.8434C90.5037 90.3879 90.2207 89.9029 89.9793 89.3941C89.7882 88.9735 89.6295 88.5368 89.5051 88.0884C89.321 87.3103 89.3148 86.816 89.2836 86.8194Z" fill="#263238"/>
<g opacity="0.3">
<path d="M55.3401 115.158C54.3573 114.65 54.1358 113.288 54.0359 112.126C53.7427 108.719 53.4483 105.314 53.153 101.91C53.0157 100.307 52.9502 98.4804 54.0047 97.335C54.9688 96.2897 56.5008 96.2263 57.8705 96.2296C66.3415 96.2563 73.8234 96.5235 82.2944 96.5636L81.8638 112.426L55.3401 115.158Z" fill="black"/>
</g>
<path d="M85.9451 98.9978L85.0435 117.395C85.0259 117.736 84.8867 118.058 84.6545 118.292C84.4223 118.527 84.1149 118.658 83.7954 118.657L56.42 118.711C56.0995 118.711 55.7912 118.58 55.5588 118.343C55.3265 118.107 55.188 117.784 55.1719 117.442L54.1267 99.3551C54.0924 98.6071 54.5916 97.6052 55.303 97.5919H84.6846C84.8552 97.5898 85.0244 97.6252 85.1818 97.6958C85.3391 97.7665 85.4812 97.8709 85.5993 98.0027C85.7175 98.1345 85.8091 98.2907 85.8686 98.4619C85.9281 98.6331 85.9541 98.8154 85.9451 98.9978Z" fill="#E0E0E0"/>
<path d="M85.9451 98.9985C85.9464 98.9763 85.9464 98.954 85.9451 98.9317C85.9504 98.8628 85.9504 98.7936 85.9451 98.7247C85.9126 98.4915 85.8231 98.2716 85.6855 98.0874C85.548 97.9033 85.3673 97.7614 85.1619 97.6761C84.9504 97.5935 84.7251 97.5593 84.5005 97.5759H82.8375L72.2293 97.5559L56.4948 97.5392H55.3778C55.1791 97.5295 54.9823 97.5842 54.8131 97.6961C54.6474 97.8101 54.5051 97.9589 54.395 98.1336C54.1716 98.4828 54.052 98.896 54.0518 99.3191C54.0736 99.7299 54.0986 100.144 54.1204 100.558C54.214 102.228 54.3138 103.898 54.4106 105.624C54.6102 109.067 54.8162 112.637 55.0346 116.28L55.0751 116.948C55.0939 117.179 55.0907 117.399 55.1282 117.64C55.1722 117.873 55.2709 118.09 55.415 118.271C55.5591 118.452 55.7438 118.591 55.9519 118.675C56.1582 118.751 56.3767 118.783 56.5946 118.768H58.4666H63.3808L72.6723 118.745L81.0809 118.725H83.0216H83.4958C83.6573 118.727 83.8188 118.72 83.9794 118.702C84.2964 118.655 84.5862 118.485 84.7939 118.225C85.0016 117.964 85.1126 117.631 85.1058 117.289C85.1214 116.955 85.137 116.654 85.1526 116.341C85.1838 115.713 85.2118 115.102 85.2399 114.504C85.4677 109.718 85.6518 105.844 85.7766 103.15C85.839 101.814 85.8858 100.775 85.917 100.067C85.9326 99.7165 85.9451 99.4494 85.9513 99.2657C85.9575 99.082 85.9513 98.9919 85.9513 98.9919L85.9326 99.2657C85.9326 99.4494 85.9076 99.7165 85.8889 100.067C85.8515 100.775 85.7953 101.81 85.7267 103.15C85.5894 105.821 85.3928 109.698 85.1494 114.484C85.1214 115.082 85.0902 115.696 85.059 116.32C85.0444 116.634 85.0288 116.952 85.0122 117.272C85.0157 117.589 84.9139 117.897 84.7251 118.141C84.5303 118.385 84.2582 118.544 83.9607 118.588C83.807 118.6 83.6527 118.6 83.4989 118.588H81.0778H72.6692H63.3776H58.4635H56.5915C56.3886 118.603 56.185 118.575 55.9924 118.505C55.8028 118.428 55.6343 118.301 55.5028 118.136C55.3714 117.97 55.2811 117.772 55.2405 117.559C55.2062 117.352 55.2062 117.112 55.1906 116.892L55.15 116.224C54.9379 112.574 54.7319 109.01 54.526 105.567C54.4262 103.847 54.3263 102.154 54.214 100.501C54.1922 100.087 54.1672 99.6764 54.1454 99.2657C54.1428 98.8689 54.2515 98.4803 54.4574 98.1503C54.548 97.9836 54.6784 97.8457 54.8352 97.7506C54.992 97.6556 55.1695 97.6068 55.3497 97.6093H56.4667H72.1981L82.8063 97.5893H84.4693C84.6902 97.5694 84.9125 97.6001 85.1214 97.6794C85.2935 97.7516 85.4473 97.866 85.5707 98.0134C85.7441 98.2064 85.8593 98.4507 85.9014 98.7147C85.9207 98.8084 85.9352 98.9031 85.9451 98.9985Z" fill="#263238"/>
<path d="M68.2079 107.978C68.2079 108.32 68.3025 108.654 68.4797 108.938C68.657 109.222 68.9089 109.443 69.2037 109.574C69.4984 109.704 69.8227 109.738 70.1357 109.672C70.4486 109.605 70.736 109.441 70.9616 109.199C71.1872 108.958 71.3408 108.65 71.403 108.315C71.4653 107.98 71.4333 107.633 71.3112 107.318C71.1892 107.002 70.9824 106.733 70.7171 106.543C70.4519 106.353 70.14 106.252 69.821 106.252C69.3934 106.253 68.9836 106.435 68.6813 106.759C68.3789 107.082 68.2087 107.521 68.2079 107.978Z" fill="white"/>
<path d="M68.2075 107.978C68.2231 107.978 68.2075 107.825 68.2823 107.564C68.3774 107.195 68.585 106.871 68.872 106.643C69.1038 106.456 69.3794 106.343 69.668 106.315C69.9565 106.287 70.2466 106.346 70.5057 106.485C70.7649 106.624 70.9828 106.837 71.1351 107.1C71.2874 107.364 71.3681 107.668 71.3681 107.978C71.3682 108.223 71.318 108.465 71.221 108.687C71.1241 108.908 70.9828 109.104 70.8072 109.261C70.6315 109.418 70.4258 109.532 70.2046 109.594C69.9835 109.656 69.7522 109.665 69.5272 109.621C69.2874 109.576 69.0608 109.47 68.8658 109.314C68.5787 109.086 68.3711 108.761 68.2761 108.392C68.2106 108.132 68.2168 107.978 68.2012 107.978C68.1964 108.015 68.1964 108.052 68.2012 108.089C68.2019 108.195 68.2134 108.302 68.2355 108.406C68.3177 108.795 68.5241 109.141 68.819 109.384C69.0229 109.553 69.2614 109.667 69.5148 109.718C69.8066 109.779 70.1083 109.755 70.3884 109.648C70.7006 109.531 70.9717 109.314 71.1653 109.027C71.3645 108.739 71.4779 108.394 71.4905 108.036C71.5031 107.678 71.4143 107.324 71.2359 107.021C71.0574 106.718 70.7976 106.48 70.4904 106.338C70.1833 106.196 69.8432 106.157 69.5148 106.225C69.2613 106.276 69.0228 106.39 68.819 106.559C68.5238 106.804 68.3175 107.151 68.2355 107.541C68.2132 107.645 68.2017 107.751 68.2012 107.858C68.1976 107.898 68.1997 107.939 68.2075 107.978Z" fill="#263238"/>
<path d="M85.025 101.042C84.9907 101.042 84.8565 104.131 84.713 107.945C84.5695 111.758 84.4977 114.854 84.532 114.854C84.5664 114.854 84.6974 111.765 84.844 107.951C84.9907 104.138 85.0562 101.042 85.025 101.042Z" fill="#263238"/>
<path d="M93.2522 77.0407C93.4114 76.8938 92.7125 74.0051 92.7125 74.0051C92.7125 74.0051 94.5689 70.7625 94.6188 69.7172C94.6688 68.6719 93.8856 66.5246 93.8856 66.5246L88.5565 65.0586C88.5565 65.0586 86.8467 68.4615 86.5035 69.6638C86.1603 70.866 87.0995 74.9535 87.0995 74.9535L88.0012 77.0474C88.0012 77.0474 90.7156 79.3416 93.2522 77.0407Z" fill="#FFBE9D"/>
<path d="M94.6064 70.3415C94.8146 69.9307 95.0021 69.5082 95.168 69.0758C95.5049 68.2176 95.9199 67.3794 95.168 66.8985C95.0511 66.816 94.919 66.7614 94.7806 66.7383C94.6423 66.7153 94.5009 66.7243 94.3661 66.7649C94.3661 66.7649 94.4816 66.0436 94.0791 65.763C93.9625 65.6843 93.83 65.6366 93.6927 65.6238C93.5554 65.611 93.4172 65.6336 93.2897 65.6896C93.2897 65.6896 93.4145 64.6877 92.8373 64.2436C92.6195 64.0902 92.3662 64.0046 92.1056 63.9964C91.845 63.9881 91.5874 64.0575 91.3615 64.1968C91.3615 64.1968 91.8201 59.7486 91.8607 59.5215C92.0042 58.6566 91.7078 57.8919 90.9028 58.1056C90.6064 58.1824 90.4442 58.5163 90.0979 59.9657C89.7515 61.415 89.1962 63.8863 89.1962 63.8863C89.1962 63.8863 88.2601 65.6261 87.8202 66.5578C87.3803 67.4896 86.5035 69.6502 86.4318 70.2313C86.2415 71.704 87.0558 73.6543 87.0558 73.6543L92.7187 73.9882C92.7187 73.9882 94.3911 70.7623 94.6064 70.3415Z" fill="#FFBE9D"/>
<path d="M94.2537 66.9561C94.093 67.167 93.947 67.3902 93.8169 67.624L93.3676 68.3553C93.274 68.4987 93.1926 68.6506 93.1242 68.8095C93.0444 68.9894 93.0214 69.1921 93.0587 69.3872C93.075 69.4895 93.1166 69.5853 93.1791 69.6645C93.2417 69.7438 93.3229 69.8037 93.4144 69.838C93.5858 69.8835 93.7669 69.8597 93.923 69.7712C94.0554 69.6998 94.1818 69.616 94.3005 69.5208C94.4128 69.434 94.5158 69.3538 94.6125 69.2737C94.7966 69.12 94.9401 68.9898 95.0337 68.8963C95.1273 68.8028 95.1804 68.746 95.1741 68.7393C95.1679 68.7327 94.9401 68.9163 94.5501 69.2035C94.3363 69.3763 94.1099 69.5305 93.873 69.6644C93.741 69.7359 93.5895 69.7548 93.4456 69.7178C93.3735 69.6905 93.3097 69.6429 93.2608 69.5801C93.2119 69.5172 93.1798 69.4413 93.1679 69.3605C93.1377 69.1913 93.1573 69.0163 93.2241 68.8596C93.2891 68.7058 93.3663 68.5583 93.4549 68.4187L93.8793 67.674C94.0228 67.4465 94.1481 67.2063 94.2537 66.9561Z" fill="#EB996E"/>
<path d="M89.5955 67.4873C89.6466 67.1684 89.6262 66.8411 89.5362 66.5322C89.4855 66.2146 89.3646 65.9147 89.1837 65.6572C89.1525 65.6739 89.3116 66.0613 89.4208 66.5622C89.53 67.0632 89.5737 67.4873 89.5955 67.4873Z" fill="#EB996E"/>
<path d="M87.3648 68.786C87.8866 68.2438 88.5447 67.8759 89.2587 67.7274C89.9701 67.5816 90.6981 67.5523 91.4178 67.6406C91.9919 67.694 92.6658 67.8543 92.9123 68.4053C93.1588 68.9563 92.8592 69.7077 92.3476 70.0317C91.8101 70.3181 91.2024 70.4173 90.6097 70.3155C90.0221 70.2117 89.4247 70.1859 88.8312 70.2387" fill="#FFBE9D"/>
<path d="M88.8316 70.2385C88.8316 70.2385 88.9907 70.2385 89.2777 70.2385C89.684 70.2573 90.0891 70.2986 90.4914 70.3621C90.7738 70.4004 91.0588 70.4127 91.3432 70.3988C91.6751 70.3884 92.001 70.3007 92.298 70.1417C92.6316 69.9568 92.8854 69.6408 93.0062 69.2601C93.0715 69.0572 93.0855 68.8394 93.0468 68.6289C92.9992 68.4129 92.8902 68.2181 92.7348 68.0712C92.4213 67.8087 92.0426 67.6508 91.6459 67.617C91.2885 67.573 90.9292 67.5496 90.5694 67.5469C89.9581 67.5347 89.3493 67.6341 88.7692 67.8408C88.3778 67.9817 88.0117 68.1929 87.6865 68.4653C87.6004 68.5394 87.5181 68.6186 87.44 68.7024C87.387 68.7625 87.362 68.7959 87.3651 68.7992C87.3682 68.8025 87.4837 68.6823 87.7146 68.502C88.0442 68.2506 88.4084 68.0557 88.7941 67.9243C89.3691 67.7367 89.9685 67.6488 90.5694 67.6638C90.924 67.6704 91.2781 67.6961 91.6303 67.7406C92.0026 67.7725 92.3583 67.9199 92.6536 68.1647C92.7913 68.2952 92.8882 68.4677 92.9313 68.6589C92.9658 68.8473 92.9529 69.0421 92.8939 69.2233C92.7832 69.574 92.5509 69.8657 92.2449 70.0382C91.9629 70.1924 91.6533 70.2801 91.337 70.2953C91.0581 70.3099 90.7786 70.302 90.5008 70.2719C90.0953 70.2145 89.6867 70.1866 89.2777 70.1884C89.167 70.1926 89.0565 70.2038 88.947 70.2218C88.869 70.2218 88.8316 70.2318 88.8316 70.2385Z" fill="#EB996E"/>
<path d="M94.2133 67.0254C93.6174 67.9938 93.0901 69.0591 92.5878 70.0877C92.4683 70.4013 92.2722 70.6746 92.0199 70.8791C91.8047 71.0194 91.2711 70.7623 91.034 70.6754L92.6689 66.6914" fill="#FFBE9D"/>
<path d="M92.6692 66.6914C92.6134 66.7858 92.5654 66.8853 92.5257 66.9886L92.1638 67.8235C91.8518 68.5315 91.443 69.5266 90.9813 70.6487L90.9532 70.7122L91.0156 70.7355C91.2023 70.8156 91.3929 70.8847 91.5866 70.9426C91.6684 70.9646 91.7519 70.978 91.8362 70.9827C91.8814 70.9852 91.9268 70.9795 91.9703 70.966C92.0147 70.9546 92.0563 70.9329 92.092 70.9025C92.2239 70.8007 92.3362 70.6725 92.4227 70.5251C92.5912 70.2413 92.7098 69.9574 92.8439 69.6969C93.0998 69.166 93.3338 68.6951 93.5397 68.2977C93.7456 67.9003 93.9141 67.5864 94.0358 67.3693C94.1025 67.2627 94.1619 67.1511 94.2136 67.0354C94.1308 67.1388 94.0577 67.2506 93.9952 67.3693C93.8642 67.5797 93.6832 67.8869 93.468 68.2777C93.2527 68.6684 93.0093 69.1393 92.7472 69.6669C92.6099 69.9274 92.4851 70.2179 92.326 70.4817C92.2435 70.6139 92.1375 70.7273 92.014 70.8157C91.9508 70.8509 91.8813 70.8709 91.8101 70.8743C91.739 70.8778 91.668 70.8646 91.6022 70.8357C91.4118 70.7784 91.2243 70.7104 91.0405 70.632L91.0749 70.7188C91.5366 69.5901 91.9391 68.5916 92.2231 67.8736L92.5507 67.022C92.5995 66.9159 92.6391 66.8052 92.6692 66.6914Z" fill="#EB996E"/>
<path d="M93.1117 65.5064C92.5855 66.9179 92.0592 68.3293 91.533 69.7408C91.4363 70.0478 91.2929 70.3355 91.1086 70.5924C91.0138 70.7184 90.8919 70.8178 90.7534 70.8824C90.6148 70.9469 90.4637 70.9746 90.313 70.9631C90.1113 70.9066 89.9331 70.7796 89.8065 70.6024C89.6799 70.4251 89.6122 70.2077 89.6141 69.9846C89.6266 69.5388 89.7265 69.1008 89.9074 68.6989C90.3811 67.4124 90.7598 66.0882 91.04 64.7383" fill="#FFBE9D"/>
<path d="M91.0403 64.7383C91.0215 64.7784 91.0078 64.8211 90.9997 64.8652L90.9061 65.2392C90.825 65.5732 90.7064 66.034 90.541 66.6084C90.3757 67.1828 90.1573 67.8607 89.8858 68.6121C89.7197 68.9962 89.6082 69.4049 89.5551 69.8243C89.5402 70.0545 89.5822 70.2849 89.6768 70.4922C89.7697 70.7168 89.9394 70.8949 90.151 70.9898C90.2587 71.0314 90.3734 71.0479 90.4875 71.0381C90.6016 71.0283 90.7124 70.9925 90.8125 70.933C91.0031 70.822 91.1633 70.6597 91.2774 70.4622C91.4672 70.0947 91.6269 69.7104 91.7548 69.3134C92.0262 68.5754 92.2696 67.9108 92.4755 67.3431L92.9529 66.0073C93.0028 65.8604 93.0433 65.7401 93.0745 65.6433C93.0918 65.6016 93.1043 65.5579 93.112 65.513C93.0866 65.5497 93.0666 65.5902 93.0527 65.6333C93.0153 65.7301 92.9653 65.847 92.9092 65.9906L92.4037 67.2997C92.1916 67.864 91.9388 68.5253 91.6611 69.26C91.5323 69.6484 91.3737 70.0249 91.1869 70.3854C91.0828 70.5631 90.9378 70.7091 90.7657 70.8095C90.6807 70.8613 90.5862 70.893 90.4888 70.9022C90.3913 70.9114 90.2931 70.898 90.201 70.8629C90.0182 70.7778 89.8714 70.6231 89.7891 70.4288C89.7025 70.2391 89.6648 70.0281 89.6799 69.8177C89.7267 69.4109 89.8319 69.0144 89.9919 68.6422C90.2602 67.8974 90.4662 67.2128 90.6159 66.6385C90.7657 66.0641 90.8811 65.5832 90.9498 65.2559C90.981 65.0889 91.0059 64.962 91.0215 64.8752C91.0336 64.8307 91.0399 64.7846 91.0403 64.7383Z" fill="#EB996E"/>
<path d="M96.7404 87.393C96.5969 86.8319 92.9964 75.4343 92.9964 75.4343L87.0433 74.6729L89.4769 84.491C89.4769 84.491 89.0994 86.9856 89.4769 88.4616C89.8544 89.9377 92.909 93.9551 94.469 92.99C96.0291 92.0249 96.8808 87.954 96.7404 87.393Z" fill="#FFBE9D"/>
<path d="M89.4645 73.6651C89.5797 73.6803 89.6967 73.6642 89.8046 73.6184C90.0721 73.5292 90.3179 73.3779 90.5245 73.1752C90.731 72.9726 90.8933 72.7237 90.9995 72.4462C91.0505 72.3352 91.0751 72.2125 91.0713 72.0889C90.9225 72.461 90.711 72.8006 90.4473 73.0907C90.1563 73.3465 89.8228 73.5413 89.4645 73.6651Z" fill="#EB996E"/>
</svg>
